<svg xmlns="http://www.w3.org/2000/svg" viewBox="0 0 102.4 76.8"><defs><style>.cls-1{fill:#5e5e5e;}</style></defs><g id="Layer_2" data-name="Layer 2"><g id="レイヤー_1" data-name="レイヤー 1"><path class="cls-1" d="M100.46,25.36a1.2,1.2,0,0,1,1.94.94V67.2a9.6,9.6,0,0,1-9.6,9.6H9.6A9.6,9.6,0,0,1,0,67.2V26.32a1.2,1.2,0,0,1,1.94-.94c4.48,3.48,10.42,7.9,30.82,22.72C37,51.18,44.1,57.66,51.2,57.62s14.4-6.56,18.46-9.52C90.06,33.28,96,28.84,100.46,25.36ZM51.2,51.2c4.64.08,11.32-5.84,14.68-8.28C92.42,23.66,94.44,22,100.56,17.18a4.79,4.79,0,0,0,1.84-3.78V9.6A9.6,9.6,0,0,0,92.8,0H9.6A9.6,9.6,0,0,0,0,9.6v3.8a4.82,4.82,0,0,0,1.84,3.78C8,22,10,23.66,36.52,42.92c3.36,2.44,10,8.36,14.68,8.28Z"/></g></g></svg>