<svg xmlns="http://www.w3.org/2000/svg" width="392.327" height="638.602" viewBox="0 0 392.327 638.602">
  <g id="レイヤー_2" data-name="レイヤー 2">
    <g id="_058" data-name="058">
      <g>
        <polyline points="391.327 448.342 391.327 451.342 388.327 451.342" fill="none" stroke="#00a49e" stroke-miterlimit="10" stroke-width="2"/>
        <line x1="382.311" y1="451.342" x2="120.617" y2="451.342" fill="none" stroke="#00a49e" stroke-miterlimit="10" stroke-width="2" stroke-dasharray="6.016 6.016"/>
        <polyline points="117.609 451.342 114.609 451.342 114.609 448.342" fill="none" stroke="#00a49e" stroke-miterlimit="10" stroke-width="2"/>
        <line x1="114.609" y1="442.287" x2="114.609" y2="191.001" fill="none" stroke="#00a49e" stroke-miterlimit="10" stroke-width="2" stroke-dasharray="6.055 6.055"/>
        <polyline points="114.609 187.974 114.609 184.974 117.609 184.974" fill="none" stroke="#00a49e" stroke-miterlimit="10" stroke-width="2"/>
        <line x1="123.625" y1="184.974" x2="385.319" y2="184.974" fill="none" stroke="#00a49e" stroke-miterlimit="10" stroke-width="2" stroke-dasharray="6.016 6.016"/>
        <polyline points="388.327 184.974 391.327 184.974 391.327 187.974" fill="none" stroke="#00a49e" stroke-miterlimit="10" stroke-width="2"/>
        <line x1="391.327" y1="194.029" x2="391.327" y2="445.314" fill="none" stroke="#00a49e" stroke-miterlimit="10" stroke-width="2" stroke-dasharray="6.055 6.055"/>
      </g>
      <g>
        <polyline points="391.327 634.602 391.327 637.602 388.327 637.602" fill="none" stroke="#00a49e" stroke-miterlimit="10" stroke-width="2"/>
        <line x1="382.312" y1="637.602" x2="120.617" y2="637.602" fill="none" stroke="#00a49e" stroke-miterlimit="10" stroke-width="2" stroke-dasharray="6.016 6.016"/>
        <polyline points="117.609 637.602 114.609 637.602 114.609 634.602" fill="none" stroke="#00a49e" stroke-miterlimit="10" stroke-width="2"/>
        <line x1="114.609" y1="628.653" x2="114.609" y2="476.958" fill="none" stroke="#00a49e" stroke-miterlimit="10" stroke-width="2" stroke-dasharray="5.949 5.949"/>
        <polyline points="114.609 473.984 114.609 470.984 117.609 470.984" fill="none" stroke="#00a49e" stroke-miterlimit="10" stroke-width="2"/>
        <line x1="123.625" y1="470.984" x2="385.319" y2="470.984" fill="none" stroke="#00a49e" stroke-miterlimit="10" stroke-width="2" stroke-dasharray="6.016 6.016"/>
        <polyline points="388.327 470.984 391.327 470.984 391.327 473.984" fill="none" stroke="#00a49e" stroke-miterlimit="10" stroke-width="2"/>
        <line x1="391.327" y1="479.933" x2="391.327" y2="631.628" fill="none" stroke="#00a49e" stroke-miterlimit="10" stroke-width="2" stroke-dasharray="5.949 5.949"/>
      </g>
      <rect x="197.968" y="197.232" width="110" height="38" rx="6" fill="#56a8cc"/>
      <g>
        <path d="M223.138,214.249c1.089,3.329,3.1,6.034,6.131,7.3a5.888,5.888,0,0,0-1.105,1.393c-2.993-1.393-4.93-3.985-6.179-7.379a11.073,11.073,0,0,1-6.178,7.379,5.215,5.215,0,0,0-1.136-1.249,9.959,9.959,0,0,0,6-7.442H214.99v-1.537h5.955a40.159,40.159,0,0,0,.192-4.418h1.617a40.413,40.413,0,0,1-.225,4.418h6.451v1.537Z" fill="#fff"/>
        <path d="M234.9,211.143a12.174,12.174,0,0,1-2.56,3.554,11.126,11.126,0,0,0-1.377-.961,10.947,10.947,0,0,0,3.409-5.506l1.569.336c-.144.448-.3.9-.464,1.328h9.684v1.249Zm5.027,5.266a14.857,14.857,0,0,1-1.873,2.641,20.155,20.155,0,0,1,2.689,2.257l-1.184,1.12a19.915,19.915,0,0,0-2.593-2.272,17.38,17.38,0,0,1-4.418,2.993,8.214,8.214,0,0,0-1.089-1.169,15.217,15.217,0,0,0,4.322-2.688c-.961-.657-1.953-1.281-2.882-1.809l1.073-.977c.913.5,1.921,1.088,2.881,1.729a11.575,11.575,0,0,0,1.633-2.305Zm3.121-1.937c-.016,3.986.208,7.043,1.28,7.043.288-.015.368-.9.385-2.209a7.335,7.335,0,0,0,1.008.912c-.113,1.986-.416,2.754-1.473,2.77-2.225-.016-2.608-3.026-2.705-7.251h-8.867v-1.265Zm-8.531-1.072v-1.217h9.171V213.4Z" fill="#fff"/>
        <path d="M251.809,216.7a15.074,15.074,0,0,1,2.369-8.179l1.152.5a15.634,15.634,0,0,0,0,15.366l-1.152.512A15.083,15.083,0,0,1,251.809,216.7Z" fill="#fff"/>
        <path d="M256.673,215.849c0-3.842,2.337-6.146,5.314-6.146a4.543,4.543,0,0,1,3.346,1.488l-1.009,1.185a3.135,3.135,0,0,0-2.3-1.057c-2.034,0-3.442,1.7-3.442,4.466,0,2.8,1.313,4.513,3.394,4.513a3.428,3.428,0,0,0,2.608-1.248l.992,1.168a4.649,4.649,0,0,1-3.665,1.7C258.946,221.916,256.673,219.707,256.673,215.849Z" fill="#fff"/>
        <path d="M266.894,215.769c0-3.794,2.1-6.066,5.122-6.066s5.138,2.272,5.138,6.066-2.113,6.147-5.138,6.147S266.894,219.562,266.894,215.769Zm8.355,0c0-2.769-1.28-4.45-3.233-4.45S268.8,213,268.8,215.769s1.264,4.529,3.217,4.529S275.249,218.538,275.249,215.769Z" fill="#fff"/>
        <path d="M278.919,220.769c3.04-2.689,4.608-4.692,4.608-6.388a1.68,1.68,0,0,0-1.751-1.89,2.8,2.8,0,0,0-2.031,1.148l-.91-.9a4.045,4.045,0,0,1,3.138-1.541,2.915,2.915,0,0,1,3.109,3.095c0,1.99-1.582,4.048-3.768,6.135.533-.055,1.177-.1,1.681-.1h2.577v1.373h-6.653Z" fill="#fff"/>
        <path d="M286.724,224.38a15.648,15.648,0,0,0,0-15.366l1.152-.5a15.244,15.244,0,0,1,0,16.374Z" fill="#fff"/>
      </g>
      <rect x="138.256" y="535.712" width="229.606" height="38" rx="6" fill="#56a8cc"/>
      <g>
        <path d="M242.346,554.334c-.544.176-1.1.352-1.649.528v4.466c0,.736-.143,1.136-.576,1.376a4.778,4.778,0,0,1-2.081.273,4.756,4.756,0,0,0-.4-1.377c.64.016,1.233.016,1.409,0,.208,0,.288-.048.288-.272v-4.05c-.624.192-1.217.369-1.745.544l-.336-1.44c.576-.144,1.3-.352,2.081-.576v-3.042H237.48v-1.376h1.857V546.3h1.36v3.09h1.6v1.376h-1.6v2.641l1.457-.432Zm2.674-8.067h1.328v6.706c0,3.17-.353,6.051-3.186,8a6.885,6.885,0,0,0-1.057-.993,5.959,5.959,0,0,0,2.45-3.185c-.784.3-1.569.592-2.273.848l-.576-1.28c.848-.224,1.984-.576,3.169-.961a17.091,17.091,0,0,0,.145-1.824h-2.37v-1.329h2.37v-1.969h-2.5V548.94h2.5Zm7.09,10.788h-2.929v3.889h-1.409V546.267h1.409v2.673h2.657v1.344h-2.657v1.969h2.481v1.329h-2.481v2.112h2.929Z" fill="#fff"/>
        <path d="M259.665,550.572c-.769,4.258-2.609,7.315-4.914,8.932a6.019,6.019,0,0,0-1.217-1.168,10.727,10.727,0,0,0,4.29-6.563h-3.842v-1.5h4.386l.288-.064Zm8.356-.784a36.9,36.9,0,0,1-4.275,4.018,10.719,10.719,0,0,0,4.818,4.61,6.493,6.493,0,0,0-1.152,1.376,12.6,12.6,0,0,1-5.538-6.739v5.907c0,.976-.24,1.44-.816,1.712a8.829,8.829,0,0,1-3.042.3,6.942,6.942,0,0,0-.577-1.649c1.089.048,2.114.048,2.417.032.321,0,.449-.112.449-.4V546.3h1.569v2.85a21.822,21.822,0,0,0,1.232,3.441,27.792,27.792,0,0,0,3.538-3.777Z" fill="#fff"/>
      </g>
      <rect x="138.256" y="489.708" width="229.606" height="38.001" rx="6" fill="#00a49e"/>
      <g>
        <path d="M174.929,509.391c-.368.032-.945.144-1.553.24-.832.128-2.24.352-3.73.593.289,1.44.513,2.64.609,3.073.112.464.256,1.024.416,1.5l-1.841.321c-.08-.561-.128-1.073-.224-1.553-.064-.4-.3-1.6-.576-3.089-1.745.288-3.361.56-4.114.7-.656.112-1.136.208-1.488.3l-.368-1.713c.4-.016,1.072-.1,1.52-.16.784-.112,2.417-.368,4.146-.64l-.56-2.945c-1.473.24-2.8.464-3.361.56s-.961.192-1.377.288l-.336-1.761c.448-.031.9-.064,1.392-.112.592-.064,1.921-.256,3.377-.48-.16-.8-.271-1.376-.32-1.6a9.119,9.119,0,0,0-.319-1.152l1.792-.288c.048.3.1.8.176,1.152.032.193.144.8.3,1.633,1.457-.24,2.818-.464,3.442-.592.5-.1.992-.208,1.312-.3l.305,1.68c-.288.033-.833.113-1.282.177-.7.111-2.048.319-3.489.544l.561,2.929c1.553-.256,2.976-.5,3.745-.64.608-.128,1.137-.241,1.5-.352Z" fill="#fff"/>
        <path d="M184.781,510.768a15.174,15.174,0,0,0,2.577-3.121c-.383.08-2.337.463-4.353.88.624,2.257,1.36,4.93,1.6,5.682.081.288.272.88.384,1.185l-1.728.432a7.713,7.713,0,0,0-.256-1.265c-.225-.784-.944-3.473-1.537-5.714-1.441.288-2.7.56-3.154.656l-.383-1.537c.464-.031.88-.1,1.392-.175.224-.033.9-.161,1.761-.321-.192-.752-.368-1.36-.465-1.7a4.661,4.661,0,0,0-.416-1.025l1.713-.416c.048.32.145.7.24,1.1l.481,1.744c2.16-.416,4.674-.9,5.25-1.024a2.923,2.923,0,0,0,.688-.224l1.025.72a23.211,23.211,0,0,1-3.426,4.818Z" fill="#fff"/>
        <path d="M205.053,504.045a8.233,8.233,0,0,0-.449.992,17.111,17.111,0,0,1-2.272,4.594c.592.384,1.137.737,1.536,1.025l-1.12,1.473c-.384-.321-.912-.705-1.52-1.121a15.169,15.169,0,0,1-6.1,4.145l-1.456-1.28a13.653,13.653,0,0,0,6.162-3.793c-1.185-.769-2.417-1.521-3.281-2l1.056-1.2c.9.464,2.129,1.168,3.3,1.873a13.277,13.277,0,0,0,1.889-3.89h-5.09a17.628,17.628,0,0,1-4.21,4.162l-1.376-1.04a14.424,14.424,0,0,0,5.122-5.458,5.713,5.713,0,0,0,.609-1.441l1.824.576c-.3.48-.656,1.089-.817,1.408l-.192.353h3.89a3.736,3.736,0,0,0,1.2-.176Z" fill="#fff"/>
        <path d="M219.979,506.622a4.8,4.8,0,0,0-.241.544,11.482,11.482,0,0,1-2.352,4.5,11.826,11.826,0,0,1-5.731,3.409l-1.248-1.44a10.835,10.835,0,0,0,5.6-2.881,7.54,7.54,0,0,0,1.777-3.2h-8.147c-.384,0-1.089.016-1.7.064V505.95c.624.064,1.233.112,1.7.112h8.195a3.175,3.175,0,0,0,1.024-.144Zm-10.581-4.4a14.836,14.836,0,0,0,1.521.08h6.243a15.285,15.285,0,0,0,1.568-.08v1.649c-.4-.032-1.041-.048-1.584-.048h-6.227c-.5,0-1.072.016-1.521.048Z" fill="#fff"/>
        <path d="M222.884,507.15c.512.048,1.505.1,2.369.1h8.691c.785,0,1.41-.064,1.793-.1v1.969c-.352-.016-1.072-.064-1.776-.064h-8.708c-.9,0-1.841.032-2.369.064Z" fill="#fff"/>
        <path d="M251.781,511.424a17.143,17.143,0,0,1-2.881,1.617,10.09,10.09,0,0,0,3.841,1.36,3.874,3.874,0,0,0-.832,1.185,8.571,8.571,0,0,1-6.61-4.77,11.941,11.941,0,0,1-2.1,1.248v1.713c1.088-.16,2.273-.336,3.425-.512l.064,1.184c-2.241.336-4.61.7-6.306.961l-.225-1.233c.465-.048,1.009-.128,1.6-.208v-1.3a19.632,19.632,0,0,1-2.945.833,5.144,5.144,0,0,0-.8-1.088,18,18,0,0,0,5.49-1.761h-5.218v-1.185h6.338v-.912H246.1v.912h6.354v1.185h-5.826a6.283,6.283,0,0,0,1.312,1.664,21.056,21.056,0,0,0,2.77-1.664Zm-10.1-6.627h-3.457v-1.04h1.056a6.6,6.6,0,0,0-.928-.5,6.881,6.881,0,0,0,1.264-2.369l1.137.288c-.1.256-.192.512-.3.768h1.233V500.86h1.281v1.088h2.753v.993h-2.753v.816H246.2v1.04h-3.233v.721h2.865v1.888c0,.513-.08.753-.448.913a4.048,4.048,0,0,1-1.537.16,4.593,4.593,0,0,0-.384-.913c.464.017.832.017.977.017.143-.017.175-.049.175-.161v-.944h-1.648v2.481h-1.281v-2.481h-1.552v2.081H238.96v-3.041h2.721Zm0-1.04v-.816h-1.729a8.835,8.835,0,0,1-.528.816Zm6.627,3.041h-1.345v-5.314h1.345Zm3.553.7c0,.7-.144,1.024-.64,1.232a7.5,7.5,0,0,1-2.353.208,5.137,5.137,0,0,0-.464-1.216c.8.031,1.569.031,1.809.015.224-.015.288-.079.288-.256V501h1.36Z" fill="#fff"/>
        <path d="M254.925,508.543h5.8v6.9h-1.473v-.72h-2.913v.833h-1.409Zm1.409,1.424v3.33h2.913v-3.33Zm9.8-2.977h-8.947v-5.458h8.947Zm-1.521-4.033h-6v2.609h6Zm3.762,5.586v6.931h-1.489v-.753h-3.169v.833h-1.425v-7.011Zm-1.489,4.754v-3.33h-3.169v3.33Z" fill="#fff"/>
        <path d="M279.456,508.966a9.333,9.333,0,0,1,2.773-6.695l1.065.5a8.726,8.726,0,0,0,0,12.383l-1.065.5A9.336,9.336,0,0,1,279.456,508.966Z" fill="#fff"/>
        <path d="M290.627,514.107c0,.546-.126.9-.49,1.079a4.4,4.4,0,0,1-1.85.21,3.485,3.485,0,0,0-.364-1.079c.631.014,1.219.014,1.387,0s.224-.056.224-.238v-2.353H286.62a8.615,8.615,0,0,1-1.05,3.684,4.594,4.594,0,0,0-.9-.574,10.219,10.219,0,0,0,.98-5.071v-2.227l-.07.084a6.982,6.982,0,0,0-.938-.743,10.773,10.773,0,0,0,2.031-4.342l1.148.252c-.084.336-.181.658-.28.981h1.373l.224-.071.714.491a17.968,17.968,0,0,1-.91,1.891h1.681Zm-3.446-9.329a13.909,13.909,0,0,1-.6,1.3h1.247a8.715,8.715,0,0,0,.588-1.3Zm-.476,4.987c0,.308,0,.63-.015.966h.967v-1.387h-.952Zm0-1.387h.952v-1.317h-.952Zm1.835,0h.994v-1.317h-.994Zm.994,2.353v-1.387h-.994v1.387Zm7.116,4.679a8.745,8.745,0,0,0-.266-1.037c-1.919.21-3.9.434-5.351.589l-.168-1.261c.728-.056,1.667-.14,2.675-.224v-2.746h-2.283v-5.379h2.283v-2.829h1.2v2.829h2.4v5.379h-2.4v2.62l1.246-.126a15.712,15.712,0,0,0-.672-1.583l1.023-.336a14.721,14.721,0,0,1,1.4,3.725Zm-3.11-5.771v-3.208h-1.19v3.208Zm1.2-3.208v3.208h1.246v-3.208Z" fill="#fff"/>
        <path d="M303.425,513.953a10.288,10.288,0,0,0-.967-1.163,7.033,7.033,0,0,1-2.354,2.592,4.956,4.956,0,0,0-.784-1.037,5.687,5.687,0,0,0,2.2-2.465c-.323-.294-.645-.588-.981-.855l-.126.533-1.036-.645c.294-1.148.63-2.731.938-4.356h-1.079v-1.205h1.317c.182-.98.35-1.961.476-2.815l1.233.126c-.14.841-.308,1.751-.491,2.689h1.374l.2-.028.756.113a20.548,20.548,0,0,1-1.107,6.191,8.9,8.9,0,0,1,1.2,1.316Zm-1.892-7.4c-.223,1.121-.475,2.227-.7,3.25.379.28.785.6,1.163.938a17.569,17.569,0,0,0,.855-4.188Zm7.719,4.861a9.451,9.451,0,0,0,3,2.563,5.068,5.068,0,0,0-.91,1.037,11.058,11.058,0,0,1-2.745-2.788v3.152h-1.261v-3.1a9.13,9.13,0,0,1-3.04,2.8,6.128,6.128,0,0,0-.882-1.022,8.25,8.25,0,0,0,3.207-2.647H304v-1.107h3.334v-1.078h-2.018v-4.119h-1.386v-1.107h1.386v-1.47h1.177v1.47h2.942v-1.47h1.247v1.47H312v1.107h-1.316v4.119h-2.087v1.078h3.431v1.107Zm-2.76-6.3v1.037h2.942v-1.037Zm0,3.054h2.942v-1.051h-2.942Z" fill="#fff"/>
        <path d="M320.809,506a20.726,20.726,0,0,1-2.466.49,24.31,24.31,0,0,1-3.012,5.9l-1.345-.686a20.088,20.088,0,0,0,2.9-5.057c-.336.014-.658.028-.994.028-.533,0-1.107-.014-1.667-.056l-.1-1.289c.546.056,1.2.084,1.765.084.462,0,.938-.014,1.428-.056a11.119,11.119,0,0,0,.407-2.353l1.526.14c-.111.476-.294,1.247-.5,2.031a14.7,14.7,0,0,0,2.018-.476Zm1.709,1.443a15.8,15.8,0,0,0-.015,1.625c.015.448.057,1.246.1,2.03a9.243,9.243,0,0,1,2.871,1.751l-.743,1.191a11.079,11.079,0,0,0-2.073-1.541v.379c0,1.176-.715,2.129-2.535,2.129-1.611,0-2.914-.687-2.914-2.129,0-1.3,1.177-2.228,2.9-2.228a6.313,6.313,0,0,1,1.164.1c-.056-1.093-.126-2.395-.155-3.305Zm-1.206,4.51a4.67,4.67,0,0,0-1.274-.168c-.925,0-1.527.406-1.527.966,0,.589.476,1,1.428,1a1.2,1.2,0,0,0,1.387-1.3C321.326,512.3,321.326,512.146,321.312,511.95Zm3.8-3.978a17.725,17.725,0,0,0-3.235-1.933l.7-1.079a22.8,22.8,0,0,1,3.32,1.863Z" fill="#fff"/>
        <path d="M336.606,506.417c-.364.224-.742.42-1.19.658a35.766,35.766,0,0,0-3.67,2c-1.233.8-2,1.653-2,2.662,0,1.092,1.037,1.722,3.111,1.722a20.658,20.658,0,0,0,4.482-.49l-.015,1.583a26.013,26.013,0,0,1-4.412.35c-2.676,0-4.65-.784-4.65-3,0-1.471.938-2.619,2.353-3.628-.644-1.163-1.344-2.717-1.975-4.2l1.386-.574a30.453,30.453,0,0,0,1.793,3.992c1.135-.673,2.27-1.233,2.985-1.639a6.624,6.624,0,0,0,1.106-.729Zm.252-3.124a19.13,19.13,0,0,1,1.121,1.933l-.911.406a17.278,17.278,0,0,0-1.12-1.961Zm1.583-.588a16.572,16.572,0,0,1,1.163,1.905l-.911.406a13.273,13.273,0,0,0-1.148-1.933Z" fill="#fff"/>
        <path d="M344.808,508.966a9.333,9.333,0,0,1-2.774,6.7l-1.065-.5a8.724,8.724,0,0,0,0-12.383l1.065-.5A9.33,9.33,0,0,1,344.808,508.966Z" fill="#fff"/>
      </g>
      <rect x="138.256" y="583.712" width="229.606" height="38" rx="6" fill="#56a8cc"/>
      <g>
        <path d="M240.121,602.286V604h2.913v1.264h-2.913v1.889c0,.464.08.544.481.544h1.248c.368,0,.448-.256.48-1.649a3.766,3.766,0,0,0,1.249.529c-.144,1.84-.5,2.352-1.585,2.352h-1.617c-1.344,0-1.664-.4-1.664-1.76v-1.9h-2.226c-.223,1.521-1.072,2.9-3.841,3.778a5.05,5.05,0,0,0-.864-1.089c2.257-.672,3.025-1.633,3.281-2.689H232.39V604h2.785v-1.713H234.1a10.484,10.484,0,0,1-1.745,1.136,5.959,5.959,0,0,0-.753-.992,14.453,14.453,0,0,1-1.552,6.514,5.462,5.462,0,0,0-1.136-.864c1.232-2.1,1.345-5.09,1.345-7.315v-5.25h5.874v-1.232h1.552v1.232h5.827v1.264H231.638v3.986c0,.48-.016,1.009-.033,1.569a8.693,8.693,0,0,0,2.177-1.473,13.821,13.821,0,0,0-1.471-1.072l.784-.817a15.778,15.778,0,0,1,1.52.993,7.928,7.928,0,0,0,.88-1.329h-2.753v-1.12H236.1l.24-.064.848.4a9.735,9.735,0,0,1-1.825,3.185h4.706a11.986,11.986,0,0,1-2.129-3.649l1.217-.352a8.523,8.523,0,0,0,.624,1.344,16.387,16.387,0,0,0,1.393-1.136l.976.688a10.251,10.251,0,0,1-1.825,1.329c.225.288.448.576.7.848a19.725,19.725,0,0,0,1.633-1.216l.992.736a14.134,14.134,0,0,1-1.824,1.248,7.918,7.918,0,0,0,2.145,1.3,5.763,5.763,0,0,0-.928,1.136,8.473,8.473,0,0,1-1.778-1.1v.08Zm-1.408,0h-2.161V604h2.161Z" fill="#fff"/>
        <path d="M254.959,605.535a16.557,16.557,0,0,0,5.331,2.081,5.542,5.542,0,0,0-.961,1.184,16.248,16.248,0,0,1-5.746-2.913v3.074h-1.5v-3.106a15.424,15.424,0,0,1-5.666,2.993,5.721,5.721,0,0,0-.929-1.152,16.04,16.04,0,0,0,5.235-2.161h-4.882v-1.2h6.242V603.5h-3.89v-2.114h-2.352v-1.136h2.352v-.928h1.361v.928h2.561v-1.041h1.425v1.041h2.593v-.928h1.44v.928h2.354v1.136h-2.354V603.5h-3.985v.832h6.339v1.2Zm-5.954-7.731c.288-.368.593-.8.849-1.2h-3.986v-1.185h6.242v-1.136h1.536v1.136h6.324V596.6h-3.826a23.433,23.433,0,0,1,3.345,1.968l-.976.833c-.272-.209-.624-.464-1.008-.7-3.97.144-8.148.288-10.981.352l-.064-1.232Zm.544,4.594h2.561v-1.009h-2.561Zm2.017-5.794c-.3.4-.625.816-.928,1.184,1.633-.032,3.409-.048,5.2-.08-.448-.256-.912-.5-1.345-.688l.544-.416Zm1.969,4.785V602.4h2.593v-1.009Z" fill="#fff"/>
        <path d="M268.116,602.638c-.624.208-1.249.4-1.873.592v5.731h-1.376v-5.3l-2.513.769-.384-1.425c.8-.208,1.808-.48,2.9-.784V598.86h-1.281a15.576,15.576,0,0,1-.656,2.226,8.921,8.921,0,0,0-1.088-.673,18.6,18.6,0,0,0,1.008-5.218l1.264.208c-.08.688-.16,1.376-.271,2.049h1.024v-3.169h1.376v3.169h1.488v1.408h-1.488v2.946l1.681-.481Zm8.484-5.779s0,.513-.017.7c-.352,7.187-.656,9.716-1.28,10.5a1.51,1.51,0,0,1-1.168.705,9.262,9.262,0,0,1-1.809.031,3.519,3.519,0,0,0-.417-1.456c.673.064,1.265.064,1.57.064a.615.615,0,0,0,.576-.288c.464-.529.8-2.8,1.088-8.884h-.449c-.816,4.13-2.528,8.34-5.122,10.42a6.746,6.746,0,0,0-1.232-.88c2.577-1.841,4.258-5.666,5.058-9.54h-1.072c-.705,2.689-2.1,5.619-3.794,7.123a5.371,5.371,0,0,0-1.152-.848c1.648-1.281,2.961-3.81,3.7-6.275H269.94a12,12,0,0,1-1.728,2.945,11.311,11.311,0,0,0-1.152-.848,13.576,13.576,0,0,0,2.737-6.05l1.345.256c-.177.8-.416,1.584-.657,2.32Z" fill="#fff"/>
      </g>
      <rect x="137.668" y="382.143" width="110" height="56.138" rx="6" fill="#56a8cc"/>
      <g>
        <path d="M168.729,403.313A23.042,23.042,0,0,1,167,406.594v10.66h-1.489v-8.563a17.647,17.647,0,0,1-1.857,2.017,10.173,10.173,0,0,0-.9-1.553,17.385,17.385,0,0,0,4.513-6.323Zm6.691,12.357c.833,0,.944-.561,1.072-2.85a4.41,4.41,0,0,0,1.393.641c-.192,2.657-.624,3.6-2.368,3.6h-3.026c-1.808,0-2.337-.544-2.337-2.481V402.976h1.489v5.731a25.393,25.393,0,0,0,4.45-3.09l1.072,1.3a38.784,38.784,0,0,1-5.522,3.313v4.37c0,.912.16,1.073.992,1.073Z" fill="#fff"/>
        <path d="M193.794,412.932h-6.307v2.674c0,.816-.208,1.232-.864,1.456a11.129,11.129,0,0,1-2.993.224,8.116,8.116,0,0,0-.624-1.441c1.12.049,2.24.049,2.56.033s.4-.081.4-.321v-2.625h-6.242v-1.376h6.242v-1.1h.752a12.6,12.6,0,0,0,1.808-1.2h-6.082v-1.3h7.507l.32-.08.96.721a14.352,14.352,0,0,1-3.745,2.753v.208h6.307Zm-12.4-4.081H180v-3.666H182.3a10.194,10.194,0,0,0-1.249-1.841l1.28-.576a9.83,9.83,0,0,1,1.489,2.145l-.576.272h2.961a11.9,11.9,0,0,0-1.121-2.193l1.3-.48a9.513,9.513,0,0,1,1.3,2.369l-.784.3H189.6a16.854,16.854,0,0,0,1.552-2.5l1.569.5c-.465.689-.993,1.393-1.49,2h2.322v3.666h-1.473V406.5H181.389Z" fill="#fff"/>
        <path d="M201.917,410.947c-.624.208-1.249.4-1.873.593v5.73h-1.376v-5.3l-2.514.768-.383-1.424c.8-.208,1.808-.48,2.9-.785V407.17h-1.281a15.552,15.552,0,0,1-.657,2.225,9.028,9.028,0,0,0-1.087-.672,18.572,18.572,0,0,0,1.007-5.219l1.265.208c-.08.689-.16,1.377-.271,2.049h1.024v-3.169h1.376v3.169h1.488v1.409h-1.488v2.945l1.681-.48Zm8.483-5.778s0,.512-.016.705c-.352,7.186-.656,9.715-1.28,10.5a1.512,1.512,0,0,1-1.168.7,9.25,9.25,0,0,1-1.809.032,3.538,3.538,0,0,0-.417-1.457c.673.064,1.265.064,1.569.064a.614.614,0,0,0,.576-.288c.464-.528.8-2.8,1.088-8.883H208.5c-.816,4.129-2.528,8.339-5.122,10.42a6.746,6.746,0,0,0-1.232-.88c2.577-1.841,4.257-5.666,5.058-9.54h-1.072c-.705,2.689-2.1,5.618-3.794,7.123a5.373,5.373,0,0,0-1.152-.849c1.648-1.28,2.961-3.809,3.7-6.274h-1.137a12.015,12.015,0,0,1-1.728,2.945,11.328,11.328,0,0,0-1.153-.848,13.576,13.576,0,0,0,2.738-6.051l1.344.256c-.176.8-.416,1.585-.656,2.321Z" fill="#fff"/>
        <path d="M214.778,406.049a5.063,5.063,0,0,1-1.489,2.754,3.981,3.981,0,0,0-.992-.945,4.225,4.225,0,0,0,1.329-3.345v-1.537l1.04.288a21.806,21.806,0,0,0,3.554-.656l.944.913a24.232,24.232,0,0,1-4.226.7v.336a2.712,2.712,0,0,1-.016.352h4.61v1.136h-1.713v1.825h-1.312v-1.825Zm3.682,9.3a21.231,21.231,0,0,1-4.9,1.985,10.466,10.466,0,0,0-1.121-1.1,17.508,17.508,0,0,0,4.658-1.5Zm-4-7.155h10.468v6.483H214.458Zm1.44,1.857h7.54v-.912H215.9Zm0,1.841h7.54v-.945H215.9Zm0,1.857h7.54v-.961H215.9Zm5.3-7.7a4.137,4.137,0,0,1-1.68,2.129,3.433,3.433,0,0,0-.912-1.008,2.962,2.962,0,0,0,1.537-2.721v-1.441l1.072.256a25.879,25.879,0,0,0,3.809-.624l.96.9a26.173,26.173,0,0,1-4.529.688v.288a3.48,3.48,0,0,1-.016.4H226.7v1.136h-2.209v1.857h-1.36v-1.857Zm.769,8.708a50.2,50.2,0,0,1,4.786,1.857l-1.713.7a32.444,32.444,0,0,0-4.29-1.809Z" fill="#fff"/>
      </g>
      <rect x="259.196" y="382.143" width="110" height="56.138" rx="6" fill="#56a8cc"/>
      <g>
        <path d="M281.274,407.279a1.756,1.756,0,0,0,.176-.9v-8.948a9.5,9.5,0,0,0-.143-1.617h1.984a10.46,10.46,0,0,0-.144,1.6v8.756a17.747,17.747,0,0,0,8.532-5.379l.912,1.409a19.21,19.21,0,0,1-9.332,5.746,2.779,2.779,0,0,0-.8.337Z" fill="#fff"/>
        <path d="M306.838,397.019c-.145.176-.4.48-.528.672a15.847,15.847,0,0,1-3.922,4.418l-1.328-1.072a9.965,9.965,0,0,0,3.265-3.314h-8.788c-.624,0-1.184.049-1.873.1v-1.776a14.334,14.334,0,0,0,1.873.144h8.948a8.271,8.271,0,0,0,1.344-.112Zm-6.467,2.129c0,4.178-.24,7.251-4.449,9.412l-1.473-1.2a6.058,6.058,0,0,0,1.536-.784c2.289-1.473,2.658-3.489,2.658-6.147a7.108,7.108,0,0,0-.1-1.28Z" fill="#fff"/>
        <path d="M319.3,396.155a11.647,11.647,0,0,0-.593,1.28,22.337,22.337,0,0,1-2.289,4.546,42.923,42.923,0,0,1,3.89,3.6l-1.3,1.424a33.955,33.955,0,0,0-3.666-3.6,20.2,20.2,0,0,1-6.13,5.074l-1.457-1.3a17.6,17.6,0,0,0,6.242-4.9,47.888,47.888,0,0,0-4.4-3.137l1.072-1.281c1.329.849,3.089,2.065,4.37,3.026a17.435,17.435,0,0,0,1.984-4.1,10.125,10.125,0,0,0,.353-1.312Z" fill="#fff"/>
        <path d="M334.413,397.6a8.3,8.3,0,0,0-.448.992,17.165,17.165,0,0,1-2.273,4.6c.592.384,1.137.736,1.537,1.024l-1.121,1.473c-.383-.321-.912-.7-1.52-1.121a15.18,15.18,0,0,1-6.1,4.146l-1.456-1.281a13.642,13.642,0,0,0,6.162-3.793c-1.184-.769-2.417-1.521-3.281-2l1.057-1.2c.9.465,2.129,1.169,3.3,1.873a13.293,13.293,0,0,0,1.888-3.889h-5.09a17.624,17.624,0,0,1-4.21,4.161l-1.376-1.04a14.42,14.42,0,0,0,5.123-5.458,5.676,5.676,0,0,0,.608-1.441l1.824.577c-.3.48-.656,1.088-.816,1.408l-.193.352h3.89a3.736,3.736,0,0,0,1.2-.176Z" fill="#fff"/>
        <path d="M335.359,407.343a7.533,7.533,0,0,0,2.754-3.889,27.769,27.769,0,0,0,.464-6.387,4.986,4.986,0,0,0-.128-1.3h1.857a11.976,11.976,0,0,0-.08,1.28,35,35,0,0,1-.5,6.835,8.995,8.995,0,0,1-2.848,4.482Zm7.364.144a4.615,4.615,0,0,0,.112-1.008V397a11.7,11.7,0,0,0-.1-1.28H344.6a9.437,9.437,0,0,0-.08,1.28v8.852a11.256,11.256,0,0,0,4.353-3.682l.961,1.377a16.79,16.79,0,0,1-5.442,4.417,3.309,3.309,0,0,0-.609.4Z" fill="#fff"/>
        <path d="M285.75,420.7a13.2,13.2,0,0,1,2.072-7.157l1.009.434a13.689,13.689,0,0,0,0,13.447l-1.009.448A13.216,13.216,0,0,1,285.75,420.7Z" fill="#fff"/>
        <path d="M298.856,424.631a19.031,19.031,0,0,1-4.3,1.6,6.8,6.8,0,0,0-.953-.952,16.73,16.73,0,0,0,4.09-1.177Zm7.214-6.4H293.632v-1.009h5.575v-.63h-3.7V414.1h3.7v-.771h1.274v.771h3.895v2.493h-3.895v.63h5.589Zm-10.687,5.855v-5.267h9.133v5.267Zm1.275-3.754H303.2v-.714h-6.541Zm0,1.485H303.2v-.729h-6.541Zm0,1.485H303.2v-.729h-6.541Zm2.549-7.536v-.855h-2.465v.855Zm1.274-.855v.855h2.606v-.855Zm1.457,9.217c1.486.448,3.166,1.023,4.161,1.429l-1.541.63a27.637,27.637,0,0,0-3.726-1.414Z" fill="#fff"/>
        <path d="M314.9,424.631h5.295v1.135H308.385v-1.135h5.14v-3.179h-4.467v-1.121h4.467v-1.667H310.78v-.728a19.76,19.76,0,0,1-2.185,1.373,5.03,5.03,0,0,0-.813-1.051A15.04,15.04,0,0,0,313.5,413.3h1.33a15.43,15.43,0,0,0,6,4.791,7.437,7.437,0,0,0-.84,1.163,17.812,17.812,0,0,1-2.241-1.387v.8H314.9v1.667h4.567v1.121H314.9Zm-3.753-2.969a9.147,9.147,0,0,1,1.3,2.409l-1.135.5a9.109,9.109,0,0,0-1.232-2.493Zm6.121-4.146a15.646,15.646,0,0,1-3.039-2.942,15.052,15.052,0,0,1-2.9,2.942Zm-1.443,6.625a15.5,15.5,0,0,0,1.414-2.493l1.247.462a24.578,24.578,0,0,1-1.695,2.465Z" fill="#fff"/>
        <path d="M324.788,416.983v1c0,2.381-.21,5.855-1.625,8.138a4.006,4.006,0,0,0-1.12-.658c1.345-2.157,1.471-5.267,1.471-7.48v-4.062h10.491v3.067Zm0-2.045v1.023h7.929v-1.023Zm9.441,10.17c0,.518-.1.756-.462.91a5.205,5.205,0,0,1-1.751.154,5.333,5.333,0,0,0-.336-.9l.154.014c-.056-.154-.126-.294-.21-.476-1.709.111-3.446.2-4.721.252l-.084-.939c.617-.014,1.373-.042,2.2-.07v-.98h-2.648V426.2h-1.177v-4.006h3.825v-.672H325.74v-2.41h3.279v-.63c-1.107.056-2.242.1-3.279.1a3.036,3.036,0,0,0-.252-.826,47.178,47.178,0,0,0,7.229-.546l.742.77a28.2,28.2,0,0,1-3.25.42v.714h3.4v2.41h-3.4v.672h4.02Zm-5.21-4.371v-.84H326.9v.84Zm1.19-.84v.84h2.171v-.84Zm2.045,5.393a3.706,3.706,0,0,0,.574,0c.154-.014.2-.042.2-.182v-2.031h-2.815v.938l.994-.042c-.1-.182-.21-.364-.307-.532l.77-.2a10.724,10.724,0,0,1,1.022,1.9Z" fill="#fff"/>
        <path d="M339.563,427.419a13.689,13.689,0,0,0,0-13.447l1.009-.434a13.341,13.341,0,0,1,0,14.329Z" fill="#fff"/>
      </g>
      <g>
        <g>
          <path d="M322.974,363.734h-10.49a1,1,0,0,0-1,1V372.1a1,1,0,0,0,1,1h10.49a1,1,0,0,0,1-1v-7.365A1,1,0,0,0,322.974,363.734Zm-9.49,7.364v-5.365h8.49V371.1Z" fill="#1d6ea1"/>
          <g>
            <path d="M234.132,267.073a4.011,4.011,0,0,0-3.846-2.879H211.213a4.032,4.032,0,0,0-4.026,4.032,3.6,3.6,0,0,0,.02.373h-6.184a4.029,4.029,0,1,0,0,8.057h13.589a1,1,0,0,0,0-2,1.2,1.2,0,0,1,0-2.393h5.444a.988.988,0,0,0,.854-.48,1.006,1.006,0,0,0,.033-.979,1.235,1.235,0,0,1-.133-.54A1.191,1.191,0,0,1,222,269.072h11.3a1.008,1.008,0,0,0,.726-.313.989.989,0,0,0,.273-.74A3.707,3.707,0,0,0,234.132,267.073Zm-12.13,0a3.2,3.2,0,0,0-3.192,3.192h-4.2a3.2,3.2,0,0,0-3.193,3.192,2.872,2.872,0,0,0,.067.64,2.341,2.341,0,0,0,.08.307,1.574,1.574,0,0,0,.087.253h-10.63a2.03,2.03,0,1,1,0-4.059h7.511a1,1,0,0,0,.853-.48.992.992,0,0,0,.033-.973,2.012,2.012,0,0,1,1.793-2.952h19.073a2.012,2.012,0,0,1,1.66.88Z" fill="#1d6ea1"/>
            <path d="M231.946,267.073H222a3.2,3.2,0,0,0-3.192,3.192h-4.2a3.2,3.2,0,0,0-3.193,3.192,2.872,2.872,0,0,0,.067.64,2.341,2.341,0,0,0,.08.307,1.574,1.574,0,0,0,.087.253h-10.63a2.03,2.03,0,1,1,0-4.059h7.511a1,1,0,0,0,.853-.48.992.992,0,0,0,.033-.973,2.012,2.012,0,0,1,1.793-2.952h19.073A2.012,2.012,0,0,1,231.946,267.073Z" fill="gray"/>
          </g>
          <path d="M235.831,267.073H222a3.2,3.2,0,0,0-3.192,3.192h-4.2a3.2,3.2,0,0,0-3.193,3.192,2.872,2.872,0,0,0,.067.64,2.341,2.341,0,0,0,.08.307,3.191,3.191,0,0,0,3.046,2.252H228.44a3.2,3.2,0,0,0,3.193-3.192h4.2a3.2,3.2,0,0,0,0-6.391Zm0,4.392h-5.445a1,1,0,0,0-.893,1.453,1.17,1.17,0,0,1,.14.539,1.2,1.2,0,0,1-1.193,1.2H214.612a1.2,1.2,0,0,1,0-2.393h5.444a.988.988,0,0,0,.854-.48,1.006,1.006,0,0,0,.033-.979,1.235,1.235,0,0,1-.133-.54A1.191,1.191,0,0,1,222,269.072h13.829a1.2,1.2,0,0,1,0,2.393Z" fill="#1d6ea1"/>
          <g>
            <path d="M163.648,255.7a.993.993,0,0,0,.273.74,1.008,1.008,0,0,0,.727.313h11.3a1.192,1.192,0,0,1,1.193,1.193,1.249,1.249,0,0,1-.133.54,1.006,1.006,0,0,0,.033.98.986.986,0,0,0,.853.479h5.445a1.2,1.2,0,0,1,0,2.393,1,1,0,1,0,0,2h13.589a4.029,4.029,0,1,0,0-8.057h-6.185a3.6,3.6,0,0,0,.02-.373,4.032,4.032,0,0,0-4.025-4.032H167.66a4.009,4.009,0,0,0-3.845,2.879A3.665,3.665,0,0,0,163.648,255.7Zm2.353-.946a2.008,2.008,0,0,1,1.659-.88h19.074a2.011,2.011,0,0,1,1.792,2.953.991.991,0,0,0,.034.972,1,1,0,0,0,.853.48h7.511a2.03,2.03,0,1,1,0,4.059h-10.63a1.674,1.674,0,0,0,.086-.253,2.194,2.194,0,0,0,.08-.307,2.872,2.872,0,0,0,.067-.64,3.2,3.2,0,0,0-3.192-3.192h-4.2a3.2,3.2,0,0,0-3.192-3.192Z" fill="#1d6ea1"/>
            <path d="M166,254.751h9.943a3.2,3.2,0,0,1,3.192,3.192h4.2a3.2,3.2,0,0,1,3.192,3.192,2.872,2.872,0,0,1-.067.64,2.194,2.194,0,0,1-.08.307,1.674,1.674,0,0,1-.086.253h10.63a2.03,2.03,0,1,0,0-4.059h-7.511a1,1,0,0,1-.853-.48.991.991,0,0,1-.034-.972,2.011,2.011,0,0,0-1.792-2.953H167.66A2.008,2.008,0,0,0,166,254.751Z" fill="#ccc"/>
          </g>
          <path d="M158.923,257.943a3.2,3.2,0,0,0,3.192,3.2h4.2a3.2,3.2,0,0,0,3.192,3.192h13.829a3.19,3.19,0,0,0,3.045-2.252,2.194,2.194,0,0,0,.08-.307,2.872,2.872,0,0,0,.067-.64,3.2,3.2,0,0,0-3.192-3.192h-4.2a3.2,3.2,0,0,0-3.192-3.192H162.115A3.2,3.2,0,0,0,158.923,257.943Zm2,0a1.192,1.192,0,0,1,1.193-1.193h13.829a1.192,1.192,0,0,1,1.193,1.193,1.249,1.249,0,0,1-.133.54,1.006,1.006,0,0,0,.033.98.986.986,0,0,0,.853.479h5.445a1.2,1.2,0,0,1,0,2.393H169.506a1.181,1.181,0,0,1-1.053-1.739,1,1,0,0,0-.893-1.453h-5.445A1.2,1.2,0,0,1,160.922,257.943Z" fill="#1d6ea1"/>
          <g>
            <path d="M187.187,242.185a1.192,1.192,0,0,1,1.193-1.193h13.829a1.192,1.192,0,0,1,1.193,1.193,1.249,1.249,0,0,1-.133.54,1.006,1.006,0,0,0,.033.98.987.987,0,0,0,.853.48H209.6a1.2,1.2,0,0,1,0,2.392H195.771a1.181,1.181,0,0,1-1.053-1.739,1,1,0,0,0-.893-1.453H188.38A1.2,1.2,0,0,1,187.187,242.185Z" fill="gray"/>
            <path d="M185.188,242.185a3.2,3.2,0,0,0,3.192,3.2h4.2a3.2,3.2,0,0,0,3.192,3.192H209.6a3.19,3.19,0,0,0,3.045-2.252,2.2,2.2,0,0,0,.081-.307,2.93,2.93,0,0,0,.066-.639,3.2,3.2,0,0,0-3.192-3.193h-4.2a3.2,3.2,0,0,0-3.192-3.192H188.38A3.2,3.2,0,0,0,185.188,242.185Zm2,0a1.192,1.192,0,0,1,1.193-1.193h13.829a1.192,1.192,0,0,1,1.193,1.193,1.249,1.249,0,0,1-.133.54,1.006,1.006,0,0,0,.033.98.987.987,0,0,0,.853.48H209.6a1.2,1.2,0,0,1,0,2.392H195.771a1.181,1.181,0,0,1-1.053-1.739,1,1,0,0,0-.893-1.453H188.38A1.2,1.2,0,0,1,187.187,242.185Z" fill="#1d6ea1"/>
          </g>
          <g>
            <path d="M242.556,253.471h-5.445a1,1,0,0,0-.893,1.453,1.181,1.181,0,0,1-1.053,1.739H221.336a1.2,1.2,0,0,1,0-2.392h5.445a.987.987,0,0,0,.853-.48,1.006,1.006,0,0,0,.033-.98,1.245,1.245,0,0,1-.133-.539,1.192,1.192,0,0,1,1.193-1.193h13.829a1.2,1.2,0,0,1,0,2.392Z" fill="#ccc"/>
            <path d="M242.556,249.079H228.727a3.2,3.2,0,0,0-3.192,3.193h-4.2a3.2,3.2,0,0,0-3.192,3.192,2.939,2.939,0,0,0,.066.64,2.368,2.368,0,0,0,.08.306,3.193,3.193,0,0,0,3.046,2.253h13.829a3.2,3.2,0,0,0,3.192-3.192h4.2a3.2,3.2,0,0,0,0-6.392Zm0,4.392h-5.445a1,1,0,0,0-.893,1.453,1.181,1.181,0,0,1-1.053,1.739H221.336a1.2,1.2,0,0,1,0-2.392h5.445a.987.987,0,0,0,.853-.48,1.006,1.006,0,0,0,.033-.98,1.245,1.245,0,0,1-.133-.539,1.192,1.192,0,0,1,1.193-1.193h13.829a1.2,1.2,0,0,1,0,2.392Z" fill="#1d6ea1"/>
          </g>
          <g>
            <path d="M279.646,291.406a4.535,4.535,0,0,0-4.372-3.266,4.417,4.417,0,0,0-1.027.12,4.564,4.564,0,0,0-7.6,3.146,4.084,4.084,0,0,0,.56,8.13h11.9a4.083,4.083,0,0,0,.54-8.13Zm-.54,6.131H267.2a2.086,2.086,0,0,1,0-4.172h.5a1.012,1.012,0,0,0,.78-.367,1.027,1.027,0,0,0,.206-.826,2.236,2.236,0,0,1-.053-.513,2.562,2.562,0,0,1,4.545-1.626,1,1,0,0,0,1.14.293,2.6,2.6,0,0,1,.953-.187,2.557,2.557,0,0,1,2.552,2.32,1,1,0,0,0,.993.906h.287a2.086,2.086,0,0,1,0,4.172Z" fill="#1d6ea1"/>
            <path d="M281.192,295.451a2.089,2.089,0,0,1-2.086,2.086H267.2a2.086,2.086,0,0,1,0-4.172h.5a1.012,1.012,0,0,0,.78-.367,1.027,1.027,0,0,0,.206-.826,2.236,2.236,0,0,1-.053-.513,2.562,2.562,0,0,1,4.545-1.626,1,1,0,0,0,1.14.293,2.6,2.6,0,0,1,.953-.187,2.557,2.557,0,0,1,2.552,2.32,1,1,0,0,0,.993.906h.287A2.094,2.094,0,0,1,281.192,295.451Z" fill="#6ed3e0"/>
          </g>
          <g>
            <path d="M293.694,284.773a4.09,4.09,0,0,0,4.085,4.085h11.9a4.085,4.085,0,0,0,.56-8.131,4.563,4.563,0,0,0-7.6-3.145,4.417,4.417,0,0,0-1.027-.12,4.535,4.535,0,0,0-4.372,3.265A4.091,4.091,0,0,0,293.694,284.773Zm2,0a2.093,2.093,0,0,1,2.086-2.086h.287a1,1,0,0,0,.993-.907,2.557,2.557,0,0,1,2.552-2.319,2.6,2.6,0,0,1,.953.187,1,1,0,0,0,1.14-.294,2.562,2.562,0,0,1,4.545,1.627,2.241,2.241,0,0,1-.053.513,1.027,1.027,0,0,0,.206.826,1.016,1.016,0,0,0,.78.367h.5a2.086,2.086,0,0,1,0,4.172h-11.9A2.089,2.089,0,0,1,295.693,284.773Z" fill="#1d6ea1"/>
            <path d="M295.693,284.773a2.089,2.089,0,0,0,2.086,2.086h11.9a2.086,2.086,0,0,0,0-4.172h-.5a1.016,1.016,0,0,1-.78-.367,1.027,1.027,0,0,1-.206-.826,2.241,2.241,0,0,0,.053-.513,2.562,2.562,0,0,0-4.545-1.627,1,1,0,0,1-1.14.294,2.6,2.6,0,0,0-.953-.187,2.557,2.557,0,0,0-2.552,2.319,1,1,0,0,1-.993.907h-.287A2.093,2.093,0,0,0,295.693,284.773Z" fill="#6ed3e0"/>
          </g>
          <g>
            <path d="M355.76,311.757a3.922,3.922,0,0,0-3.752-2.712,4.088,4.088,0,0,0-.8.08,3.906,3.906,0,0,0-2.566-.953,3.955,3.955,0,0,0-3.932,3.592,3.55,3.55,0,0,0,.626,7.044h9.844a3.549,3.549,0,0,0,.58-7.051Zm-.58,5.052h-9.844a1.55,1.55,0,1,1,0-3.1h.414a1,1,0,0,0,.979-1.2,1.951,1.951,0,0,1,3.419-1.627,1,1,0,0,0,1.14.3,1.943,1.943,0,0,1,2.659,1.62,1,1,0,0,0,1,.906h.233a1.55,1.55,0,1,1,0,3.1Z" fill="#1d6ea1"/>
            <path d="M356.733,315.263a1.549,1.549,0,0,1-1.553,1.546h-9.844a1.55,1.55,0,1,1,0-3.1h.414a1,1,0,0,0,.979-1.2,1.951,1.951,0,0,1,3.419-1.627,1,1,0,0,0,1.14.3,1.943,1.943,0,0,1,2.659,1.62,1,1,0,0,0,1,.906h.233A1.551,1.551,0,0,1,356.733,315.263Z" fill="#6ed3e0"/>
          </g>
          <g>
            <path d="M342.38,290.41a4.887,4.887,0,1,1,4.886-4.886A4.892,4.892,0,0,1,342.38,290.41Zm0-7.773a2.887,2.887,0,1,0,2.887,2.887A2.89,2.89,0,0,0,342.38,282.637Z" fill="#1d6ea1"/>
            <path d="M342.38,280.118a1,1,0,0,1-1-1v-3.239a1,1,0,0,1,2,0v3.239A1,1,0,0,1,342.38,280.118Z" fill="#1d6ea1"/>
            <path d="M342.38,296.334a1,1,0,0,1-1-1V292.1a1,1,0,0,1,2,0v3.239A1,1,0,0,1,342.38,296.334Z" fill="#1d6ea1"/>
            <path d="M337.791,282.018a1,1,0,0,1-.706-.292l-2.291-2.291a1,1,0,1,1,1.414-1.414l2.29,2.291a1,1,0,0,1-.707,1.706Z" fill="#1d6ea1"/>
            <path d="M349.258,293.485a1,1,0,0,1-.706-.293l-2.291-2.291a1,1,0,1,1,1.413-1.413l2.291,2.29a1,1,0,0,1-.707,1.707Z" fill="#1d6ea1"/>
            <path d="M335.892,286.606h-3.24a1,1,0,1,1,0-2h3.24a1,1,0,0,1,0,2Z" fill="#1d6ea1"/>
            <path d="M352.108,286.606h-3.24a1,1,0,1,1,0-2h3.24a1,1,0,0,1,0,2Z" fill="#1d6ea1"/>
            <path d="M335.5,293.485a1,1,0,0,1-.707-1.707l2.291-2.29A1,1,0,0,1,338.5,290.9l-2.29,2.291A1,1,0,0,1,335.5,293.485Z" fill="#1d6ea1"/>
            <path d="M346.967,282.018a1,1,0,0,1-.706-1.706l2.291-2.291a1,1,0,1,1,1.413,1.414l-2.291,2.291A1,1,0,0,1,346.967,282.018Z" fill="#1d6ea1"/>
          </g>
          <g>
            <path d="M319.1,297.929h-2.732a14.639,14.639,0,0,0-14.629,14.628v3.066a1,1,0,0,0,1,1h30a1.007,1.007,0,0,0,1-1v-3.066A14.645,14.645,0,0,0,319.1,297.929Zm-15.361,16.694v-2.066a12.643,12.643,0,0,1,12.629-12.629H319.1a12.648,12.648,0,0,1,12.636,12.629v2.066Z" fill="#1d6ea1"/>
            <path d="M319.1,299.928h-2.732a12.643,12.643,0,0,0-12.629,12.629v2.066h28v-2.066A12.648,12.648,0,0,0,319.1,299.928Z" fill="#00a49e"/>
          </g>
          <path d="M348.912,371.984l-.107-.886-1.959-16.688V354.4a9.047,9.047,0,0,0-8.7-7.784H323.487a1,1,0,0,0-1,1v1.24a2.539,2.539,0,0,1-2.672,2.425h-4.238a2.524,2.524,0,0,1-2.606-2.425v-1.24a1,1,0,0,0-1-1H297.316a9.047,9.047,0,0,0-8.7,7.791L286.653,371.1l-.107.886a1.013,1.013,0,0,0,.247.78,1,1,0,0,0,.746.333h60.38a1,1,0,0,0,.746-.333A1.013,1.013,0,0,0,348.912,371.984Zm-60.247-.886L290.6,354.65a7,7,0,0,1,6.718-6.031h13.655v.24a4.54,4.54,0,0,0,4.672,4.425h4.239a4.524,4.524,0,0,0,4.605-4.425v-.24h13.655a7,7,0,0,1,6.718,6.031l1.933,16.448Zm19.067-24.479a.977.977,0,0,1,.72.307.993.993,0,0,1,.28.733l-.04.96h2.279v-2Z" fill="#1d6ea1"/>
          <path d="M337.023,371.1l-1.606-22.479-.08-1.073a.993.993,0,0,0-.993-.927h-6.618a.977.977,0,0,0-.72.307,1.018,1.018,0,0,0-.28.733l.04.96.447,10.236H308.246l.446-10.236.04-.96a.993.993,0,0,0-.28-.733.977.977,0,0,0-.72-.307h-6.618a.993.993,0,0,0-.993.927l-.079,1.073L298.435,371.1l-.066.926a1,1,0,0,0,.266.753.993.993,0,0,0,.733.32H336.09a.982.982,0,0,0,.733-.32,1,1,0,0,0,.266-.753Zm-36.581,0,1.606-22.479h4.638l-.48,11.2a1,1,0,0,0,1,1.04h21.046a1,1,0,0,0,1-1.04l-.48-11.2h4.638l1.607,22.479Z" fill="#1d6ea1"/>
          <g>
            <path d="M366.565,342.554H323.487a1,1,0,0,0-1,1v5.305a2.539,2.539,0,0,1-2.672,2.425h-4.238a2.524,2.524,0,0,1-2.606-2.425v-5.305a1,1,0,0,0-1-1h-173.3a1,1,0,0,0-1,1V372.1a1,1,0,0,0,1,1h227.9a1,1,0,0,0,1-1V343.554A1,1,0,0,0,366.565,342.554Zm-1,28.544h-225.9V344.553h171.3v4.306a4.54,4.54,0,0,0,4.672,4.425h4.239a4.524,4.524,0,0,0,4.605-4.425v-4.306h41.078Z" fill="#1d6ea1"/>
            <path d="M323.974,371.1v-6.365a1,1,0,0,0-1-1h-10.49a1,1,0,0,0-1,1V371.1H300.442l1.606-22.479h4.638l-.48,11.2a1,1,0,0,0,1,1.04h21.046a1,1,0,0,0,1-1.04l-.48-11.2h4.638l1.607,22.479Z" fill="#00a49e"/>
            <path d="M365.565,344.553V371.1h-16.76l-1.959-16.688V354.4a9.047,9.047,0,0,0-8.7-7.784H324.487v-2.066Z" fill="#2ec7e6"/>
            <path d="M310.971,344.553v2.066H297.316a9.047,9.047,0,0,0-8.7,7.791L286.653,371.1H139.667V344.553Z" fill="#6ed3e0"/>
          </g>
          <path d="M236.372,316.437H165.414a1.252,1.252,0,0,0-1.251,1.252V343.3a1.251,1.251,0,0,0,1.251,1.251h70.958a2.467,2.467,0,0,0,2.459-2.459V318.9A2.467,2.467,0,0,0,236.372,316.437ZM166.666,342.05V318.94H235.12a1.208,1.208,0,0,1,1.208,1.209v21.9Z" fill="#1d6ea1"/>
          <g>
            <path d="M185.329,318.94h-13a1.252,1.252,0,0,1-1.246-1.369l3.61-37.97a1.251,1.251,0,0,1,1.246-1.133h5.776a1.25,1.25,0,0,1,1.245,1.133l3.61,37.97a1.252,1.252,0,0,1-1.245,1.369Zm-11.62-2.5h10.244l-3.373-35.466h-3.5Z" fill="#1d6ea1"/>
            <path d="M182.4,288.1h-7.131a1.252,1.252,0,0,1,0-2.5H182.4a1.252,1.252,0,1,1,0,2.5Z" fill="#1d6ea1"/>
            <path d="M183.131,295.818h-8.6a1.252,1.252,0,0,1,0-2.5h8.6a1.252,1.252,0,0,1,0,2.5Z" fill="#1d6ea1"/>
            <path d="M183.864,303.535H173.8a1.252,1.252,0,1,1,0-2.5h10.066a1.252,1.252,0,0,1,0,2.5Z" fill="#1d6ea1"/>
            <path d="M184.6,311.252H173.064a1.252,1.252,0,1,1,0-2.5H184.6a1.252,1.252,0,0,1,0,2.5Z" fill="#1d6ea1"/>
          </g>
          <g>
            <path d="M203.59,318.94h-13a1.252,1.252,0,0,1-1.246-1.369l3.611-37.97a1.251,1.251,0,0,1,1.246-1.133h5.775a1.25,1.25,0,0,1,1.245,1.133l3.611,37.97a1.252,1.252,0,0,1-1.246,1.369Zm-11.62-2.5h10.244l-3.373-35.466h-3.5Z" fill="#1d6ea1"/>
            <path d="M200.657,288.1h-7.131a1.252,1.252,0,1,1,0-2.5h7.131a1.252,1.252,0,1,1,0,2.5Z" fill="#1d6ea1"/>
            <path d="M201.391,295.818h-8.6a1.252,1.252,0,1,1,0-2.5h8.6a1.252,1.252,0,1,1,0,2.5Z" fill="#1d6ea1"/>
            <path d="M202.126,303.535H192.059a1.252,1.252,0,1,1,0-2.5h10.067a1.252,1.252,0,0,1,0,2.5Z" fill="#1d6ea1"/>
            <path d="M202.859,311.252H191.325a1.252,1.252,0,0,1,0-2.5h11.534a1.252,1.252,0,0,1,0,2.5Z" fill="#1d6ea1"/>
          </g>
          <g>
            <path d="M182.584,322.519h-5.29a1.25,1.25,0,0,0-1.251,1.252v8.059a1.25,1.25,0,0,0,1.251,1.252h5.29a1.25,1.25,0,0,0,1.251-1.252v-8.059A1.25,1.25,0,0,0,182.584,322.519Zm-1.252,8.06h-2.786v-5.557h2.786Z" fill="#1d6ea1"/>
            <rect x="178.546" y="325.022" width="2.786" height="5.557" fill="#00a49e"/>
          </g>
          <g>
            <path d="M193.1,322.519h-5.3a1.255,1.255,0,0,0-1.251,1.252v8.059a1.255,1.255,0,0,0,1.251,1.252h5.3a1.25,1.25,0,0,0,1.251-1.252v-8.059A1.25,1.25,0,0,0,193.1,322.519Zm-1.252,8.06h-2.8v-5.557h2.8Z" fill="#1d6ea1"/>
            <rect x="189.053" y="325.022" width="2.795" height="5.557" fill="#00a49e"/>
          </g>
          <g>
            <path d="M203.607,322.519h-5.289a1.25,1.25,0,0,0-1.252,1.252v8.059a1.25,1.25,0,0,0,1.252,1.252h5.289a1.25,1.25,0,0,0,1.252-1.252v-8.059A1.25,1.25,0,0,0,203.607,322.519Zm-1.251,8.06h-2.787v-5.557h2.787Z" fill="#1d6ea1"/>
            <rect x="199.569" y="325.022" width="2.786" height="5.557" fill="#00a49e"/>
          </g>
          <g>
            <path d="M213.956,322.519h-5.29a1.25,1.25,0,0,0-1.251,1.252v8.059a1.25,1.25,0,0,0,1.251,1.252h5.29a1.25,1.25,0,0,0,1.251-1.252v-8.059A1.25,1.25,0,0,0,213.956,322.519Zm-1.252,8.06h-2.786v-5.557H212.7Z" fill="#1d6ea1"/>
            <rect x="209.918" y="325.022" width="2.786" height="5.557" fill="#00a49e"/>
          </g>
          <g>
            <path d="M224.3,322.519h-5.289a1.25,1.25,0,0,0-1.251,1.252v8.059a1.25,1.25,0,0,0,1.251,1.252H224.3a1.25,1.25,0,0,0,1.252-1.252v-8.059A1.25,1.25,0,0,0,224.3,322.519Zm-1.251,8.06h-2.786v-5.557h2.786Z" fill="#1d6ea1"/>
            <rect x="220.267" y="325.022" width="2.786" height="5.557" fill="#00a49e"/>
          </g>
          <path d="M289.088,340.907c-2.7,0-4.814-3.048-4.814-6.939s2.114-6.939,4.814-6.939,4.814,3.048,4.814,6.939S291.787,340.907,289.088,340.907Zm0-11.878c-1.5,0-2.815,2.308-2.815,4.939s1.315,4.94,2.815,4.94,2.815-2.308,2.815-4.94S290.587,329.029,289.088,329.029Z" fill="#1d6ea1"/>
          <path d="M289.088,344.555a1,1,0,0,1-1-1v-9.164a1,1,0,0,1,2,0v9.164A1,1,0,0,1,289.088,344.555Z" fill="#1d6ea1"/>
          <path d="M263.126,340.907c-2.7,0-4.814-3.048-4.814-6.939s2.114-6.939,4.814-6.939,4.814,3.048,4.814,6.939S265.825,340.907,263.126,340.907Zm0-11.878c-1.5,0-2.815,2.308-2.815,4.939s1.315,4.94,2.815,4.94,2.815-2.308,2.815-4.94S264.625,329.029,263.126,329.029Z" fill="#1d6ea1"/>
          <path d="M263.126,344.555a1,1,0,0,1-1-1v-9.164a1,1,0,0,1,2,0v9.164A1,1,0,0,1,263.126,344.555Z" fill="#1d6ea1"/>
          <path d="M299.871,341.664c-2.256,0-4.023-2.507-4.023-5.707s1.767-5.706,4.023-5.706,4.022,2.506,4.022,5.706S302.126,341.664,299.871,341.664Zm0-9.414c-.958,0-2.024,1.522-2.024,3.707s1.066,3.707,2.024,3.707,2.023-1.522,2.023-3.707S300.828,332.25,299.871,332.25Z" fill="#1d6ea1"/>
          <path d="M299.871,344.555a1,1,0,0,1-1-1v-7.263a1,1,0,0,1,2,0v7.263A1,1,0,0,1,299.871,344.555Z" fill="#1d6ea1"/>
          <path d="M277.177,341.573c-2.256,0-4.023-2.507-4.023-5.707s1.767-5.707,4.023-5.707,4.023,2.506,4.023,5.707S279.433,341.573,277.177,341.573Zm0-9.415c-.957,0-2.023,1.523-2.023,3.708s1.066,3.707,2.023,3.707,2.023-1.523,2.023-3.707S278.134,332.158,277.177,332.158Z" fill="#1d6ea1"/>
          <path d="M277.177,344.463a1,1,0,0,1-1-1V336.2a1,1,0,0,1,2,0v7.262A1,1,0,0,1,277.177,344.463Z" fill="#1d6ea1"/>
          <path d="M317.729,341.086a16.556,16.556,0,0,1-6.125-1.163,15.239,15.239,0,0,1-9.873-14.105v-5.5a1,1,0,0,1,1-1h30a1,1,0,0,1,1,1v5.5a15.238,15.238,0,0,1-9.874,14.105A16.552,16.552,0,0,1,317.729,341.086Zm-14-19.766v4.5a13.252,13.252,0,0,0,8.609,12.247,14.789,14.789,0,0,0,10.779,0,13.253,13.253,0,0,0,8.61-12.247v-4.5Z" fill="#1d6ea1"/>
          <path d="M324.047,338.169a1,1,0,0,0-.926-.107,14.743,14.743,0,0,1-10.777,0c-.007,0-.013-.007-.02-.007h-.007a1,1,0,0,0-1.346.94v9.864a4.54,4.54,0,0,0,4.672,4.425h4.239a4.524,4.524,0,0,0,4.605-4.425V339A1,1,0,0,0,324.047,338.169Zm-1.56,10.69a2.539,2.539,0,0,1-2.672,2.425h-4.238a2.524,2.524,0,0,1-2.606-2.425V340.4c.246.073.493.14.746.2.173.046.347.086.527.12.019.006.033.006.053.013.14.033.28.06.42.086.42.074.846.134,1.266.18H316c.14.02.28.034.42.04h.02a2.036,2.036,0,0,0,.206.014c.134.013.274.02.407.02.446.02.9.02,1.346,0,.133,0,.267-.007.4-.02h.02a1.558,1.558,0,0,0,.18-.014c.14-.006.28-.013.42-.033.026,0,.053-.007.08-.007q.62-.069,1.239-.18a.045.045,0,0,0,.027-.006c.147-.027.293-.053.44-.093a1.627,1.627,0,0,0,.18-.034l.42-.1c.226-.06.453-.12.679-.186Z" fill="#1d6ea1"/>
          <path d="M335.743,314.623H299.715a1,1,0,0,0-1,1v4.7a1,1,0,0,0,1,1h36.028a1,1,0,0,0,1-1v-4.7A1,1,0,0,0,335.743,314.623Zm-1,4.7H300.715v-2.7h34.028Z" fill="#1d6ea1"/>
        </g>
        <path d="M319.709,304.917a2.4,2.4,0,0,1,.58.357,3.29,3.29,0,0,1,1.165,2.393h-1.5c.455-2.214-.819-3.075-2.2-2.923a3.162,3.162,0,0,1,.758-.077,6.979,6.979,0,0,0-.789-.044c-3.026,0-5.1,1.847-5.1,4.126s2.072,4.127,5.1,4.127,5.1-1.848,5.1-4.127a4.109,4.109,0,0,0-3.122-3.832m-5.463,5.971c-.822-2.25.689-5.377,3.018-5.826A1.922,1.922,0,0,1,319.7,306.2a3.448,3.448,0,0,0-2.3.777,5.029,5.029,0,0,0-1.976,3.589,1.922,1.922,0,0,0,2.344,2.1,3.01,3.01,0,0,1-3.516-1.784m3.308,1.574a1.73,1.73,0,0,1-1.756-1.195,4.076,4.076,0,0,0,2.96-1.434l1.377,1.434a3.786,3.786,0,0,1-2.581,1.195" fill="#fff" fill-rule="evenodd"/>
      </g>
      <g>
        <line x1="252.968" y1="473.516" x2="252.968" y2="451.342" fill="none" stroke="#29a199" stroke-miterlimit="10" stroke-width="6"/>
        <polygon points="262.123 462.76 252.968 471.92 243.814 462.76 243.814 470.534 252.968 479.688 262.123 470.534 262.123 462.76" fill="#29a199"/>
      </g>
      <g>
        <polyline points="391.327 163.493 391.327 166.493 388.327 166.493" fill="none" stroke="#00a49e" stroke-miterlimit="10" stroke-width="2"/>
        <line x1="382.312" y1="166.493" x2="120.617" y2="166.493" fill="none" stroke="#00a49e" stroke-miterlimit="10" stroke-width="2" stroke-dasharray="6.016 6.016"/>
        <polyline points="117.609 166.493 114.609 166.493 114.609 163.493" fill="none" stroke="#00a49e" stroke-miterlimit="10" stroke-width="2"/>
        <line x1="114.609" y1="157.586" x2="114.609" y2="6.954" fill="none" stroke="#00a49e" stroke-miterlimit="10" stroke-width="2" stroke-dasharray="5.907 5.907"/>
        <polyline points="114.609 4 114.609 1 117.609 1" fill="none" stroke="#00a49e" stroke-miterlimit="10" stroke-width="2"/>
        <line x1="123.625" y1="1" x2="385.319" y2="1" fill="none" stroke="#00a49e" stroke-miterlimit="10" stroke-width="2" stroke-dasharray="6.016 6.016"/>
        <polyline points="388.327 1 391.327 1 391.327 4" fill="none" stroke="#00a49e" stroke-miterlimit="10" stroke-width="2"/>
        <line x1="391.327" y1="9.907" x2="391.327" y2="160.54" fill="none" stroke="#00a49e" stroke-miterlimit="10" stroke-width="2" stroke-dasharray="5.907 5.907"/>
      </g>
      <rect x="138.256" y="16.747" width="229.606" height="38" rx="6" fill="#56a8cc"/>
      <path d="M251.526,32.083c-.768,4.257-2.609,7.315-4.914,8.931a6.014,6.014,0,0,0-1.216-1.168,10.731,10.731,0,0,0,4.29-6.563h-3.842V31.778h4.385l.289-.064Zm8.356-.785a36.811,36.811,0,0,1-4.275,4.018,10.717,10.717,0,0,0,4.819,4.61,6.5,6.5,0,0,0-1.153,1.376,12.59,12.59,0,0,1-5.538-6.738V40.47c0,.976-.24,1.441-.816,1.713a8.828,8.828,0,0,1-3.042.3,7,7,0,0,0-.576-1.649c1.089.048,2.113.048,2.417.032.32,0,.448-.112.448-.4V27.809h1.569v2.849a21.925,21.925,0,0,0,1.233,3.441,27.787,27.787,0,0,0,3.537-3.777Z" fill="#fff"/>
      <rect x="138.256" y="64.747" width="229.606" height="38" rx="6" fill="#56a8cc"/>
      <g>
        <path d="M242.074,80.211c-1.392.464-2.882.9-4.066,1.264l-.592-1.312c1.168-.241,2.865-.689,4.514-1.121Zm1.473,8.339a21.221,21.221,0,0,1-4.9,1.985,10.462,10.462,0,0,0-1.12-1.1,17.509,17.509,0,0,0,4.658-1.5Zm-2.033-10.132a22,22,0,0,0-3.346-1.312l.656-1.009a19.755,19.755,0,0,1,3.346,1.184Zm3.025-.432a7.725,7.725,0,0,1-1.36,1.328,4.347,4.347,0,0,0-1.121-.72,6.676,6.676,0,0,0,2.369-2.8l1.344.208a8.525,8.525,0,0,1-.5.912h5.138l.225-.048.992.256a10.1,10.1,0,0,1-1.553,2.321l-1.169-.368a7.6,7.6,0,0,0,.8-1.088H247.5c.353,1.152,1.249,2.177,4.5,2.609a4.2,4.2,0,0,0-.753,1.216c-.447-.08-.864-.176-1.232-.272v6.355H239.577V81.459h3.217a3.864,3.864,0,0,0-.656-.976c2.577-.417,3.489-1.185,3.857-2.5Zm3.985,4.417h-7.506v.9h7.506Zm0,1.793h-7.506v.912h7.506Zm0,1.825h-7.506v.928h7.506Zm1.233-4.562a4.734,4.734,0,0,1-2.929-2.1c-.608.976-1.665,1.649-3.569,2.1Zm-2.705,6.5a50.2,50.2,0,0,1,4.786,1.857l-1.713.7a32.176,32.176,0,0,0-4.29-1.809Z" fill="#fff"/>
        <path d="M256.367,82.932a10.238,10.238,0,0,0-2.64-1.665l.832-1.1a11.443,11.443,0,0,1,2.689,1.552Zm1.185,2.225c-.64,1.68-1.456,3.585-2.193,5.106l-1.344-.8a49.06,49.06,0,0,0,2.337-5.138Zm-.432-6.4a11.57,11.57,0,0,0-2.625-1.761l.848-1.072a10.462,10.462,0,0,1,2.674,1.648Zm7.715,6.323v3.937c0,.673-.112,1.041-.593,1.249a5.767,5.767,0,0,1-2.208.208,5.684,5.684,0,0,0-.4-1.281c.672.032,1.345.016,1.536.016s.257-.064.257-.24V85.077h-2.705V79.49h2.448c.1-.5.208-1.072.272-1.552h-3.489v3.009c0,2.785-.272,6.85-2.161,9.492a6.755,6.755,0,0,0-1.232-.785c1.793-2.513,1.936-6.114,1.936-8.707V76.593h9.813v1.345h-3.186c-.176.528-.336,1.072-.5,1.552h3.153v5.587Zm-2.353,1.1a11.793,11.793,0,0,1-1.985,3.442,10.4,10.4,0,0,0-1.168-.769,8.39,8.39,0,0,0,1.824-3.009Zm-.432-4.434h4.321V80.6H262.05Zm0,2.241h4.321v-1.2H262.05Zm4.866,1.7a14.549,14.549,0,0,1,1.744,3.137l-1.36.608a14.778,14.778,0,0,0-1.665-3.217Z" fill="#fff"/>
      </g>
      <rect x="138.256" y="112.747" width="229.606" height="38" rx="6" fill="#56a8cc"/>
      <g>
        <path d="M226.884,135a11.686,11.686,0,0,0,1.392-.112v1.825c-.431-.048-1.055-.064-1.392-.064H216.32c-.465,0-.976.016-1.489.064v-1.825a9.472,9.472,0,0,0,1.489.112h4.306V128h-3.378c-.352,0-1.008.016-1.408.063v-1.744c.416.048,1.04.08,1.408.08H226a13.45,13.45,0,0,0,1.44-.08v1.744c-.448-.047-.976-.063-1.44-.063H222.37V135Z" fill="#fff"/>
        <path d="M238.091,136.118c0,.592.048,1.392.08,1.888h-1.825a16.643,16.643,0,0,0,.112-1.888c0-.864,0-2.145.016-3.17a26.1,26.1,0,0,1-5.2,2.114l-.975-1.489a19.479,19.479,0,0,0,6.515-2.705,12.025,12.025,0,0,0,3.008-2.689h-6.274c-.576,0-1.521.032-2.017.064v-1.665c.544.064,1.441.1,1.985.1h2.977v-.944a9.733,9.733,0,0,0-.1-1.441h1.825a12.774,12.774,0,0,0-.1,1.441v.944h2.337a4.039,4.039,0,0,0,1.136-.128l1.056,1.008c-.336.352-.752.784-1.04,1.121a21.533,21.533,0,0,1-3.521,3.249Zm2.289-4.562a38.278,38.278,0,0,1,3.857,2.3l-1.056,1.393a27.636,27.636,0,0,0-3.842-2.5Z" fill="#fff"/>
        <path d="M245.293,136.726a7.533,7.533,0,0,0,2.754-3.889,27.769,27.769,0,0,0,.464-6.387,5,5,0,0,0-.128-1.3h1.856a12.287,12.287,0,0,0-.08,1.281,35.011,35.011,0,0,1-.5,6.835,8.994,8.994,0,0,1-2.849,4.482Zm7.363.144a4.55,4.55,0,0,0,.113-1.008v-9.476a11.7,11.7,0,0,0-.1-1.28h1.856a9.621,9.621,0,0,0-.08,1.28v8.851a11.255,11.255,0,0,0,4.354-3.681l.961,1.377a16.8,16.8,0,0,1-5.443,4.417,3.333,3.333,0,0,0-.608.4Z" fill="#fff"/>
        <path d="M269.245,131.924c1.553-.256,2.978-.5,3.746-.64.624-.128,1.136-.24,1.5-.352l.336,1.68c-.367.033-.944.128-1.552.225-.833.127-2.241.352-3.729.592.288,1.456.512,2.641.607,3.073.113.464.257,1.024.417,1.5l-1.841.337c-.08-.561-.128-1.089-.224-1.553-.064-.4-.3-1.617-.576-3.089-1.745.288-3.362.56-4.114.688-.656.128-1.136.224-1.489.32l-.368-1.728c.4-.017,1.073-.1,1.521-.161.785-.1,2.417-.352,4.146-.64l-.561-2.929c-1.472.24-2.8.448-3.361.545-.544.095-.96.191-1.377.3l-.336-1.776c.448-.016.9-.048,1.393-.112.592-.064,1.921-.256,3.378-.48-.161-.785-.273-1.361-.321-1.585-.1-.433-.192-.8-.3-1.153l1.777-.3c.048.3.1.8.176,1.169.032.192.144.8.288,1.616,1.473-.24,2.833-.464,3.457-.576.385-.08.768-.16,1.073-.24a18.968,18.968,0,0,0-1.217-2.081l1.04-.432a22.95,22.95,0,0,1,1.282,2.193l-.849.368.3,1.569c-.3.016-.848.1-1.3.16l-3.49.56Zm5.57-5.826a14.864,14.864,0,0,0-1.3-2.193l1.024-.432a19.414,19.414,0,0,1,1.312,2.177Z" fill="#fff"/>
        <path d="M277.815,130.084c.513.047,1.5.095,2.37.095h8.691c.784,0,1.409-.064,1.793-.095v1.968c-.353-.016-1.072-.064-1.776-.064h-8.708c-.9,0-1.841.032-2.37.064Z" fill="#fff"/>
      </g>
      <g>
        <line x1="252.968" y1="187.553" x2="252.968" y2="165.379" fill="none" stroke="#29a199" stroke-miterlimit="10" stroke-width="6"/>
        <polygon points="262.123 176.797 252.968 185.957 243.814 176.797 243.814 184.57 252.968 193.725 262.123 184.57 262.123 176.797" fill="#29a199"/>
      </g>
      <g>
        <polyline points="61.169 70.647 34.344 70.647 34.344 350.791 34.344 554.133 67.341 554.133" fill="none" stroke="#29a199" stroke-miterlimit="10" stroke-width="6"/>
        <polygon points="50.413 61.493 59.573 70.647 50.413 79.802 58.186 79.802 67.341 70.647 58.186 61.493 50.413 61.493" fill="#29a199"/>
      </g>
      <line x1="34.344" y1="323.801" x2="67.341" y2="323.801" fill="none" stroke="#29a199" stroke-miterlimit="10" stroke-width="6"/>
      <g>
        <path d="M92.667,55.65a11.409,11.409,0,0,0,.111,1.841H90.842a18.257,18.257,0,0,0,.08-1.841V50.064a31.8,31.8,0,0,1-5.683,2.3l-.9-1.521a24.958,24.958,0,0,0,7.075-2.881,16.926,16.926,0,0,0,4.113-3.5l1.329,1.2a25.415,25.415,0,0,1-4.193,3.377Z" fill="#29a199"/>
        <path d="M91.37,69.841a14.7,14.7,0,0,0,5.458-5.922l.961,1.712a16.128,16.128,0,0,1-5.507,5.683,16.809,16.809,0,0,1-6.034,2.353l-1.04-1.617A16.31,16.31,0,0,0,91.37,69.841Zm-.656-4.9-1.249,1.265a32.835,32.835,0,0,0-3.905-3.249L86.7,61.742A32.579,32.579,0,0,1,90.714,64.943Z" fill="#29a199"/>
        <path d="M94.315,78.622a4.394,4.394,0,0,0,.624-.032,1.985,1.985,0,0,1-.047-.432A1.817,1.817,0,1,1,96.7,79.967a1.845,1.845,0,0,1-.416-.048c-.016.1-.048.208-.064.3a15.949,15.949,0,0,1-2.337,5.794,12.493,12.493,0,0,1-6.019,4.226l-1.312-1.5a10.807,10.807,0,0,0,5.858-3.665,10.958,10.958,0,0,0,1.969-4.866H86.648c-.656,0-1.3.032-1.7.048V78.51c.448.048,1.185.112,1.713.112Zm3.377-.464a.984.984,0,1,0-.992.992A.994.994,0,0,0,97.692,78.158Z" fill="#29a199"/>
        <path d="M90.394,99.328l-1.505.56A26.479,26.479,0,0,0,87.5,96.366l1.489-.528C89.337,96.559,90.105,98.48,90.394,99.328Zm7.747-3.314c-.128.4-.224.7-.3.945a12.39,12.39,0,0,1-2.081,4.69,11.54,11.54,0,0,1-4.962,3.681L89.5,104a10.1,10.1,0,0,0,4.931-3.186,10.429,10.429,0,0,0,1.984-5.282Zm-4.37,2.417-1.472.512a33.6,33.6,0,0,0-1.265-3.393l1.473-.5C92.778,95.71,93.562,97.743,93.771,98.431Z" fill="#29a199"/>
        <path d="M95.932,118.353a43.171,43.171,0,0,0-5.954-2.465v4.866c0,.48.063,1.44.112,2H88.169a15.96,15.96,0,0,0,.128-2v-9.092a10.736,10.736,0,0,0-.145-1.745H90.09c-.049.512-.112,1.2-.112,1.745v2.465a52.23,52.23,0,0,1,6.642,2.513Z" fill="#29a199"/>
      </g>
      <g>
        <path d="M94.315,288.553a4.394,4.394,0,0,0,.624-.032,1.987,1.987,0,0,1-.047-.433A1.817,1.817,0,1,1,96.7,289.9a1.846,1.846,0,0,1-.416-.049c-.016.1-.048.208-.064.3a15.953,15.953,0,0,1-2.337,5.795,12.5,12.5,0,0,1-6.019,4.225l-1.312-1.5A10.807,10.807,0,0,0,92.41,295a10.957,10.957,0,0,0,1.969-4.867H86.648c-.656,0-1.3.033-1.7.049v-1.745c.448.048,1.185.112,1.713.112Zm3.377-.465a.984.984,0,1,0-.992.993A.994.994,0,0,0,97.692,288.088Z" fill="#29a199"/>
        <path d="M96.78,313.964c0,.544.032,1.889.032,2.017H95.1c.015-.08.015-.448.032-.88H86.984l.016.88H85.3c.015-.144.048-1.393.048-2.033v-7.715c0-.4,0-.944-.033-1.36.624.016,1.121.032,1.5.032h8.531c.385,0,.945,0,1.457-.016-.032.416-.032.912-.032,1.344Zm-9.8-7.491v7.075h8.148v-7.075Z" fill="#29a199"/>
        <path d="M92.219,327.6a14.156,14.156,0,0,0,2.673-3.489c-.385.064-2.93.576-5.475,1.088v4.45c0,1.04.353,1.392,2.161,1.392a24.172,24.172,0,0,0,4.93-.5l-.048,1.7a36.13,36.13,0,0,1-4.914.32c-3.217,0-3.73-.8-3.73-2.481v-4.562c-1.5.3-2.848.576-3.489.72l-.32-1.616c.736-.1,2.177-.352,3.809-.657v-2.5a10.325,10.325,0,0,0-.128-1.6h1.857a10.615,10.615,0,0,0-.128,1.6v2.193c2.514-.48,5.026-.992,5.7-1.152a4.343,4.343,0,0,0,.977-.32l1.169.928c-.128.192-.321.48-.449.721a22.607,22.607,0,0,1-3.233,4.577Z" fill="#29a199"/>
        <path d="M95.964,337.865a6.061,6.061,0,0,0-.464.816,21.466,21.466,0,0,1-2.562,4.5,42.589,42.589,0,0,1,4.5,4.594l-1.393,1.216a35.629,35.629,0,0,0-4.162-4.577,20.417,20.417,0,0,1-6.05,4.513L84.567,347.6A18,18,0,0,0,91.034,343a13.66,13.66,0,0,0,2.5-4.162h-5.8c-.591,0-1.456.08-1.7.1v-1.776a16.411,16.411,0,0,0,1.7.112h5.843a5.456,5.456,0,0,0,1.376-.161Z" fill="#29a199"/>
      </g>
      <g>
        <path d="M4.13,248.26c-.032.32-.065.736-.065,1.153v5.281c0,.4.033.961.065,1.265H2.289a12.313,12.313,0,0,0,.08-1.28v-5.266c0-.273-.032-.833-.064-1.153Zm7.25-.128c-.031.416-.048.88-.048,1.456v2.786c0,3.6-.576,4.93-1.728,6.258a8.493,8.493,0,0,1-3.762,2.289l-1.3-1.36A7.3,7.3,0,0,0,8.355,257.5c1.088-1.233,1.3-2.465,1.3-5.219v-2.689a12.1,12.1,0,0,0-.1-1.456Z" fill="#29a199"/>
        <path d="M12.005,267.334a8.537,8.537,0,0,0,1.553-.1V268.9c-.241-.032-.817-.048-1.553-.048H10.516v.528c0,4.066-.912,6.307-4.594,7.955l-1.328-1.264c2.945-1.072,4.321-2.433,4.321-6.595v-.624H4.77v2.353c0,.64.047,1.313.064,1.537H3.089c.016-.224.08-.881.08-1.537v-2.353H1.633c-.737,0-1.393.032-1.633.048v-1.681a12.117,12.117,0,0,0,1.633.113H3.169v-1.825c0-.545-.064-1.041-.08-1.249H4.85a8.891,8.891,0,0,0-.08,1.265v1.809H8.915v-1.825a10.209,10.209,0,0,0-.08-1.361h1.777a9.618,9.618,0,0,0-.1,1.361v1.825Z" fill="#29a199"/>
        <path d="M8.516,291.545a11.387,11.387,0,0,0,.111,1.84H6.69a18.172,18.172,0,0,0,.081-1.84v-5.587a31.721,31.721,0,0,1-5.683,2.3l-.9-1.521a24.948,24.948,0,0,0,7.076-2.881,16.923,16.923,0,0,0,4.113-3.5l1.329,1.2a25.461,25.461,0,0,1-4.193,3.378Z" fill="#29a199"/>
        <path d="M12.9,299.285a6.361,6.361,0,0,0-.448.944A15.564,15.564,0,0,1,9.7,305.591a14.2,14.2,0,0,1-6.29,4.338l-1.457-1.3A12.457,12.457,0,0,0,8.259,304.7a11.941,11.941,0,0,0,2.385-4.642H5.73a16.388,16.388,0,0,1-3.986,3.858L.368,302.886a13.54,13.54,0,0,0,4.93-5.2,6.438,6.438,0,0,0,.576-1.425l1.809.593c-.3.48-.64,1.072-.8,1.392-.08.144-.145.273-.24.417h3.793a3.451,3.451,0,0,0,1.168-.177Z" fill="#29a199"/>
        <path d="M.111,324.889a7.032,7.032,0,0,0,2.642-3.746,25.36,25.36,0,0,0,.48-6.114,5.5,5.5,0,0,0-.128-1.265H4.914c0,.128-.08.7-.08,1.249a33.373,33.373,0,0,1-.48,6.547,8.916,8.916,0,0,1-2.8,4.4Zm7.171.224a4.513,4.513,0,0,0,.113-.992v-9.156a11.259,11.259,0,0,0-.1-1.249H9.14a7.954,7.954,0,0,0-.1,1.249v8.547a11.087,11.087,0,0,0,4.29-3.633l.929,1.36a16.519,16.519,0,0,1-5.33,4.338,3.271,3.271,0,0,0-.609.385Z" fill="#29a199"/>
        <path d="M8.5,331.8a1.441,1.441,0,1,1-1.441-1.441A1.432,1.432,0,0,1,8.5,331.8Z" fill="#29a199"/>
        <path d="M4.13,338.18c-.032.32-.065.736-.065,1.153v5.281c0,.4.033.961.065,1.265H2.289a12.313,12.313,0,0,0,.08-1.28v-5.266c0-.273-.032-.833-.064-1.153Zm7.25-.128c-.031.416-.048.88-.048,1.456v2.786c0,3.6-.576,4.93-1.728,6.258a8.493,8.493,0,0,1-3.762,2.289l-1.3-1.36a7.3,7.3,0,0,0,3.809-2.065c1.088-1.233,1.3-2.465,1.3-5.219v-2.689a12.1,12.1,0,0,0-.1-1.456Z" fill="#29a199"/>
        <path d="M12.213,363.96a8.868,8.868,0,0,0,1.376-.112v1.809c-.432-.049-1.04-.064-1.376-.064H1.664c-.464,0-.96.015-1.456.064v-1.809a8.8,8.8,0,0,0,1.456.112H8.483c.288-1.713.913-5.522.945-6.579H3.569c-.608,0-1.1.017-1.632.048V355.7c.5.048,1.088.1,1.616.1H8.979a4.274,4.274,0,0,0,1.2-.16l1.3.624a4.064,4.064,0,0,0-.145.608c-.176,1.457-.784,5.363-1.072,7.091Z" fill="#29a199"/>
        <path d="M5.65,382.889a19.759,19.759,0,0,0,.112-2.449c0-.88.016-7.043.016-8.211a12,12,0,0,0-.112-1.953H7.683a11.9,11.9,0,0,0-.112,1.936v8.228a20.681,20.681,0,0,0,.112,2.449Z" fill="#29a199"/>
        <path d="M11.812,388.468a6.081,6.081,0,0,0-.463.817,21.536,21.536,0,0,1-2.562,4.5,42.386,42.386,0,0,1,4.5,4.594l-1.392,1.216a35.646,35.646,0,0,0-4.163-4.578,20.416,20.416,0,0,1-6.049,4.514L.416,398.2a18.009,18.009,0,0,0,6.467-4.593,13.672,13.672,0,0,0,2.5-4.162h-5.8c-.592,0-1.456.08-1.7.1v-1.777a16.392,16.392,0,0,0,1.7.112H9.428a5.465,5.465,0,0,0,1.376-.16Z" fill="#29a199"/>
      </g>
      <g>
        <path d="M97.965,508.672a5.17,5.17,0,0,0-.513.673,15.554,15.554,0,0,1-3.857,4.322l-1.3-1.041a10.04,10.04,0,0,0,3.2-3.249H86.872c-.608,0-1.168.032-1.841.08v-1.729a13.833,13.833,0,0,0,1.841.144H95.66a7.893,7.893,0,0,0,1.313-.112Zm-6.339,2.081c0,4.114-.256,7.139-4.386,9.268l-1.44-1.184a5.385,5.385,0,0,0,1.505-.769c2.257-1.457,2.608-3.441,2.608-6.05a8.805,8.805,0,0,0-.08-1.265Z" fill="#29a199"/>
        <path d="M97.212,526.1a10.443,10.443,0,0,0-.272,1.073,14.557,14.557,0,0,1-1.5,4.593,10.062,10.062,0,0,1-6.307,4.578l-1.28-1.488a9.593,9.593,0,0,0,1.873-.513,8.171,8.171,0,0,0,3.969-2.96,10.713,10.713,0,0,0,1.441-4.338H86.776v2.577a7.118,7.118,0,0,0,.064,1.04H85.111a8.846,8.846,0,0,0,.065-1.136v-2.754a8.342,8.342,0,0,0-.065-1.264,15.145,15.145,0,0,0,1.537.08h3.425v-1.361a8.463,8.463,0,0,0-.095-1.3h1.888a11.169,11.169,0,0,0-.095,1.3v1.361h3.184a3.11,3.11,0,0,0,1.185-.16Z" fill="#29a199"/>
        <path d="M95.932,548.1a43.171,43.171,0,0,0-5.954-2.465V550.5c0,.48.063,1.441.112,2H88.169a15.989,15.989,0,0,0,.128-2v-9.092a10.736,10.736,0,0,0-.145-1.745H90.09c-.049.512-.112,1.2-.112,1.745v2.465a52.23,52.23,0,0,1,6.642,2.513Z" fill="#29a199"/>
        <path d="M94.315,557.328a4.394,4.394,0,0,0,.624-.032,2,2,0,0,1-.047-.433,1.817,1.817,0,1,1,1.808,1.809,1.845,1.845,0,0,1-.416-.048c-.016.1-.048.208-.064.3a15.953,15.953,0,0,1-2.337,5.795,12.5,12.5,0,0,1-6.019,4.225l-1.312-1.5a10.8,10.8,0,0,0,5.858-3.666,10.949,10.949,0,0,0,1.969-4.866H86.648c-.656,0-1.3.032-1.7.049v-1.746c.448.049,1.185.113,1.713.113Zm3.377-.465a.984.984,0,1,0-.992.993A.994.994,0,0,0,97.692,556.863Z" fill="#29a199"/>
        <path d="M90.394,578.033l-1.505.56a26.464,26.464,0,0,0-1.393-3.521l1.489-.528C89.337,575.264,90.105,577.185,90.394,578.033Zm7.747-3.313c-.128.4-.224.7-.3.944a12.376,12.376,0,0,1-2.081,4.69,11.543,11.543,0,0,1-4.962,3.682l-1.3-1.329a10.094,10.094,0,0,0,4.931-3.185,10.433,10.433,0,0,0,1.984-5.282Zm-4.37,2.417-1.472.512a33.6,33.6,0,0,0-1.265-3.393l1.473-.5C92.778,574.416,93.562,576.449,93.771,577.137Z" fill="#29a199"/>
        <path d="M95.932,597.059a43.171,43.171,0,0,0-5.954-2.465v4.866c0,.48.063,1.44.112,2H88.169a15.989,15.989,0,0,0,.128-2v-9.092a10.736,10.736,0,0,0-.145-1.745H90.09c-.049.512-.112,1.2-.112,1.745v2.465a52.23,52.23,0,0,1,6.642,2.513Z" fill="#29a199"/>
      </g>
    </g>
  </g>
</svg>
