<svg xmlns="http://www.w3.org/2000/svg" width="654.53" height="489.631" viewBox="0 0 654.53 489.631">
  <g id="レイヤー_2" data-name="レイヤー 2">
    <g id="_039" data-name="039">
      <g>
        <path d="M653.53,116.78V408.631H1V116.78H653.53m1-1H0V409.631H654.53V115.78Z" fill="#e5e5e5"/>
        <rect x="36.363" y="155.827" width="581.805" height="130" fill="#e5e5e5"/>
        <rect x="109.088" y="207.768" width="436.354" height="60" fill="#fff"/>
        <rect x="237.265" y="95.78" width="180" height="40" fill="#29a199"/>
        <g>
          <path d="M264.286,114.15c0-4.8,2.921-7.682,6.641-7.682a5.67,5.67,0,0,1,4.181,1.861l-1.26,1.48a3.919,3.919,0,0,0-2.881-1.32c-2.54,0-4.3,2.12-4.3,5.581,0,3.5,1.64,5.641,4.24,5.641a4.29,4.29,0,0,0,3.261-1.56l1.24,1.46a5.814,5.814,0,0,1-4.581,2.121C267.126,121.732,264.286,118.971,264.286,114.15Z" fill="#fff"/>
          <path d="M276.346,114.97h5.281v1.7h-5.281Z" fill="#fff"/>
          <path d="M284.486,106.748h2.321v6h6.3v-6h2.321v14.723h-2.321v-6.7h-6.3v6.7h-2.321Z" fill="#fff"/>
          <path d="M306.087,117.271h-5.121l-1.26,4.2h-2.36l4.881-14.723h2.68l4.882,14.723h-2.461Zm-.56-1.821-.58-1.98c-.5-1.6-.94-3.241-1.4-4.9h-.08c-.42,1.68-.88,3.3-1.36,4.9l-.6,1.98Z" fill="#fff"/>
          <path d="M311.726,106.748h2.661l2.7,7.442c.34.98.641,1.98.98,2.981h.1c.34-1,.621-2,.96-2.981l2.661-7.442h2.681v14.723h-2.161V114.19c0-1.321.18-3.221.3-4.561h-.08l-1.18,3.4-2.56,7.021h-1.441l-2.58-7.021-1.161-3.4h-.08c.1,1.34.281,3.24.281,4.561v7.281h-2.081Z" fill="#fff"/>
          <path d="M340.847,113.97c-.28.46-.6.94-.92,1.44h10.482v1.54h-4.1a8.183,8.183,0,0,1-2.061,2.821c2.141.58,4.081,1.18,5.541,1.741l-1.12,1.54a56.049,56.049,0,0,0-6.2-2.06c-2.2,1.16-5.181,1.74-9.062,2.06a5.194,5.194,0,0,0-.74-1.621,27.148,27.148,0,0,0,7.161-1.12c-.92-.22-1.86-.44-2.821-.64l-.339.46-1.761-.58c.54-.72,1.2-1.64,1.861-2.6h-4.382v-1.54h5.422c.46-.7.9-1.38,1.26-2l1.36.38v-3.281a17.857,17.857,0,0,1-7.181,4.241,6.274,6.274,0,0,0-1.141-1.46,17.081,17.081,0,0,0,6.322-3.061h-5.822v-1.52h7.822v-1.7c-2.04.139-4.121.219-6.041.239a7.1,7.1,0,0,0-.38-1.42,82.084,82.084,0,0,0,12.883-1.12l1.38,1.32a52.323,52.323,0,0,1-6,.84v1.841h7.861v1.52h-5.821a17.433,17.433,0,0,0,6.3,2.861,8.167,8.167,0,0,0-1.2,1.54,17.832,17.832,0,0,1-7.141-4.121v3.461Zm-1.94,2.98c-.3.46-.6.9-.92,1.341,1.38.28,2.78.6,4.12.92a6.928,6.928,0,0,0,2.121-2.261Z" fill="#fff"/>
          <path d="M364.748,119.691a58.34,58.34,0,0,1,5.9,2.081l-1.64,1.3a53.246,53.246,0,0,0-6.3-2.3l1.46-1.08h-5.781l1.4.94a25.151,25.151,0,0,1-6.2,2.421,11.205,11.205,0,0,0-1.4-1.34,23.475,23.475,0,0,0,5.561-2.021h-3.461v-8.662h14.283v8.662Zm3.041-9.622H355.146v-4.681h12.643Zm-11.663,3.441h10.5v-1.141h-10.5Zm0,2.42h10.5v-1.16h-10.5Zm0,2.421h10.5v-1.18h-10.5Zm9.7-11.483h-8.822v1.721h8.822Z" fill="#fff"/>
          <path d="M376.687,111.029a24.687,24.687,0,0,1-3.481,2.081,6.84,6.84,0,0,0-1.1-1.521,20.228,20.228,0,0,0,8.182-6.881h1.921a20.1,20.1,0,0,0,8.562,6.6,8.986,8.986,0,0,0-1.181,1.681,25.21,25.21,0,0,1-3.541-2.081v1.561h-9.361Zm-3.441,3.521h16.423v1.74h-9.162c-.66,1.341-1.4,2.841-2.12,4.121,2.22-.08,4.7-.18,7.141-.28a29.156,29.156,0,0,0-2.32-2.38l1.6-.861a25.464,25.464,0,0,1,4.641,5.142l-1.7,1.06a13.649,13.649,0,0,0-.88-1.3c-4.762.24-9.843.46-13.244.6l-.239-1.821,2.96-.1a34.008,34.008,0,0,0,1.861-4.181h-4.961Zm12.582-3.8a20.036,20.036,0,0,1-4.5-4.241,19.408,19.408,0,0,1-4.261,4.241Z" fill="#fff"/>
        </g>
        <rect x="491.13" y="114.4" width="120" height="4" fill="#fff"/>
        <g>
          <path d="M540.214,117.45h-2.08v3.5h-1.881v-.86h-4.26v1.041c0,1.02-.26,1.44-.941,1.7a11.771,11.771,0,0,1-3.4.26,5.746,5.746,0,0,0-.64-1.5c1.1.04,2.3.04,2.62.02.361-.02.481-.12.481-.461v-1.06h-6.241v-1.4h6.241V117.45h-8v-1.459h8V114.85h-6.062v-1.32h6.062v-1.181h-5.541v-3.68h5.541v-1.02h-7.582v-1.5h7.582v-1.46h1.88v1.46h7.8v1.5h-7.8v1.02h5.821v3.68h-5.821v1.181h6.141v2.461h2.08Zm-10.1-6.341v-1.2h-3.761v1.2Zm1.88-1.2v1.2h3.941v-1.2Zm0,6.082h4.26V114.85h-4.26Zm4.26,1.459h-4.26v1.241h4.26Z"/>
          <path d="M558.7,108.289a9.689,9.689,0,0,1-2.221,3.2,14.088,14.088,0,0,0,4.041,1.5,6.824,6.824,0,0,0-1.16,1.56,14.211,14.211,0,0,1-4.342-1.92,16.577,16.577,0,0,1-4.221,1.88,5.236,5.236,0,0,0-.519-.82,27.4,27.4,0,0,1-1.1,3.22l-1.28-.64a21.988,21.988,0,0,0,.88-3h-1.54v7.681c0,.9-.14,1.4-.74,1.721a6.921,6.921,0,0,1-2.641.3,6.565,6.565,0,0,0-.54-1.761c.8.04,1.6.04,1.841.02s.319-.06.319-.3V115.51a14.116,14.116,0,0,1-2.7,4.341,8.925,8.925,0,0,0-.94-1.78,13.231,13.231,0,0,0,3.06-4.8h-2.78v-1.621h5.1a24.7,24.7,0,0,0-4.28-2.36l1.16-1.2c.56.22,1.2.5,1.8.8a11.442,11.442,0,0,0,1.72-1.681h-5.261v-1.58h6.581l.3-.06,1.2.74a14.008,14.008,0,0,1-3.12,3.341,13.964,13.964,0,0,1,1.6,1.06l-.861.94h1.24l.281-.1,1.12.4c-.061.259-.12.52-.181.8a13.309,13.309,0,0,0,3.062-1.26,11.848,11.848,0,0,1-1.782-2.1,12.671,12.671,0,0,1-1.2,1.16,10.936,10.936,0,0,0-1.54-1.06,11.94,11.94,0,0,0,3.8-4.821l1.74.48a16.684,16.684,0,0,1-.82,1.58h6.3v1.561Zm1.019,7.5s-.019.48-.059.741c-.34,3.58-.7,5.121-1.261,5.721a2.12,2.12,0,0,1-1.34.6,20.192,20.192,0,0,1-2.221,0,4.85,4.85,0,0,0-.5-1.72c.781.079,1.521.1,1.861.1a.766.766,0,0,0,.639-.219c.341-.3.621-1.321.881-3.662h-2.9a8,8,0,0,1-5.241,5.7,5.519,5.519,0,0,0-1.1-1.44,6.618,6.618,0,0,0,4.442-4.262h-2.8v-1.56h3.2c.1-.62.181-1.24.24-1.9h1.841c-.061.66-.141,1.28-.24,1.9Zm-6.76-7.5a9.086,9.086,0,0,0,2.019,2.2,7.243,7.243,0,0,0,1.681-2.2Z"/>
          <path d="M579.434,112.53s0,.56-.019.82c-.241,5.921-.46,8.162-1.04,8.882a1.883,1.883,0,0,1-1.441.72,17.115,17.115,0,0,1-2.581.04,4.148,4.148,0,0,0-.52-1.761,16.247,16.247,0,0,0,2.181.1.724.724,0,0,0,.7-.279c.38-.421.62-2.2.8-6.882H565.832a17.96,17.96,0,0,1-2.6,8.362,7.714,7.714,0,0,0-1.5-1.181c2.221-3.18,2.42-7.7,2.42-10.9v-4.781h13.863v5.361H565.992c0,.481-.021.981-.04,1.5Zm-13.442-5.282v2.181h10.162v-2.181Zm3.02,13.6v1.161h-1.72V115.57h7.681v5.281Zm0-3.8v2.3h4.221v-2.3Z"/>
        </g>
        <g>
          <path d="M531.933,37.286c-.02.281-.02.621-.06.981.18,2.661,1.22,11.642,8.7,15.083a6.025,6.025,0,0,0-1.42,1.56c-4.842-2.34-7.062-6.921-8.1-10.782a16.6,16.6,0,0,1-7.7,10.8,6.366,6.366,0,0,0-1.54-1.46c8-4.261,7.882-13.543,8.022-16.184Z"/>
          <path d="M560.214,49.509h-2.08v3.5h-1.881v-.86h-4.26v1.04c0,1.02-.26,1.44-.941,1.7a11.734,11.734,0,0,1-3.4.26,5.746,5.746,0,0,0-.64-1.5c1.1.04,2.3.04,2.62.02.361-.02.481-.12.481-.46V52.15h-6.241v-1.4h6.241v-1.24h-8v-1.46h8V46.908h-6.062v-1.32h6.062v-1.18h-5.541V40.727h5.541v-1.02h-7.582v-1.5h7.582V36.746h1.88v1.461h7.8v1.5h-7.8v1.02h5.821v3.681h-5.821v1.18h6.141v2.461h2.08Zm-10.1-6.341v-1.2h-3.761v1.2Zm1.88-1.2v1.2h3.941v-1.2Zm0,6.081h4.26V46.908h-4.26Zm4.26,1.46h-4.26v1.24h4.26Z"/>
          <path d="M561.991,44.308h10.242v1.7H561.991Zm9.982-3.861h-9.5v-1.62h3.841V36.846h1.8v1.981h3.861Zm-8.722,7.1h7.982v7.482h-1.82v-1h-4.442v1.081h-1.72Zm1.2-3.361a13.065,13.065,0,0,0-.781-3.1l1.54-.34a12.3,12.3,0,0,1,.88,3.061Zm.519,5V52.41h4.442V49.189Zm3.221-5.341a23.787,23.787,0,0,0,1-3.2l1.761.4c-.441,1.12-.88,2.36-1.281,3.18Zm12.183-5.161c-.781,1.9-1.741,4.2-2.6,5.941a6.422,6.422,0,0,1,2.28,4.741c0,1.34-.3,2.281-1.019,2.761a3.158,3.158,0,0,1-1.341.48,14.354,14.354,0,0,1-1.64.04,4.44,4.44,0,0,0-.5-1.841,11.107,11.107,0,0,0,1.361.04,1.645,1.645,0,0,0,.8-.219c.4-.241.54-.761.54-1.481,0-1.16-.52-2.62-2.36-4.281.72-1.56,1.5-3.661,2.061-5.221h-3.181V55.111h-1.82v-17.2H578.7l.3-.08Z"/>
          <path d="M511.933,65.286c-.02.281-.02.621-.06.981.18,2.661,1.22,11.642,8.7,15.083a6.025,6.025,0,0,0-1.42,1.56c-4.842-2.34-7.062-6.921-8.1-10.782a16.6,16.6,0,0,1-7.7,10.8,6.366,6.366,0,0,0-1.54-1.46c8-4.261,7.882-13.543,8.022-16.184Z"/>
          <path d="M526.011,78.849a12.5,12.5,0,0,1-2.719,4.282,16.827,16.827,0,0,0-1.481-1.1,8.826,8.826,0,0,0,2.42-3.621Zm4.062-.76h-7.142V65.507h7.142Zm-1.821-11.062h-3.561v2.2h3.561Zm0,3.641h-3.561v2.24h3.561Zm0,3.64h-3.561v2.281h3.561Zm.26,4.081a14.9,14.9,0,0,1,2.16,3.181l-1.58.82a16.485,16.485,0,0,0-2.1-3.32Zm11.843-7.221h-2.381V80.89c0,1-.24,1.54-.84,1.86a8.027,8.027,0,0,1-3.041.361,6.67,6.67,0,0,0-.66-1.821c1.04.04,1.981.04,2.261.02.32,0,.44-.1.44-.42V73.548a19.429,19.429,0,0,1-4.741,6.4,8.087,8.087,0,0,0-1.28-1.34,17.876,17.876,0,0,0,5.341-7.442h-4.822v-1.74h5.5V64.806h1.84v4.622h2.381Z"/>
          <path d="M544.751,72.368V83.111h-1.84V65.547h7.422v6.821Zm0-5.441v1.34h3.841v-1.34Zm3.841,4.081v-1.46h-3.841v1.46Zm5.3,7.442v4.3h-1.66v-4.3h-2.421a6.443,6.443,0,0,1-2.62,4.6,6.3,6.3,0,0,0-1.2-1.1,4.844,4.844,0,0,0,2.2-3.5h-2.28V76.909h2.34v-1.9h-1.98V73.528h9.7v1.481h-2.081v1.9h2.481V78.45Zm-1.66-1.541v-1.9h-2.381v1.9Zm7.222,3.921c0,1.02-.2,1.56-.861,1.88a7.846,7.846,0,0,1-3.14.341,6.028,6.028,0,0,0-.6-1.841c1.02.02,2.04.02,2.36.02.3-.02.4-.12.4-.42v-8.4h-5.741V65.547h7.582Zm-5.8-13.9v1.34h3.961v-1.34Zm3.961,4.121v-1.5h-3.961v1.5Z"/>
          <path d="M574.473,73.408v2.641H579v1.72h-4.522V80.51c0,.68.1.78.74.78h1.941c.58,0,.68-.4.761-2.381a5.081,5.081,0,0,0,1.66.721c-.16,2.58-.681,3.32-2.241,3.32h-2.441c-1.88,0-2.34-.54-2.34-2.44V77.769h-3.18c-.38,2.121-1.641,4.121-5.421,5.421a6.337,6.337,0,0,0-1.181-1.46c3.081-1.02,4.261-2.46,4.681-3.961h-4.241v-1.72h4.461V73.408h-1.94v-.72a15.73,15.73,0,0,1-2.841,1.68,6.32,6.32,0,0,0-1.12-1.4,13.749,13.749,0,0,0,3.721-2.36,21.225,21.225,0,0,0-2.2-1.921l1.16-.98a17.633,17.633,0,0,1,2.2,1.741,12.709,12.709,0,0,0,1.6-2.281h-4.561v-1.62h5.461l.341-.06,1.219.58a13.786,13.786,0,0,1-3.72,5.581h8.382a17.961,17.961,0,0,1-4.061-6.382l1.641-.48a14.973,14.973,0,0,0,1.16,2.361,19.586,19.586,0,0,0,2.139-2.14l1.4.98a31.625,31.625,0,0,1-2.74,2.34c.339.46.719.9,1.1,1.321a21.553,21.553,0,0,0,2.58-2.381l1.381.96a29.5,29.5,0,0,1-2.921,2.4,12.512,12.512,0,0,0,3.461,2.1,7.093,7.093,0,0,0-1.28,1.6,12.677,12.677,0,0,1-2.681-1.64v.72Zm-1.92,0h-3.041v2.641h3.041Z"/>
          <path d="M599.955,80.89v1.66H582.391V80.89h7.741V78.809h-5.961v-1.62h5.961v-1.98c-2.34.06-4.52.12-6.22.18l-.08-1.7c.819,0,1.78-.02,2.8-.04a25.733,25.733,0,0,0,1.321-2.44h-3.3v-1.6h13.083v1.6h-7.621c-.481.8-1,1.66-1.521,2.4,1.981-.04,4.141-.1,6.3-.139-.54-.441-1.1-.881-1.62-1.241l1.341-.92a25.6,25.6,0,0,1,4.52,3.821l-1.46,1.02a12.616,12.616,0,0,0-1.06-1.16c-1.521.06-3.08.1-4.581.16v2.04h6.261v1.62h-6.261V80.89ZM584.372,70.028h-1.821V66.167h7.581V64.746h1.9v1.421h7.742v3.861h-1.9V67.847h-13.5Z"/>
        </g>
        <g>
          <path d="M274.117,185.429c0-4.8,2.921-7.682,6.642-7.682a5.672,5.672,0,0,1,4.18,1.861l-1.26,1.48a3.915,3.915,0,0,0-2.88-1.32c-2.541,0-4.3,2.12-4.3,5.581,0,3.5,1.64,5.642,4.241,5.642A4.294,4.294,0,0,0,284,189.43l1.24,1.46a5.812,5.812,0,0,1-4.581,2.121C276.958,193.011,274.117,190.25,274.117,185.429Z"/>
          <path d="M286.293,186.249h5.281v1.7h-5.281Z"/>
          <path d="M294.607,178.028h2.321v6h6.3v-6h2.321v14.723h-2.321v-6.7h-6.3v6.7h-2.321Z"/>
          <path d="M316.323,188.55H311.2l-1.261,4.2h-2.36l4.881-14.723h2.681l4.881,14.723h-2.461Zm-.56-1.821-.58-1.98c-.5-1.6-.94-3.24-1.4-4.9h-.08c-.42,1.681-.88,3.3-1.36,4.9l-.6,1.98Z"/>
          <path d="M322.063,178.028h2.661l2.7,7.441c.34.981.64,1.981.98,2.981h.1c.34-1,.62-2,.96-2.981l2.66-7.441h2.681v14.723h-2.16v-7.282c0-1.32.18-3.221.3-4.561h-.08l-1.18,3.4-2.561,7.021h-1.44l-2.581-7.021-1.16-3.4h-.08c.1,1.34.28,3.241.28,4.561v7.282h-2.081Z"/>
          <path d="M351.128,185.249c-.279.46-.6.94-.92,1.44H360.69v1.541h-4.1a8.189,8.189,0,0,1-2.061,2.821c2.141.58,4.081,1.18,5.541,1.74l-1.12,1.54a56.049,56.049,0,0,0-6.2-2.06c-2.2,1.16-5.181,1.74-9.062,2.06a5.189,5.189,0,0,0-.74-1.62,27.148,27.148,0,0,0,7.161-1.12c-.92-.221-1.86-.441-2.82-.641l-.34.46-1.76-.58c.54-.72,1.2-1.64,1.86-2.6h-4.381v-1.541h5.421c.46-.7.9-1.38,1.26-2l1.36.38v-3.281a17.846,17.846,0,0,1-7.181,4.241,6.244,6.244,0,0,0-1.14-1.46,17.1,17.1,0,0,0,6.321-3.06h-5.821v-1.521h7.821v-1.7c-2.04.14-4.121.22-6.041.24a7.124,7.124,0,0,0-.38-1.421,81.963,81.963,0,0,0,12.883-1.12l1.38,1.32a52.023,52.023,0,0,1-6,.841v1.84h7.862v1.521h-5.822a17.453,17.453,0,0,0,6.3,2.86,8.172,8.172,0,0,0-1.2,1.54,17.821,17.821,0,0,1-7.141-4.121v3.461Zm-1.94,2.981c-.3.46-.6.9-.92,1.34,1.38.28,2.78.6,4.121.921a6.956,6.956,0,0,0,2.12-2.261Z"/>
          <path d="M374.917,190.971a58.463,58.463,0,0,1,5.9,2.08l-1.641,1.3a53.189,53.189,0,0,0-6.3-2.3l1.46-1.08h-5.781l1.4.939a25.174,25.174,0,0,1-6.2,2.421,11.205,11.205,0,0,0-1.4-1.34,23.416,23.416,0,0,0,5.561-2.02h-3.461v-8.663h14.283v8.663Zm3.041-9.623H365.315v-4.681h12.643ZM366.3,184.789h10.5v-1.14H366.3Zm0,2.421h10.5v-1.161H366.3Zm0,2.42h10.5v-1.18H366.3Zm9.7-11.482h-8.822v1.72H376Z"/>
        </g>
        <rect x="177.265" width="300" height="60" fill="#e5e5e5"/>
        <g>
          <path d="M315.588,35.565c-.46-.58-1.36-1.54-2.18-2.361v7.962h-1.841V33.784a17.574,17.574,0,0,1-2.8,2.241,8.82,8.82,0,0,0-.92-1.721,16.48,16.48,0,0,0,5.941-6.121h-5.241v-1.7h3.02V22.8h1.841v3.681h1.38l.32-.06,1.04.7a18.488,18.488,0,0,1-2.48,4.3c.94.76,2.6,2.2,3.061,2.621Zm11.163,3.2v1.841h-11.2V38.765h4.842V30.924h-4.041v-1.8h4.041V22.962h1.9v6.161h4.041v1.8H322.29v7.841Z"/>
          <path d="M345.289,34.905a30.534,30.534,0,0,1-4.142,2.52,13.459,13.459,0,0,0,5.262,2.121,6.411,6.411,0,0,0-1.18,1.66,12.149,12.149,0,0,1-9.062-7.321h-2.6v4.78l4.821-.739.1,1.64c-3.141.54-6.5,1.08-8.882,1.46l-.44-1.7c.72-.1,1.58-.219,2.5-.359V33.885h-3.421V32.224h3.441V23.542h12.362V25.1H333.566v1.38h9.9v1.48h-9.9v1.381h9.9v1.48h-9.9v1.4h12.482v1.661h-2.26Zm-7.222-1.02a10.543,10.543,0,0,0,1.86,2.52,27.443,27.443,0,0,0,3.821-2.52Z"/>
        </g>
        <rect x="27.265" y="429.631" width="600" height="60" fill="#e5e5e5"/>
        <g>
          <path d="M197.057,455.193a15.923,15.923,0,0,1-4.762,4.7,27.305,27.305,0,0,0,7.5,2.44,8.1,8.1,0,0,0-1.2,1.721,26.579,26.579,0,0,1-8.082-3.081,32.314,32.314,0,0,1-8.561,3.18,6.825,6.825,0,0,0-.921-1.66,32.219,32.219,0,0,0,7.782-2.64,19.927,19.927,0,0,1-2.921-2.54,20.866,20.866,0,0,1-2.98,2.3,11.526,11.526,0,0,0-1.4-1.38,16.8,16.8,0,0,0,6.321-5.981l1.761.62c-.32.521-.68,1.061-1.06,1.561h6.9l.319-.1Zm-12.583,8.382h11.9v7.2H194.4V470h-8.042v.84h-1.88Zm1.88,1.681v3.1H194.4v-3.1Zm.741-9.122a16.03,16.03,0,0,0,3.42,2.761,15.781,15.781,0,0,0,3.521-2.841h-6.882Z"/>
          <path d="M201.438,459.994H211.68v1.7H201.438Zm9.981-3.86h-9.5v-1.62h3.841v-1.981h1.8v1.981h3.86Zm-8.721,7.1h7.981v7.482h-1.82v-1h-4.441v1.08H202.7Zm1.2-3.36a13.056,13.056,0,0,0-.78-3.1l1.54-.339a12.34,12.34,0,0,1,.88,3.06Zm.52,5V468.1h4.441v-3.221Zm3.221-5.342a23.818,23.818,0,0,0,1-3.2l1.76.4c-.44,1.121-.88,2.361-1.28,3.181Zm12.182-5.161c-.78,1.9-1.74,4.2-2.6,5.942a6.423,6.423,0,0,1,2.28,4.741c0,1.34-.3,2.28-1.02,2.76a3.14,3.14,0,0,1-1.34.48,14.366,14.366,0,0,1-1.641.04,4.449,4.449,0,0,0-.5-1.84,11.091,11.091,0,0,0,1.36.04,1.639,1.639,0,0,0,.8-.22c.4-.24.54-.76.54-1.48,0-1.16-.52-2.621-2.361-4.281.721-1.561,1.5-3.661,2.061-5.221H214.22V470.8H212.4v-17.2h5.741l.3-.079Z"/>
          <path d="M227.408,457.154a23.064,23.064,0,0,1-1.62,2.5v11.183h-1.74v-9.1a16.812,16.812,0,0,1-1.961,1.861,14.083,14.083,0,0,0-1.02-1.7,17.51,17.51,0,0,0,4.7-5.321Zm-.4-4.081a20.675,20.675,0,0,1-4.741,4.782,10.539,10.539,0,0,0-1-1.341,15.7,15.7,0,0,0,4.061-4.081ZM234.67,468.6a11.531,11.531,0,0,0,1.7.12c.5,0,2.881,0,3.521-.021a7.71,7.71,0,0,0-.56,1.781h-3.1c-2.86,0-5.061-.72-6.541-3.381a9.978,9.978,0,0,1-2.141,3.781,9.9,9.9,0,0,0-1.44-1.28c1.9-1.821,2.52-4.841,2.741-8.482l1.86.14a32.2,32.2,0,0,1-.42,3.4A5.7,5.7,0,0,0,232.85,468v-9.242h-4.822v-1.78h2.921a30.453,30.453,0,0,0-1.92-3.761l1.54-.64a24.907,24.907,0,0,1,2.1,3.861l-1.12.54h4.761l-1.34-.5a24.939,24.939,0,0,0,1.881-4.041l1.8.62a39.031,39.031,0,0,1-2.021,3.921h2.781v1.78H234.67V462.3h4.2v1.74h-4.2Z"/>
          <path d="M253.465,466.156a18.385,18.385,0,0,0,6.782,2.721,8.323,8.323,0,0,0-1.24,1.66,17.851,17.851,0,0,1-7.162-3.761V470.8h-1.82v-3.881a19.868,19.868,0,0,1-7.1,3.6,8.346,8.346,0,0,0-1.22-1.58,19.392,19.392,0,0,0,6.741-2.781h-6.181V464.6h7.762v-1.221h-5.9v-1.4h5.9v-1.2h-6.881V459.3h4.1a9.916,9.916,0,0,0-.84-1.821l.48-.08h-4.541v-1.56H245.3a15,15,0,0,0-1.46-2.7l1.62-.54a13.907,13.907,0,0,1,1.6,2.861l-1.02.38h2.2v-3.421h1.74v3.421h1.98v-3.421h1.761v3.421h2.16l-.76-.24a17.441,17.441,0,0,0,1.4-2.961l1.921.48a31.162,31.162,0,0,1-1.661,2.721h2.881v1.56h-3.861c-.38.68-.78,1.34-1.12,1.9h4.241v1.479h-7.082v1.2h6.141v1.4h-6.141V464.6h7.882v1.56Zm-5.141-8.762a8.428,8.428,0,0,1,.861,1.781l-.581.12h4.221a19,19,0,0,0,.881-1.9Z"/>
          <path d="M274.508,467.437a58.439,58.439,0,0,1,5.9,2.08l-1.64,1.3a53.033,53.033,0,0,0-6.3-2.3l1.461-1.08h-5.782l1.4.939a25.167,25.167,0,0,1-6.2,2.421,11.285,11.285,0,0,0-1.4-1.34,23.443,23.443,0,0,0,5.561-2.02h-3.461v-8.663h14.284v8.663Zm3.04-9.622H264.906v-4.682h12.642Zm-11.662,3.44h10.5v-1.141h-10.5Zm0,2.421h10.5v-1.161h-10.5Zm0,2.42h10.5v-1.18h-10.5Zm9.7-11.483h-8.822v1.721h8.822Z"/>
          <path d="M291.446,453.253h1.6l-5.561,19.564h-1.6Z"/>
          <path d="M298.805,459.994h10.242v1.7H298.805Zm9.982-3.86h-9.5v-1.62h3.841v-1.981h1.8v1.981h3.861Zm-8.722,7.1h7.982v7.482h-1.82v-1h-4.441v1.08h-1.721Zm1.2-3.36a13.061,13.061,0,0,0-.781-3.1l1.541-.339a12.34,12.34,0,0,1,.88,3.06Zm.52,5V468.1h4.441v-3.221Zm3.22-5.342a23.675,23.675,0,0,0,1-3.2l1.761.4c-.44,1.121-.88,2.361-1.28,3.181Zm12.183-5.161c-.78,1.9-1.74,4.2-2.6,5.942a6.421,6.421,0,0,1,2.281,4.741c0,1.34-.3,2.28-1.02,2.76a3.144,3.144,0,0,1-1.341.48,14.354,14.354,0,0,1-1.64.04,4.449,4.449,0,0,0-.5-1.84,11.086,11.086,0,0,0,1.36.04,1.635,1.635,0,0,0,.8-.22c.4-.24.54-.76.54-1.48,0-1.16-.52-2.621-2.36-4.281.72-1.561,1.5-3.661,2.061-5.221h-3.181V470.8h-1.82v-17.2h5.741l.3-.079Z"/>
          <path d="M325.927,457.214h-7.1v-1.481h7.1Zm-.5,12.482h-4.18v.841h-1.561v-6.722h5.741Zm-.02-9.8h-5.7v-1.441h5.7Zm-5.7,1.22h5.7v1.46h-5.7Zm5.642-6.561h-5.562v-1.461h5.562Zm-4.1,10.761V468.2h2.6v-2.881Zm12.042-1.1a14.173,14.173,0,0,0,4.141,4.221,7.009,7.009,0,0,0-1.26,1.4,16.66,16.66,0,0,1-3.741-4.241v5.181h-1.8v-5a13.7,13.7,0,0,1-3.94,4.182,7.59,7.59,0,0,0-1.241-1.421,12.079,12.079,0,0,0,4.382-4.32h-3.661v-1.661h4.46v-1.44h-3.78v-7.9h9.5v7.9h-3.921v1.44h4.481v1.661Zm-4.781-7.782h2.221v-1.7h-2.221Zm0,3.18h2.221v-1.74h-2.221Zm6.121-4.881h-2.28v1.7h2.28Zm0,3.141h-2.28v1.74h2.28Z"/>
          <path d="M356.149,464.535a30.43,30.43,0,0,1-4.141,2.521,13.463,13.463,0,0,0,5.261,2.121,6.435,6.435,0,0,0-1.18,1.66,12.149,12.149,0,0,1-9.062-7.321h-2.6v4.78l4.821-.739.1,1.639c-3.14.54-6.5,1.08-8.882,1.461l-.44-1.7c.721-.1,1.58-.22,2.5-.359v-5.081h-3.421v-1.66h3.441v-8.683h12.363v1.56H344.426v1.38h9.9v1.481h-9.9v1.381h9.9v1.48h-9.9v1.4h12.483v1.66h-2.261Zm-7.222-1.019a10.54,10.54,0,0,0,1.861,2.52,27.489,27.489,0,0,0,3.82-2.52Z"/>
          <path d="M376.921,468.576v1.66H359.357v-1.66H367.1V466.5h-5.962v-1.62H367.1V462.9c-2.341.059-4.521.12-6.222.179l-.08-1.7c.82,0,1.781-.02,2.8-.04a26.079,26.079,0,0,0,1.32-2.44h-3.3v-1.6H374.7v1.6h-7.621c-.48.8-1,1.66-1.521,2.4,1.981-.04,4.141-.1,6.3-.14-.54-.44-1.1-.881-1.62-1.24l1.341-.921a25.61,25.61,0,0,1,4.521,3.821l-1.461,1.02a12.9,12.9,0,0,0-1.06-1.16c-1.52.06-3.08.1-4.581.16v2.041h6.261v1.62H369v2.08Zm-15.584-10.862h-1.82v-3.86H367.1v-1.421H369v1.421h7.742v3.86h-1.9v-2.181h-13.5Z"/>
          <path d="M395.775,464.535a30.43,30.43,0,0,1-4.141,2.521,13.463,13.463,0,0,0,5.261,2.121,6.435,6.435,0,0,0-1.18,1.66,12.149,12.149,0,0,1-9.062-7.321h-2.6v4.78l4.821-.739.1,1.639c-3.14.54-6.5,1.08-8.882,1.461l-.44-1.7c.721-.1,1.58-.22,2.5-.359v-5.081h-3.421v-1.66h3.441v-8.683h12.363v1.56H384.052v1.38h9.9v1.481h-9.9v1.381h9.9v1.48h-9.9v1.4h12.483v1.66h-2.261Zm-7.222-1.019a10.54,10.54,0,0,0,1.861,2.52,27.489,27.489,0,0,0,3.82-2.52Z"/>
          <path d="M407.932,453.253h1.6l-5.561,19.564h-1.6Z"/>
          <path d="M426.533,458.355a17.782,17.782,0,0,0,7.342,7.7,8.406,8.406,0,0,0-1.4,1.64,19.412,19.412,0,0,1-7.082-7.681v5.341h3.581v1.88h-3.581v3.541h-1.96v-3.541h-3.661v-1.88h3.661v-5.322a20.321,20.321,0,0,1-7.042,7.722,10.738,10.738,0,0,0-1.32-1.54,18.578,18.578,0,0,0,7.241-7.861h-6.541v-1.881h7.662v-4.041h1.96v4.041h7.742v1.881Z"/>
          <path d="M435.059,459.994H445.3v1.7H435.059Zm9.982-3.86h-9.5v-1.62h3.841v-1.981h1.8v1.981h3.861Zm-8.722,7.1H444.3v7.482H442.48v-1h-4.44v1.08h-1.721Zm1.2-3.36a13.109,13.109,0,0,0-.781-3.1l1.541-.339a12.34,12.34,0,0,1,.88,3.06Zm.52,5V468.1h4.44v-3.221Zm3.22-5.342a23.675,23.675,0,0,0,1-3.2l1.761.4c-.44,1.121-.88,2.361-1.28,3.181Zm12.183-5.161c-.78,1.9-1.74,4.2-2.6,5.942a6.421,6.421,0,0,1,2.281,4.741c0,1.34-.3,2.28-1.02,2.76a3.144,3.144,0,0,1-1.341.48,14.354,14.354,0,0,1-1.64.04,4.449,4.449,0,0,0-.5-1.84,11.086,11.086,0,0,0,1.36.04,1.635,1.635,0,0,0,.8-.22c.4-.24.54-.76.54-1.48,0-1.16-.52-2.621-2.36-4.281.72-1.561,1.5-3.661,2.06-5.221h-3.18V470.8h-1.821v-17.2h5.742l.3-.079Z"/>
          <path d="M472.283,464.535a30.492,30.492,0,0,1-4.141,2.521,13.463,13.463,0,0,0,5.261,2.121,6.411,6.411,0,0,0-1.18,1.66,12.149,12.149,0,0,1-9.062-7.321h-2.6v4.78l4.821-.739.1,1.639c-3.141.54-6.5,1.08-8.882,1.461l-.44-1.7c.72-.1,1.58-.22,2.5-.359v-5.081h-3.421v-1.66h3.441v-8.683h12.362v1.56H460.56v1.38h9.9v1.481h-9.9v1.381h9.9v1.48h-9.9v1.4h12.482v1.66h-2.26Zm-7.222-1.019a10.563,10.563,0,0,0,1.86,2.52,27.443,27.443,0,0,0,3.821-2.52Z"/>
        </g>
        <rect x="39.421" y="319.631" width="263.166" height="60" fill="#e5e5e5"/>
        <g>
          <path d="M72.947,353.656c.88,1.38,2.521,2.02,4.721,2.1,2.221.08,6.662.02,9.162-.14a8.472,8.472,0,0,0-.62,1.9c-2.261.1-6.281.141-8.562.04-2.541-.1-4.261-.76-5.521-2.3-.94.82-1.9,1.62-2.941,2.481l-.96-1.921a30.025,30.025,0,0,0,2.9-2.06v-4.7h-2.56v-1.72h4.381Zm-.92-9.342a15.012,15.012,0,0,0-3.341-3.161l1.38-1.12a15.666,15.666,0,0,1,3.421,3.061Zm6.581.52c.1-.44.2-.921.28-1.361H73.807v-1.52h3.121a9.57,9.57,0,0,0-1.12-1.8l1.44-.56a7.033,7.033,0,0,1,1.4,2.18l-.44.18h2.961a17.132,17.132,0,0,0,1.24-2.4l1.881.44c-.421.7-.861,1.4-1.241,1.96H86.43v1.52H80.909c-.18.48-.38.941-.56,1.361H84.87v9.5H75.408v-9.5Zm4.421,1.36H77.168v1.381h5.861Zm0,2.661H77.168v1.38h5.861Zm0,2.7H77.168v1.38h5.861Z"/>
          <path d="M94.768,351.575c-2,1.021-4.162,2.1-5.842,2.9l-.72-1.86c.72-.281,1.62-.661,2.6-1.081v-5.961h-2.2v-1.76h2.2v-4.041h1.72v4.041h2.02v1.76h-2.02v5.2c.6-.28,1.22-.56,1.84-.84Zm3.88-2.36a9.207,9.207,0,0,1-.74,1.2h8.362s-.02.46-.04.7c-.32,4-.62,5.562-1.16,6.162a1.742,1.742,0,0,1-1.2.56,15.747,15.747,0,0,1-2,.02,3.674,3.674,0,0,0-.42-1.5,13.366,13.366,0,0,0,1.56.08c.3,0,.46-.02.62-.22.3-.34.56-1.48.8-4.3h-1.2A13.813,13.813,0,0,1,99.208,358a6.027,6.027,0,0,0-1.34-1.04,11.6,11.6,0,0,0,3.8-5.041h-1.581a15.376,15.376,0,0,1-4.76,5.222,5.167,5.167,0,0,0-1.241-1.121,12.95,12.95,0,0,0,4.321-4.1h-1.68a13.591,13.591,0,0,1-2.461,2.141,10.16,10.16,0,0,0-1.26-1.161,10.739,10.739,0,0,0,3.781-3.68h-2.56v-1.58h12.5v1.58Zm6.682-2.541H96.088v-6.561h9.242Zm-1.721-5.221H97.768v1.3h5.841Zm0,2.56H97.768v1.321h5.841Z"/>
          <path d="M124.724,342.993a8.253,8.253,0,0,0-.3,1.1c-.361,2.26-.8,5.121-2.281,7.461a14.266,14.266,0,0,1-7.581,5.662l-1.741-1.761a12.729,12.729,0,0,0,7.4-4.961,14.964,14.964,0,0,0,1.86-6.4h-10.4v3.72a14.046,14.046,0,0,0,.06,1.441h-2.3c.04-.54.081-1,.081-1.441v-4.26c0-.48-.041-1-.081-1.481.56.04,1.361.06,2.261.06h9.962a7.422,7.422,0,0,0,1.541-.12Z"/>
          <path d="M127.626,347.434c.641.06,1.881.12,2.961.12h10.862c.981,0,1.761-.08,2.241-.12V349.9c-.44-.02-1.34-.08-2.221-.08H130.587c-1.12,0-2.3.04-2.961.08Z"/>
          <path d="M162.828,350.235c-.461.04-1.181.18-1.941.3-1.04.16-2.8.44-4.661.74.36,1.8.64,3.3.76,3.841.14.58.32,1.28.52,1.88l-2.3.4c-.1-.7-.16-1.34-.28-1.94-.08-.5-.38-2-.72-3.861-2.181.36-4.2.7-5.142.88-.819.141-1.42.261-1.86.38l-.46-2.14c.5-.02,1.34-.12,1.9-.2.98-.14,3.02-.46,5.181-.8l-.7-3.681c-1.84.3-3.5.58-4.2.7-.679.12-1.2.24-1.72.36l-.42-2.2c.56-.04,1.12-.08,1.74-.14.741-.08,2.4-.32,4.221-.6-.2-1-.34-1.721-.4-2a11.392,11.392,0,0,0-.4-1.44l2.241-.36c.06.38.12,1,.22,1.44.04.24.18,1,.38,2.041,1.82-.3,3.521-.581,4.3-.74.62-.121,1.24-.261,1.64-.381l.38,2.1c-.36.04-1.04.14-1.6.22-.881.14-2.561.4-4.361.68l.7,3.661c1.941-.321,3.721-.62,4.681-.8.76-.161,1.42-.3,1.88-.44Z"/>
          <path d="M172.682,352.035a19.051,19.051,0,0,0,6.942-7.541l1.22,2.18a20.624,20.624,0,0,1-7.022,7.242,22.057,22.057,0,0,1-7.661,2.98l-1.341-2.06A20.768,20.768,0,0,0,172.682,352.035Zm-.68-6.4-1.581,1.62a45.4,45.4,0,0,0-5-4.241l1.461-1.56A40.586,40.586,0,0,1,172,345.634Z"/>
          <path d="M195.305,343.554a4.7,4.7,0,0,0,1.5-.2l1.64,1a6.916,6.916,0,0,0-.56,1.22,19.8,19.8,0,0,1-3.52,6.8,18.008,18.008,0,0,1-8,5.522l-1.861-1.661a16,16,0,0,0,8.022-4.981,15.159,15.159,0,0,0,3.041-5.9H189.3a20.747,20.747,0,0,1-5.061,4.881l-1.761-1.3a17.117,17.117,0,0,0,6.282-6.622,9.37,9.37,0,0,0,.739-1.8l2.321.76c-.4.6-.82,1.36-1.04,1.76-.1.181-.18.34-.3.521Zm1.6-3.361a28.983,28.983,0,0,1,1.62,2.74l-1.32.56a23.872,23.872,0,0,0-1.58-2.76Zm2.261-.86a23.642,23.642,0,0,1,1.66,2.72l-1.3.58a20.179,20.179,0,0,0-1.641-2.76Z"/>
          <path d="M213.48,343.554a4.7,4.7,0,0,0,1.5-.2l1.64,1a6.845,6.845,0,0,0-.56,1.22,19.8,19.8,0,0,1-3.52,6.8,18.008,18.008,0,0,1-8,5.522l-1.861-1.661a16,16,0,0,0,8.022-4.981,15.159,15.159,0,0,0,3.041-5.9h-6.262a20.711,20.711,0,0,1-5.061,4.881l-1.76-1.3a17.105,17.105,0,0,0,6.281-6.622,9.307,9.307,0,0,0,.74-1.8l2.321.76c-.4.6-.82,1.36-1.041,1.76-.1.181-.179.34-.3.521Zm1.6-3.361a28.983,28.983,0,0,1,1.62,2.74l-1.32.56a23.872,23.872,0,0,0-1.58-2.76Zm2.26-.86a23.515,23.515,0,0,1,1.661,2.72l-1.3.58a20.179,20.179,0,0,0-1.641-2.76Z"/>
          <path d="M218.966,355.736a9.4,9.4,0,0,0,3.441-4.861c.58-1.78.58-5.681.58-7.982a6.233,6.233,0,0,0-.16-1.62h2.32a14.97,14.97,0,0,0-.1,1.6,43.83,43.83,0,0,1-.62,8.542,11.23,11.23,0,0,1-3.561,5.6Zm9.2.18a5.768,5.768,0,0,0,.14-1.26V342.813a14.658,14.658,0,0,0-.12-1.6h2.32a12.046,12.046,0,0,0-.1,1.6v11.063a14.078,14.078,0,0,0,5.442-4.6l1.2,1.72a20.969,20.969,0,0,1-6.8,5.521,4.2,4.2,0,0,0-.761.5Z"/>
          <path d="M239.238,347.434c.64.06,1.881.12,2.961.12h10.862c.981,0,1.761-.08,2.241-.12V349.9c-.44-.02-1.341-.08-2.221-.08H242.2c-1.12,0-2.3.04-2.961.08Z"/>
          <path d="M268.725,342.433a6.342,6.342,0,0,0,.84-.04,2.483,2.483,0,0,1-.06-.54,2.311,2.311,0,1,1,2.3,2.3,2.168,2.168,0,0,1-.52-.06l-.1.38a20.03,20.03,0,0,1-3,7.341,15.564,15.564,0,0,1-7.942,5.422l-1.72-1.881a13.285,13.285,0,0,0,7.821-4.761,13.991,13.991,0,0,0,2.5-6.141h-9.822c-.86,0-1.661.04-2.161.059v-2.22a18.111,18.111,0,0,0,2.161.14Zm4.341-.58a1.251,1.251,0,0,0-2.5,0,1.251,1.251,0,0,0,2.5,0Z"/>
        </g>
        <g>
          <path d="M226.371,235.92a16,16,0,0,0,6.608,6.932,7.6,7.6,0,0,0-1.26,1.476,17.467,17.467,0,0,1-6.374-6.914v4.807h3.223v1.693h-3.223V247.1h-1.764v-3.187h-3.295v-1.693h3.295v-4.789a18.3,18.3,0,0,1-6.338,6.95A9.609,9.609,0,0,0,216.054,243a16.719,16.719,0,0,0,6.518-7.076h-5.887v-1.693h6.9V230.59h1.764v3.637h6.968v1.693Z"/>
          <path d="M234.418,237.4h9.219v1.531h-9.219Zm8.984-3.475H234.85v-1.458h3.457V230.68h1.62v1.783H243.4Zm-7.85,6.392h7.184v6.734H241.1v-.9h-4v.972h-1.549Zm1.08-3.025a11.708,11.708,0,0,0-.7-2.791l1.387-.306a11.113,11.113,0,0,1,.792,2.755Zm.469,4.5v2.9h4v-2.9Zm2.9-4.807a21.405,21.405,0,0,0,.9-2.881l1.584.36c-.4,1.009-.792,2.125-1.152,2.863Zm10.965-4.645c-.7,1.71-1.567,3.78-2.341,5.347a5.782,5.782,0,0,1,2.053,4.267,2.784,2.784,0,0,1-.919,2.485,2.833,2.833,0,0,1-1.206.432,12.905,12.905,0,0,1-1.476.037,3.991,3.991,0,0,0-.451-1.657,10,10,0,0,0,1.225.036,1.471,1.471,0,0,0,.72-.2c.36-.216.486-.684.486-1.333,0-1.044-.468-2.358-2.124-3.853.648-1.4,1.35-3.3,1.854-4.7h-2.863v13.918h-1.638V231.635h5.167l.27-.073Z"/>
          <path d="M258.675,231.274a26.65,26.65,0,0,1-1.819,3.493v12.316h-1.728v-9.849a18.285,18.285,0,0,1-2.161,2.359,9.752,9.752,0,0,0-.954-1.675,19.772,19.772,0,0,0,5.077-7.166Zm4.789,6.23c.577,4.411,1.657,7.383,3.368,7.58.449.018.719-.972.881-3.007A5.136,5.136,0,0,0,269.1,243c-.414,3.259-1.243,4.141-2.2,4.087-3.007-.252-4.411-3.817-5.1-9.345l-3.943.5-.252-1.584,4.033-.5q-.218-2.459-.324-5.294h1.692c.054,1.8.144,3.511.288,5.06l5.276-.667.216,1.567Zm3.691-2.881a17.23,17.23,0,0,0-2.7-2.97l1.242-.793a17.257,17.257,0,0,1,2.791,2.881Z"/>
          <path d="M286.673,240.241a27.744,27.744,0,0,1-3.691,2.431,9.291,9.291,0,0,0,4.573,2.9,6.308,6.308,0,0,0-1.08,1.494c-3.781-1.314-5.96-4.1-7.184-8.138a16.75,16.75,0,0,1-2.521,1.98v3.727c1.351-.306,2.791-.648,4.195-.972l.181,1.5c-2.81.72-5.853,1.44-8.013,1.944l-.54-1.548c.72-.145,1.566-.343,2.5-.54v-3.134a20.322,20.322,0,0,1-3.349,1.423,8.833,8.833,0,0,0-1.081-1.387,19.992,19.992,0,0,0,6.536-3.151H271.3v-1.44h6.969v-1.35h-5.492v-1.369h5.492v-1.224h-6.3v-1.44h6.3V230.59h1.674v1.351h6.446v1.44h-6.446v1.224H285.7v1.369h-5.762v1.35h7.022v1.44h-6.1a12.705,12.705,0,0,0,1.314,2.827,25.694,25.694,0,0,0,3.152-2.376Z"/>
        </g>
        <g>
          <path d="M347.068,236.82c.378,0,1.062-.036,1.513-.09v1.854c-.414-.035-1.045-.053-1.513-.053h-4.627a11.186,11.186,0,0,1-1.117,4.807,8.767,8.767,0,0,1-3.583,3.349l-1.656-1.224a7.485,7.485,0,0,0,3.331-2.683,8.324,8.324,0,0,0,1.08-4.249h-5.2c-.54,0-1.134.018-1.638.053V236.73a15.773,15.773,0,0,0,1.638.09Zm-9.525-2.863c-.594,0-1.26.018-1.764.054v-1.854a13.787,13.787,0,0,0,1.764.126H344.8a12.428,12.428,0,0,0,1.8-.126v1.854c-.576-.036-1.243-.054-1.8-.054Z" fill="#29a199"/>
          <path d="M351.746,237.666c.576.054,1.692.108,2.665.108h9.777c.882,0,1.584-.072,2.016-.108v2.215c-.4-.018-1.206-.072-2-.072h-9.8c-1.009,0-2.071.036-2.665.072Z" fill="#29a199"/>
          <path d="M383.531,234.317a6.242,6.242,0,0,0-.522.631,28.809,28.809,0,0,1-6.356,7.2c1.062,1.062,2.233,2.322,2.953,3.186l-1.657,1.333a46.465,46.465,0,0,0-3.33-3.781,42.107,42.107,0,0,0-4.052-3.493l1.476-1.207c.685.505,2.053,1.6,3.242,2.665a21.247,21.247,0,0,0,5.149-5.779H370.315c-.72,0-1.566.071-1.944.107v-2.016a15.6,15.6,0,0,0,1.944.144h10.407a4.629,4.629,0,0,0,1.387-.162Z" fill="#29a199"/>
          <path d="M393.593,239.125s0,.468-.018.684c-.2,4.393-.378,6.068-.865,6.626a1.536,1.536,0,0,1-1.224.576,13.578,13.578,0,0,1-2.178.036,3.461,3.461,0,0,0-.469-1.476,18.36,18.36,0,0,0,1.927.089c.288,0,.468-.018.594-.2.307-.325.486-1.6.631-4.844H389.47c-.414,2.539-1.242,4.934-3.133,6.518a4.206,4.206,0,0,0-1.152-1.17c2.412-1.945,2.808-5.438,2.97-8.571h-1.872v-5.978h7.184V237.4h-3.673c-.036.576-.072,1.153-.144,1.729Zm-5.78-3.205h4.033V232.9h-4.033Zm8.877,6.77h-1.621v-9.939h1.621Zm4.357-11.74v14.044c0,1.045-.252,1.531-.882,1.837a10.542,10.542,0,0,1-3.385.288,7.776,7.776,0,0,0-.594-1.711c1.224.055,2.358.037,2.719.037.342-.018.468-.126.468-.451V230.95Z" fill="#29a199"/>
          <path d="M416.008,242.329a6.435,6.435,0,0,0,4.339,3.457,4.03,4.03,0,0,0-.972,1.405,7.606,7.606,0,0,1-4.5-3.817c-.7,1.513-2.125,2.9-4.988,3.835a5.643,5.643,0,0,0-.918-1.26c2.97-.936,4.195-2.233,4.681-3.62h-3.475v-4.753h3.763v-1.422h-2.52v-.865a11.544,11.544,0,0,1-1.477.9,6.6,6.6,0,0,0-.36-.72v.432h-1.8v1.134c.486.63,1.819,2.593,2.089,3.043l-.9,1.314c-.235-.558-.72-1.512-1.189-2.359V247.1h-1.566v-7.58a16.954,16.954,0,0,1-1.945,4.3,8.712,8.712,0,0,0-.81-1.458,19.865,19.865,0,0,0,2.629-6.464h-2.251v-1.549h2.377V230.59h1.566v3.763h1.8v.216a11.857,11.857,0,0,0,4.321-3.961h1.513a12.37,12.37,0,0,0,5.059,4.069,8.25,8.25,0,0,0-.882,1.477,14.8,14.8,0,0,1-1.5-.9v.9H415.45v1.422h3.907v4.753Zm-2.107-1.314a5.833,5.833,0,0,0,.036-.792V238.89h-2.305v2.125Zm3.493-6.266a13.044,13.044,0,0,1-2.683-2.682,12.225,12.225,0,0,1-2.556,2.682Zm-1.944,4.141v1.369c0,.252,0,.5-.018.756h2.412V238.89Z" fill="#29a199"/>
          <path d="M422.385,233.561h7.148v1.332h-7.148Zm6.446,12.568h-4.16v.756H423.2v-6.05h5.636Zm-5.6-10.119h5.654v1.3h-5.654Zm0,2.4h5.654v1.314h-5.654ZM428.9,232.5h-5.564v-1.315H428.9Zm-4.232,9.686v2.593h2.665v-2.593Zm14.3-6.013h-2.107v8.75c0,1.081-.252,1.567-.9,1.855a9.911,9.911,0,0,1-3.313.324,7.943,7.943,0,0,0-.612-1.765c1.206.036,2.34.036,2.7.018.343,0,.469-.108.469-.432v-8.75h-5.438v-1.621h5.438V230.59h1.656v3.961h2.107Zm-6.392,6.445a19.388,19.388,0,0,0-2.179-4.159l1.405-.666a17.227,17.227,0,0,1,2.232,4.033Z" fill="#29a199"/>
          <path d="M444.911,236.3a22.162,22.162,0,0,1-3.133,1.872,6.1,6.1,0,0,0-.99-1.368,18.2,18.2,0,0,0,7.364-6.194h1.728a18.108,18.108,0,0,0,7.707,5.942,8.153,8.153,0,0,0-1.063,1.512,22.651,22.651,0,0,1-3.187-1.872v1.4h-8.426Zm-3.1,3.169H456.6v1.566H448.35c-.594,1.207-1.26,2.557-1.909,3.709,2-.072,4.232-.162,6.429-.252a26.6,26.6,0,0,0-2.089-2.143l1.44-.773A22.883,22.883,0,0,1,456.4,246.2l-1.53.955a12.284,12.284,0,0,0-.792-1.17c-4.285.215-8.859.414-11.92.54l-.216-1.638,2.665-.091a30.6,30.6,0,0,0,1.674-3.763h-4.465Zm11.326-3.421a18.041,18.041,0,0,1-4.052-3.817,17.51,17.51,0,0,1-3.835,3.817Z" fill="#29a199"/>
        </g>
        <g>
          <line x1="171.004" y1="289.942" x2="171.004" y2="315.713" fill="none" stroke="#29a199" stroke-miterlimit="10" stroke-width="4"/>
          <polygon points="164.901 297.113 171.004 291.006 177.107 297.113 177.107 291.93 171.004 285.827 164.901 291.93 164.901 297.113" fill="#29a199"/>
          <polygon points="164.901 308.542 171.004 314.649 177.107 308.542 177.107 313.724 171.004 319.827 164.901 313.724 164.901 308.542" fill="#29a199"/>
        </g>
        <g>
          <line x1="327.265" y1="65.894" x2="327.265" y2="91.665" fill="none" stroke="#29a199" stroke-miterlimit="10" stroke-width="4"/>
          <polygon points="321.162 73.065 327.265 66.958 333.368 73.065 333.368 67.883 327.265 61.78 321.162 67.883 321.162 73.065" fill="#29a199"/>
          <polygon points="321.162 84.494 327.265 90.601 333.368 84.494 333.368 89.676 327.265 95.78 321.162 89.676 321.162 84.494" fill="#29a199"/>
        </g>
        <g>
          <line x1="327.265" y1="290.405" x2="327.265" y2="425.517" fill="none" stroke="#29a199" stroke-miterlimit="10" stroke-width="4"/>
          <polygon points="321.162 297.575 327.265 291.468 333.368 297.575 333.368 292.393 327.265 286.29 321.162 292.393 321.162 297.575" fill="#29a199"/>
          <polygon points="321.162 418.346 327.265 424.453 333.368 418.346 333.368 423.528 327.265 429.631 321.162 423.528 321.162 418.346" fill="#29a199"/>
        </g>
      </g>
    </g>
  </g>
</svg>
