<svg xmlns="http://www.w3.org/2000/svg" width="637.889" height="765.614" viewBox="0 0 637.889 765.614">
  <g id="レイヤー_2" data-name="レイヤー 2">
    <g id="_038" data-name="038">
      <g>
        <polygon points="594.78 372.971 99.372 372.971 97.3 349.687 596.852 349.687 594.78 372.971" fill="#626262"/>
        <polygon points="596.78 350.5 97.372 350.5 120.289 309.314 573.863 309.314 596.78 350.5" fill="gray"/>
        <polygon points="583.407 326.467 110.745 326.467 112.912 322.575 581.24 322.575 583.407 326.467" fill="#f7931e"/>
        <g>
          <polygon points="254.162 309.69 149.715 309.69 126.471 148.152 235.488 148.152 254.162 309.69" fill="#ccc"/>
          <g>
            <polygon points="157.489 188.428 138.814 188.428 134.41 157.446 153.236 157.446 157.489 188.428" fill="#86ccec"/>
            <polygon points="182.858 188.428 164.183 188.428 159.985 157.446 178.811 157.446 182.858 188.428" fill="#86ccec"/>
            <polygon points="208.228 188.428 189.553 188.428 185.56 157.446 204.386 157.446 208.228 188.428" fill="#86ccec"/>
            <polygon points="233.596 188.428 214.922 188.428 211.135 157.446 229.962 157.446 233.596 188.428" fill="#86ccec"/>
          </g>
          <g>
            <polygon points="162.971 228.366 144.492 228.366 140.179 198.03 158.807 198.03 162.971 228.366" fill="#86ccec"/>
            <polygon points="188.075 228.366 169.595 228.366 165.485 198.03 184.112 198.03 188.075 228.366" fill="#86ccec"/>
            <polygon points="213.178 228.366 194.699 228.366 190.79 198.03 209.418 198.03 213.178 228.366" fill="#86ccec"/>
            <polygon points="238.282 228.366 219.802 228.366 216.095 198.03 234.723 198.03 238.282 228.366" fill="#86ccec"/>
          </g>
          <g>
            <polygon points="168.34 267.473 150.052 267.473 145.829 237.767 164.262 237.767 168.34 267.473" fill="#86ccec"/>
            <polygon points="193.183 267.473 174.895 267.473 170.87 237.767 189.302 237.767 193.183 267.473" fill="#86ccec"/>
            <polygon points="218.027 267.473 199.739 267.473 195.911 237.767 214.344 237.767 218.027 267.473" fill="#86ccec"/>
            <polygon points="242.87 267.473 224.582 267.473 220.952 237.767 239.385 237.767 242.87 267.473" fill="#86ccec"/>
          </g>
          <polygon points="223.942 309.69 179.935 309.69 175.707 278.538 220.086 278.538 223.942 309.69" fill="#ababab"/>
        </g>
        <g>
          <polygon points="388.209 309.69 296.071 309.69 281.292 167.92 376.967 167.92 388.209 309.69" fill="#b3b3b3"/>
          <g>
            <polygon points="307.127 203.131 290.716 203.131 287.933 176.038 304.461 176.038 307.127 203.131" fill="#999"/>
            <polygon points="329.419 203.131 313.009 203.131 310.385 176.038 326.912 176.038 329.419 203.131" fill="#999"/>
            <polygon points="351.713 203.131 335.302 203.131 332.838 176.038 349.365 176.038 351.713 203.131" fill="#999"/>
            <polygon points="374.006 203.131 357.595 203.131 355.289 176.038 371.817 176.038 374.006 203.131" fill="#999"/>
          </g>
          <g>
            <polygon points="310.571 238.135 294.312 238.135 291.58 211.539 307.954 211.539 310.571 238.135" fill="#999"/>
            <polygon points="332.659 238.135 316.4 238.135 313.823 211.539 330.198 211.539 332.659 238.135" fill="#999"/>
            <polygon points="354.747 238.135 338.488 238.135 336.068 211.539 352.442 211.539 354.747 238.135" fill="#999"/>
            <polygon points="376.834 238.135 360.575 238.135 358.311 211.539 374.685 211.539 376.834 238.135" fill="#999"/>
          </g>
          <g>
            <polygon points="313.953 272.498 297.843 272.498 295.16 246.389 311.384 246.389 313.953 272.498" fill="#999"/>
            <polygon points="335.839 272.498 319.728 272.498 317.199 246.389 333.423 246.389 335.839 272.498" fill="#999"/>
            <polygon points="357.725 272.498 341.615 272.498 339.239 246.389 355.462 246.389 357.725 272.498" fill="#999"/>
            <polygon points="379.611 272.498 363.501 272.498 361.278 246.389 377.502 246.389 379.611 272.498" fill="#999"/>
          </g>
          <polygon points="361.551 309.69 322.73 309.69 320.065 282.236 359.176 282.236 361.551 309.69" fill="#ababab"/>
        </g>
        <g>
          <polygon points="488.779 150.377 439.135 150.377 436.165 103.063 486.418 103.063 488.779 150.377" fill="#ccc"/>
          <polygon points="539.589 137.873 432.215 137.873 431.976 134.162 539.453 134.162 539.589 137.873" fill="gray"/>
          <g>
            <polygon points="438.318 148.677 434.713 148.677 433.94 136.589 437.557 136.589 438.318 148.677" fill="gray"/>
            <polygon points="447.396 148.677 443.791 148.677 443.047 136.589 446.664 136.589 447.396 148.677" fill="gray"/>
            <polygon points="456.475 148.677 452.87 148.677 452.155 136.589 455.771 136.589 456.475 148.677" fill="gray"/>
            <polygon points="465.554 148.677 461.948 148.677 461.262 136.589 464.878 136.589 465.554 148.677" fill="gray"/>
            <polygon points="474.632 148.677 471.027 148.677 470.369 136.589 473.985 136.589 474.632 148.677" fill="gray"/>
            <polygon points="483.711 148.677 480.105 148.677 479.475 136.589 483.092 136.589 483.711 148.677" fill="gray"/>
            <polygon points="492.789 148.677 489.184 148.677 488.583 136.589 492.199 136.589 492.789 148.677" fill="gray"/>
            <polygon points="501.868 148.677 498.264 148.677 497.69 136.589 501.306 136.589 501.868 148.677" fill="gray"/>
            <polygon points="510.946 148.677 507.342 148.677 506.797 136.589 510.413 136.589 510.946 148.677" fill="gray"/>
            <polygon points="520.025 148.677 516.42 148.677 515.904 136.589 519.52 136.589 520.025 148.677" fill="gray"/>
            <polygon points="529.103 148.677 525.499 148.677 525.012 136.589 528.627 136.589 529.103 148.677" fill="gray"/>
            <polygon points="538.182 148.677 534.577 148.677 534.118 136.589 537.734 136.589 538.182 148.677" fill="gray"/>
          </g>
          <g>
            <polygon points="546.799 309.69 442.353 309.69 431.913 148.152 540.929 148.152 546.799 309.69" fill="#ccc"/>
            <g>
              <polygon points="459.738 188.428 441.063 188.428 439.114 157.446 457.94 157.446 459.738 188.428" fill="#86ccec"/>
              <polygon points="485.107 188.428 466.432 188.428 464.689 157.446 483.516 157.446 485.107 188.428" fill="#86ccec"/>
              <polygon points="510.477 188.428 491.802 188.428 490.264 157.446 509.091 157.446 510.477 188.428" fill="#86ccec"/>
              <polygon points="535.846 188.428 517.171 188.428 515.84 157.446 534.667 157.446 535.846 188.428" fill="#86ccec"/>
            </g>
            <g>
              <polygon points="462.054 228.366 443.576 228.366 441.668 198.03 460.295 198.03 462.054 228.366" fill="#86ccec"/>
              <polygon points="487.158 228.366 468.678 228.366 466.973 198.03 485.6 198.03 487.158 228.366" fill="#86ccec"/>
              <polygon points="512.262 228.366 493.782 228.366 492.278 198.03 510.906 198.03 512.262 228.366" fill="#86ccec"/>
              <polygon points="537.365 228.366 518.885 228.366 517.583 198.03 536.211 198.03 537.365 228.366" fill="#86ccec"/>
            </g>
            <g>
              <polygon points="464.324 267.473 446.035 267.473 444.167 237.767 462.6 237.767 464.324 267.473" fill="#86ccec"/>
              <polygon points="489.167 267.473 470.879 267.473 469.208 237.767 487.641 237.767 489.167 267.473" fill="#86ccec"/>
              <polygon points="514.01 267.473 495.722 267.473 494.249 237.767 512.682 237.767 514.01 267.473" fill="#86ccec"/>
              <polygon points="538.854 267.473 520.565 267.473 519.289 237.767 537.723 237.767 538.854 267.473" fill="#86ccec"/>
            </g>
            <polygon points="516.58 309.69 472.572 309.69 470.813 278.538 515.193 278.538 516.58 309.69" fill="#ababab"/>
          </g>
        </g>
        <g>
          <polygon points="356.323 309.69 267.033 309.69 274.845 217.917 366.355 217.917 356.323 309.69" fill="#e6e6e6"/>
          <polygon points="371.496 241.231 366.073 212.111 328.78 212.111 313.548 212.111 276.256 212.111 265.17 241.231 299.57 241.231 320.347 220.519 337.097 241.231 371.496 241.231" fill="#33425e"/>
          <polygon points="324.136 262.179 308.458 262.179 310.656 239.07 326.431 239.07 324.136 262.179" fill="#86ccec"/>
          <polygon points="312.765 309.69 297.286 309.69 299.388 287.166 314.962 287.166 312.765 309.69" fill="#ccc"/>
          <polygon points="330.164 309.69 314.684 309.69 316.893 287.166 332.466 287.166 330.164 309.69" fill="#ccc"/>
          <polygon points="347.562 309.69 332.083 309.69 334.397 287.166 349.971 287.166 347.562 309.69" fill="#ccc"/>
          <polygon points="289.738 309.69 274.258 309.69 276.22 287.166 291.794 287.166 289.738 309.69" fill="#33425e"/>
          <polygon points="353.247 271.637 277.508 271.637 279.054 253.882 355.153 253.882 353.247 271.637" fill="#b3b3b3"/>
          <polygon points="354.866 256.563 278.82 256.563 279.311 250.929 355.47 250.929 354.866 256.563" fill="#33425e"/>
        </g>
        <g>
          <polygon points="463.566 309.69 374.275 309.69 384.753 217.917 476.263 217.917 463.566 309.69" fill="#e6e6e6"/>
          <polygon points="480.727 241.231 476.149 212.111 438.857 212.111 423.625 212.111 386.333 212.111 374.401 241.231 408.801 241.231 430.179 220.519 446.328 241.231 480.727 241.231" fill="#c14014"/>
          <polygon points="432.759 262.179 417.08 262.179 419.95 239.07 435.725 239.07 432.759 262.179" fill="#86ccec"/>
          <polygon points="420.007 309.69 404.528 309.69 407.284 287.166 422.858 287.166 420.007 309.69" fill="#ccc"/>
          <polygon points="437.406 309.69 421.927 309.69 424.789 287.166 440.363 287.166 437.406 309.69" fill="#ccc"/>
          <polygon points="454.805 309.69 439.325 309.69 442.294 287.166 457.868 287.166 454.805 309.69" fill="#ccc"/>
          <polygon points="396.98 309.69 381.501 309.69 384.117 287.166 399.69 287.166 396.98 309.69" fill="#c14014"/>
          <polygon points="461.595 271.637 385.855 271.637 387.917 253.882 464.017 253.882 461.595 271.637" fill="#b3b3b3"/>
          <polygon points="463.651 256.563 387.606 256.563 388.26 250.929 464.42 250.929 463.651 256.563" fill="#c14014"/>
        </g>
        <g>
          <path d="M563.988,276.96C566.882,291.584,560,297.719,550,297.719s-19.371-6.135-22.408-20.759c-3.061-14.74,1.455-32.574,11.592-32.574S561.071,262.22,563.988,276.96Z" fill="#39b54a"/>
          <polygon points="557.354 309.691 547.503 309.691 541.656 263.119 544.312 263.119 557.354 309.691" fill="#8c6239"/>
        </g>
        <g>
          <path d="M261.456,276.96c3.189,14.624-3.576,20.759-13.571,20.759s-19.494-6.135-22.825-20.759c-3.358-14.74.8-32.574,10.936-32.574S258.242,262.22,261.456,276.96Z" fill="#009245"/>
          <polygon points="255.48 309.691 245.63 309.691 238.845 263.119 241.5 263.119 255.48 309.691" fill="#8c6239"/>
        </g>
        <g>
          <path d="M141.5,276.96c4.552,14.624-1.64,20.759-11.634,20.759S109.8,291.584,105.1,276.96c-4.733-14.74-2.241-32.574,7.9-32.574S136.91,262.22,141.5,276.96Z" fill="#39b54a"/>
          <polygon points="138.577 309.691 128.726 309.691 117.596 263.119 120.252 263.119 138.577 309.691" fill="#8c6239"/>
        </g>
        <g>
          <path d="M250.038,335.159a2.138,2.138,0,0,1-2.117,2.974h-79a2.409,2.409,0,0,1-2.464-2.974l3.685-18.755a3.894,3.894,0,0,1,3.661-3.01h66.353a4.518,4.518,0,0,1,4.011,3.01Z" fill="#fbb03b"/>
          <polygon points="236.014 325.437 179.342 325.437 181.471 295.166 230.351 295.166 236.014 325.437" fill="#fbb03b"/>
          <g>
            <path d="M180.982,338.118a6.814,6.814,0,0,1,6.844-7.4,7.947,7.947,0,0,1,7.789,7.4,6.814,6.814,0,0,1-6.846,7.371A7.95,7.95,0,0,1,180.982,338.118Z" fill="#333"/>
            <path d="M224.269,338.118a6.91,6.91,0,0,1,6.932-7.4,7.833,7.833,0,0,1,7.7,7.4,6.91,6.91,0,0,1-6.933,7.371A7.835,7.835,0,0,1,224.269,338.118Z" fill="#333"/>
          </g>
          <path d="M243.444,321.81c.119,2.443-1.462,4.42-3.532,4.42s-3.846-1.977-3.97-4.42,1.458-4.429,3.532-4.429S243.325,319.366,243.444,321.81Z" fill="#f7cf1e"/>
          <g>
            <polygon points="225.723 311.978 209.144 311.978 208.421 299.448 225.056 299.448 225.723 311.978" fill="#86ccec"/>
            <polygon points="204.641 311.978 188.062 311.978 187.267 299.448 203.902 299.448 204.641 311.978" fill="#86ccec"/>
          </g>
        </g>
        <g>
          <path d="M539.439,335.159a2.314,2.314,0,0,1-2.351,2.974h-79a2.218,2.218,0,0,1-2.228-2.974L461.02,316.4a4.306,4.306,0,0,1,3.9-3.01h66.353a4.086,4.086,0,0,1,3.774,3.01Z" fill="#2e6fb5"/>
          <polygon points="526.183 325.437 469.51 325.437 474.03 295.166 522.909 295.166 526.183 325.437" fill="#2e6fb5"/>
          <g>
            <path d="M470.151,338.118a7.485,7.485,0,0,1,7.427-7.4,7.219,7.219,0,0,1,7.205,7.4,7.488,7.488,0,0,1-7.428,7.371A7.219,7.219,0,0,1,470.151,338.118Z" fill="#333"/>
            <path d="M513.437,338.118a7.6,7.6,0,0,1,7.515-7.4,7.119,7.119,0,0,1,7.118,7.4,7.6,7.6,0,0,1-7.515,7.371A7.119,7.119,0,0,1,513.437,338.118Z" fill="#333"/>
          </g>
          <path d="M533.9,321.81c-.074,2.443-1.811,4.42-3.881,4.42s-3.69-1.977-3.62-4.42,1.806-4.429,3.88-4.429S533.973,319.366,533.9,321.81Z" fill="#f7cf1e"/>
          <g>
            <polygon points="516.954 311.978 500.375 311.978 500.641 299.448 517.275 299.448 516.954 311.978" fill="#86ccec"/>
            <polygon points="495.871 311.978 479.293 311.978 479.487 299.448 496.122 299.448 495.871 311.978" fill="#86ccec"/>
          </g>
        </g>
        <g>
          <path d="M120.242,175.444a1.309,1.309,0,0,1-1.3-1.134l-4.577-34.072a1.308,1.308,0,0,1,1.3-1.482h30a1.308,1.308,0,1,1,0,2.616H117.162l4.378,32.59a1.31,1.31,0,0,1-1.122,1.471A1.512,1.512,0,0,1,120.242,175.444Z" fill="#33425e"/>
          <path d="M139.059,135.608H118a1.308,1.308,0,0,1,0-2.616h21.063a1.308,1.308,0,0,1,0,2.616Z" fill="#33425e"/>
          <path d="M112.033,157.789a1.307,1.307,0,0,1-1.294-1.134l-2.98-22.181a1.308,1.308,0,1,1,2.592-.348l2.98,22.181a1.31,1.31,0,0,1-1.3,1.482Z" fill="#33425e"/>
        </g>
        <g>
          <path d="M385.407,194.4a1.215,1.215,0,0,1-1.21-1.12L381.712,161.9l-26.009.089h0a1.215,1.215,0,0,1,0-2.43l27.134-.093h0a1.215,1.215,0,0,1,1.211,1.119l2.574,32.506A1.215,1.215,0,0,1,385.5,194.4C385.471,194.4,385.439,194.4,385.407,194.4Z" fill="#33425e"/>
          <path d="M360.542,156.472a1.215,1.215,0,0,1,0-2.43l19.049-.065h0a1.215,1.215,0,0,1,0,2.43l-19.049.065Z" fill="#33425e"/>
          <path d="M389.352,177.541a1.215,1.215,0,0,1-1.21-1.119l-1.676-21.161a1.215,1.215,0,1,1,2.422-.192l1.676,21.161a1.215,1.215,0,0,1-1.115,1.307C389.416,177.54,389.384,177.541,389.352,177.541Z" fill="#33425e"/>
        </g>
        <g>
          <path d="M493.692,122.751a.942.942,0,0,1-.941-.921L492.2,97.074l-19.732-.053a.942.942,0,0,1,0-1.884h0l20.651.056a.942.942,0,0,1,.939.921l.567,25.674a.941.941,0,0,1-.92.962Z" fill="#33425e"/>
          <path d="M490.893,92.727h0l-14.5-.039a.942.942,0,0,1,0-1.884h0l14.5.04a.942.942,0,0,1,0,1.883Z" fill="#33425e"/>
          <path d="M497.416,109.458a.942.942,0,0,1-.941-.921l-.369-16.714a.941.941,0,0,1,.92-.962.931.931,0,0,1,.963.921l.369,16.713a.943.943,0,0,1-.921.963Z" fill="#33425e"/>
        </g>
        <path d="M132.528,250.058a1.307,1.307,0,0,1-1.291-1.108,3.021,3.021,0,0,0-.951-1.837,5.838,5.838,0,0,1-1.036-6.7,3.244,3.244,0,0,0-.6-3.875,5.836,5.836,0,0,1-1.036-6.7,3.241,3.241,0,0,0-.6-3.873,5.836,5.836,0,0,1-1.035-6.7,3.239,3.239,0,0,0-.6-3.871,5.834,5.834,0,0,1-1.036-6.7,3.026,3.026,0,0,0,.353-2.038,1.307,1.307,0,1,1,2.584-.4,5.544,5.544,0,0,1-.553,3.514,3.238,3.238,0,0,0,.6,3.873,5.835,5.835,0,0,1,1.035,6.7,3.239,3.239,0,0,0,.6,3.871,5.84,5.84,0,0,1,1.036,6.7,3.239,3.239,0,0,0,.6,3.874,5.837,5.837,0,0,1,1.035,6.7,3.246,3.246,0,0,0,.6,3.877,5.546,5.546,0,0,1,1.589,3.184,1.307,1.307,0,0,1-1.092,1.492A1.257,1.257,0,0,1,132.528,250.058Z" fill="#33425e"/>
        <path d="M250.53,192.609a1.308,1.308,0,0,1-1.3-1.15,3.485,3.485,0,0,0-.934-2.06,6.369,6.369,0,0,1-.85-7,3.765,3.765,0,0,0-.519-4.281,6.364,6.364,0,0,1-.851-7,3.764,3.764,0,0,0-.519-4.28,6.363,6.363,0,0,1-.85-7,3.761,3.761,0,0,0-.519-4.278,6.36,6.36,0,0,1-.85-7,3.483,3.483,0,0,0,.413-2.221,1.308,1.308,0,0,1,2.6-.316,6.008,6.008,0,0,1-.633,3.627,3.766,3.766,0,0,0,.52,4.28,6.361,6.361,0,0,1,.85,7,3.762,3.762,0,0,0,.519,4.279,6.359,6.359,0,0,1,.85,7,3.766,3.766,0,0,0,.52,4.28,6.367,6.367,0,0,1,.85,7,3.77,3.77,0,0,0,.521,4.284,6.016,6.016,0,0,1,1.482,3.371,1.308,1.308,0,0,1-1.141,1.456A1.221,1.221,0,0,1,250.53,192.609Z" fill="#33425e"/>
        <path d="M275.344,203.261a1.306,1.306,0,0,1-1.3-1.15,3.485,3.485,0,0,0-.934-2.06,6.37,6.37,0,0,1-.85-7,3.769,3.769,0,0,0-.52-4.282,6.365,6.365,0,0,1-.85-7,3.761,3.761,0,0,0-.52-4.28,6.361,6.361,0,0,1-.849-7,3.765,3.765,0,0,0-.52-4.279,6.363,6.363,0,0,1-.85-7,3.479,3.479,0,0,0,.414-2.222,1.308,1.308,0,1,1,2.6-.315,6.011,6.011,0,0,1-.632,3.627,3.76,3.76,0,0,0,.52,4.279,6.361,6.361,0,0,1,.849,7,3.763,3.763,0,0,0,.52,4.278,6.366,6.366,0,0,1,.85,7,3.762,3.762,0,0,0,.52,4.28,6.366,6.366,0,0,1,.85,7,3.768,3.768,0,0,0,.52,4.284,6.016,6.016,0,0,1,1.482,3.372,1.308,1.308,0,0,1-1.14,1.456A1.444,1.444,0,0,1,275.344,203.261Z" fill="#33425e"/>
        <path d="M421.09,182.088a1.309,1.309,0,0,1-1.3-1.2,4.016,4.016,0,0,0-.884-2.321,7.024,7.024,0,0,1-.584-7.35,4.416,4.416,0,0,0-.377-4.75,7.015,7.015,0,0,1-.583-7.347,4.414,4.414,0,0,0-.377-4.749,7.014,7.014,0,0,1-.583-7.346,4.412,4.412,0,0,0-.377-4.747,7.016,7.016,0,0,1-.583-7.347,4.017,4.017,0,0,0,.507-2.429,1.308,1.308,0,1,1,2.607-.207,6.585,6.585,0,0,1-.751,3.756,4.413,4.413,0,0,0,.377,4.748,7.014,7.014,0,0,1,.583,7.346,4.412,4.412,0,0,0,.377,4.747,7.019,7.019,0,0,1,.584,7.347,4.416,4.416,0,0,0,.377,4.75,7.017,7.017,0,0,1,.583,7.348,4.418,4.418,0,0,0,.378,4.752,6.6,6.6,0,0,1,1.334,3.592,1.307,1.307,0,0,1-1.2,1.407C421.159,182.086,421.124,182.088,421.09,182.088Z" fill="#33425e"/>
        <path d="M429.808,202.14a1.307,1.307,0,0,1-1.3-1.2,4.023,4.023,0,0,0-.885-2.321,7.021,7.021,0,0,1-.583-7.35,4.416,4.416,0,0,0-.377-4.75,7.02,7.02,0,0,1-.584-7.348,4.413,4.413,0,0,0-.377-4.748,7.021,7.021,0,0,1-.583-7.347,4.407,4.407,0,0,0-.376-4.746,7.013,7.013,0,0,1-.584-7.347,4.02,4.02,0,0,0,.508-2.429,1.308,1.308,0,1,1,2.607-.207,6.6,6.6,0,0,1-.751,3.756,4.408,4.408,0,0,0,.377,4.748,7.014,7.014,0,0,1,.583,7.346,4.412,4.412,0,0,0,.377,4.747,7.021,7.021,0,0,1,.583,7.347,4.415,4.415,0,0,0,.377,4.749,7.02,7.02,0,0,1,.584,7.348,4.414,4.414,0,0,0,.377,4.752,6.588,6.588,0,0,1,1.334,3.593,1.307,1.307,0,0,1-1.2,1.407C429.878,202.139,429.843,202.14,429.808,202.14Z" fill="#33425e"/>
        <path d="M551.4,216.777a1.306,1.306,0,0,1-1.3-1.254,5.1,5.1,0,0,0-.838-2.741,8.259,8.259,0,0,1-.323-7.939,5.653,5.653,0,0,0-.225-5.539,8.261,8.261,0,0,1-.323-7.94,5.648,5.648,0,0,0-.225-5.536,8.264,8.264,0,0,1-.323-7.938,5.65,5.65,0,0,0-.225-5.537,8.262,8.262,0,0,1-.323-7.937,5.093,5.093,0,0,0,.613-2.8,1.308,1.308,0,0,1,2.613-.106,7.581,7.581,0,0,1-.856,4.01,5.655,5.655,0,0,0,.225,5.536A8.259,8.259,0,0,1,550.2,179a5.655,5.655,0,0,0,.225,5.536,8.256,8.256,0,0,1,.323,7.938,5.652,5.652,0,0,0,.225,5.538,8.259,8.259,0,0,1,.323,7.939,5.656,5.656,0,0,0,.225,5.54,7.6,7.6,0,0,1,1.179,3.928,1.308,1.308,0,0,1-1.254,1.36Z" fill="#33425e"/>
        <path d="M559.1,190.156a1.307,1.307,0,0,1-1.3-1.252,4.854,4.854,0,0,0-.835-2.649,7.961,7.961,0,0,1-.336-7.8,5.354,5.354,0,0,0-.231-5.359,7.958,7.958,0,0,1-.336-7.8,5.351,5.351,0,0,0-.23-5.356,7.957,7.957,0,0,1-.336-7.8,5.359,5.359,0,0,0-.231-5.358,7.956,7.956,0,0,1-.336-7.8,4.85,4.85,0,0,0,.6-2.708,1.308,1.308,0,1,1,2.613-.113,7.426,7.426,0,0,1-.855,3.945,5.352,5.352,0,0,0,.23,5.356,7.962,7.962,0,0,1,.337,7.8,5.352,5.352,0,0,0,.23,5.356,7.957,7.957,0,0,1,.336,7.8,5.352,5.352,0,0,0,.231,5.358,7.961,7.961,0,0,1,.336,7.8,5.356,5.356,0,0,0,.231,5.36,7.433,7.433,0,0,1,1.191,3.858,1.308,1.308,0,0,1-1.251,1.362Z" fill="#33425e"/>
        <polygon points="379.056 309.477 435.29 321.393 387.774 342.608 437.47 353.07 328.053 353.07 401.143 322.555 379.056 309.477" fill="#626262"/>
        <polygon points="379.492 309.623 400.201 321.992 320.206 350.454 351.375 350.672 415.383 321.393 379.492 309.623" fill="#585858"/>
      </g>
      <rect x="214.907" width="264.339" height="75.525" fill="#ea7500"/>
      <g>
        <path d="M285.379,51.427a22.458,22.458,0,0,1-3.551,1.812,19.517,19.517,0,0,0,5.464,1.159,5.89,5.89,0,0,0-1.209,1.787,15.908,15.908,0,0,1-7.754-2.769L278.4,54.8c-3.474.478-7.125.931-9.768,1.233l-.4-1.838c.73-.075,1.561-.151,2.493-.251V50.6h-2.543a9.933,9.933,0,0,1-2.744,5.363,7.45,7.45,0,0,0-1.637-1.435c2.265-2.14,2.543-5.011,2.543-7.226V43.974h19.588v1.587H268.484v1.762c0,.529-.024,1.082-.075,1.662H287.04V50.6h-3.3ZM266.949,41.18h-2.09V36.874h9.517V35.716H266.4V33.979h18.329v1.737h-8.082v1.158h9.693V41.18H284.17V38.335h-7.528v5.136h-2.266V38.335h-7.427Zm.529.5h5.866v1.284h-5.866Zm5.84-2.291v1.284h-5.312V39.392Zm-3.675,8.56v-1.41h14.829v1.41Zm3.474,5.716c1.562-.177,3.223-.353,4.86-.554a8.969,8.969,0,0,1-2.141-2.518h-2.719Zm10-14.276v1.284H277.7V39.392ZM277.7,41.683h6.018v1.284H277.7Zm.252,8.913a7.693,7.693,0,0,0,2.266,1.913,28.649,28.649,0,0,0,3.349-1.913Z" fill="#fff"/>
        <path d="M294.669,42.539c0,3.953-.352,9.794-2.543,13.621a10.615,10.615,0,0,0-1.913-1.284c2.039-3.575,2.216-8.686,2.216-12.337v-7.1h9.063V33.073h2.443v2.366H313.1v2.09h-18.43ZM311.412,48a12.14,12.14,0,0,1-4.683,4.884,33.033,33.033,0,0,0,6.823,1.334,8.324,8.324,0,0,0-1.36,2.015,28.518,28.518,0,0,1-7.981-2.09,33.038,33.038,0,0,1-8.56,2.064,7.153,7.153,0,0,0-.982-1.963,35.112,35.112,0,0,0,7.2-1.385,13.379,13.379,0,0,1-3.474-3.248l1.132-.428h-3.852V47.3h13.873l.428-.076Zm-12.287-2.014V41.96H295.4V40.047h3.725V38.133h2.216v1.914h5.438V38.133h2.291v1.914h3.852V41.96H309.07v4.029Zm1.511,3.2a10.823,10.823,0,0,0,3.65,2.719,11.588,11.588,0,0,0,3.727-2.719Zm.7-7.226v2.216h5.438V41.96Z" fill="#fff"/>
        <path d="M322.21,49.916l2.77-3.776a11.863,11.863,0,0,0,8.661,3.978c4.179,0,7.351-2.971,7.351-7.906s-2.819-7.755-7.05-7.755c-2.366,0-3.776.7-5.941,2.115l-2.82-1.863,1.108-17.573h18.782V22.02H331.324l-.856,9.517a10.446,10.446,0,0,1,5.086-1.309c6.193,0,11.279,3.676,11.279,11.783,0,8.207-5.992,12.84-12.487,12.84A16.4,16.4,0,0,1,322.21,49.916Z" fill="#fff"/>
        <path d="M362.113,44.78s-.025.68-.05.982c-.277,6.194-.554,8.636-1.285,9.466a2.156,2.156,0,0,1-1.711.857A20.082,20.082,0,0,1,356,56.11a6.039,6.039,0,0,0-.7-2.291,26.158,26.158,0,0,0,2.744.126,1.057,1.057,0,0,0,.907-.3c.427-.453.705-2.266.931-6.8H356.7L356.549,48l-2.065-.328c.328-2.039.655-5.337.806-7.83h4.582V36.472h-4.985v-2.09h7.2V41.96h-4.909c-.076.932-.177,1.914-.252,2.82Zm13.721,11.582a13.322,13.322,0,0,0-.755-1.713c-4.456.4-9.089.756-12.362,1.033l-.276-2.291c1.711-.1,3.9-.227,6.293-.4V49.262h-5.287V42.338h5.287V40.022l-5.665.377-.3-2.215,2.139-.1A31.686,31.686,0,0,0,367.425,33l2.493.63c-.78,1.46-1.686,3.021-2.518,4.355,1.864-.1,3.9-.2,5.967-.327a23.442,23.442,0,0,0-1.561-1.863l1.939-.907a23.581,23.581,0,0,1,3.9,5.187l-2.09,1.007a11.6,11.6,0,0,0-.831-1.485l-3.751.251v2.493h5.413v6.924h-5.413v3.575l2.894-.227a24.472,24.472,0,0,0-1.46-2.039l1.889-.856a21.879,21.879,0,0,1,3.575,5.715Zm-7.1-9.064v-3h-3.147v3Zm2.242-3v3h3.172v-3Z" fill="#fff"/>
        <path d="M390.7,49.06c-3.423,1.561-7.125,3.147-9.919,4.331l-.856-2.443c.957-.352,2.141-.8,3.424-1.309l-.478-15.131,2.442-.1.428,14.25c1.46-.6,2.946-1.233,4.406-1.863Zm10.751,7.075a55.777,55.777,0,0,0-5.212-6.37,17.943,17.943,0,0,1-8.182,6.471,11.735,11.735,0,0,0-1.888-2.065c8.358-3.1,10.977-9.164,12.01-19.764l2.567.252c-.579,5.287-1.511,9.517-3.2,12.891a62.633,62.633,0,0,1,5.866,6.7ZM391.907,43.32a24.955,24.955,0,0,0-3.827-6.169l2.141-1.032a24.089,24.089,0,0,1,3.952,5.992Z" fill="#fff"/>
        <path d="M429.092,52.61v2.367H406.558V52.61h9.19V33.425h2.518V40.9h9.089v2.341h-9.089V52.61Z" fill="#fff"/>
      </g>
      <rect x="577.889" y="415.614" width="60" height="350" fill="#e5e5e5"/>
      <g>
        <path d="M604.71,564.351a23.075,23.075,0,0,1-1.62,2.5v11.182h-1.74v-9.1a16.972,16.972,0,0,1-1.961,1.861,14.083,14.083,0,0,0-1.02-1.7,17.5,17.5,0,0,0,4.7-5.321Zm-.4-4.081a20.671,20.671,0,0,1-4.741,4.781,10.514,10.514,0,0,0-1-1.34,15.737,15.737,0,0,0,4.062-4.081Zm7.662,15.524a11.531,11.531,0,0,0,1.7.12c.5,0,2.881,0,3.52-.02a7.733,7.733,0,0,0-.559,1.78h-3.1c-2.86,0-5.061-.72-6.542-3.381a9.981,9.981,0,0,1-2.139,3.781,10.015,10.015,0,0,0-1.441-1.28c1.9-1.821,2.521-4.841,2.74-8.482l1.861.14a32.248,32.248,0,0,1-.42,3.4,5.7,5.7,0,0,0,2.56,3.34v-9.242H605.33v-1.78h2.921a30.327,30.327,0,0,0-1.921-3.761l1.541-.64a25.089,25.089,0,0,1,2.1,3.861l-1.121.54h4.761l-1.34-.5a24.767,24.767,0,0,0,1.88-4.041l1.8.62a39.038,39.038,0,0,1-2.02,3.921h2.781v1.78h-4.741v3.541h4.2v1.741h-4.2Z"/>
        <path d="M610.392,594.553a18.349,18.349,0,0,0,6.781,2.721,8.352,8.352,0,0,0-1.24,1.66,17.832,17.832,0,0,1-7.162-3.761v4.021H606.95v-3.88a19.862,19.862,0,0,1-7.1,3.6,8.346,8.346,0,0,0-1.22-1.58,19.384,19.384,0,0,0,6.741-2.781h-6.181v-1.56h7.761v-1.22h-5.9v-1.4h5.9v-1.2h-6.881v-1.48h4.1a9.916,9.916,0,0,0-.84-1.821l.48-.08h-4.541v-1.56h2.961a15.1,15.1,0,0,0-1.46-2.7l1.62-.54a13.933,13.933,0,0,1,1.6,2.861l-1.02.38h2.2V580.81h1.74v3.421h1.981V580.81h1.76v3.421h2.161l-.76-.24a17.441,17.441,0,0,0,1.4-2.961l1.92.48a30.926,30.926,0,0,1-1.66,2.721h2.881v1.56h-3.861c-.38.68-.78,1.34-1.121,1.9h4.242v1.48h-7.082v1.2h6.141v1.4h-6.141v1.22h7.881v1.56Zm-5.142-8.762a8.371,8.371,0,0,1,.86,1.781l-.58.12h4.221a18.782,18.782,0,0,0,.881-1.9Z"/>
        <path d="M611.252,617.033a58.4,58.4,0,0,1,5.9,2.081l-1.639,1.3a53.266,53.266,0,0,0-6.3-2.3l1.461-1.08h-5.781l1.4.94a25.12,25.12,0,0,1-6.2,2.421,11.137,11.137,0,0,0-1.4-1.34,23.415,23.415,0,0,0,5.561-2.021h-3.461v-8.662h14.283v8.662Zm3.04-9.622H601.65V602.73h12.642Zm-11.662,3.441h10.5v-1.14h-10.5Zm0,2.421h10.5v-1.161h-10.5Zm0,2.42h10.5v-1.18h-10.5Zm9.7-11.482H603.51v1.72h8.822Z"/>
      </g>
      <rect y="415.614" width="220" height="350" fill="#e5e5e5"/>
      <g>
        <rect x="57.887" y="489.958" width="104.226" height="174.435" rx="4.953" fill="#333"/>
        <g>
          <g>
            <path d="M151.845,496.217a2.748,2.748,0,0,1,2.75,2.75v1.08a2.748,2.748,0,0,0-2.75-2.75H68.875a3.463,3.463,0,0,0-3.47,3.46v-1.08a3.463,3.463,0,0,1,3.47-3.46Z" fill="#666"/>
            <path d="M151.135,515.807a3.461,3.461,0,0,0,3.46-3.46v1.08a3.461,3.461,0,0,1-3.46,3.46H68.875a3.463,3.463,0,0,1-3.47-3.46v-1.08a3.463,3.463,0,0,0,3.47,3.46Z" fill="#1a1a1a"/>
            <path d="M145.285,503.567a3.2,3.2,0,1,1-4.5,4.51,3.23,3.23,0,0,1-.75-2.06,3.194,3.194,0,0,1,3.19-3.2A3.156,3.156,0,0,1,145.285,503.567Z"/>
            <path d="M147.155,501.7a5.833,5.833,0,1,1-8.24,8.24l1.78-1.78.09-.08a3.2,3.2,0,1,0,4.5-4.51Z" fill="#333"/>
            <path d="M147.155,501.7l-1.87,1.87a3.156,3.156,0,0,0-2.06-.75,3.194,3.194,0,0,0-3.19,3.2,3.23,3.23,0,0,0,.75,2.06l-.09.08-1.78,1.78a5.833,5.833,0,0,1,8.24-8.24Z" fill="#1a1a1a"/>
            <polygon points="108.315 502.547 108.315 506.017 102.985 506.017 102.985 502.177 108.315 502.177 108.315 502.547" fill="#666"/>
            <polygon points="117.635 502.547 117.635 506.017 112.305 506.017 112.305 502.177 117.635 502.177 117.635 502.547" fill="#666"/>
            <polygon points="126.945 502.547 126.945 506.017 121.615 506.017 121.615 502.177 126.945 502.177 126.945 502.547" fill="#666"/>
            <polygon points="108.315 506.017 108.315 509.847 104.025 509.847 102.985 509.847 102.985 506.017 108.315 506.017" fill="gray"/>
            <polygon points="117.635 506.017 117.635 509.847 113.335 509.847 112.305 509.847 112.305 506.017 117.635 506.017" fill="gray"/>
            <polygon points="126.945 506.017 126.945 509.847 122.655 509.847 121.615 509.847 121.615 506.017 126.945 506.017" fill="gray"/>
            <polygon points="127.275 502.947 127.995 510.607 122.655 510.607 122.655 509.847 126.945 509.847 126.945 506.017 126.945 502.547 127.275 502.547 127.275 502.947" fill="#333"/>
            <polygon points="117.955 502.947 118.675 510.607 113.335 510.607 113.335 509.847 117.635 509.847 117.635 506.017 117.635 502.547 117.955 502.547 117.955 502.947" fill="#333"/>
            <polygon points="108.645 502.947 109.365 510.607 104.025 510.607 104.025 509.847 108.315 509.847 108.315 506.017 108.315 502.547 108.645 502.547 108.645 502.947" fill="#333"/>
            <path d="M143.225,500.177a5.84,5.84,0,1,0,3.93,1.52A5.832,5.832,0,0,0,143.225,500.177Zm-74.35-2.88h82.97a2.748,2.748,0,0,1,2.75,2.75v12.3a3.461,3.461,0,0,1-3.46,3.46H68.875a3.463,3.463,0,0,1-3.47-3.46v-11.59A3.463,3.463,0,0,1,68.875,497.3Zm25.38,9.79H70.535a1.035,1.035,0,0,0-1.03,1.03,1.022,1.022,0,0,0,.63.95,1.1,1.1,0,0,0,.4.08h23.72a1.029,1.029,0,0,0,1.03-1.03,1.006,1.006,0,0,0-.08-.39A1.031,1.031,0,0,0,94.255,507.087Zm0-2.15a1.035,1.035,0,0,0,1.03-1.03,1.1,1.1,0,0,0-.08-.4,1.022,1.022,0,0,0-.95-.63H70.535a1.029,1.029,0,0,0-1.03,1.03,1.043,1.043,0,0,0,.63.95,1.1,1.1,0,0,0,.4.08Zm33.74,5.67-.72-7.66v-.4h-.33v-.37h-5.33v7.67h1.04v.76Zm-9.32,0-.72-7.66v-.4h-.32v-.37h-5.33v7.67h1.03v.76Zm-9.31,0-.72-7.66v-.4h-.33v-.37h-5.33v7.67h1.04v.76Z" fill="#4d4d4d"/>
            <path d="M94.255,502.877a1.022,1.022,0,0,1,.95.63,1.006,1.006,0,0,0-.39-.08H71.085a1.042,1.042,0,0,0-1.03,1.03,1.057,1.057,0,0,0,.08.4,1.043,1.043,0,0,1-.63-.95,1.029,1.029,0,0,1,1.03-1.03Z" fill="#1a1a1a"/>
            <path d="M94.255,507.087a1.031,1.031,0,0,1,.95.64,1.006,1.006,0,0,0-.39-.08H71.085a1.035,1.035,0,0,0-1.03,1.03,1.006,1.006,0,0,0,.08.39,1.022,1.022,0,0,1-.63-.95,1.035,1.035,0,0,1,1.03-1.03Z" fill="#1a1a1a"/>
            <path d="M71.085,507.647h23.73a.362.362,0,0,1,.47.47,1.029,1.029,0,0,1-1.03,1.03H70.535a1.1,1.1,0,0,1-.4-.08,1.006,1.006,0,0,1-.08-.39A1.035,1.035,0,0,1,71.085,507.647Z" fill="#333"/>
            <path d="M95.285,503.907a1.035,1.035,0,0,1-1.03,1.03H70.535a1.1,1.1,0,0,1-.4-.08,1.057,1.057,0,0,1-.08-.4,1.042,1.042,0,0,1,1.03-1.03h23.73a1.006,1.006,0,0,1,.39.08A1.1,1.1,0,0,1,95.285,503.907Z" fill="#333"/>
          </g>
          <g>
            <path d="M151.845,520.273a2.748,2.748,0,0,1,2.75,2.75v1.08a2.748,2.748,0,0,0-2.75-2.75H68.875a3.463,3.463,0,0,0-3.47,3.46v-1.08a3.463,3.463,0,0,1,3.47-3.46Z" fill="#666"/>
            <path d="M151.135,539.863a3.461,3.461,0,0,0,3.46-3.46v1.08a3.461,3.461,0,0,1-3.46,3.46H68.875a3.463,3.463,0,0,1-3.47-3.46V536.4a3.463,3.463,0,0,0,3.47,3.46Z" fill="#1a1a1a"/>
            <path d="M145.285,527.623a3.2,3.2,0,1,1-4.5,4.51,3.23,3.23,0,0,1-.75-2.06,3.194,3.194,0,0,1,3.19-3.2A3.156,3.156,0,0,1,145.285,527.623Z"/>
            <path d="M147.155,525.753a5.833,5.833,0,1,1-8.24,8.24l1.78-1.78.09-.08a3.2,3.2,0,1,0,4.5-4.51Z" fill="#333"/>
            <path d="M147.155,525.753l-1.87,1.87a3.156,3.156,0,0,0-2.06-.75,3.194,3.194,0,0,0-3.19,3.2,3.23,3.23,0,0,0,.75,2.06l-.09.08-1.78,1.78a5.833,5.833,0,0,1,8.24-8.24Z" fill="#1a1a1a"/>
            <polygon points="108.315 526.603 108.315 530.073 102.985 530.073 102.985 526.233 108.315 526.233 108.315 526.603" fill="#666"/>
            <polygon points="117.635 526.603 117.635 530.073 112.305 530.073 112.305 526.233 117.635 526.233 117.635 526.603" fill="#666"/>
            <polygon points="126.945 526.603 126.945 530.073 121.615 530.073 121.615 526.233 126.945 526.233 126.945 526.603" fill="#666"/>
            <polygon points="108.315 530.073 108.315 533.903 104.025 533.903 102.985 533.903 102.985 530.073 108.315 530.073" fill="gray"/>
            <polygon points="117.635 530.073 117.635 533.903 113.335 533.903 112.305 533.903 112.305 530.073 117.635 530.073" fill="gray"/>
            <polygon points="126.945 530.073 126.945 533.903 122.655 533.903 121.615 533.903 121.615 530.073 126.945 530.073" fill="gray"/>
            <polygon points="127.275 527.003 127.995 534.663 122.655 534.663 122.655 533.903 126.945 533.903 126.945 530.073 126.945 526.603 127.275 526.603 127.275 527.003" fill="#333"/>
            <polygon points="117.955 527.003 118.675 534.663 113.335 534.663 113.335 533.903 117.635 533.903 117.635 530.073 117.635 526.603 117.955 526.603 117.955 527.003" fill="#333"/>
            <polygon points="108.645 527.003 109.365 534.663 104.025 534.663 104.025 533.903 108.315 533.903 108.315 530.073 108.315 526.603 108.645 526.603 108.645 527.003" fill="#333"/>
            <path d="M143.225,524.233a5.84,5.84,0,1,0,3.93,1.52A5.832,5.832,0,0,0,143.225,524.233Zm-74.35-2.88h82.97a2.748,2.748,0,0,1,2.75,2.75v12.3a3.461,3.461,0,0,1-3.46,3.46H68.875a3.463,3.463,0,0,1-3.47-3.46v-11.59A3.463,3.463,0,0,1,68.875,521.353Zm25.38,9.79H70.535a1.035,1.035,0,0,0-1.03,1.03,1.022,1.022,0,0,0,.63.95,1.1,1.1,0,0,0,.4.08h23.72a1.029,1.029,0,0,0,1.03-1.03,1.006,1.006,0,0,0-.08-.39A1.031,1.031,0,0,0,94.255,531.143Zm0-2.15a1.035,1.035,0,0,0,1.03-1.03,1.1,1.1,0,0,0-.08-.4,1.022,1.022,0,0,0-.95-.63H70.535a1.029,1.029,0,0,0-1.03,1.03,1.043,1.043,0,0,0,.63.95,1.1,1.1,0,0,0,.4.08Zm33.74,5.67-.72-7.66v-.4h-.33v-.37h-5.33v7.67h1.04v.76Zm-9.32,0-.72-7.66v-.4h-.32v-.37h-5.33v7.67h1.03v.76Zm-9.31,0-.72-7.66v-.4h-.33v-.37h-5.33v7.67h1.04v.76Z" fill="#4d4d4d"/>
            <path d="M94.255,526.933a1.022,1.022,0,0,1,.95.63,1.006,1.006,0,0,0-.39-.08H71.085a1.042,1.042,0,0,0-1.03,1.03,1.057,1.057,0,0,0,.08.4,1.043,1.043,0,0,1-.63-.95,1.029,1.029,0,0,1,1.03-1.03Z" fill="#1a1a1a"/>
            <path d="M94.255,531.143a1.031,1.031,0,0,1,.95.64,1.006,1.006,0,0,0-.39-.08H71.085a1.035,1.035,0,0,0-1.03,1.03,1.006,1.006,0,0,0,.08.39,1.022,1.022,0,0,1-.63-.95,1.035,1.035,0,0,1,1.03-1.03Z" fill="#1a1a1a"/>
            <path d="M71.085,531.7h23.73a.362.362,0,0,1,.47.47,1.029,1.029,0,0,1-1.03,1.03H70.535a1.1,1.1,0,0,1-.4-.08,1.006,1.006,0,0,1-.08-.39A1.035,1.035,0,0,1,71.085,531.7Z" fill="#333"/>
            <path d="M95.285,527.963a1.035,1.035,0,0,1-1.03,1.03H70.535a1.1,1.1,0,0,1-.4-.08,1.057,1.057,0,0,1-.08-.4,1.042,1.042,0,0,1,1.03-1.03h23.73a1.006,1.006,0,0,1,.39.08A1.1,1.1,0,0,1,95.285,527.963Z" fill="#333"/>
          </g>
          <g>
            <path d="M151.845,544.33a2.748,2.748,0,0,1,2.75,2.75v1.08a2.748,2.748,0,0,0-2.75-2.75H68.875a3.463,3.463,0,0,0-3.47,3.46v-1.08a3.463,3.463,0,0,1,3.47-3.46Z" fill="#666"/>
            <path d="M151.135,563.92a3.461,3.461,0,0,0,3.46-3.46v1.08a3.461,3.461,0,0,1-3.46,3.46H68.875a3.463,3.463,0,0,1-3.47-3.46v-1.08a3.463,3.463,0,0,0,3.47,3.46Z" fill="#1a1a1a"/>
            <path d="M145.285,551.68a3.2,3.2,0,1,1-4.5,4.51,3.23,3.23,0,0,1-.75-2.06,3.194,3.194,0,0,1,3.19-3.2A3.156,3.156,0,0,1,145.285,551.68Z"/>
            <path d="M147.155,549.81a5.833,5.833,0,1,1-8.24,8.24l1.78-1.78.09-.08a3.2,3.2,0,1,0,4.5-4.51Z" fill="#333"/>
            <path d="M147.155,549.81l-1.87,1.87a3.156,3.156,0,0,0-2.06-.75,3.194,3.194,0,0,0-3.19,3.2,3.23,3.23,0,0,0,.75,2.06l-.09.08-1.78,1.78a5.833,5.833,0,0,1,8.24-8.24Z" fill="#1a1a1a"/>
            <polygon points="108.315 550.66 108.315 554.13 102.985 554.13 102.985 550.29 108.315 550.29 108.315 550.66" fill="#666"/>
            <polygon points="117.635 550.66 117.635 554.13 112.305 554.13 112.305 550.29 117.635 550.29 117.635 550.66" fill="#666"/>
            <polygon points="126.945 550.66 126.945 554.13 121.615 554.13 121.615 550.29 126.945 550.29 126.945 550.66" fill="#666"/>
            <polygon points="108.315 554.13 108.315 557.96 104.025 557.96 102.985 557.96 102.985 554.13 108.315 554.13" fill="gray"/>
            <polygon points="117.635 554.13 117.635 557.96 113.335 557.96 112.305 557.96 112.305 554.13 117.635 554.13" fill="gray"/>
            <polygon points="126.945 554.13 126.945 557.96 122.655 557.96 121.615 557.96 121.615 554.13 126.945 554.13" fill="gray"/>
            <polygon points="127.275 551.06 127.995 558.72 122.655 558.72 122.655 557.96 126.945 557.96 126.945 554.13 126.945 550.66 127.275 550.66 127.275 551.06" fill="#333"/>
            <polygon points="117.955 551.06 118.675 558.72 113.335 558.72 113.335 557.96 117.635 557.96 117.635 554.13 117.635 550.66 117.955 550.66 117.955 551.06" fill="#333"/>
            <polygon points="108.645 551.06 109.365 558.72 104.025 558.72 104.025 557.96 108.315 557.96 108.315 554.13 108.315 550.66 108.645 550.66 108.645 551.06" fill="#333"/>
            <path d="M143.225,548.29a5.84,5.84,0,1,0,3.93,1.52A5.832,5.832,0,0,0,143.225,548.29Zm-74.35-2.88h82.97a2.748,2.748,0,0,1,2.75,2.75v12.3a3.461,3.461,0,0,1-3.46,3.46H68.875a3.463,3.463,0,0,1-3.47-3.46V548.87A3.463,3.463,0,0,1,68.875,545.41Zm25.38,9.79H70.535a1.035,1.035,0,0,0-1.03,1.03,1.022,1.022,0,0,0,.63.95,1.1,1.1,0,0,0,.4.08h23.72a1.029,1.029,0,0,0,1.03-1.03,1.006,1.006,0,0,0-.08-.39A1.031,1.031,0,0,0,94.255,555.2Zm0-2.15a1.035,1.035,0,0,0,1.03-1.03,1.1,1.1,0,0,0-.08-.4,1.022,1.022,0,0,0-.95-.63H70.535a1.029,1.029,0,0,0-1.03,1.03,1.043,1.043,0,0,0,.63.95,1.1,1.1,0,0,0,.4.08ZM128,558.72l-.72-7.66v-.4h-.33v-.37h-5.33v7.67h1.04v.76Zm-9.32,0-.72-7.66v-.4h-.32v-.37h-5.33v7.67h1.03v.76Zm-9.31,0-.72-7.66v-.4h-.33v-.37h-5.33v7.67h1.04v.76Z" fill="#4d4d4d"/>
            <path d="M94.255,550.99a1.022,1.022,0,0,1,.95.63,1.006,1.006,0,0,0-.39-.08H71.085a1.042,1.042,0,0,0-1.03,1.03,1.057,1.057,0,0,0,.08.4,1.043,1.043,0,0,1-.63-.95,1.029,1.029,0,0,1,1.03-1.03Z" fill="#1a1a1a"/>
            <path d="M94.255,555.2a1.031,1.031,0,0,1,.95.64,1.006,1.006,0,0,0-.39-.08H71.085a1.035,1.035,0,0,0-1.03,1.03,1.006,1.006,0,0,0,.08.39,1.022,1.022,0,0,1-.63-.95,1.035,1.035,0,0,1,1.03-1.03Z" fill="#1a1a1a"/>
            <path d="M71.085,555.76h23.73a.362.362,0,0,1,.47.47,1.029,1.029,0,0,1-1.03,1.03H70.535a1.1,1.1,0,0,1-.4-.08,1.006,1.006,0,0,1-.08-.39A1.035,1.035,0,0,1,71.085,555.76Z" fill="#333"/>
            <path d="M95.285,552.02a1.035,1.035,0,0,1-1.03,1.03H70.535a1.1,1.1,0,0,1-.4-.08,1.057,1.057,0,0,1-.08-.4,1.042,1.042,0,0,1,1.03-1.03h23.73a1.006,1.006,0,0,1,.39.08A1.1,1.1,0,0,1,95.285,552.02Z" fill="#333"/>
          </g>
          <g>
            <path d="M151.845,568.387a2.748,2.748,0,0,1,2.75,2.75v1.08a2.748,2.748,0,0,0-2.75-2.75H68.875a3.463,3.463,0,0,0-3.47,3.46v-1.08a3.463,3.463,0,0,1,3.47-3.46Z" fill="#666"/>
            <path d="M151.135,587.977a3.461,3.461,0,0,0,3.46-3.46v1.08a3.461,3.461,0,0,1-3.46,3.46H68.875a3.463,3.463,0,0,1-3.47-3.46v-1.08a3.463,3.463,0,0,0,3.47,3.46Z" fill="#1a1a1a"/>
            <path d="M145.285,575.737a3.2,3.2,0,1,1-4.5,4.51,3.23,3.23,0,0,1-.75-2.06,3.194,3.194,0,0,1,3.19-3.2A3.156,3.156,0,0,1,145.285,575.737Z"/>
            <path d="M147.155,573.867a5.833,5.833,0,1,1-8.24,8.24l1.78-1.78.09-.08a3.2,3.2,0,1,0,4.5-4.51Z" fill="#333"/>
            <path d="M147.155,573.867l-1.87,1.87a3.156,3.156,0,0,0-2.06-.75,3.194,3.194,0,0,0-3.19,3.2,3.23,3.23,0,0,0,.75,2.06l-.09.08-1.78,1.78a5.833,5.833,0,0,1,8.24-8.24Z" fill="#1a1a1a"/>
            <polygon points="108.315 574.717 108.315 578.187 102.985 578.187 102.985 574.347 108.315 574.347 108.315 574.717" fill="#666"/>
            <polygon points="117.635 574.717 117.635 578.187 112.305 578.187 112.305 574.347 117.635 574.347 117.635 574.717" fill="#666"/>
            <polygon points="126.945 574.717 126.945 578.187 121.615 578.187 121.615 574.347 126.945 574.347 126.945 574.717" fill="#666"/>
            <polygon points="108.315 578.187 108.315 582.017 104.025 582.017 102.985 582.017 102.985 578.187 108.315 578.187" fill="gray"/>
            <polygon points="117.635 578.187 117.635 582.017 113.335 582.017 112.305 582.017 112.305 578.187 117.635 578.187" fill="gray"/>
            <polygon points="126.945 578.187 126.945 582.017 122.655 582.017 121.615 582.017 121.615 578.187 126.945 578.187" fill="gray"/>
            <polygon points="127.275 575.117 127.995 582.777 122.655 582.777 122.655 582.017 126.945 582.017 126.945 578.187 126.945 574.717 127.275 574.717 127.275 575.117" fill="#333"/>
            <polygon points="117.955 575.117 118.675 582.777 113.335 582.777 113.335 582.017 117.635 582.017 117.635 578.187 117.635 574.717 117.955 574.717 117.955 575.117" fill="#333"/>
            <polygon points="108.645 575.117 109.365 582.777 104.025 582.777 104.025 582.017 108.315 582.017 108.315 578.187 108.315 574.717 108.645 574.717 108.645 575.117" fill="#333"/>
            <path d="M143.225,572.347a5.84,5.84,0,1,0,3.93,1.52A5.832,5.832,0,0,0,143.225,572.347Zm-74.35-2.88h82.97a2.748,2.748,0,0,1,2.75,2.75v12.3a3.461,3.461,0,0,1-3.46,3.46H68.875a3.463,3.463,0,0,1-3.47-3.46v-11.59A3.463,3.463,0,0,1,68.875,569.467Zm25.38,9.79H70.535a1.035,1.035,0,0,0-1.03,1.03,1.022,1.022,0,0,0,.63.95,1.1,1.1,0,0,0,.4.08h23.72a1.029,1.029,0,0,0,1.03-1.03,1.006,1.006,0,0,0-.08-.39A1.031,1.031,0,0,0,94.255,579.257Zm0-2.15a1.035,1.035,0,0,0,1.03-1.03,1.1,1.1,0,0,0-.08-.4,1.022,1.022,0,0,0-.95-.63H70.535a1.029,1.029,0,0,0-1.03,1.03,1.043,1.043,0,0,0,.63.95,1.1,1.1,0,0,0,.4.08Zm33.74,5.67-.72-7.66v-.4h-.33v-.37h-5.33v7.67h1.04v.76Zm-9.32,0-.72-7.66v-.4h-.32v-.37h-5.33v7.67h1.03v.76Zm-9.31,0-.72-7.66v-.4h-.33v-.37h-5.33v7.67h1.04v.76Z" fill="#4d4d4d"/>
            <path d="M94.255,575.047a1.022,1.022,0,0,1,.95.63,1.006,1.006,0,0,0-.39-.08H71.085a1.042,1.042,0,0,0-1.03,1.03,1.057,1.057,0,0,0,.08.4,1.043,1.043,0,0,1-.63-.95,1.029,1.029,0,0,1,1.03-1.03Z" fill="#1a1a1a"/>
            <path d="M94.255,579.257a1.031,1.031,0,0,1,.95.64,1.006,1.006,0,0,0-.39-.08H71.085a1.035,1.035,0,0,0-1.03,1.03,1.006,1.006,0,0,0,.08.39,1.022,1.022,0,0,1-.63-.95,1.035,1.035,0,0,1,1.03-1.03Z" fill="#1a1a1a"/>
            <path d="M71.085,579.817h23.73a.362.362,0,0,1,.47.47,1.029,1.029,0,0,1-1.03,1.03H70.535a1.1,1.1,0,0,1-.4-.08,1.006,1.006,0,0,1-.08-.39A1.035,1.035,0,0,1,71.085,579.817Z" fill="#333"/>
            <path d="M95.285,576.077a1.035,1.035,0,0,1-1.03,1.03H70.535a1.1,1.1,0,0,1-.4-.08,1.057,1.057,0,0,1-.08-.4,1.042,1.042,0,0,1,1.03-1.03h23.73a1.006,1.006,0,0,1,.39.08A1.1,1.1,0,0,1,95.285,576.077Z" fill="#333"/>
          </g>
          <g>
            <path d="M151.845,592.444a2.748,2.748,0,0,1,2.75,2.75v1.08a2.748,2.748,0,0,0-2.75-2.75H68.875a3.463,3.463,0,0,0-3.47,3.46V595.9a3.463,3.463,0,0,1,3.47-3.46Z" fill="#666"/>
            <path d="M151.135,612.034a3.461,3.461,0,0,0,3.46-3.46v1.08a3.461,3.461,0,0,1-3.46,3.46H68.875a3.463,3.463,0,0,1-3.47-3.46v-1.08a3.463,3.463,0,0,0,3.47,3.46Z" fill="#1a1a1a"/>
            <path d="M145.285,599.794a3.2,3.2,0,1,1-4.5,4.51,3.23,3.23,0,0,1-.75-2.06,3.194,3.194,0,0,1,3.19-3.2A3.156,3.156,0,0,1,145.285,599.794Z"/>
            <path d="M147.155,597.924a5.833,5.833,0,1,1-8.24,8.24l1.78-1.78.09-.08a3.2,3.2,0,1,0,4.5-4.51Z" fill="#333"/>
            <path d="M147.155,597.924l-1.87,1.87a3.156,3.156,0,0,0-2.06-.75,3.194,3.194,0,0,0-3.19,3.2,3.23,3.23,0,0,0,.75,2.06l-.09.08-1.78,1.78a5.833,5.833,0,0,1,8.24-8.24Z" fill="#1a1a1a"/>
            <polygon points="108.315 598.774 108.315 602.244 102.985 602.244 102.985 598.404 108.315 598.404 108.315 598.774" fill="#666"/>
            <polygon points="117.635 598.774 117.635 602.244 112.305 602.244 112.305 598.404 117.635 598.404 117.635 598.774" fill="#666"/>
            <polygon points="126.945 598.774 126.945 602.244 121.615 602.244 121.615 598.404 126.945 598.404 126.945 598.774" fill="#666"/>
            <polygon points="108.315 602.244 108.315 606.074 104.025 606.074 102.985 606.074 102.985 602.244 108.315 602.244" fill="gray"/>
            <polygon points="117.635 602.244 117.635 606.074 113.335 606.074 112.305 606.074 112.305 602.244 117.635 602.244" fill="gray"/>
            <polygon points="126.945 602.244 126.945 606.074 122.655 606.074 121.615 606.074 121.615 602.244 126.945 602.244" fill="gray"/>
            <polygon points="127.275 599.174 127.995 606.834 122.655 606.834 122.655 606.074 126.945 606.074 126.945 602.244 126.945 598.774 127.275 598.774 127.275 599.174" fill="#333"/>
            <polygon points="117.955 599.174 118.675 606.834 113.335 606.834 113.335 606.074 117.635 606.074 117.635 602.244 117.635 598.774 117.955 598.774 117.955 599.174" fill="#333"/>
            <polygon points="108.645 599.174 109.365 606.834 104.025 606.834 104.025 606.074 108.315 606.074 108.315 602.244 108.315 598.774 108.645 598.774 108.645 599.174" fill="#333"/>
            <path d="M143.225,596.4a5.84,5.84,0,1,0,3.93,1.52A5.832,5.832,0,0,0,143.225,596.4Zm-74.35-2.88h82.97a2.748,2.748,0,0,1,2.75,2.75v12.3a3.461,3.461,0,0,1-3.46,3.46H68.875a3.463,3.463,0,0,1-3.47-3.46v-11.59A3.463,3.463,0,0,1,68.875,593.524Zm25.38,9.79H70.535a1.035,1.035,0,0,0-1.03,1.03,1.022,1.022,0,0,0,.63.95,1.1,1.1,0,0,0,.4.08h23.72a1.029,1.029,0,0,0,1.03-1.03,1.006,1.006,0,0,0-.08-.39A1.031,1.031,0,0,0,94.255,603.314Zm0-2.15a1.035,1.035,0,0,0,1.03-1.03,1.1,1.1,0,0,0-.08-.4,1.022,1.022,0,0,0-.95-.63H70.535a1.029,1.029,0,0,0-1.03,1.03,1.043,1.043,0,0,0,.63.95,1.1,1.1,0,0,0,.4.08Zm33.74,5.67-.72-7.66v-.4h-.33v-.37h-5.33v7.67h1.04v.76Zm-9.32,0-.72-7.66v-.4h-.32v-.37h-5.33v7.67h1.03v.76Zm-9.31,0-.72-7.66v-.4h-.33v-.37h-5.33v7.67h1.04v.76Z" fill="#4d4d4d"/>
            <path d="M94.255,599.1a1.022,1.022,0,0,1,.95.63,1.006,1.006,0,0,0-.39-.08H71.085a1.042,1.042,0,0,0-1.03,1.03,1.057,1.057,0,0,0,.08.4,1.043,1.043,0,0,1-.63-.95,1.029,1.029,0,0,1,1.03-1.03Z" fill="#1a1a1a"/>
            <path d="M94.255,603.314a1.031,1.031,0,0,1,.95.64,1.006,1.006,0,0,0-.39-.08H71.085a1.035,1.035,0,0,0-1.03,1.03,1.006,1.006,0,0,0,.08.39,1.022,1.022,0,0,1-.63-.95,1.035,1.035,0,0,1,1.03-1.03Z" fill="#1a1a1a"/>
            <path d="M71.085,603.874h23.73a.362.362,0,0,1,.47.47,1.029,1.029,0,0,1-1.03,1.03H70.535a1.1,1.1,0,0,1-.4-.08,1.006,1.006,0,0,1-.08-.39A1.035,1.035,0,0,1,71.085,603.874Z" fill="#333"/>
            <path d="M95.285,600.134a1.035,1.035,0,0,1-1.03,1.03H70.535a1.1,1.1,0,0,1-.4-.08,1.057,1.057,0,0,1-.08-.4,1.042,1.042,0,0,1,1.03-1.03h23.73a1.006,1.006,0,0,1,.39.08A1.1,1.1,0,0,1,95.285,600.134Z" fill="#333"/>
          </g>
          <g>
            <path d="M151.845,616.5a2.748,2.748,0,0,1,2.75,2.75v1.08a2.748,2.748,0,0,0-2.75-2.75H68.875a3.463,3.463,0,0,0-3.47,3.46v-1.08a3.463,3.463,0,0,1,3.47-3.46Z" fill="#666"/>
            <path d="M151.135,636.09a3.461,3.461,0,0,0,3.46-3.46v1.08a3.461,3.461,0,0,1-3.46,3.46H68.875a3.463,3.463,0,0,1-3.47-3.46v-1.08a3.463,3.463,0,0,0,3.47,3.46Z" fill="#1a1a1a"/>
            <path d="M145.285,623.85a3.2,3.2,0,1,1-4.5,4.51,3.23,3.23,0,0,1-.75-2.06,3.194,3.194,0,0,1,3.19-3.2A3.156,3.156,0,0,1,145.285,623.85Z"/>
            <path d="M147.155,621.98a5.833,5.833,0,1,1-8.24,8.24l1.78-1.78.09-.08a3.2,3.2,0,1,0,4.5-4.51Z" fill="#333"/>
            <path d="M147.155,621.98l-1.87,1.87a3.156,3.156,0,0,0-2.06-.75,3.194,3.194,0,0,0-3.19,3.2,3.23,3.23,0,0,0,.75,2.06l-.09.08-1.78,1.78a5.833,5.833,0,0,1,8.24-8.24Z" fill="#1a1a1a"/>
            <polygon points="108.315 622.83 108.315 626.3 102.985 626.3 102.985 622.46 108.315 622.46 108.315 622.83" fill="#666"/>
            <polygon points="117.635 622.83 117.635 626.3 112.305 626.3 112.305 622.46 117.635 622.46 117.635 622.83" fill="#666"/>
            <polygon points="126.945 622.83 126.945 626.3 121.615 626.3 121.615 622.46 126.945 622.46 126.945 622.83" fill="#666"/>
            <polygon points="108.315 626.3 108.315 630.13 104.025 630.13 102.985 630.13 102.985 626.3 108.315 626.3" fill="gray"/>
            <polygon points="117.635 626.3 117.635 630.13 113.335 630.13 112.305 630.13 112.305 626.3 117.635 626.3" fill="gray"/>
            <polygon points="126.945 626.3 126.945 630.13 122.655 630.13 121.615 630.13 121.615 626.3 126.945 626.3" fill="gray"/>
            <polygon points="127.275 623.23 127.995 630.89 122.655 630.89 122.655 630.13 126.945 630.13 126.945 626.3 126.945 622.83 127.275 622.83 127.275 623.23" fill="#333"/>
            <polygon points="117.955 623.23 118.675 630.89 113.335 630.89 113.335 630.13 117.635 630.13 117.635 626.3 117.635 622.83 117.955 622.83 117.955 623.23" fill="#333"/>
            <polygon points="108.645 623.23 109.365 630.89 104.025 630.89 104.025 630.13 108.315 630.13 108.315 626.3 108.315 622.83 108.645 622.83 108.645 623.23" fill="#333"/>
            <path d="M143.225,620.46a5.84,5.84,0,1,0,3.93,1.52A5.832,5.832,0,0,0,143.225,620.46Zm-74.35-2.88h82.97a2.748,2.748,0,0,1,2.75,2.75v12.3a3.461,3.461,0,0,1-3.46,3.46H68.875a3.463,3.463,0,0,1-3.47-3.46V621.04A3.463,3.463,0,0,1,68.875,617.58Zm25.38,9.79H70.535a1.035,1.035,0,0,0-1.03,1.03,1.022,1.022,0,0,0,.63.95,1.1,1.1,0,0,0,.4.08h23.72a1.029,1.029,0,0,0,1.03-1.03,1.006,1.006,0,0,0-.08-.39A1.031,1.031,0,0,0,94.255,627.37Zm0-2.15a1.035,1.035,0,0,0,1.03-1.03,1.1,1.1,0,0,0-.08-.4,1.022,1.022,0,0,0-.95-.63H70.535a1.029,1.029,0,0,0-1.03,1.03,1.043,1.043,0,0,0,.63.95,1.1,1.1,0,0,0,.4.08ZM128,630.89l-.72-7.66v-.4h-.33v-.37h-5.33v7.67h1.04v.76Zm-9.32,0-.72-7.66v-.4h-.32v-.37h-5.33v7.67h1.03v.76Zm-9.31,0-.72-7.66v-.4h-.33v-.37h-5.33v7.67h1.04v.76Z" fill="#4d4d4d"/>
            <path d="M94.255,623.16a1.022,1.022,0,0,1,.95.63,1.006,1.006,0,0,0-.39-.08H71.085a1.042,1.042,0,0,0-1.03,1.03,1.057,1.057,0,0,0,.08.4,1.043,1.043,0,0,1-.63-.95,1.029,1.029,0,0,1,1.03-1.03Z" fill="#1a1a1a"/>
            <path d="M94.255,627.37a1.031,1.031,0,0,1,.95.64,1.006,1.006,0,0,0-.39-.08H71.085a1.035,1.035,0,0,0-1.03,1.03,1.006,1.006,0,0,0,.08.39,1.022,1.022,0,0,1-.63-.95,1.035,1.035,0,0,1,1.03-1.03Z" fill="#1a1a1a"/>
            <path d="M71.085,627.93h23.73a.362.362,0,0,1,.47.47,1.029,1.029,0,0,1-1.03,1.03H70.535a1.1,1.1,0,0,1-.4-.08,1.006,1.006,0,0,1-.08-.39A1.035,1.035,0,0,1,71.085,627.93Z" fill="#333"/>
            <path d="M95.285,624.19a1.035,1.035,0,0,1-1.03,1.03H70.535a1.1,1.1,0,0,1-.4-.08,1.057,1.057,0,0,1-.08-.4,1.042,1.042,0,0,1,1.03-1.03h23.73a1.006,1.006,0,0,1,.39.08A1.1,1.1,0,0,1,95.285,624.19Z" fill="#333"/>
          </g>
        </g>
      </g>
      <g>
        <path d="M47.659,692.253a18.712,18.712,0,0,0,3.4-4.461c-.46.1-3.7.74-6.942,1.4v5.662c0,1.32.441,1.76,2.74,1.76a31.707,31.707,0,0,0,6.282-.62l-.079,2.16a46.567,46.567,0,0,1-6.262.42c-4.081,0-4.762-1.04-4.762-3.18v-5.782c-1.9.4-3.6.741-4.42.921l-.381-2.081c.92-.12,2.741-.44,4.8-.82v-3.181a13.615,13.615,0,0,0-.139-2.04h2.36a17.183,17.183,0,0,0-.14,2.04v2.781c3.181-.62,6.382-1.26,7.241-1.46a5.517,5.517,0,0,0,1.221-.4l1.5,1.16c-.16.24-.4.62-.56.92a28.744,28.744,0,0,1-4.121,5.821Z"/>
        <path d="M73.249,691.893c-.461.04-1.18.18-1.94.3-1.04.16-2.8.44-4.661.74.36,1.8.64,3.3.759,3.841.141.58.321,1.28.521,1.88l-2.3.4c-.1-.7-.16-1.34-.281-1.94-.08-.5-.379-2-.72-3.861-2.181.36-4.2.7-5.142.88-.819.141-1.419.261-1.859.38l-.461-2.14c.5-.02,1.341-.12,1.9-.2.98-.14,3.021-.46,5.181-.8l-.7-3.681c-1.841.3-3.5.58-4.2.7-.68.12-1.2.24-1.72.36l-.42-2.2c.56-.04,1.119-.08,1.74-.14.741-.08,2.4-.32,4.221-.6-.2-1-.34-1.721-.4-2a11.387,11.387,0,0,0-.4-1.44l2.241-.36c.06.38.121,1,.22,1.44.04.24.18,1,.38,2.041,1.82-.3,3.521-.581,4.3-.74.619-.121,1.24-.261,1.64-.381l.379,2.1c-.359.04-1.04.14-1.6.22-.881.14-2.561.4-4.362.68l.7,3.661c1.94-.32,3.72-.62,4.68-.8.76-.161,1.42-.3,1.881-.44Z"/>
        <path d="M88.157,696.094c.459,0,1.28-.04,1.741-.08v2.04c-.381-.02-1.221-.04-1.7-.04H77.415c-.66,0-1.121.02-1.8.04v-2.06a16.268,16.268,0,0,0,1.8.1h6.921c.28-1.7.8-5.141.86-6.261H79.255c-.6,0-1.24.04-1.78.06v-2.081a17.3,17.3,0,0,0,1.76.1h5.681a4.052,4.052,0,0,0,1.2-.16l1.521.74c-.06.221-.12.52-.16.721-.16,1.28-.72,5.02-1,6.881Z"/>
        <path d="M95.825,682.851c-.041.42-.08.92-.08,1.48v6.7c0,.52.039,1.22.08,1.62H93.483c.021-.34.1-1.04.1-1.62v-6.7c0-.36-.04-1.06-.08-1.48Zm9.242-.16c-.041.52-.081,1.12-.081,1.84v3.561c0,4.581-.719,6.282-2.2,7.962a11.116,11.116,0,0,1-4.781,2.92l-1.66-1.74a9.256,9.256,0,0,0,4.841-2.621c1.4-1.58,1.661-3.14,1.661-6.641v-3.441a15.443,15.443,0,0,0-.121-1.84Z"/>
        <path d="M124.011,688.152c.42,0,1.18-.04,1.68-.1v2.06c-.459-.04-1.161-.06-1.68-.06H118.87a12.45,12.45,0,0,1-1.24,5.342,9.752,9.752,0,0,1-3.981,3.72l-1.841-1.36a8.312,8.312,0,0,0,3.7-2.98,9.252,9.252,0,0,0,1.2-4.722h-5.781c-.6,0-1.261.02-1.82.06v-2.06a17.51,17.51,0,0,0,1.82.1Zm-10.582-3.181c-.66,0-1.4.02-1.961.06v-2.06a15.334,15.334,0,0,0,1.961.14h8.061a13.653,13.653,0,0,0,2-.14v2.06c-.64-.04-1.381-.06-2-.06Z"/>
        <path d="M141.4,687.212a25.12,25.12,0,0,1-4.521,3.621v6.9a12.741,12.741,0,0,0,.1,1.92h-2.321c.04-.339.1-1.28.1-1.92v-5.681a33.191,33.191,0,0,1-6.022,2.381l-1.059-1.841a25.97,25.97,0,0,0,7-2.72,20.155,20.155,0,0,0,5.142-4.121Z"/>
        <path d="M149.165,687.572a24.68,24.68,0,0,1-3.481,2.08,6.836,6.836,0,0,0-1.1-1.52,20.221,20.221,0,0,0,8.182-6.881h1.921a20.1,20.1,0,0,0,8.561,6.6,9.149,9.149,0,0,0-1.18,1.68,25.16,25.16,0,0,1-3.541-2.08v1.56h-9.361Zm-3.441,3.521h16.424v1.74h-9.163c-.66,1.34-1.4,2.841-2.121,4.121,2.221-.08,4.7-.18,7.143-.28a29.321,29.321,0,0,0-2.32-2.38l1.6-.861a25.457,25.457,0,0,1,4.641,5.141l-1.7,1.06a13.839,13.839,0,0,0-.88-1.3c-4.762.239-9.842.46-13.243.6l-.24-1.821,2.96-.1a34.227,34.227,0,0,0,1.861-4.181h-4.961Zm12.582-3.8a20.03,20.03,0,0,1-4.5-4.241,19.437,19.437,0,0,1-4.262,4.241Z"/>
        <path d="M172.066,693.993c-.461-.58-1.362-1.54-2.181-2.36V699.6h-1.841v-7.382a17.647,17.647,0,0,1-2.8,2.241,8.659,8.659,0,0,0-.92-1.721,16.483,16.483,0,0,0,5.942-6.121h-5.241v-1.7h3.02v-3.68h1.841v3.68h1.38l.32-.059,1.04.7a18.459,18.459,0,0,1-2.48,4.3c.94.76,2.6,2.2,3.06,2.62Zm11.162,3.2v1.84h-11.2v-1.84h4.841v-7.841h-4.041v-1.8h4.041v-6.161h1.9v6.161h4.041v1.8h-4.041v7.841Z"/>
        <path d="M74.976,716.413a13.32,13.32,0,0,1,3.961-9.562l1.519.72a12.459,12.459,0,0,0,0,17.683l-1.519.721A13.322,13.322,0,0,1,74.976,716.413Z"/>
        <path d="M92.874,718.253a18.7,18.7,0,0,0,3.4-4.461c-.459.1-3.7.74-6.941,1.4v5.662c0,1.32.441,1.76,2.74,1.76a31.707,31.707,0,0,0,6.282-.62l-.08,2.16a46.54,46.54,0,0,1-6.261.42c-4.081,0-4.762-1.04-4.762-3.18v-5.782c-1.9.4-3.6.741-4.42.921l-.381-2.081c.92-.12,2.74-.44,4.8-.82v-3.181a13.483,13.483,0,0,0-.14-2.04h2.361a17.183,17.183,0,0,0-.14,2.04v2.781c3.181-.62,6.382-1.26,7.241-1.46a5.517,5.517,0,0,0,1.221-.4l1.5,1.16c-.16.24-.4.62-.561.92a28.7,28.7,0,0,1-4.121,5.821Z"/>
        <path d="M114.624,724.315c0-.281.02-.661.02-1.081h-9.483c-.82,0-1.82.04-2.4.08v-2.26c.58.04,1.461.1,2.32.1h9.582v-8.921h-9.342c-.78,0-1.8.04-2.32.06v-2.2c.7.06,1.66.121,2.32.121h9.943c.54,0,1.24-.02,1.6-.041-.02.44-.041,1.161-.041,1.681v10.342c0,.7.041,1.68.08,2.121Z"/>
        <path d="M135.372,724.8c-.261-.7-.621-1.581-1.041-2.5-3.181.38-9.582,1.08-12.181,1.32-.5.06-1.162.16-1.762.24l-.36-2.32c.621,0,1.4,0,2-.04.241-.02.521-.02.821-.04,1.121-2.861,3.021-8.822,3.581-10.863a12.624,12.624,0,0,0,.44-2.08l2.5.52c-.22.54-.48,1.14-.76,2.02-.6,1.9-2.42,7.562-3.42,10.2,2.72-.24,6.1-.621,8.241-.9a26.79,26.79,0,0,0-2.281-3.9l1.941-.841a58.7,58.7,0,0,1,4.4,8.222Z"/>
        <path d="M145.029,716.413a13.326,13.326,0,0,1-3.961,9.562l-1.52-.721a12.456,12.456,0,0,0,0-17.683l1.52-.72A13.324,13.324,0,0,1,145.029,716.413Z"/>
      </g>
      <polygon points="573.613 511.576 513.765 452.576 513.765 478.53 255.151 478.53 255.151 544.623 513.765 544.623 513.765 570.576 573.613 511.576" fill="#29a199"/>
      <polygon points="224.044 655.96 283.893 714.959 283.893 689.006 542.506 689.006 542.506 622.913 283.893 622.913 283.893 596.96 224.044 655.96" fill="#29a199"/>
      <g>
        <path d="M281.436,500.912a9.362,9.362,0,1,1,9.362,9.362A9.374,9.374,0,0,1,281.436,500.912Zm18.063,0a8.7,8.7,0,1,0-8.7,8.7A8.707,8.707,0,0,0,299.5,500.912Zm-9.281-3.141h-2.16v-1.3a8.147,8.147,0,0,0,2.64-.881h1.56v10.423h-2.04Z" fill="#fff"/>
        <path d="M316.3,500.992a11.76,11.76,0,0,1-2.741,4.961,37.981,37.981,0,0,1,5.341,2.62l-1.46,1.521A36.179,36.179,0,0,0,312,507.273a19.714,19.714,0,0,1-8.3,2.841,7.562,7.562,0,0,0-1.08-1.7,19.858,19.858,0,0,0,7.342-1.96c-1.121-.44-2.262-.84-3.342-1.2l-.439.78-1.941-.52c.741-1.2,1.64-2.841,2.521-4.521h-4.581v-1.78h5.5c.541-1.081,1.06-2.141,1.5-3.082l1.941.421c-.4.84-.841,1.74-1.3,2.661h9.963v1.78Zm-11.743-2.881h-1.9V493.69h7.262v-1.98H311.9v1.98h7.441v4.421H317.36v-2.7h-12.8Zm4.342,2.881c-.5.98-1,1.92-1.481,2.8,1.36.4,2.82.88,4.281,1.441a8.881,8.881,0,0,0,2.481-4.241Z" fill="#fff"/>
        <path d="M330.132,497.591a29.357,29.357,0,0,1-7,3.781,17.791,17.791,0,0,0-1.32-1.7,22.581,22.581,0,0,0,9.042-5.141h-8.363v-1.74h17.264v1.74h-6.32c-.442.52-.921,1-1.4,1.481v5.9h-1.9Zm-5.522,4.881h13.163v7.582h-2.02v-.841H326.53v.861h-1.92Zm1.92,1.62v3.5h9.223v-3.5Zm7.5-7.841a35.114,35.114,0,0,1,6.282,3.481l-1.34,1.4a31.127,31.127,0,0,0-6.282-3.641Z" fill="#fff"/>
        <path d="M360.142,509.274h-7.9v.82H350.46v-9.1q-.39.36-.781.66a9.3,9.3,0,0,0-1-1.141v7.162h-3.74v1.56h-1.521v-5.761a11.191,11.191,0,0,1-.92,1.5,13.44,13.44,0,0,0-1.04-1.761c1.44-2.041,2.24-5.161,2.721-8.521h-2.1V493.01h7.042v.66h4.041a20.229,20.229,0,0,0,.58-1.96l1.781.34c-.141.56-.321,1.1-.5,1.62h5.021v3.481h-1.681v-1.9h-3.94a17.573,17.573,0,0,1-1.48,2.78h2.08a15.371,15.371,0,0,0,.82-2.22l1.721.38c-.281.62-.58,1.26-.881,1.84h2.9v1.56h-3.26v1.721h2.9v1.4h-2.9v1.8h2.9v1.4h-2.9v1.82h3.821ZM347.1,500.412h-2.16v5.641h2.16Zm1.58-.361a12.7,12.7,0,0,0,3.821-4.8h-1.841v1.9h-1.58v-2.46h-3.121c-.219,1.4-.479,2.8-.82,4.1h3.541Zm5.922-.46h-2.362v1.721H354.6Zm0,3.121h-2.362v1.8H354.6Zm-2.362,5.021H354.6v-1.82h-2.362Z" fill="#fff"/>
        <path d="M369.134,496.511h-7.143V495.03h7.143Zm-.541,12.482h-4.181v.841h-1.56v-6.722h5.741Zm-.02-9.8h-5.7v-1.441h5.7Zm-5.7,1.22h5.7v1.46h-5.7Zm5.641-6.562h-5.561v-1.46h5.561Zm-4.1,10.762v2.881h2.6v-2.881Zm4.221,3.541a8.227,8.227,0,0,0,1.48-4.3l1.5.381a8.867,8.867,0,0,1-1.621,4.78Zm2.081-13.183a22.558,22.558,0,0,1,2.16.821,15.571,15.571,0,0,0,.38-1.661h-3.2v-1.6h9.681s0,.52-.019.74c-.2,4.621-.381,6.4-.9,7a1.621,1.621,0,0,1-1.261.66,15.768,15.768,0,0,1-2.24.02,3.989,3.989,0,0,0-.48-1.7c.819.08,1.56.08,1.859.08a.648.648,0,0,0,.641-.22c.26-.34.46-1.62.6-4.981h-3a13.523,13.523,0,0,1-.561,2.361,18.824,18.824,0,0,1,2.1,1.18l-.9,1.44a15.455,15.455,0,0,0-1.821-1.12,8.014,8.014,0,0,1-3.54,3.461,4.36,4.36,0,0,0-1.08-1.341,6.407,6.407,0,0,0,3.12-2.88,21.934,21.934,0,0,0-2.421-.98Zm5.1,13.343c.479,0,.559-.26.62-2.2a4.182,4.182,0,0,0,1.541.7c-.181,2.481-.641,3.121-1.961,3.121h-1.961c-1.62,0-2-.52-2-2.181v-4.621h1.7v4.6c0,.5.08.58.58.58Zm-2.281-7.881a14.266,14.266,0,0,1,3.541,2.54l-1.16,1.22a15.756,15.756,0,0,0-3.461-2.68Zm4.921,3.02a14.264,14.264,0,0,1,2.221,4.8l-1.641.68a14.893,14.893,0,0,0-2.1-4.881Z" fill="#fff"/>
        <path d="M397.463,493.91a14.739,14.739,0,0,0-.74,1.6,28.013,28.013,0,0,1-2.861,5.682,53.91,53.91,0,0,1,4.862,4.5l-1.621,1.781a42.3,42.3,0,0,0-4.58-4.5,25.244,25.244,0,0,1-7.663,6.342l-1.82-1.621a22,22,0,0,0,7.8-6.121,60.026,60.026,0,0,0-5.5-3.921l1.34-1.6c1.66,1.061,3.861,2.581,5.461,3.782a21.765,21.765,0,0,0,2.48-5.121,12.513,12.513,0,0,0,.441-1.641Z" fill="#fff"/>
        <path d="M400.5,499.591c.64.06,1.88.121,2.96.121h10.863c.981,0,1.76-.081,2.241-.121v2.461c-.44-.02-1.34-.08-2.221-.08H403.458c-1.119,0-2.3.04-2.96.08Z" fill="#fff"/>
        <path d="M417.7,507.893a9.4,9.4,0,0,0,3.441-4.861c.58-1.78.58-5.681.58-7.982a6.233,6.233,0,0,0-.16-1.62h2.321a14.609,14.609,0,0,0-.1,1.6,43.83,43.83,0,0,1-.62,8.542,11.228,11.228,0,0,1-3.56,5.6Zm9.2.18a5.764,5.764,0,0,0,.141-1.26V494.97a14.658,14.658,0,0,0-.12-1.6h2.32a12.046,12.046,0,0,0-.1,1.6v11.063a14.061,14.061,0,0,0,5.441-4.6l1.2,1.72a20.983,20.983,0,0,1-6.8,5.521,4.219,4.219,0,0,0-.76.5Z" fill="#fff"/>
        <path d="M455.606,499.692v2.04H437.4v-2.04Z" fill="#fff"/>
        <path d="M472.23,495.09a10.811,10.811,0,0,1-3.2,2.7,33.385,33.385,0,0,0,6.822,1.22,7.058,7.058,0,0,0-1.08,1.681,29.989,29.989,0,0,1-7.842-1.861,35.745,35.745,0,0,1-8.382,2.121,9.167,9.167,0,0,0-1.02-1.681,34.492,34.492,0,0,0,7.3-1.42,13.518,13.518,0,0,1-3.6-2.761h-3.322v-1.6h7.662v-1.78h2.021v1.78h7.842v1.6Zm-1.461,5.5h1.94v9.463h-1.94v-3.741h-8.422a6.809,6.809,0,0,1-2.761,4,8.327,8.327,0,0,0-1.681-1.281c2.541-1.68,2.822-3.861,2.822-5.841v-2.6h1.921v.881h8.121Zm0,4.1v-1.64h-8.121v.18c0,.481-.021.981-.061,1.46Zm-7.3-9.6a13.644,13.644,0,0,0,3.421,1.961,10.229,10.229,0,0,0,2.9-1.961Z" fill="#fff"/>
        <path d="M482.169,505.813c.88,1.38,2.521,2.02,4.721,2.1,2.22.08,6.662.02,9.162-.14a8.421,8.421,0,0,0-.62,1.9c-2.261.1-6.282.141-8.562.04-2.541-.1-4.262-.76-5.521-2.3-.941.82-1.9,1.62-2.942,2.481l-.959-1.921a30.282,30.282,0,0,0,2.9-2.06v-4.7h-2.561v-1.721h4.381Zm-.92-9.342a15.019,15.019,0,0,0-3.342-3.161l1.381-1.12a15.259,15.259,0,0,1,3.421,3.061Zm9.442,4.621a7.035,7.035,0,0,0,5.06,4.461,6.906,6.906,0,0,0-1.2,1.56,8.14,8.14,0,0,1-5.041-4.621c-.721,1.64-2.182,3.281-5.062,4.561a5.813,5.813,0,0,0-1.219-1.34c3.28-1.281,4.44-3.021,4.82-4.621h-4.9v-1.661h5.1v-2.38h-4.44v-1.68h2.279a11.333,11.333,0,0,0-1.619-2.941l1.58-.66a10.689,10.689,0,0,1,1.78,3.12l-1.1.481h4.941l-1.141-.4a17.113,17.113,0,0,0,1.761-3.26l1.9.6a34.276,34.276,0,0,1-2.021,3.061h2.9v1.68H490.13v2.38h5.562v1.661Z" fill="#fff"/>
        <path d="M504.235,492.33a32.117,32.117,0,0,1-1.96,3.981v13.723h-1.76V498.991a23.552,23.552,0,0,1-1.961,2.321,17.673,17.673,0,0,0-1.021-1.881,21.531,21.531,0,0,0,4.962-7.661Zm12.082,3.041v1.54H503.5v-1.54Zm-11.462,8.381h10.222v6.262h-1.86v-.8h-6.581v.861h-1.781Zm10-4.081H505.1v-1.5h9.762Zm-9.762,1.3h9.7v1.48h-9.7Zm9.4-6.882h-9.122v-1.5H514.5Zm-7.861,11.123v2.5h6.581v-2.5Z" fill="#fff"/>
        <path d="M361.894,524.911a10.66,10.66,0,0,1,3.17-7.651l1.215.576a9.97,9.97,0,0,0,0,14.149l-1.215.577A10.66,10.66,0,0,1,361.894,524.911Z" fill="#fff"/>
        <path d="M380.694,519.692V532.21h-1.568v-.8h-8.1v.865h-1.488V519.692h4.033a17.6,17.6,0,0,0,.53-2.144l1.776.208c-.257.672-.513,1.36-.784,1.936Zm-9.668,1.425v2.049h8.1v-2.049Zm0,3.426v2.048h8.1v-2.048Zm8.1,5.49v-2.065h-8.1v2.065Z" fill="#fff"/>
        <path d="M397.667,521.213s-.017.513-.017.688c-.176,6.611-.32,8.884-.833,9.572a1.408,1.408,0,0,1-1.135.689,11.218,11.218,0,0,1-1.969.016,3.939,3.939,0,0,0-.416-1.409c.735.064,1.393.064,1.681.064a.607.607,0,0,0,.576-.256c.351-.448.512-2.481.64-7.987h-1.888c-.209,4.258-.93,7.651-3.682,9.764a5,5,0,0,0-1.072-1.1c.1-.065.191-.145.287-.225-2.305.272-4.609.513-6.322.672l-.192-1.264c.928-.064,2.08-.16,3.345-.272v-1.217h-2.913v-1.088h2.913v-.816h-2.865v-4.818h2.865v-.833h-3.3v-1.1h3.3v-.9c-.977.079-1.952.128-2.849.159a4.487,4.487,0,0,0-.352-1.072,49.8,49.8,0,0,0,6.866-.784l.705,1.12a30.136,30.136,0,0,1-3.01.448v1.025h3.234v.928h1.68c.016-1.088.016-2.225.016-3.425h1.426c0,1.184-.017,2.337-.033,3.425Zm-12.645,2.961h1.648V523.2h-1.648Zm1.648,1.889v-.976h-1.648v.976Zm1.36,3.97c.993-.1,2.018-.192,3.026-.3,1.312-1.809,1.713-4.226,1.841-7.139h-1.7v-1.2h-3.17v.833h2.978v4.818H388.03v.816h3.01v1.088h-3.01Zm1.713-5.859V523.2H388.03v.976Zm-1.713.913v.976h1.713v-.976Z" fill="#fff"/>
        <path d="M402.939,528.833c.7,1.1,2.017,1.616,3.777,1.68,1.777.064,5.33.016,7.332-.112a6.744,6.744,0,0,0-.5,1.52c-1.81.081-5.027.113-6.852.033a5.484,5.484,0,0,1-4.418-1.841c-.752.656-1.52,1.3-2.352,1.985l-.769-1.537a23.979,23.979,0,0,0,2.322-1.649v-3.761h-2.049v-1.376h3.5Zm-.737-7.475a11.988,11.988,0,0,0-2.673-2.53l1.105-.9a12.211,12.211,0,0,1,2.737,2.449Zm7.556,3.7a5.629,5.629,0,0,0,4.05,3.569,5.516,5.516,0,0,0-.961,1.249,6.513,6.513,0,0,1-4.033-3.7,7.337,7.337,0,0,1-4.05,3.65,4.658,4.658,0,0,0-.977-1.072c2.625-1.025,3.554-2.417,3.858-3.7h-3.921v-1.329h4.081v-1.9h-3.554v-1.344h1.825a9.108,9.108,0,0,0-1.3-2.353l1.264-.528a8.542,8.542,0,0,1,1.425,2.5l-.88.384h3.953l-.912-.32a13.751,13.751,0,0,0,1.408-2.609l1.521.48a27.137,27.137,0,0,1-1.617,2.449h2.321v1.344H409.31v1.9h4.449v1.329Z" fill="#fff"/>
        <path d="M420.61,518.044a25.4,25.4,0,0,1-1.569,3.185V532.21h-1.408v-8.836a18.622,18.622,0,0,1-1.569,1.857,14.144,14.144,0,0,0-.817-1.5,17.206,17.206,0,0,0,3.971-6.13Zm9.668,2.433v1.233h-10.26v-1.233Zm-9.171,6.707h8.178v5.01H427.8v-.641H422.53v.689h-1.423Zm8-3.265H421.3v-1.2h7.811Zm-7.811,1.04h7.764v1.184H421.3Zm7.523-5.506h-7.3v-1.2h7.3Zm-6.291,8.9v2H427.8v-2Z" fill="#fff"/>
        <path d="M436,524.911a10.667,10.667,0,0,1-3.168,7.651l-1.217-.577a9.967,9.967,0,0,0,0-14.149l1.217-.576A10.667,10.667,0,0,1,436,524.911Z" fill="#fff"/>
      </g>
      <g>
        <path d="M349.624,644.457a9.363,9.363,0,1,1,9.362,9.362A9.374,9.374,0,0,1,349.624,644.457Zm18.065,0a8.7,8.7,0,1,0-8.7,8.7A8.709,8.709,0,0,0,367.689,644.457Zm-12.243,3.921c3.161-2.741,5.121-4.561,5.121-6.122a1.626,1.626,0,0,0-1.84-1.76,3.5,3.5,0,0,0-2.322,1.14l-1.139-1.1a4.924,4.924,0,0,1,3.68-1.64c2.181,0,3.6,1.28,3.6,3.181,0,1.88-1.921,3.8-4.182,5.861.6-.06,1.361-.1,2.021-.1h2.6v1.72h-7.541Z" fill="#fff"/>
        <path d="M384.489,644.537a11.732,11.732,0,0,1-2.74,4.961,38.046,38.046,0,0,1,5.342,2.621l-1.461,1.52a36.321,36.321,0,0,0-5.441-2.821,19.7,19.7,0,0,1-8.3,2.841,7.562,7.562,0,0,0-1.081-1.7A19.838,19.838,0,0,0,378.149,650c-1.121-.44-2.261-.84-3.341-1.2l-.44.78-1.941-.52c.74-1.2,1.64-2.841,2.521-4.521h-4.582v-1.78h5.5c.54-1.081,1.061-2.141,1.5-3.081l1.941.42c-.4.84-.841,1.741-1.3,2.661h9.962v1.78Zm-11.742-2.881h-1.9v-4.421h7.261v-1.98h1.981v1.98h7.441v4.421h-1.98v-2.7h-12.8Zm4.342,2.881c-.5.98-1,1.921-1.481,2.8,1.36.4,2.821.88,4.281,1.44a8.875,8.875,0,0,0,2.48-4.241Z" fill="#fff"/>
        <path d="M398.32,641.136a29.313,29.313,0,0,1-7,3.781,17.779,17.779,0,0,0-1.32-1.7,22.588,22.588,0,0,0,9.041-5.141h-8.361v-1.74h17.263v1.74h-6.321c-.44.52-.921,1-1.4,1.48v5.9h-1.9Zm-5.52,4.881h13.162V653.6h-2.02v-.84H394.72v.86H392.8Zm1.92,1.621v3.5h9.222v-3.5Zm7.5-7.842a35.138,35.138,0,0,1,6.281,3.481l-1.341,1.4a31.212,31.212,0,0,0-6.281-3.641Z" fill="#fff"/>
        <path d="M415.358,640.5h3.5v1.581H417l.86.219c-.339.841-.7,1.721-1.02,2.361h1.78v1.6h-3.26v1.881h3v1.58h-3v3.861h-1.741v-3.861h-3.14v-1.58h3.14v-1.881H410.3v-1.6h1.74a8.916,8.916,0,0,0-.76-2.361l.821-.219h-2.141V640.5h3.661v-1.74h-2.94V637.2h2.94v-1.88h1.741v1.88h2.76v1.561h-2.76Zm.04,3.981a24.136,24.136,0,0,0,.839-2.4h-3.461a9.452,9.452,0,0,1,.782,2.4l-.66.18h3.179Zm12.422-1.22a19.538,19.538,0,0,1-2.26,6.521,9.677,9.677,0,0,0,2.98,2.381,7.382,7.382,0,0,0-1.24,1.48,10.948,10.948,0,0,1-2.76-2.361,11.471,11.471,0,0,1-2.441,2.381,5.741,5.741,0,0,0-1.02-1.08v1.06H419.4V636.155h7.961v3.781c0,.86-.179,1.34-.88,1.6a10.047,10.047,0,0,1-3.18.26,5.844,5.844,0,0,0-.561-1.6c1.141.04,2.2.04,2.5.02s.381-.08.381-.3V637.8h-4.541v5.121h5.3l.3-.08Zm-6.741,8.982a10.075,10.075,0,0,0,2.381-2.4,20.638,20.638,0,0,1-2.381-5.4Zm1.561-7.8a17.189,17.189,0,0,0,1.779,3.841,16.056,16.056,0,0,0,1.421-3.841Z" fill="#fff"/>
        <path d="M447.669,642.477v1.74H430.2v-1.74h8.2v-2.761h-4.641a17.289,17.289,0,0,1-1.78,2.48c-.4-.259-1.24-.759-1.7-1a14.645,14.645,0,0,0,3.421-5.781l1.861.44c-.26.72-.561,1.461-.88,2.161h3.72v-2.721h1.96v2.721h5.922v1.7h-5.922v2.761Zm-15.084,3.481h12.923v7.761h-1.941V652.7h-9.1v1.06h-1.881Zm1.881,1.72v3.3h9.1v-3.3Z" fill="#fff"/>
        <path d="M362.011,668.456a10.664,10.664,0,0,1,3.169-7.651l1.216.576a9.969,9.969,0,0,0,0,14.15l-1.216.577A10.664,10.664,0,0,1,362.011,668.456Z" fill="#fff"/>
        <path d="M380.443,663.318a12.768,12.768,0,0,1-3.809,3.762,21.838,21.838,0,0,0,6,1.952,6.477,6.477,0,0,0-.96,1.377,21.246,21.246,0,0,1-6.467-2.465,25.851,25.851,0,0,1-6.851,2.545,5.425,5.425,0,0,0-.736-1.329,25.745,25.745,0,0,0,6.227-2.113,15.786,15.786,0,0,1-2.337-2.032,16.853,16.853,0,0,1-2.386,1.841,9.009,9.009,0,0,0-1.119-1.105,13.468,13.468,0,0,0,5.058-4.786l1.408.5c-.256.416-.544.848-.849,1.248h5.523l.256-.08Zm-10.068,6.707H379.9v5.762h-1.585v-.624H371.88v.672h-1.5Zm1.5,1.344v2.481h6.435v-2.481Zm.592-7.3a12.777,12.777,0,0,0,2.737,2.209,12.532,12.532,0,0,0,2.817-2.273h-5.5Z" fill="#fff"/>
        <path d="M390.752,661.542c-.017.224-.017.5-.048.784.145,2.129.977,9.316,6.963,12.069a4.825,4.825,0,0,0-1.137,1.248c-3.873-1.872-5.65-5.538-6.482-8.627a13.29,13.29,0,0,1-6.162,8.643,5.135,5.135,0,0,0-1.233-1.168c6.4-3.41,6.306-10.837,6.418-12.949Z" fill="#fff"/>
        <path d="M402.822,672.378c.7,1.1,2.017,1.616,3.778,1.681s5.33.015,7.331-.113a6.786,6.786,0,0,0-.5,1.521c-1.809.08-5.027.112-6.852.032a5.48,5.48,0,0,1-4.417-1.841c-.753.657-1.52,1.3-2.352,1.985l-.77-1.536a24.331,24.331,0,0,0,2.322-1.649V668.7h-2.049V667.32h3.5Zm-.736-7.475a12.029,12.029,0,0,0-2.673-2.529l1.1-.9a12.237,12.237,0,0,1,2.738,2.448Zm7.556,3.7a5.627,5.627,0,0,0,4.049,3.57,5.562,5.562,0,0,0-.961,1.248,6.521,6.521,0,0,1-4.034-3.7,7.328,7.328,0,0,1-4.048,3.649,4.7,4.7,0,0,0-.977-1.072c2.625-1.024,3.553-2.417,3.857-3.7h-3.921v-1.328h4.082v-1.905h-3.554v-1.344h1.825a9.127,9.127,0,0,0-1.3-2.353l1.264-.529a8.559,8.559,0,0,1,1.426,2.5l-.881.385h3.953l-.912-.321a13.665,13.665,0,0,0,1.408-2.609l1.521.48a27.379,27.379,0,0,1-1.617,2.45h2.322v1.344h-3.955v1.905h4.451V668.6Z" fill="#fff"/>
        <path d="M420.493,661.589a25.4,25.4,0,0,1-1.568,3.186v10.98h-1.408V666.92a18.724,18.724,0,0,1-1.57,1.856,13.941,13.941,0,0,0-.816-1.5,17.231,17.231,0,0,0,3.97-6.131Zm9.668,2.434v1.232H419.9v-1.232Zm-9.172,6.706h8.18v5.01h-1.488v-.64h-5.267v.688h-1.425Zm8-3.265h-7.811v-1.2h7.811Zm-7.811,1.04h7.762v1.185h-7.762ZM428.7,663h-7.3v-1.2h7.3Zm-6.29,8.9v2h5.267v-2Z" fill="#fff"/>
        <path d="M435.885,668.456a10.668,10.668,0,0,1-3.169,7.652l-1.217-.577a9.971,9.971,0,0,0,0-14.15l1.217-.576A10.668,10.668,0,0,1,435.885,668.456Z" fill="#fff"/>
      </g>
      <g>
        <path d="M318.446,707.616a14.217,14.217,0,0,0,5.873,6.162,6.788,6.788,0,0,0-1.119,1.313,15.545,15.545,0,0,1-5.667-6.147v4.274H320.4v1.5h-2.866v2.833h-1.568v-2.833h-2.929v-1.5h2.929V708.96a16.276,16.276,0,0,1-5.634,6.179,8.653,8.653,0,0,0-1.056-1.233,14.86,14.86,0,0,0,5.793-6.29h-5.234v-1.5h6.131v-3.233h1.568v3.233h6.195v1.5Z"/>
        <path d="M332.823,703.31c-.016.224-.016.5-.048.784.144,2.129.976,9.316,6.962,12.069a4.825,4.825,0,0,0-1.136,1.249c-3.873-1.873-5.651-5.538-6.483-8.628a13.285,13.285,0,0,1-6.162,8.644,5.1,5.1,0,0,0-1.232-1.169c6.4-3.409,6.306-10.836,6.418-12.949Z"/>
        <path d="M352.456,710.289a9.4,9.4,0,0,1-2.193,3.969,30.6,30.6,0,0,1,4.274,2.1l-1.169,1.217a28.927,28.927,0,0,0-4.353-2.257,15.8,15.8,0,0,1-6.643,2.273,6.028,6.028,0,0,0-.864-1.361,15.883,15.883,0,0,0,5.874-1.568c-.9-.353-1.809-.673-2.673-.961l-.352.624-1.553-.416c.593-.96,1.312-2.273,2.017-3.617h-3.666v-1.425h4.4c.431-.864.847-1.713,1.2-2.465l1.553.336c-.321.673-.673,1.393-1.04,2.129h7.97v1.425Zm-9.4-2.3H341.54v-3.538h5.811v-1.584h1.584v1.584h5.955v3.538h-1.585v-2.161H343.061Zm3.473,2.3c-.4.784-.8,1.536-1.185,2.241,1.089.32,2.258.7,3.426,1.152a7.1,7.1,0,0,0,1.984-3.393Z"/>
        <path d="M363.54,707.567a23.464,23.464,0,0,1-5.6,3.026,13.984,13.984,0,0,0-1.057-1.36,18.076,18.076,0,0,0,7.234-4.114h-6.689v-1.393h13.812v1.393h-5.057c-.353.416-.737.8-1.12,1.184v4.722H363.54Zm-4.417,3.906h10.532v6.067h-1.617v-.673h-7.379v.689h-1.536Zm1.536,1.3v2.8h7.379v-2.8Zm6-6.275a28.192,28.192,0,0,1,5.027,2.785l-1.073,1.121a24.828,24.828,0,0,0-5.027-2.913Z"/>
        <path d="M375.525,708.784a1.441,1.441,0,1,1-1.44,1.441A1.431,1.431,0,0,1,375.525,708.784Z"/>
        <path d="M392.628,710.929v6.611h-1.536V716.6h-9.46v.977h-1.5v-6.643h1.5v4.21h3.857v-5.17h-4.754v-5.587h1.489v4.146h3.265V702.99h1.521v5.538h3.426v-4.162H392v5.6H387.01v5.17h4.082v-4.21Z"/>
        <path d="M400.75,713.09c-.368-.464-1.089-1.232-1.745-1.889v6.371h-1.473v-5.907a14.005,14.005,0,0,1-2.24,1.793,7.026,7.026,0,0,0-.736-1.376,13.2,13.2,0,0,0,4.754-4.9h-4.194v-1.361h2.416v-2.945h1.473v2.945h1.105l.256-.048.832.56a14.771,14.771,0,0,1-1.984,3.441c.752.609,2.08,1.761,2.449,2.1Zm8.932,2.561v1.473h-8.964v-1.473h3.874v-6.274h-3.234v-1.441h3.234v-4.93h1.52v4.93h3.234v1.441h-3.234v6.274Z"/>
        <path d="M424.529,705.471h-1.9v10.116c0,.96-.239,1.457-.912,1.681a10.861,10.861,0,0,1-3.409.288,6.626,6.626,0,0,0-.624-1.6c1.217.064,2.545.048,2.929.048.352-.016.464-.112.464-.448V705.471H410.316v-1.489h14.213Zm-11.2,8.115v1.249h-1.441v-7.268h6.6v6.019Zm0-4.61v3.2h3.682v-3.2Z"/>
        <path d="M432.523,707.567a23.452,23.452,0,0,1-5.6,3.026,13.83,13.83,0,0,0-1.057-1.36,18.086,18.086,0,0,0,7.235-4.114h-6.69v-1.393h13.813v1.393h-5.058c-.352.416-.736.8-1.12,1.184v4.722h-1.521Zm-4.417,3.906h10.532v6.067h-1.617v-.673h-7.379v.689h-1.536Zm1.536,1.3v2.8h7.379v-2.8Zm6-6.275a28.18,28.18,0,0,1,5.026,2.785L439.6,710.4a24.865,24.865,0,0,0-5.028-2.913Z"/>
        <path d="M453.178,711.249v1.2h2.848v1.28h-2.848v2.209c0,.784-.193,1.185-.784,1.393a8.707,8.707,0,0,1-2.738.24,5.465,5.465,0,0,0-.544-1.393c.96.032,1.9.032,2.177.016.288-.016.353-.064.353-.288V713.73h-5.491a10.4,10.4,0,0,1,2.353,2.161l-1.153.945a11.676,11.676,0,0,0-2.545-2.45l.865-.656h-3.09v-1.28h9.061v-1.2h-9.588v-1.265h6.4v-1.216h-4.818v-1.232h4.818v-.961h.384a6.513,6.513,0,0,0-.624-.4,5.457,5.457,0,0,0,.8-.8h-2.61a9.872,9.872,0,0,1,.512,1.248l-1.28.5a12.384,12.384,0,0,0-.7-1.745h-.449a11.791,11.791,0,0,1-1.5,1.9,8.893,8.893,0,0,0-1.233-.848,9.746,9.746,0,0,0,2.465-3.633l1.425.368c-.128.336-.288.656-.448.976h3.873v1.185a8.117,8.117,0,0,0,1.441-2.529l1.44.336c-.128.352-.272.672-.432,1.008h4.834v1.233H453.29a8.673,8.673,0,0,1,.752,1.264l-1.28.529a10.36,10.36,0,0,0-1.073-1.793h-.88a10.369,10.369,0,0,1-.912,1.2h.1v.961h4.994v1.232h-4.994v1.216h6.484v1.265Z"/>
        <path d="M462.269,707.055h2.8v1.265h-1.488l.688.176c-.272.673-.561,1.377-.817,1.889h1.425v1.28h-2.608v1.5h2.4v1.265h-2.4v3.089h-1.393v-3.089h-2.514V713.17h2.514v-1.5h-2.658v-1.28h1.392A7.205,7.205,0,0,0,459,708.5l.656-.176h-1.713v-1.265h2.93v-1.392h-2.353v-1.248h2.353v-1.5h1.393v1.5h2.209v1.248h-2.209Zm.031,3.186a19.3,19.3,0,0,0,.672-1.921H460.2a7.622,7.622,0,0,1,.624,1.921l-.527.144h2.545Zm9.939-.977a15.6,15.6,0,0,1-1.808,5.219,7.746,7.746,0,0,0,2.386,1.9,5.921,5.921,0,0,0-.994,1.185,8.818,8.818,0,0,1-2.209-1.889,9.128,9.128,0,0,1-1.952,1.9,4.572,4.572,0,0,0-.816-.865v.849H465.5v-13.99h6.371v3.026c0,.688-.144,1.072-.705,1.28a8.035,8.035,0,0,1-2.545.208,4.688,4.688,0,0,0-.447-1.28c.912.031,1.76.031,2,.016s.305-.065.305-.241v-1.7h-3.634v4.1h4.241l.24-.064Zm-5.393,7.187a8.047,8.047,0,0,0,1.9-1.921,16.536,16.536,0,0,1-1.9-4.321Zm1.249-6.242a13.747,13.747,0,0,0,1.424,3.073,12.851,12.851,0,0,0,1.136-3.073Z"/>
        <path d="M488.141,708.64v1.393H474.167V708.64h6.563v-2.209h-3.713a13.925,13.925,0,0,1-1.426,1.985c-.319-.208-.992-.608-1.359-.8a11.751,11.751,0,0,0,2.736-4.626l1.488.352c-.207.576-.447,1.168-.7,1.729h2.977v-2.177H482.3v2.177h4.738v1.36H482.3v2.209Zm-12.07,2.785h10.34v6.211h-1.552v-.817h-7.283v.849h-1.5Zm1.5,1.377v2.641h7.283V712.8Z"/>
      </g>
      <g>
        <path d="M355.905,566.1a9.388,9.388,0,0,1-2.193,3.969,30.6,30.6,0,0,1,4.274,2.1l-1.169,1.217a28.927,28.927,0,0,0-4.353-2.257,15.786,15.786,0,0,1-6.643,2.273,6.05,6.05,0,0,0-.864-1.361,15.883,15.883,0,0,0,5.874-1.568c-.9-.353-1.808-.673-2.673-.961l-.352.624-1.553-.416c.593-.96,1.313-2.273,2.018-3.617h-3.666v-1.425h4.4c.432-.864.848-1.712,1.2-2.465l1.553.337c-.32.672-.673,1.392-1.04,2.128h7.971V566.1Zm-9.395-2.305h-1.521v-3.538H350.8v-1.584h1.584v1.584h5.955v3.538h-1.585v-2.161H346.51Zm3.473,2.305c-.4.784-.8,1.536-1.185,2.241,1.089.32,2.258.7,3.426,1.152a7.088,7.088,0,0,0,1.984-3.393Z"/>
        <path d="M366.989,563.378a23.477,23.477,0,0,1-5.6,3.025,13.83,13.83,0,0,0-1.057-1.36,18.075,18.075,0,0,0,7.235-4.114h-6.69v-1.393h13.813v1.393h-5.058c-.353.416-.736.8-1.12,1.184v4.722h-1.522Zm-4.417,3.9h10.533v6.067h-1.618v-.673h-7.379v.689h-1.536Zm1.536,1.3v2.8h7.379v-2.8Zm6-6.275a28.156,28.156,0,0,1,5.027,2.785l-1.072,1.121a24.865,24.865,0,0,0-5.028-2.913Z"/>
        <path d="M386.564,564.722c.769,3.265,2.225,6.019,4.593,7.379a5.457,5.457,0,0,0-1.088,1.249,11.367,11.367,0,0,1-4.162-6.211,11.7,11.7,0,0,1-3.84,6.227,7.147,7.147,0,0,0-1.169-.928v.912h-1.456v-5.522c-.849.784-1.713,1.584-2.466,2.224l-.817-1.248c.833-.64,2.082-1.713,3.283-2.8v-2.321l-1.2.768a18.4,18.4,0,0,0-1.888-3.025l1.152-.688a18.2,18.2,0,0,1,1.937,2.881v-4.946H380.9v13.686a10.983,10.983,0,0,0,3.906-7.636h-3.426v-1.456h3.506c.016-.241.016-.465.016-.689v-3.841h1.472v3.841c0,.224,0,.448-.015.689h4.4v1.456Zm2.609-2.113a19.3,19.3,0,0,0-1.793-2.833l1.121-.624a21.239,21.239,0,0,1,1.889,2.721Z"/>
        <path d="M395.52,565.859a12.765,12.765,0,0,0-3.138-1.6l.785-1.136a12.928,12.928,0,0,1,3.168,1.472Zm1.792,2.049c-.928,1.76-2.049,3.745-3.057,5.282l-1.248-.929A50.1,50.1,0,0,0,396.224,567Zm-1.024-6.387a11.176,11.176,0,0,0-2.9-1.649l.816-1.1a11.01,11.01,0,0,1,2.944,1.536Zm9.123,10.388c.353,0,.416-.352.465-2.337a4.293,4.293,0,0,0,1.328.577c-.144,2.417-.512,3.073-1.648,3.073h-1.425c-1.329,0-1.633-.448-1.633-1.889V566H400.93c-.177,3.649-.7,6.05-3.905,7.395a3.84,3.84,0,0,0-.881-1.2c2.833-1.1,3.185-3.057,3.313-6.194h-1.536v-6.611h8.322V566h-2.256v5.314c0,.512.064.592.4.592Zm-6.051-7.3h5.364v-3.841H399.36Z"/>
        <path d="M415.105,569.892c.048-.544.064-1.44.064-2.224-1.344.752-2.192,1.472-2.192,2.4,0,1.089,1.024,1.3,2.625,1.3a26.7,26.7,0,0,0,4.4-.416l-.048,1.617a40.328,40.328,0,0,1-4.4.272c-2.369,0-4.21-.544-4.21-2.514,0-1.952,1.905-3.185,3.729-4.113a1.234,1.234,0,0,0-1.281-.785,4.031,4.031,0,0,0-2.625,1.137,17.2,17.2,0,0,0-1.456,1.7l-1.36-1.025a16.522,16.522,0,0,0,3.586-4.626h-.465c-.656,0-1.761-.032-2.641-.1v-1.488a23.254,23.254,0,0,0,2.721.176h.928a9.5,9.5,0,0,0,.369-1.9l1.648.128c-.1.416-.224,1.024-.448,1.713a36.5,36.5,0,0,0,4.69-.465v1.473a48.466,48.466,0,0,1-5.218.432,11.606,11.606,0,0,1-1.2,2.065,4.671,4.671,0,0,1,2.017-.464,2.087,2.087,0,0,1,2.113,1.345c.977-.465,1.793-.8,2.545-1.137.528-.24.992-.448,1.5-.7l.625,1.472c-.432.128-1.121.385-1.6.577-.817.3-1.84.736-2.946,1.248.017.9.049,2.161.065,2.913Z"/>
        <path d="M427.4,562.865h2.8v1.265h-1.488l.688.176c-.272.673-.559,1.377-.815,1.889h1.424v1.28H427.4v1.5h2.4v1.265h-2.4v3.089h-1.392v-3.089H423.5V568.98h2.513v-1.5h-2.656V566.2h1.392a7.151,7.151,0,0,0-.609-1.889l.656-.176H423.08v-1.265h2.929v-1.392h-2.353v-1.248h2.353v-1.5H427.4v1.5h2.209v1.248H427.4Zm.033,3.186a20.1,20.1,0,0,0,.673-1.921h-2.77a7.582,7.582,0,0,1,.624,1.921l-.528.144h2.545Zm9.94-.977a15.665,15.665,0,0,1-1.808,5.219,7.727,7.727,0,0,0,2.384,1.9,5.912,5.912,0,0,0-.992,1.185,8.8,8.8,0,0,1-2.209-1.889,9.179,9.179,0,0,1-1.953,1.9,4.57,4.57,0,0,0-.816-.865v.849h-1.344v-13.99h6.37v3.026c0,.688-.145,1.072-.7,1.28a8.045,8.045,0,0,1-2.545.208,4.727,4.727,0,0,0-.449-1.28c.913.031,1.761.031,2,.016s.3-.065.3-.241v-1.7H431.98v4.1h4.242l.24-.064Zm-5.394,7.187a8.007,8.007,0,0,0,1.9-1.921,16.5,16.5,0,0,1-1.9-4.321Zm1.248-6.242a13.794,13.794,0,0,0,1.425,3.073,12.894,12.894,0,0,0,1.136-3.073Z"/>
        <path d="M453.275,564.45v1.393H439.3V564.45h6.562v-2.209H442.15a13.844,13.844,0,0,1-1.424,1.985c-.321-.208-.993-.608-1.362-.8A11.74,11.74,0,0,0,442.1,558.8l1.489.352c-.209.576-.449,1.168-.7,1.729h2.977V558.7h1.57v2.177h4.737v1.36h-4.737v2.209Zm-12.069,2.785h10.34v6.211h-1.553v-.817H442.71v.849h-1.5Zm1.5,1.377v2.641h7.283v-2.641Z"/>
      </g>
      <g>
        <path d="M57.768,467.442a9.389,9.389,0,0,1-2.194,3.969,30.6,30.6,0,0,1,4.274,2.1l-1.168,1.217a28.943,28.943,0,0,0-4.354-2.257,15.778,15.778,0,0,1-6.642,2.272,6.056,6.056,0,0,0-.866-1.36,15.889,15.889,0,0,0,5.875-1.568c-.9-.353-1.808-.673-2.672-.961l-.353.624-1.553-.416c.593-.96,1.313-2.273,2.017-3.617H46.467v-1.425h4.4c.433-.864.849-1.713,1.2-2.465l1.552.336c-.319.673-.672,1.393-1.04,2.129h7.972v1.425Zm-9.4-2.305h-1.52V461.6h5.81v-1.584h1.585V461.6H60.2v3.538H58.615v-2.161H48.371Zm3.474,2.305c-.4.784-.8,1.536-1.185,2.241,1.089.32,2.257.7,3.426,1.152a7.1,7.1,0,0,0,1.984-3.393Z"/>
        <path d="M69.331,464.72a23.506,23.506,0,0,1-5.6,3.026,14.107,14.107,0,0,0-1.056-1.361,18.069,18.069,0,0,0,7.234-4.113h-6.69v-1.393H77.03v1.393H71.973c-.353.416-.737.8-1.121,1.184v4.722H69.331Zm-4.418,3.906H75.445v6.066H73.829v-.672H66.45v.689H64.913Zm1.537,1.3v2.8h7.379v-2.8Zm6-6.274a28.129,28.129,0,0,1,5.027,2.785l-1.073,1.121a24.846,24.846,0,0,0-5.026-2.913Z"/>
        <path d="M79.32,467.233a21.553,21.553,0,0,0,.689-4.113l1.072.144a21.919,21.919,0,0,1-.639,4.338Zm4.147-2.208a20.9,20.9,0,0,0-.817-2.241v11.925H81.289V460.031H82.65v2.625l.928-.368a14.924,14.924,0,0,1,.9,2.257Zm10.708.1v1.1H83.786v-1.1h4.386v-.929h-3.5v-1.04h3.5v-.833h-3.89v-1.1h3.89v-1.184h1.473v1.184h4.049v1.1H89.645v.833h3.633v1.04H89.645v.929Zm-1.185,8.067c0,.672-.144,1.056-.624,1.264a6.821,6.821,0,0,1-2.353.224,5.489,5.489,0,0,0-.432-1.28c.736.048,1.5.032,1.713.032.224-.016.288-.08.288-.272v-.864h-5.3v2.417H84.907v-7.7H92.99Zm-6.707-5.058v.992h5.3v-.992Zm5.3,3.089v-.992h-5.3v.992Z"/>
        <path d="M100.545,464.208h2.8v1.265h-1.488l.688.176c-.272.672-.561,1.376-.816,1.889h1.424v1.28h-2.609v1.5h2.4v1.265h-2.4v3.088H99.152v-3.088H96.64v-1.265h2.512v-1.5H96.5v-1.28h1.393a7.176,7.176,0,0,0-.609-1.889l.657-.176H96.223v-1.265h2.929v-1.392H96.8v-1.249h2.353v-1.5h1.393v1.5h2.209v1.249h-2.209Zm.032,3.186a19.556,19.556,0,0,0,.672-1.921H98.48a7.615,7.615,0,0,1,.625,1.921l-.529.144h2.545Zm9.94-.977a15.63,15.63,0,0,1-1.809,5.218,7.731,7.731,0,0,0,2.385,1.905,5.912,5.912,0,0,0-.992,1.185,8.783,8.783,0,0,1-2.209-1.889,9.169,9.169,0,0,1-1.952,1.9,4.606,4.606,0,0,0-.817-.864v.849h-1.345v-13.99h6.371v3.025c0,.688-.144,1.073-.7,1.281a8.035,8.035,0,0,1-2.544.208,4.688,4.688,0,0,0-.449-1.281c.912.032,1.761.032,2,.016s.3-.064.3-.24v-1.7h-3.633v4.1h4.241l.241-.064Zm-5.394,7.187a8.025,8.025,0,0,0,1.9-1.921,16.541,16.541,0,0,1-1.9-4.322Zm1.248-6.243a13.8,13.8,0,0,0,1.425,3.074,12.932,12.932,0,0,0,1.137-3.074Z"/>
        <path d="M117.589,466.817l-.929,1.425A39.923,39.923,0,0,0,113.091,466l.912-1.376C115.012,465.169,116.837,466.289,117.589,466.817Zm1.616,3.762a16.471,16.471,0,0,0,6.131-5.938l.96,1.7a18.489,18.489,0,0,1-11.557,7.715L113.8,472.4A17.547,17.547,0,0,0,119.205,470.579Zm.784-7.3-.944,1.376c-.816-.592-2.528-1.728-3.521-2.288l.913-1.377C117.429,461.551,119.237,462.736,119.989,463.28Z"/>
        <path d="M139.112,462.688a5.616,5.616,0,0,0-.463.832,21.962,21.962,0,0,1-2.625,4.562,42.659,42.659,0,0,1,4.578,4.69l-1.425,1.248a34.7,34.7,0,0,0-4.226-4.674,20.467,20.467,0,0,1-6.163,4.594l-1.3-1.344a17.982,17.982,0,0,0,6.578-4.69,13.129,13.129,0,0,0,2.545-4.226h-5.874c-.624,0-1.488.08-1.745.1v-1.809a17.133,17.133,0,0,0,1.745.113h5.939a4.89,4.89,0,0,0,1.392-.16Z"/>
        <path d="M154.155,465.569c.336,0,.945-.032,1.344-.08v1.648c-.368-.031-.928-.048-1.344-.048h-4.114a9.944,9.944,0,0,1-.992,4.274,7.789,7.789,0,0,1-3.186,2.977l-1.472-1.088a6.656,6.656,0,0,0,2.962-2.385,7.42,7.42,0,0,0,.96-3.778h-4.626c-.481,0-1.009.017-1.456.048v-1.648a14,14,0,0,0,1.456.08Zm-8.467-2.545c-.529,0-1.121.016-1.569.048v-1.649a12.257,12.257,0,0,0,1.569.112h6.45a10.9,10.9,0,0,0,1.6-.112v1.649c-.511-.032-1.1-.048-1.6-.048Z"/>
        <path d="M168.482,474.084c-.209-.56-.5-1.264-.833-2-2.545.3-7.667.864-9.749,1.056-.4.048-.927.128-1.408.192l-.288-1.857c.5,0,1.12,0,1.6-.032.192-.016.416-.016.656-.032.9-2.289,2.417-7.059,2.865-8.691a10.258,10.258,0,0,0,.353-1.665l2,.416c-.176.432-.384.912-.608,1.617-.48,1.52-1.937,6.05-2.737,8.163,2.177-.192,4.882-.5,6.595-.72a21.643,21.643,0,0,0-1.825-3.121l1.552-.673a47.044,47.044,0,0,1,3.522,6.579Z"/>
      </g>
      <g>
        <path d="M72.391,650.257l-.639.979A27.533,27.533,0,0,0,69.3,649.7l.627-.945C70.619,649.124,71.873,649.894,72.391,650.257Zm1.111,2.585a11.309,11.309,0,0,0,4.213-4.082l.66,1.167a12.715,12.715,0,0,1-7.942,5.3l-.65-1.134A12.085,12.085,0,0,0,73.5,652.842Zm.539-5.017-.649.947c-.562-.408-1.739-1.189-2.42-1.574l.627-.946C72.28,646.637,73.524,647.451,74.041,647.825Z" fill="#fff"/>
        <path d="M87.286,647.418a3.891,3.891,0,0,0-.318.572,15.043,15.043,0,0,1-1.805,3.136,29.164,29.164,0,0,1,3.147,3.223l-.979.859A23.749,23.749,0,0,0,84.426,652a14.078,14.078,0,0,1-4.235,3.157l-.891-.924a12.352,12.352,0,0,0,4.521-3.223,9.025,9.025,0,0,0,1.749-2.9H81.533c-.429,0-1.023.055-1.2.067v-1.244a11.769,11.769,0,0,0,1.2.077h4.081a3.327,3.327,0,0,0,.957-.11Z" fill="#fff"/>
        <path d="M97.725,649.4a9.126,9.126,0,0,0,.924-.056v1.134c-.253-.022-.638-.033-.924-.033H94.9a6.842,6.842,0,0,1-.683,2.937,5.355,5.355,0,0,1-2.19,2.046l-1.011-.748a4.567,4.567,0,0,0,2.035-1.639,5.075,5.075,0,0,0,.66-2.6h-3.18c-.33,0-.692.011-1,.033v-1.134a9.393,9.393,0,0,0,1,.056Zm-5.82-1.749c-.363,0-.77.01-1.078.032v-1.133a8.412,8.412,0,0,0,1.078.077h4.434a7.5,7.5,0,0,0,1.1-.077v1.133c-.352-.022-.759-.032-1.1-.032Z" fill="#fff"/>
        <path d="M107.677,655.252c-.143-.386-.341-.87-.572-1.376-1.749.209-5.27.594-6.7.726-.274.033-.637.089-.967.132l-.2-1.276c.342,0,.771,0,1.1-.022.132-.011.286-.011.451-.022.616-1.573,1.661-4.851,1.969-5.973A6.972,6.972,0,0,0,103,646.3l1.375.286c-.121.3-.264.627-.418,1.111-.33,1.045-1.331,4.159-1.881,5.611,1.5-.132,3.356-.341,4.532-.5a14.813,14.813,0,0,0-1.253-2.145l1.067-.462a32.344,32.344,0,0,1,2.42,4.521Z" fill="#fff"/>
        <path d="M117.486,648.408a6.229,6.229,0,0,0,1.1-.066v1.166c-.176-.022-.572-.032-1.089-.032h-1.046v.374c0,2.838-.637,4.411-3.212,5.567l-.935-.881c2.057-.759,3.025-1.7,3.025-4.62v-.44h-2.9v1.65c0,.451.033.913.044,1.067h-1.21c.011-.154.055-.616.055-1.067v-1.65h-1.079c-.516,0-.967.022-1.143.032v-1.176a8.981,8.981,0,0,0,1.143.076h1.079v-1.265c0-.385-.044-.737-.055-.88h1.232a5.928,5.928,0,0,0-.066.88v1.265h2.9v-1.276a7.4,7.4,0,0,0-.055-.957h1.244a6.956,6.956,0,0,0-.067.957v1.276Z" fill="#fff"/>
        <path d="M120.4,649.916c.353.033,1.035.066,1.628.066h5.975c.539,0,.968-.044,1.231-.066v1.353c-.242-.011-.736-.044-1.22-.044h-5.986c-.616,0-1.264.022-1.628.044Z" fill="#fff"/>
        <path d="M133.1,647.341l1.254.253c-.077.275-.175.693-.231.935a23.458,23.458,0,0,1-.968,3.389,15.957,15.957,0,0,1-1.617,3.069l-1.2-.5a14.4,14.4,0,0,0,1.705-3.015A16.13,16.13,0,0,0,133.1,647.341Zm2.772.242,1.134-.374c.439.825,1.177,2.42,1.617,3.532.418,1.056,1,2.772,1.3,3.806l-1.254.407a37.525,37.525,0,0,0-1.2-3.828A31.183,31.183,0,0,0,135.876,647.583Zm3.268.088-.715.309a13.157,13.157,0,0,0-.88-1.519l.715-.3A13.8,13.8,0,0,1,139.144,647.671Zm1.265-.484-.7.319a12.267,12.267,0,0,0-.9-1.518l.7-.3A15.893,15.893,0,0,1,140.409,647.187Z" fill="#fff"/>
        <path d="M141.493,649.916c.353.033,1.034.066,1.628.066H149.1c.539,0,.968-.044,1.231-.066v1.353c-.242-.011-.736-.044-1.22-.044h-5.986c-.616,0-1.264.022-1.628.044Z" fill="#fff"/>
      </g>
      <g>
        <rect x="372.302" y="433.758" width="69.694" height="44.351" transform="translate(-93.218 104.823) rotate(-13.178)" fill="#dfefed"/>
        <path d="M446.134,469.581l-67.859,15.888,24.2-28.035a8.326,8.326,0,0,1,9.537-2.233Z" fill="#cce5e1"/>
        <path d="M437.793,433.955l-24.308,28.251a8.041,8.041,0,0,1-9.228,2.161l-34.323-14.524-1.192-5.089L436.6,428.866Z" fill="#b2cec8"/>
        <path d="M437.215,431.488l-24.993,26.594a8.041,8.041,0,0,1-8.665,2.028l-34.2-12.734-1.191-5.09L436.024,426.4Z" fill="#eff9f8"/>
      </g>
    </g>
  </g>
</svg>
