<svg xmlns="http://www.w3.org/2000/svg" viewBox="0 0 406.24 665.15"><defs><style>.cls-1{fill:#e8bfa3;}.cls-2{fill:#ffc3ab;}.cls-3,.cls-6,.cls-9{fill:none;}.cls-3,.cls-6{stroke:#cca68b;}.cls-3{stroke-linecap:round;stroke-linejoin:round;}.cls-4{fill:#f9d1b7;}.cls-5{fill:#29a199;}.cls-12,.cls-6,.cls-9{stroke-miterlimit:10;}.cls-12,.cls-7{fill:#fff;}.cls-8{fill:#e870ac;}.cls-9{stroke:#b1ab00;stroke-width:5px;}.cls-10{fill:#b1ab00;}.cls-11{fill:#ffe6f4;}.cls-12{stroke:#ccc;}.cls-13{fill:#dae8e3;}</style></defs><g id="レイヤー_2" data-name="レイヤー 2"><g id="_046_2" data-name="046_2"><path class="cls-1" d="M60.78,206.33c0-.6-2.08-11.89.89-16.05s7.14-11,7.28-16.19-4.11-11-6.88-10.3-3.12,4.55-5.74,8.52-5.6,9-5.6,9Z"/><path class="cls-1" d="M44.29,193.4s-1.78-17.68-.74-19.91,6.34-13.07,6.69-20-4.56-10.35-9-10.6l-3.61,8.22s.74-11.34-3.27-14.36-8.91-.4-8.91-.4a34.27,34.27,0,0,1,0,7C25,146,10.32,177.51,28,218.31s24.56,41,25.16,41.2,8.56-3,8.56-3Z"/><path class="cls-1" d="M14.77,255.09S8.79,229.82,7.3,223c-1.34-6.21-8.95-21.09-7-25.25s3.76-9.5,8.91-19.41,7.43-15.55,7.53,13.67S14.77,255.09,14.77,255.09Z"/><path class="cls-2" d="M11.12,144.64s1.64-.3,2.42-3.09.82-9.13.34-9.69-1.3-1.11-1.45-.78-.46,4.66-.89,8.47C11.24,142.19,10.68,144.62,11.12,144.64Z"/><path class="cls-3" d="M37.66,151.16s-1.33,17.67-1.79,22.38S34.59,192,34.59,192"/><path class="cls-4" d="M120.26,295.76c-1.39-4.85-2.28-13.37-8.62-25S96.29,247,88.86,240.4s-15.55-9.71-20.1-24.66A167,167,0,0,0,54.4,183c-2.78-4.75-7-8.12-14.17-6.93s-10,8.42-6.93,19.21S37,212.67,41.12,223s13,22.18,13.18,27.53a21.38,21.38,0,0,0,.4,3.07h0S35.13,223,34.34,218.21s-8.16-26.53-9-31.28.34-35.2.34-35.2,1-8.64.08-13.3-9.82-9.24-12.1-7.86.79,3.17-2.58,14.07-2.29,19-4.26,29.71c-2.1,11.48-3.15,15.34-1.26,25.44s8.64,53.78,8.64,53.78c6.4,19.27,17.35,16,32,37.29s15.45,24.81,15.45,24.81h22.6l.33.59,35.66-1S121.64,300.61,120.26,295.76Z"/><path class="cls-2" d="M34,185c.13-.55.1-5.19,6.5-6.93a10,10,0,0,1,10.24,3.22S53.9,190.24,53.9,192s-17.33,5.76-17.73,4.18S32.9,189.77,34,185Z"/><path class="cls-3" d="M43.59,211.71A38.14,38.14,0,0,0,59,205.11"/><path class="cls-3" d="M40.92,212.81c.19,0,7.66,1,14.08-2.77"/><path class="cls-3" d="M34.59,232.86l5.22-3.64A20.61,20.61,0,0,1,34.59,236"/><path class="cls-3" d="M15.82,187.36s8,.4,9.26.45-3.52-1.44-6.24-2"/><path class="cls-3" d="M50.53,256s2.22-3.56,3.41-3.57-2.37,8.39,1.42,11.22"/><path class="cls-4" d="M57.05,302.3l4.62,13.37s5.11,15.94,4.51,25.25-6.29,65.25-6.29,65.25h69.38s-10.1-33.53-10.1-48.16c0-14.93.1-20.45,1.09-42.74C120.47,310.38,57.05,302.3,57.05,302.3Z"/><path class="cls-5" d="M52.36,330.22H134v77.29s-84.16-.9-83.24-2.68S52.36,330.22,52.36,330.22Z"/><path class="cls-1" d="M345.08,207.72c0-.59,2.08-11.88-.89-16s-7.13-11-7.28-16.19,4.11-11.05,6.88-10.3,3.12,4.55,5.75,8.51,5.59,9,5.59,9Z"/><path class="cls-1" d="M361.57,194.8s1.78-17.68.74-19.91-6.34-13.07-6.68-19.95,4.55-10.35,9-10.6l3.61,8.22s-.74-11.34,3.27-14.36,8.92-.4,8.92-.4a33.44,33.44,0,0,0,0,7c.44,2.58,15.15,34.12-2.48,74.93s-24.56,41-25.16,41.2-8.56-3-8.56-3Z"/><path class="cls-1" d="M391.09,256.49s6-25.27,7.47-32.13c1.35-6.21,9-21.08,7-25.24s-3.76-9.51-8.91-19.41-7.43-15.55-7.53,13.67S391.09,256.49,391.09,256.49Z"/><path class="cls-2" d="M394.74,146s-1.64-.3-2.42-3.09-.82-9.14-.33-9.69,1.3-1.12,1.44-.78c.09.19.47,4.66.9,8.47C394.62,143.59,395.18,146,394.74,146Z"/><path class="cls-6" d="M368.2,152.56s1.34,17.67,1.79,22.38,1.28,18.4,1.28,18.4"/><path class="cls-4" d="M285.6,297.16c1.39-4.86,2.28-13.37,8.62-25s15.35-23.77,22.78-30.41,15.55-9.7,20.11-24.66a165.57,165.57,0,0,1,14.36-32.78c2.77-4.75,7-8.12,14.16-6.93s10,8.42,6.93,19.21-3.66,17.43-7.82,27.73-13,22.19-13.17,27.54a24.93,24.93,0,0,1-.4,3.07h0s19.56-30.61,20.35-35.36,8.16-26.53,9-31.28-.34-35.2-.34-35.2-1-8.64-.08-13.3,9.83-9.25,12.1-7.86-.79,3.17,2.58,14.07S397,165,399,175.75c2.1,11.47,3.15,15.33,1.26,25.44S391.62,255,391.62,255c-6.4,19.26-17.35,16-32,37.28s-15.45,24.81-15.45,24.81H321.6l-.34.6-35.66-1S284.22,302,285.6,297.16Z"/><path class="cls-2" d="M371.87,186.42c-.13-.54-.1-5.19-6.5-6.92a10,10,0,0,0-10.24,3.22S352,191.64,352,193.34s17.33,5.77,17.73,4.18S373,191.17,371.87,186.42Z"/><path class="cls-6" d="M362.27,213.1a38.14,38.14,0,0,1-15.41-6.6"/><path class="cls-6" d="M364.94,214.2c-.19,0-7.66,1-14.08-2.76"/><path class="cls-6" d="M371.27,234.26l-5.22-3.64a20.77,20.77,0,0,0,5.22,6.82"/><path class="cls-6" d="M390,188.76l-9.26.44c-1.24.05,3.52-1.43,6.24-2"/><path class="cls-6" d="M355.33,257.34s-2.21-3.55-3.41-3.56,2.37,8.39-1.42,11.21"/><path class="cls-4" d="M348.82,303.69l-4.63,13.37s-5.1,15.95-4.51,25.26S346,407.57,346,407.57H276.59s10.1-33.53,10.1-48.17c0-14.92-.1-20.45-1.09-42.73C285.39,311.78,348.82,303.69,348.82,303.69Z"/><path class="cls-5" d="M355.54,328.66l-82.74,4.17-1,76.08s84.16-.9,83.24-2.68S355.54,328.66,355.54,328.66Z"/><circle class="cls-5" cx="280.39" cy="164.4" r="52"/><path class="cls-5" d="M262.77,90.72a30.18,30.18,0,0,1-4.18,2.5,8,8,0,0,0-1.32-1.83,24.27,24.27,0,0,0,9.82-8.25h2.3a24.15,24.15,0,0,0,10.27,7.92,10.52,10.52,0,0,0-1.41,2A29.71,29.71,0,0,1,274,90.58v1.87H262.77ZM258.64,95h19.7V97h-11c-.79,1.6-1.68,3.4-2.54,4.94l8.56-.34a34.18,34.18,0,0,0-2.78-2.85l1.92-1a31.08,31.08,0,0,1,5.57,6.17l-2,1.28a16.74,16.74,0,0,0-1.06-1.56c-5.71.28-11.81.55-15.89.72l-.28-2.19,3.55-.12a42.42,42.42,0,0,0,2.23-5h-5.95Zm15.09-4.56a24.35,24.35,0,0,1-5.4-5.09,23.21,23.21,0,0,1-5.11,5.09Z"/><path class="cls-5" d="M290.21,98.43c-.55-.7-1.63-1.85-2.62-2.84v9.56h-2.2V96.29A20.91,20.91,0,0,1,282,99a9.84,9.84,0,0,0-1.1-2.06,19.83,19.83,0,0,0,7.13-7.35h-6.29v-2h3.63V83.11h2.2v4.42h1.66l.38-.07,1.25.84a22.73,22.73,0,0,1-3,5.16c1.12.91,3.12,2.64,3.67,3.14Zm13.39,3.84v2.21H290.16v-2.21H296V92.86h-4.85V90.7H296V83.31h2.28V90.7h4.85v2.16h-4.85v9.41Z"/><path class="cls-7" d="M260.85,175.42l-5.62-24,0-.14c0-.17.1-.25.32-.25h2.82c.24,0,.37.11.39.32l3.79,17.12c0,.07,0,.1.07.1s0,0,.07-.1l3.43-17.12a.37.37,0,0,1,.39-.32h2.58a.35.35,0,0,1,.39.32l3.68,17.12c0,.07,0,.1.07.1s0,0,.07-.1l3.6-17.12a.37.37,0,0,1,.39-.32H280a.33.33,0,0,1,.26.11.29.29,0,0,1,.05.28l-5.41,24a.33.33,0,0,1-.38.32h-2.66a.37.37,0,0,1-.39-.32l-3.64-17.51c0-.07-.05-.1-.07-.1s-.05,0-.07.1l-3.5,17.51a.34.34,0,0,1-.39.32h-2.55A.37.37,0,0,1,260.85,175.42Z"/><path class="cls-7" d="M283.81,154.43a2.35,2.35,0,0,1,0-3.22,2.23,2.23,0,0,1,1.63-.62,2.23,2.23,0,1,1,0,4.46A2.23,2.23,0,0,1,283.81,154.43Zm-.07,20.95V158.09a.31.31,0,0,1,.35-.35h2.69a.3.3,0,0,1,.35.35v17.29c0,.24-.11.36-.35.36h-2.69A.32.32,0,0,1,283.74,175.38Z"/><path class="cls-7" d="M303,159.08a6.24,6.24,0,0,1,1.45,4.38v11.92a.32.32,0,0,1-.35.36h-2.69c-.24,0-.35-.12-.35-.36V164a3.78,3.78,0,0,0-.84-2.58,2.81,2.81,0,0,0-2.24-1,3,3,0,0,0-2.32,1,3.73,3.73,0,0,0-.86,2.6v11.38a.32.32,0,0,1-.36.36h-2.69a.32.32,0,0,1-.35-.36V158.09a.31.31,0,0,1,.35-.35h2.69c.24,0,.36.11.36.35v1.1c0,.07,0,.11.05.12s.08,0,.12-.09a4.87,4.87,0,0,1,4-1.73A5.15,5.15,0,0,1,303,159.08Z"/><circle class="cls-8" cx="127.46" cy="164.4" r="52"/><path class="cls-8" d="M99.35,88.78a29.44,29.44,0,0,1-1.95,3V105.2H95.31V94.27A20.36,20.36,0,0,1,93,96.51a17.15,17.15,0,0,0-1.22-2,21.11,21.11,0,0,0,5.64-6.39Zm-.48-4.9a24.81,24.81,0,0,1-5.69,5.74A13.19,13.19,0,0,0,92,88a18.87,18.87,0,0,0,4.87-4.9Zm9.19,18.63a14.75,14.75,0,0,0,2,.14c.6,0,3.45,0,4.22,0a9.6,9.6,0,0,0-.67,2.13h-3.72c-3.43,0-6.07-.86-7.85-4.05a11.83,11.83,0,0,1-2.57,4.53,12.18,12.18,0,0,0-1.72-1.53c2.27-2.19,3-5.81,3.28-10.18l2.24.17a38.81,38.81,0,0,1-.51,4.08,6.88,6.88,0,0,0,3.07,4V90.7h-5.78V88.56h3.5a35.65,35.65,0,0,0-2.3-4.51l1.85-.77a30.87,30.87,0,0,1,2.52,4.63l-1.35.65H110l-1.61-.6a29,29,0,0,0,2.25-4.85l2.16.75a45.19,45.19,0,0,1-2.42,4.7h3.34V90.7h-5.69V95h5V97h-5Z"/><path class="cls-8" d="M130.58,99.58a22,22,0,0,0,8.14,3.26,9.64,9.64,0,0,0-1.49,2,21.3,21.3,0,0,1-8.59-4.52v4.83h-2.19v-4.66a23.84,23.84,0,0,1-8.52,4.32,10.06,10.06,0,0,0-1.46-1.89,23.38,23.38,0,0,0,8.09-3.34h-7.42V97.71h9.31V96.24h-7.08V94.56h7.08V93.12h-8.26V91.35h4.93a12.31,12.31,0,0,0-1-2.19l.57-.09h-5.45V87.19h3.56A18,18,0,0,0,119,84l2-.64a16.89,16.89,0,0,1,1.92,3.43l-1.22.45h2.63v-4.1h2.09v4.1h2.38v-4.1h2.11v4.1h2.59l-.91-.28a20.69,20.69,0,0,0,1.68-3.56l2.31.58a34.8,34.8,0,0,1-2,3.26H138v1.88h-4.63c-.46.81-.94,1.6-1.35,2.28h5.09v1.77h-8.49v1.44H136v1.68h-7.36v1.47h9.45v1.87Zm-6.17-10.51a9.76,9.76,0,0,1,1,2.13l-.69.15h5.06a23,23,0,0,0,1.06-2.28Z"/><path class="cls-8" d="M155.8,101.12a68.24,68.24,0,0,1,7.08,2.49l-2,1.56a65,65,0,0,0-7.56-2.76l1.75-1.29h-6.94l1.68,1.12a29.88,29.88,0,0,1-7.44,2.91,12.92,12.92,0,0,0-1.68-1.61,28.43,28.43,0,0,0,6.68-2.42h-4.16V90.72h17.14v10.4Zm3.64-11.55H144.28V84h15.16Zm-14,4.13h12.6V92.33h-12.6Zm0,2.9h12.6V95.21h-12.6Zm0,2.91h12.6V98.09h-12.6Zm11.64-13.78H146.51v2.06h10.58Z"/><path d="M135.39,13.74a18.37,18.37,0,0,0,6.78,2.72,8.35,8.35,0,0,0-1.24,1.66,17.84,17.84,0,0,1-7.16-3.76v4h-1.83V14.5a19.87,19.87,0,0,1-7.1,3.6,8.35,8.35,0,0,0-1.22-1.58,19.4,19.4,0,0,0,6.74-2.78h-6.18V12.18h7.76V11H126V9.56h5.9V8.36h-6.88V6.88h4.1a9.29,9.29,0,0,0-.84-1.82L128.8,5h-4.54V3.42h3a15,15,0,0,0-1.46-2.7l1.62-.54A13.9,13.9,0,0,1,129,3l-1,.38h2.2V0h1.74V3.42h2V0h1.76V3.42h2.16l-.76-.24a17.43,17.43,0,0,0,1.4-3l1.92.48a31.29,31.29,0,0,1-1.66,2.72h2.88V5h-3.86c-.38.68-.78,1.34-1.12,1.9h4.24V8.36h-7.08v1.2h6.14V11h-6.14v1.22h7.88v1.56ZM130.24,5a8,8,0,0,1,.86,1.78l-.58.12h4.23a18.66,18.66,0,0,0,.88-1.9Z"/><path d="M160.57,3.62a9.66,9.66,0,0,1-2.22,3.2,14.08,14.08,0,0,0,4,1.5,6.88,6.88,0,0,0-1.16,1.56A14.21,14.21,0,0,1,156.89,8a16.59,16.59,0,0,1-4.22,1.88,5.33,5.33,0,0,0-.52-.82,27.23,27.23,0,0,1-1.1,3.22l-1.28-.64a22,22,0,0,0,.88-3h-1.54v7.68c0,.9-.14,1.4-.74,1.72a6.92,6.92,0,0,1-2.64.3,6.59,6.59,0,0,0-.54-1.76c.8,0,1.6,0,1.84,0s.32-.06.32-.3V10.84a14.14,14.14,0,0,1-2.7,4.34,8.92,8.92,0,0,0-.94-1.78,13.23,13.23,0,0,0,3.06-4.8H144V7h5.1a24.78,24.78,0,0,0-4.28-2.36L146,3.42c.56.22,1.2.5,1.8.8a11.39,11.39,0,0,0,1.72-1.68h-5.26V1h6.58l.3-.06,1.2.74A14,14,0,0,1,149.19,5,13.85,13.85,0,0,1,150.79,6l-.86.94h1.24l.28-.1,1.12.4c-.06.26-.12.52-.18.8a13.25,13.25,0,0,0,3.06-1.26,11.79,11.79,0,0,1-1.78-2.1,12.92,12.92,0,0,1-1.2,1.16,11,11,0,0,0-1.54-1.06A11.93,11.93,0,0,0,154.73,0l1.74.48a16.92,16.92,0,0,1-.82,1.58H162V3.62Zm1,7.5s0,.48-.06.74c-.34,3.58-.7,5.12-1.26,5.72a2.12,2.12,0,0,1-1.34.6,20.18,20.18,0,0,1-2.22,0,4.85,4.85,0,0,0-.5-1.72c.78.08,1.52.1,1.86.1a.77.77,0,0,0,.64-.22c.34-.3.62-1.32.88-3.66h-2.9a8,8,0,0,1-5.24,5.7,5.51,5.51,0,0,0-1.1-1.44,6.61,6.61,0,0,0,4.44-4.26H152V11.12h3.2c.1-.62.18-1.24.24-1.9h1.84c-.06.66-.14,1.28-.24,1.9Zm-6.76-7.5a9.09,9.09,0,0,0,2,2.2,7.24,7.24,0,0,0,1.68-2.2Z"/><path d="M168.62,3.2l2.28.46c-.14.5-.32,1.26-.42,1.7a42.64,42.64,0,0,1-1.76,6.16,29,29,0,0,1-2.94,5.58l-2.18-.92a26.13,26.13,0,0,0,3.1-5.48A29.31,29.31,0,0,0,168.62,3.2Zm5,.44L175.72,3c.8,1.5,2.14,4.4,2.94,6.42s1.82,5,2.36,6.92l-2.28.74a68.23,68.23,0,0,0-2.18-7A56.67,56.67,0,0,0,173.66,3.64Zm6-3.28a2.3,2.3,0,1,1,0,4.6,2.3,2.3,0,0,1,0-4.6Zm0,3.54a1.26,1.26,0,0,0,1.26-1.24,1.28,1.28,0,0,0-1.26-1.26,1.26,1.26,0,0,0-1.24,1.26A1.25,1.25,0,0,0,179.62,3.9Z"/><path d="M199.4,3.5A6.88,6.88,0,0,0,199,4.66a19.83,19.83,0,0,1-3,7.34,15.53,15.53,0,0,1-8,5.42l-1.7-1.88a13.2,13.2,0,0,0,7.8-4.76,13.81,13.81,0,0,0,2.5-6.14h-9.82c-.86,0-1.66,0-2.16.08V2.48a17.94,17.94,0,0,0,2.16.16h9.7a5.1,5.1,0,0,0,1.28-.14Z"/><path d="M215.07,7.42a10.25,10.25,0,0,0,1.46-.12v2c-.4,0-1-.06-1.4-.06h-2.68c.06,2.46.12,5.5.14,7.46a1.54,1.54,0,0,1-1.7,1.54c-.86,0-2.14-.06-3-.12l-.12-1.82a19,19,0,0,0,2.38.2c.36,0,.54-.22.54-.62,0-1.14,0-3-.06-4.9a22.82,22.82,0,0,1-6.76,5.64L202.51,15a19.88,19.88,0,0,0,7.24-5.8h-4.9c-.54,0-1.14,0-1.66.08v-2a10.64,10.64,0,0,0,1.62.12h5.78c0-.58,0-1.06-.06-1.46a13.17,13.17,0,0,0-.14-1.48h2.08A8.94,8.94,0,0,0,212.39,6l0,1.46Z"/><path d="M220.29,7.88c.64.06,1.88.12,3,.12h10.86c1,0,1.76-.08,2.24-.12v2.46c-.44,0-1.34-.08-2.22-.08H223.25c-1.12,0-2.3,0-3,.08Z"/><path d="M255.18,4.16a7.06,7.06,0,0,0-.58.7,32,32,0,0,1-7.06,8c1.18,1.18,2.48,2.58,3.28,3.54L249,17.88a51.63,51.63,0,0,0-3.7-4.2,46.91,46.91,0,0,0-4.5-3.88l1.64-1.34c.76.56,2.28,1.78,3.6,3A23.58,23.58,0,0,0,251.74,5H240.5c-.8,0-1.74.08-2.16.12V2.88A17.33,17.33,0,0,0,240.5,3h11.56a5.13,5.13,0,0,0,1.54-.18Z"/><path d="M265.56,12.48a19,19,0,0,0,6.94-7.54l1.22,2.18a20.61,20.61,0,0,1-7,7.24,22.05,22.05,0,0,1-7.66,3l-1.34-2.06A20.78,20.78,0,0,0,265.56,12.48Zm-.68-6.4L263.3,7.7a45.47,45.47,0,0,0-5-4.24l1.46-1.56A40.5,40.5,0,0,1,264.88,6.08Z"/><path d="M289.37,3.34a6.9,6.9,0,0,0-.58,1,27.37,27.37,0,0,1-3.28,5.7,53.16,53.16,0,0,1,5.72,5.86l-1.78,1.56a43.26,43.26,0,0,0-5.28-5.84,25.76,25.76,0,0,1-7.71,5.74l-1.62-1.68a22.47,22.47,0,0,0,8.22-5.86,16.32,16.32,0,0,0,3.19-5.28H278.9c-.78,0-1.86.1-2.18.12V2.44a21.4,21.4,0,0,0,2.18.14h7.43a6.07,6.07,0,0,0,1.74-.2Z"/><path d="M165.84,286.29h4.6V288h-4.6v1.78h4V295c0,.76-.12,1.24-.64,1.52a5,5,0,0,1-2.32.28,4.69,4.69,0,0,0-.5-1.58c.72,0,1.32,0,1.52,0s.26-.06.26-.26v-3.56h-2.32v6.92h-1.76v-6.92H161.9v5.34h-1.66v-7h3.84V288h-4.7v-1.71h1.38a13.74,13.74,0,0,0-1.56-.64,15.38,15.38,0,0,0,1.92-5.2l1.74.36c-.16.66-.34,1.34-.52,2h1.74v-2.66h1.76v2.66h3.82v1.68h-3.82Zm-1.76,0v-1.82h-2.34a10.29,10.29,0,0,1-.88,1.82Zm9.3,6.55h-1.72V281.77h1.72Zm3.6-12.55V296c0,1.12-.24,1.64-.9,2a8.47,8.47,0,0,1-3.26.36,8.31,8.31,0,0,0-.6-1.9c1.12,0,2.2,0,2.54,0s.42-.1.42-.42V280.29Z"/><path d="M182,291.74a18.52,18.52,0,0,1-1.34,5.1,7.82,7.82,0,0,0-1.42-.7,15.11,15.11,0,0,0,1.18-4.68Zm3.7-5.34a16.9,16.9,0,0,1,1.92,4.1l-1.42.68a10.08,10.08,0,0,0-.36-1.12l-1.48.1v8.24h-1.66v-8.14l-3.12.18-.16-1.64,1.4,0c.38-.48.76-1,1.16-1.56a21,21,0,0,0-2.52-2.81l.9-1.24.54.48a23.06,23.06,0,0,0,1.64-3.62l1.68.6c-.72,1.36-1.56,2.94-2.28,4a12.91,12.91,0,0,1,1,1.16,37.27,37.27,0,0,0,2-3.48l1.58.68a62.93,62.93,0,0,1-4,5.69l2.66-.1a17.2,17.2,0,0,0-.84-1.6Zm.5,5a21.81,21.81,0,0,1,1.3,3.78l-1.48.52a21.6,21.6,0,0,0-1.22-3.84Zm11.28-7c-.34,8.83-.6,11.95-1.44,13a2.14,2.14,0,0,1-1.76.92,19.12,19.12,0,0,1-3.08,0,4.19,4.19,0,0,0-.62-1.86c1.3.1,2.5.12,3,.12a1,1,0,0,0,.86-.34c.64-.64,1-3.6,1.22-11h-6.1a15.65,15.65,0,0,1-1.76,2.69,13.9,13.9,0,0,0-1.64-1.12,16.84,16.84,0,0,0,3.46-6.85l1.9.44a26.48,26.48,0,0,1-1.1,3.06h7.08Zm-6.14,8.91a19.65,19.65,0,0,0-2.56-4.6l1.5-.74a18.87,18.87,0,0,1,2.7,4.5Z"/><path d="M207.84,295.58a11.22,11.22,0,0,0,1.76-.28c2.54-.58,4.8-2.42,4.8-5.62a5.25,5.25,0,0,0-4.76-5.53,45.09,45.09,0,0,1-1.18,5.57c-1.2,4-2.85,6.3-4.83,6.3s-3.76-2.22-3.76-5.52c0-4.4,3.9-8.23,8.87-8.23,4.76,0,7.78,3.33,7.78,7.49s-2.66,7-7.5,7.7Zm-1.4-6.28a28.2,28.2,0,0,0,1.08-5.11,6.65,6.65,0,0,0-5.65,6.13c0,2.28,1,3.32,1.82,3.32S205.52,292.36,206.44,289.3Z"/><path d="M225.32,281.49c-.56,1.68-1.26,3.76-1.9,5.33a6.05,6.05,0,0,1,1.66,4.16,2.77,2.77,0,0,1-.82,2.38,2.69,2.69,0,0,1-1.08.4,9.48,9.48,0,0,1-1.32,0,3.63,3.63,0,0,0-.44-1.6,6,6,0,0,0,1,0,1.08,1.08,0,0,0,.62-.18c.28-.2.36-.68.36-1.26A5.49,5.49,0,0,0,221.8,287c.5-1.35,1-3.13,1.4-4.49h-2.14v15.85h-1.64V280.85h4.4l.28-.06Zm3.06,10.93a13.71,13.71,0,0,1-2.86,4.78,12,12,0,0,0-1.34-1.06,10.55,10.55,0,0,0,2.58-4.1Zm3.26-1.32v5.26c0,.9-.16,1.4-.74,1.7a6.52,6.52,0,0,1-2.64.32,6,6,0,0,0-.6-1.74c.84,0,1.64,0,1.9,0s.32-.08.32-.32V291.1H225.7v-1.6h4.18v-2.18H227v-1.47a13.12,13.12,0,0,1-1.64,1.19,5.9,5.9,0,0,0-.94-1.5,15.11,15.11,0,0,0,5.44-5.49h1.66a17.13,17.13,0,0,0,5.72,5.33,10.44,10.44,0,0,0-1,1.58c-.51-.32-1-.71-1.56-1.11v1.47h-3v2.18h4.51v1.6Zm2.88-5.35a19.34,19.34,0,0,1-3.8-4,18,18,0,0,1-3.62,4Zm-.36,6.23a21.43,21.43,0,0,1,2.7,4.36l-1.54.78a23,23,0,0,0-2.56-4.48Z"/><path d="M247,289.94c-.8,1.82-1.78,3.88-2.7,5.52,2.54-.1,5.38-.24,8.16-.38a37,37,0,0,0-2.32-3l1.76-.8a34.49,34.49,0,0,1,4.5,6.3l-1.86,1a13.21,13.21,0,0,0-.92-1.68c-5.06.28-10.4.58-14,.76l-.28-2,2.82-.1a41.46,41.46,0,0,0,2.44-5.62h-6v-1.88h7.86v-3.37h-6.3v-1.86h6.3V280h2v2.84h6.64v1.86h-6.64v3.37h8.1v1.88Z"/><path class="cls-7" d="M107.93,175.42l-5.62-24,0-.14c0-.17.11-.25.32-.25h2.83a.35.35,0,0,1,.39.32l3.78,17.12c0,.07,0,.1.07.1s0,0,.07-.1l3.43-17.12a.37.37,0,0,1,.39-.32h2.58c.24,0,.37.11.39.32l3.68,17.12c0,.07,0,.1.07.1s0,0,.07-.1L124,151.3a.37.37,0,0,1,.39-.32h2.72a.34.34,0,0,1,.27.11.36.36,0,0,1,0,.28l-5.41,24a.35.35,0,0,1-.39.32h-2.65a.36.36,0,0,1-.39-.32l-3.64-17.51c0-.07-.05-.1-.08-.1s0,0-.07.1l-3.5,17.51c0,.21-.15.32-.39.32h-2.54A.37.37,0,0,1,107.93,175.42Z"/><path class="cls-7" d="M130.88,154.43a2.37,2.37,0,0,1,0-3.22,2.27,2.27,0,0,1,1.63-.62,2.23,2.23,0,1,1,0,4.46A2.27,2.27,0,0,1,130.88,154.43Zm-.07,20.95V158.09c0-.24.12-.35.36-.35h2.68c.24,0,.36.11.36.35v17.29a.32.32,0,0,1-.36.36h-2.68A.32.32,0,0,1,130.81,175.38Z"/><path class="cls-7" d="M150,159.08a6.24,6.24,0,0,1,1.45,4.38v11.92c0,.24-.11.36-.35.36h-2.69a.32.32,0,0,1-.35-.36V164a3.83,3.83,0,0,0-.83-2.58,2.83,2.83,0,0,0-2.25-1,2.93,2.93,0,0,0-2.31,1,3.73,3.73,0,0,0-.87,2.6v11.38a.32.32,0,0,1-.35.36h-2.69c-.24,0-.35-.12-.35-.36V158.09a.3.3,0,0,1,.35-.35h2.69a.31.31,0,0,1,.35.35v1.1c0,.07,0,.11,0,.12s.08,0,.13-.09a4.85,4.85,0,0,1,4-1.73A5.11,5.11,0,0,1,150,159.08Z"/><path class="cls-9" d="M147.83,74.66c0-22.78,26.93-41.24,60.14-41.24,30.41,0,55.54,15.47,59.58,35.56"/><polygon class="cls-10" points="258.02 59.97 267.35 67.51 274.88 58.18 275.64 65.33 268.11 74.66 258.79 67.13 258.02 59.97"/><path class="cls-9" d="M268.11,225.85c0,22.78-26.92,41.24-60.14,41.24-30.4,0-55.53-15.47-59.57-35.55"/><polygon class="cls-10" points="157.92 240.54 148.59 233 141.06 242.34 140.3 235.18 147.83 225.85 157.16 233.38 157.92 240.54"/><rect class="cls-11" x="1.04" y="575.15" width="405" height="90"/><rect class="cls-8" x="1.04" y="575.15" width="110" height="90"/><path class="cls-8" d="M139.51,599.56a2.79,2.79,0,1,1-2.79,2.79A2.79,2.79,0,0,1,139.51,599.56Z"/><path class="cls-8" d="M161.25,593a22.19,22.19,0,0,1,3,5.4l-2,.82c-.12-.38-.32-.84-.53-1.35l-9,.56-.19-2.14,1.82-.07a32.81,32.81,0,0,0,2-4.92l2.32.53c-.6,1.44-1.32,3-2,4.29l4.11-.19c-.44-.77-.89-1.54-1.37-2.21Zm1.37,18c0,1.06-.22,1.63-.91,2a8.56,8.56,0,0,1-3.27.36,8.61,8.61,0,0,0-.74-2c1,0,2,0,2.32,0s.39-.1.39-.38v-2.28H156v4.68H153.9V599.83h8.72ZM156,601.7v1.7h4.42v-1.7Zm4.42,5.23v-1.82H156v1.82Zm7.42-5.06c-2.52,0-3.15-.63-3.15-2.91v-7.58h2.23v3.74a40.74,40.74,0,0,0,5-2.11l1.44,1.61a53.13,53.13,0,0,1-6.44,2.33v2c0,.79.17.94,1.18.94h3.26c.87,0,1-.39,1.11-2.62a5.76,5.76,0,0,0,2,.82c-.24,3-.88,3.79-2.92,3.79Zm3.69,9.33c.94,0,1.11-.45,1.2-3a7.13,7.13,0,0,0,2,.84c-.26,3.26-.88,4.13-3,4.13h-3.86c-2.52,0-3.17-.65-3.17-2.88v-7.8h2.21V606a27.42,27.42,0,0,0,5.26-2.4l1.44,1.63a34.12,34.12,0,0,1-6.7,2.62v2.37c0,.82.19,1,1.25,1Z"/><path class="cls-8" d="M197.34,596.42s0,.79-.05,1.1c-.53,9.72-1,13.28-2,14.5a2.89,2.89,0,0,1-2.21,1.1,26.73,26.73,0,0,1-3.82,0,5.54,5.54,0,0,0-.79-2.3c1.59.14,3,.14,3.65.14a1.32,1.32,0,0,0,1.1-.36c.82-.76,1.32-4.05,1.73-11.9H187.4c-.36,4.94-2,10.75-8.81,14.78a9.5,9.5,0,0,0-1.73-1.8,15.39,15.39,0,0,0,8.16-13h-7.44v-2.28h7.56v-5h2.36v5Z"/><path class="cls-8" d="M210.66,608.13c.07-.81.09-2.16.09-3.33-2,1.12-3.28,2.2-3.28,3.6,0,1.63,1.53,1.94,3.93,1.94a40.46,40.46,0,0,0,6.6-.62l-.07,2.42a59.42,59.42,0,0,1-6.6.41c-3.55,0-6.31-.82-6.31-3.77s2.85-4.78,5.59-6.17a1.85,1.85,0,0,0-1.92-1.17,6,6,0,0,0-3.94,1.7,26.75,26.75,0,0,0-2.18,2.54l-2-1.53a25,25,0,0,0,5.38-6.94h-.7c-1,0-2.64-.05-4-.14v-2.24a34.48,34.48,0,0,0,4.08.27h1.39a13.85,13.85,0,0,0,.55-2.86l2.48.19c-.15.63-.34,1.54-.68,2.57a54.7,54.7,0,0,0,7-.69v2.21a71.3,71.3,0,0,1-7.83.64,17.15,17.15,0,0,1-1.8,3.1,7.07,7.07,0,0,1,3-.7,3.12,3.12,0,0,1,3.16,2c1.47-.7,2.69-1.2,3.82-1.7.79-.36,1.49-.68,2.26-1.06l.93,2.21c-.64.19-1.68.57-2.4.86-1.22.46-2.76,1.11-4.41,1.87,0,1.35.07,3.24.09,4.37Z"/><path class="cls-8" d="M237.94,601.72v3.17h5.42V607h-5.42v3.28c0,.82.12.94.88.94h2.33c.7,0,.82-.48.91-2.86a6.24,6.24,0,0,0,2,.87c-.2,3.09-.82,4-2.69,4h-2.93c-2.26,0-2.81-.65-2.81-2.93V607h-3.81c-.46,2.54-2,4.94-6.51,6.5a7.58,7.58,0,0,0-1.41-1.75c3.69-1.23,5.11-3,5.61-4.75h-5.09v-2.07h5.36v-3.17h-2.33v-.86a19.11,19.11,0,0,1-3.41,2,7,7,0,0,0-1.35-1.68,16.46,16.46,0,0,0,4.47-2.84,25.16,25.16,0,0,0-2.64-2.3l1.39-1.18a20.76,20.76,0,0,1,2.64,2.09,15,15,0,0,0,1.92-2.74H225v-1.94h6.55l.41-.07,1.46.69a16.5,16.5,0,0,1-4.46,6.7H239a21.5,21.5,0,0,1-4.88-7.66l2-.57a19,19,0,0,0,1.39,2.83,23,23,0,0,0,2.57-2.57l1.68,1.18a37.56,37.56,0,0,1-3.29,2.81c.41.55.87,1.08,1.32,1.58a24.92,24.92,0,0,0,3.1-2.86l1.66,1.16a36,36,0,0,1-3.51,2.88,15.12,15.12,0,0,0,4.16,2.52,8.23,8.23,0,0,0-1.54,1.92,15.62,15.62,0,0,1-3.22-2v.86Zm-2.31,0H232v3.17h3.65Z"/><path class="cls-8" d="M254.23,603.4l-2.47.8v6.69c0,1.11-.22,1.71-.86,2.07a7.3,7.3,0,0,1-3.12.4,7.55,7.55,0,0,0-.6-2.06c1,0,1.84,0,2.11,0s.43-.07.43-.41v-6.07c-.94.29-1.82.55-2.62.82l-.5-2.16c.86-.22,1.94-.53,3.12-.87v-4.56h-2.78V596h2.78v-4.64h2V596h2.4v2.06h-2.4v4l2.18-.65Zm14.57,6.87h-6.33v3.12H260.4v-3.12h-6.46v-1.85h6.46V607.1h-4.82v-7.46h4.82v-1.35h-5.16v-1.75h5.16v-1.85h2.07v1.85h5.37v1.75h-5.37v1.35h5v7.46h-5v1.32h6.33ZM256.68,596h-1.94v-3.75h13.53V596h-2v-2h-9.58Zm.84,6.6h2.88v-1.47h-2.88Zm2.88,2.92v-1.51h-2.88v1.51Zm2.07-4.39v1.47h3v-1.47Zm3,2.88h-3v1.51h3Z"/><path class="cls-8" d="M139.51,633.56a2.79,2.79,0,1,1-2.79,2.79A2.79,2.79,0,0,1,139.51,633.56Z"/><path class="cls-8" d="M161.59,637.28c-.41,5.07-1.54,8.36-7.78,10.08a7,7,0,0,0-1.3-1.94c5.62-1.37,6.39-4,6.7-8.14Zm-7.69-2.85c1.11,0,2.38,0,3.77-.1a31.82,31.82,0,0,0,1.92-4.15h-6.43v-2.11h9.15v-2.74h2.3v2.74h9.26v2.11H162.26c-.67,1.34-1.47,2.83-2.21,4.1,2.62-.09,5.5-.19,8.35-.26a32.78,32.78,0,0,0-2.71-2.42l1.85-1.11a36.23,36.23,0,0,1,6.19,6.1l-2,1.29A19.85,19.85,0,0,0,170.3,636c-5.93.31-12.17.55-16.3.72Zm17.45,10.65c.92,0,1-.5,1.16-4a6.41,6.41,0,0,0,2,.92c-.22,4.1-.82,5.16-3,5.16H168.4c-2.35,0-3-.7-3-3v-7.06h2.23v7.06c0,.74.14.86,1,.86Z"/><path class="cls-8" d="M189.64,641.29c1.68,2.28,4.58,3.65,8.62,4.18a7.91,7.91,0,0,0-1.35,1.94c-4.68-.79-7.73-2.66-9.58-6-1.29,2.3-3.93,4.39-9.21,5.9a8.86,8.86,0,0,0-1.37-1.78c4.42-1.12,6.79-2.64,8.06-4.27h-7.72v-1.94h8.76a9.27,9.27,0,0,0,.36-1.92H179.8v-1.85h6.43v-1.82h-6.82v-1.4h-2v-4.8h8.91v-2.21h2.3v2.21h8.93v4.8h-1.85v1.4h-7.17v1.82h6.79v1.85h-6.82a12.36,12.36,0,0,1-.29,1.92H198v1.94Zm-3.41-9.38V630.2h2.26v1.71h6.74v-2.38H179.56v2.38Z"/><path class="cls-8" d="M205.79,626.7a25.37,25.37,0,0,0-.27,2.71c-.09,2.64-.29,8.11-.29,11.43,0,2.49,1.59,3.36,3.63,3.36,4.17,0,6.65-2.36,8.35-4.9l1.7,2.09a12.1,12.1,0,0,1-10.1,5.33c-3.62,0-6.05-1.56-6.05-5.5,0-3.38.24-9.51.24-11.81a13.63,13.63,0,0,0-.24-2.74Z"/><path class="cls-8" d="M233.67,631.52a45.82,45.82,0,0,1-4.78.79c-.21,1-.48,2.09-.74,3.1a71.62,71.62,0,0,1-3.75,11l-2.64-.89a51.83,51.83,0,0,0,4-10.66c.21-.72.4-1.51.57-2.28-.67,0-1.29.05-1.89.05-1.11,0-2-.05-2.84-.1l0-2.35a22.63,22.63,0,0,0,2.9.19c.74,0,1.54,0,2.38-.09.12-.7.24-1.32.28-1.76a11.8,11.8,0,0,0,.08-2.16l2.9.22c-.17.6-.36,1.56-.45,2L229.4,630a41.84,41.84,0,0,0,4.27-.81Zm-.74,8.09a8.63,8.63,0,0,0-.34,2.07c0,1.08.58,2,3.6,2a27.32,27.32,0,0,0,4.75-.48l-.07,2.42a32.89,32.89,0,0,1-4.7.34c-3.87,0-5.86-1.28-5.86-3.63a15.85,15.85,0,0,1,.36-3Zm-.94-5.85a40.05,40.05,0,0,1,4.44-.24,40.75,40.75,0,0,1,4.15.21l-.07,2.28a35.15,35.15,0,0,0-4-.29A40.84,40.84,0,0,0,232,636Z"/><path class="cls-8" d="M265.31,644.46v2.16H244v-2.16h9.51v-5.52h-6.84V636.8h6.84V632h-5.33a20.77,20.77,0,0,1-2.38,3.72,14.11,14.11,0,0,0-2-1.34,20.69,20.69,0,0,0,4.35-8.69l2.3.53c-.36,1.22-.79,2.45-1.25,3.6h4.35v-4.47h2.3v4.47h8.35V632H255.8v4.8h7.47v2.14H255.8v5.52Z"/><path class="cls-8" d="M271.93,636.37c-1-.67-3-1.82-4.42-2.57l1.22-1.65c1.37.67,3.41,1.73,4.42,2.37ZM268,645.56A71.3,71.3,0,0,0,272.5,638l1.61,1.49a86.31,86.31,0,0,1-4.25,7.58Zm5.06-15.67c-1-.7-3-1.85-4.39-2.64l1.25-1.58a49.91,49.91,0,0,1,4.46,2.42Zm10,4.54V638H288v9.24h-2.11v-.89h-7.94v1h-2V638h5v-3.55h-6.68v-2.14h6.68v-3.41c-1.68.27-3.41.46-5,.58a7.67,7.67,0,0,0-.64-1.87,54.83,54.83,0,0,0,11.4-2.19l1.75,1.73a31.84,31.84,0,0,1-5.4,1.39v3.77h6.36v2.14Zm2.83,5.57h-7.94v4.32h7.94Z"/><rect class="cls-12" x="1.35" y="354.23" width="404.39" height="110.91"/><path d="M41.12,384.73a2.32,2.32,0,1,1-2.32,2.32A2.32,2.32,0,0,1,41.12,384.73Z"/><path d="M67,380.09c-2.54,4.68-8.3,7.36-13.74,8.52a5.88,5.88,0,0,0-.86-1.6,25.57,25.57,0,0,0,7.14-2.34,18.92,18.92,0,0,0-3.14-2c-.8.42-1.66.82-2.6,1.2a5.84,5.84,0,0,0-1.24-1.38A16.33,16.33,0,0,0,60,377.81l2.06.46c-.36.4-.74.8-1.14,1.18h4.6l.3-.08Zm2.81,7c-2.47,5.82-8.45,8.24-15.07,9.18a5.51,5.51,0,0,0-.8-1.7,25.24,25.24,0,0,0,8.32-2.22,20.1,20.1,0,0,0-3.44-2.42,32.57,32.57,0,0,1-3.12,1.3,5.49,5.49,0,0,0-1.12-1.44c4.14-1.28,7.08-3.26,8.62-5.16l2.06.48a17.81,17.81,0,0,1-1.36,1.4h4.35l.32-.08ZM59,381c-.32.24-.68.48-1,.7a18.91,18.91,0,0,1,3.2,2A12.94,12.94,0,0,0,64.3,381Zm2.92,7.08c-.46.32-.92.62-1.42.92A19.85,19.85,0,0,1,64,391.37a10.56,10.56,0,0,0,3.24-3.28Z"/><path d="M77.09,389.75c-.26-.62-.84-1.7-1.36-2.64v9.1H74v-8.46a18.66,18.66,0,0,1-2.14,4.8A9.41,9.41,0,0,0,71,391a21.34,21.34,0,0,0,2.86-7.14H71.41v-1.72H74v-4.22h1.72v4.22h2.14v1.72H75.73v1.1c.54.72,2,3,2.34,3.48Zm5.32,2.8c-1.5.88-3.14,1.8-4.46,2.52l-.84-1.56c1.24-.56,3-1.52,4.82-2.48Zm3.82-1.5a8.33,8.33,0,0,0,3.55,2.8,7.15,7.15,0,0,0-1.16,1.5,10,10,0,0,1-4.05-4.14v3.06c0,.9-.17,1.38-.76,1.68a7,7,0,0,1-2.72.3,6.7,6.7,0,0,0-.5-1.68c.78,0,1.6,0,1.86,0s.32-.08.32-.32v-7.18h-4.9v-1.56h4.9v-1.24H78.85v-1.42h3.92v-1.12H78.29v-1.5h2.3a14.2,14.2,0,0,0-.9-1.84l1.46-.5a10.12,10.12,0,0,1,1.16,2.26l-.22.08H85a15.9,15.9,0,0,0,1-2.42l1.87.5c-.4.68-.8,1.36-1.17,1.92h2.35v1.5H84.57v1.12h4.09v1.42H84.57v1.24h4.85v1.56H84.57v.84a12.8,12.8,0,0,0,1,2.18,18.6,18.6,0,0,0,2.21-2.46l1.43,1a24.29,24.29,0,0,1-2.71,2.62Zm-6.52-3.32a15.17,15.17,0,0,1,2,2.5l-1.36.94a16.46,16.46,0,0,0-1.94-2.6Z"/><path d="M101.3,382.81a29.55,29.55,0,0,1-3.52.7,34.77,34.77,0,0,1-4.3,8.42l-1.92-1a28.71,28.71,0,0,0,4.14-7.22c-.48,0-.94,0-1.42,0-.76,0-1.58,0-2.38-.08l-.14-1.84c.78.08,1.72.12,2.52.12s1.34,0,2-.08a15.79,15.79,0,0,0,.58-3.36l2.18.2c-.16.68-.42,1.78-.72,2.9a20.9,20.9,0,0,0,2.88-.68Zm2.44,2.06a22.54,22.54,0,0,0,0,2.32c0,.64.08,1.78.14,2.9a13.15,13.15,0,0,1,4.1,2.5l-1.06,1.7a15.81,15.81,0,0,0-3-2.2v.54c0,1.68-1,3-3.62,3-2.3,0-4.16-1-4.16-3,0-1.86,1.68-3.18,4.14-3.18a9,9,0,0,1,1.66.14c-.08-1.56-.18-3.42-.22-4.72ZM102,391.31a6.67,6.67,0,0,0-1.82-.24c-1.32,0-2.18.58-2.18,1.38s.68,1.42,2,1.42a1.72,1.72,0,0,0,2-1.86C102,391.81,102,391.59,102,391.31Zm5.42-5.68a25.43,25.43,0,0,0-4.62-2.76l1-1.54a32.54,32.54,0,0,1,4.74,2.66Z"/><path d="M119.93,378.41c0,.28,0,.62-.06,1,.18,2.66,1.22,11.64,8.7,15.08a6,6,0,0,0-1.42,1.56c-4.84-2.34-7.06-6.92-8.1-10.78a16.6,16.6,0,0,1-7.7,10.8,6.37,6.37,0,0,0-1.54-1.46c8-4.26,7.88-13.54,8-16.18Z"/><path d="M134.33,392a12.48,12.48,0,0,1-2.72,4.28,16.71,16.71,0,0,0-1.48-1.1,8.83,8.83,0,0,0,2.42-3.62Zm4.06-.76h-7.14V378.63h7.14Zm-1.82-11.06H133v2.2h3.56Zm0,3.64H133V386h3.56Zm0,3.64H133v2.28h3.56Zm.26,4.08a14.93,14.93,0,0,1,2.16,3.18l-1.58.82a16.49,16.49,0,0,0-2.1-3.32Zm11.85-7.22H146.3V394c0,1-.24,1.54-.85,1.86a8,8,0,0,1-3,.36,6.68,6.68,0,0,0-.66-1.82c1,0,2,0,2.27,0s.43-.1.43-.42v-7.34a19.43,19.43,0,0,1-4.74,6.4,8.09,8.09,0,0,0-1.28-1.34,17.87,17.87,0,0,0,5.34-7.44H139v-1.74h5.5v-4.62h1.85v4.62h2.38Z"/><path d="M41.12,414.73a2.32,2.32,0,1,1-2.32,2.32A2.32,2.32,0,0,1,41.12,414.73Z"/><path d="M67.78,410.63a15.82,15.82,0,0,1-4.76,4.7,27.35,27.35,0,0,0,7.51,2.44,8.09,8.09,0,0,0-1.2,1.72,26.62,26.62,0,0,1-8.09-3.08,32.33,32.33,0,0,1-8.56,3.18,6.75,6.75,0,0,0-.92-1.66,32.2,32.2,0,0,0,7.78-2.64,19.86,19.86,0,0,1-2.92-2.54,20.87,20.87,0,0,1-3,2.3,11.44,11.44,0,0,0-1.4-1.38,16.82,16.82,0,0,0,6.32-6l1.76.62c-.32.52-.68,1.06-1.06,1.56h6.9l.32-.1ZM55.2,419H67.1v7.2h-2v-.78h-8v.84H55.2Zm1.88,1.68v3.1h8v-3.1Zm.74-9.12a16,16,0,0,0,3.42,2.76,15.74,15.74,0,0,0,3.52-2.84H57.88Z"/><path d="M87.43,410.53v15.64h-2v-1H75.34v1.08H73.48V410.53h5a21.74,21.74,0,0,0,.66-2.68l2.22.26c-.32.84-.64,1.7-1,2.42Zm-12.09,1.78v2.56H85.46v-2.56Zm0,4.28v2.56H85.46v-2.56Zm10.12,6.86v-2.58H75.34v2.58Z"/><path d="M98.8,423.43a11.22,11.22,0,0,0,1.76-.28c2.54-.58,4.8-2.42,4.8-5.62A5.24,5.24,0,0,0,100.6,412a45.33,45.33,0,0,1-1.18,5.56c-1.2,4-2.84,6.3-4.82,6.3s-3.76-2.22-3.76-5.52c0-4.4,3.9-8.22,8.86-8.22,4.76,0,7.78,3.32,7.78,7.48s-2.66,7-7.5,7.7Zm-1.4-6.28a27.44,27.44,0,0,0,1.08-5.1,6.64,6.64,0,0,0-5.64,6.12c0,2.28,1,3.32,1.82,3.32S96.48,420.21,97.4,417.15Z"/><path d="M125.82,415.07a6,6,0,0,0-.3.68,14.35,14.35,0,0,1-2.94,5.62,14.78,14.78,0,0,1-7.16,4.26l-1.56-1.8a13.53,13.53,0,0,0,7-3.6,9.43,9.43,0,0,0,2.22-4H112.9c-.48,0-1.36,0-2.12.08v-2.08c.78.08,1.54.14,2.12.14h10.24a4,4,0,0,0,1.28-.18Zm-13.22-5.5a18.5,18.5,0,0,0,1.9.1h7.8a19.11,19.11,0,0,0,2-.1v2.06c-.5,0-1.3-.06-2-.06H114.5c-.62,0-1.34,0-1.9.06Z"/><path d="M139.08,423a15,15,0,0,0,.14,2.36h-2.49a20.59,20.59,0,0,0,.12-2.36v-7.12a38.34,38.34,0,0,1-7.24,2.94l-1.14-1.94a31.6,31.6,0,0,0,9-3.64,21.88,21.88,0,0,0,5.22-4.48l1.7,1.54a33.18,33.18,0,0,1-5.34,4.3Z"/><path d="M162.84,411.35a6.08,6.08,0,0,0-.36,1.16,19.83,19.83,0,0,1-3,7.34,15.52,15.52,0,0,1-8,5.42l-1.7-1.88a13.23,13.23,0,0,0,7.81-4.76,13.81,13.81,0,0,0,2.5-6.14h-9.83c-.86,0-1.66,0-2.16.08v-2.24a17.94,17.94,0,0,0,2.16.16H160a5.1,5.1,0,0,0,1.28-.14Z"/><path d="M68.43,435.19a5.51,5.51,0,0,0-.58,1,27.45,27.45,0,0,1-3.29,5.7,53.33,53.33,0,0,1,5.73,5.86l-1.78,1.56a44.06,44.06,0,0,0-5.29-5.84,25.6,25.6,0,0,1-7.7,5.74l-1.62-1.68a22.47,22.47,0,0,0,8.22-5.86,16.45,16.45,0,0,0,3.18-5.28H58c-.78,0-1.86.1-2.18.12v-2.26a21.4,21.4,0,0,0,2.18.14h7.42a6.07,6.07,0,0,0,1.74-.2Z"/><path d="M86.59,438.79c.42,0,1.18,0,1.68-.1v2.06c-.46,0-1.16-.06-1.68-.06H81.44A12.44,12.44,0,0,1,80.2,446a9.74,9.74,0,0,1-4,3.72l-1.84-1.36a8.3,8.3,0,0,0,3.7-3,9.24,9.24,0,0,0,1.2-4.72H73.5c-.6,0-1.26,0-1.82.06v-2.06a17.53,17.53,0,0,0,1.82.1ZM76,435.61c-.66,0-1.4,0-2,.06v-2.06a15.32,15.32,0,0,0,2,.14h8.06a13.45,13.45,0,0,0,2-.14v2.06c-.63,0-1.37-.06-2-.06Z"/><path d="M91.37,439.73c.64.06,1.88.12,3,.12h10.86c1,0,1.76-.08,2.24-.12v2.46c-.44,0-1.34-.08-2.22-.08H94.33c-1.12,0-2.3,0-3,.08Z"/><path d="M115.87,440.47l-1.16,1.78a49.65,49.65,0,0,0-4.44-2.8l1.14-1.72C112.65,438.41,114.93,439.81,115.87,440.47Zm2,4.7a20.42,20.42,0,0,0,7.66-7.42l1.22,2.12A23.81,23.81,0,0,1,119,447a23.43,23.43,0,0,1-6.64,2.48l-1.18-2.06A22,22,0,0,0,117.89,445.17Zm1-9.12-1.2,1.72c-1-.74-3.16-2.14-4.38-2.84l1.14-1.72C115.69,433.89,117.93,435.37,118.89,436.05Zm6,.58-1.4.62a19.16,19.16,0,0,0-1.8-3.14l1.36-.58A35.21,35.21,0,0,1,124.89,436.63Zm2.74-1-1.4.62a19.44,19.44,0,0,0-1.88-3.08l1.38-.58A29.29,29.29,0,0,1,127.63,435.61Z"/><path d="M216.89,384.73a2.32,2.32,0,1,1-2.32,2.32A2.32,2.32,0,0,1,216.89,384.73Z"/><path d="M242.79,380.09c-2.54,4.68-8.3,7.36-13.74,8.52a5.88,5.88,0,0,0-.86-1.6,25.57,25.57,0,0,0,7.14-2.34,18.92,18.92,0,0,0-3.14-2c-.8.42-1.66.82-2.6,1.2a5.84,5.84,0,0,0-1.24-1.38,16.33,16.33,0,0,0,7.42-4.64l2.06.46c-.36.4-.74.8-1.14,1.18h4.6l.3-.08Zm2.8,7c-2.46,5.82-8.44,8.24-15.06,9.18a5.51,5.51,0,0,0-.8-1.7,25.24,25.24,0,0,0,8.32-2.22,20.1,20.1,0,0,0-3.44-2.42,32.57,32.57,0,0,1-3.12,1.3,5.49,5.49,0,0,0-1.12-1.44c4.14-1.28,7.08-3.26,8.62-5.16l2.06.48a17.81,17.81,0,0,1-1.36,1.4H244l.32-.08ZM234.79,381c-.32.24-.68.48-1,.7a18.91,18.91,0,0,1,3.2,2,12.94,12.94,0,0,0,3.12-2.72Zm2.92,7.08c-.46.32-.92.62-1.42.92a19.85,19.85,0,0,1,3.44,2.36,10.56,10.56,0,0,0,3.24-3.28Z"/><path d="M252.86,389.75c-.26-.62-.84-1.7-1.36-2.64v9.1h-1.72v-8.46a18.66,18.66,0,0,1-2.14,4.8,9.41,9.41,0,0,0-.88-1.6,21.34,21.34,0,0,0,2.86-7.14h-2.44v-1.72h2.6v-4.22h1.72v4.22h2.14v1.72H251.5v1.1c.54.72,2,3,2.34,3.48Zm5.32,2.8c-1.5.88-3.14,1.8-4.46,2.52l-.84-1.56c1.24-.56,3-1.52,4.82-2.48Zm3.82-1.5a8.36,8.36,0,0,0,3.54,2.8,7.15,7.15,0,0,0-1.16,1.5,10,10,0,0,1-4-4.14v3.06c0,.9-.18,1.38-.76,1.68a7,7,0,0,1-2.72.3,6.7,6.7,0,0,0-.5-1.68c.78,0,1.6,0,1.86,0s.32-.08.32-.32v-7.18h-4.9v-1.56h4.9v-1.24h-3.92v-1.42h3.92v-1.12h-4.48v-1.5h2.3a14.2,14.2,0,0,0-.9-1.84l1.46-.5a10.12,10.12,0,0,1,1.16,2.26l-.22.08h2.94a17,17,0,0,0,1-2.42l1.86.5c-.4.68-.8,1.36-1.16,1.92h2.34v1.5h-4.54v1.12h4.08v1.42h-4.08v1.24h4.84v1.56h-4.84v.84a13.57,13.57,0,0,0,1,2.18,18,18,0,0,0,2.22-2.46l1.42,1a25.15,25.15,0,0,1-2.7,2.62Zm-6.52-3.32a15.17,15.17,0,0,1,2,2.5l-1.36.94a16.46,16.46,0,0,0-1.94-2.6Z"/><path d="M277.07,382.81a29.55,29.55,0,0,1-3.52.7,34.77,34.77,0,0,1-4.3,8.42l-1.93-1a28.74,28.74,0,0,0,4.15-7.22c-.48,0-.94,0-1.42,0-.76,0-1.58,0-2.39-.08l-.14-1.84c.79.08,1.73.12,2.53.12s1.34,0,2-.08a15.79,15.79,0,0,0,.58-3.36l2.18.2c-.16.68-.42,1.78-.72,2.9A20.9,20.9,0,0,0,277,381Zm2.44,2.06a22.54,22.54,0,0,0,0,2.32c0,.64.08,1.78.14,2.9a13.15,13.15,0,0,1,4.1,2.5l-1.06,1.7a15.81,15.81,0,0,0-3-2.2v.54c0,1.68-1,3-3.62,3-2.3,0-4.16-1-4.16-3,0-1.86,1.68-3.18,4.14-3.18a9,9,0,0,1,1.66.14c-.08-1.56-.18-3.42-.22-4.72Zm-1.72,6.44a6.67,6.67,0,0,0-1.82-.24c-1.32,0-2.18.58-2.18,1.38s.68,1.42,2,1.42a1.72,1.72,0,0,0,2-1.86C277.81,391.81,277.81,391.59,277.79,391.31Zm5.42-5.68a25.43,25.43,0,0,0-4.62-2.76l1-1.54a32.54,32.54,0,0,1,4.74,2.66Z"/><path d="M304.39,382.43s0,.6,0,.8c-.18,8.42-.3,11.22-.84,12a1.67,1.67,0,0,1-1.24.78,12.26,12.26,0,0,1-2,0,4.5,4.5,0,0,0-.46-1.62c.73,0,1.33.06,1.65.06a.58.58,0,0,0,.58-.32c.38-.54.54-3,.68-10.16h-1.46v.48c0,3.82-.38,8.54-3.15,11.78a6.81,6.81,0,0,0-1.34-1l.32-.38c-2.28.26-4.54.52-6.28.7l-.26-1.56c.92-.06,2-.16,3.28-.26v-1.48h-2.82V391h2.82v-1.14H291.1V384h2.78v-1.1h-3v-1.4h3v-1c-.92.1-1.84.16-2.7.22a5.93,5.93,0,0,0-.34-1.16c-.3.86-.62,1.74-1,2.58v14.12h-1.68V385.51a15.61,15.61,0,0,1-1.48,2.2,11.93,11.93,0,0,0-.86-2,22.87,22.87,0,0,0,3.7-7.78l1.66.44c-.1.32-.2.66-.32,1a55.36,55.36,0,0,0,6.62-.94l1,1.34a26.75,26.75,0,0,1-3,.5v1.18h3v.94h1.2V378h1.61v4.48Zm-12,3.9H294v-1.16h-1.64Zm0,2.32H294v-1.22h-1.64Zm4.68-2.32v-1.16H295.3v1.16Zm0,2.32v-1.22H295.3v1.22Zm2.66-4.6h-1.28v-1.16h-3V384h2.88v5.84h-2.88V391h2.92v1.38h-2.92v1.34l2.62-.24c1.44-2.8,1.62-6.18,1.62-8.9Z"/><path d="M321.74,385.41a22.25,22.25,0,0,1-3.24.82c.56,1.16,1.16,2.44,1.72,3.5l-.94,1.2c-1-.2-2.78-.44-4.06-.6l.16-1.52,2.34.24c-.34-.76-.72-1.64-1.12-2.5a48.48,48.48,0,0,1-8.78.16l-.08-1.82a40.84,40.84,0,0,0,8.14,0l-.54-1.26c-.16-.36-.32-.72-.46-1.06a38.13,38.13,0,0,1-6.9-.06l-.12-1.82a36,36,0,0,0,6.28.2l-.16-.34a13.22,13.22,0,0,0-.82-1.54l2.24-.46a21.73,21.73,0,0,0,.7,2.12,24.22,24.22,0,0,0,3.86-.94l.34,1.76a23.81,23.81,0,0,1-3.54.82l.36.84.64,1.44a21.86,21.86,0,0,0,3.6-1Zm-11.26,3.94a6.68,6.68,0,0,0-.46,2c0,1.4,1.06,2.3,3.78,2.3a25.91,25.91,0,0,0,5-.44l-.06,2a29.87,29.87,0,0,1-4.9.4c-3.62,0-5.78-1.24-5.78-3.84a9.38,9.38,0,0,1,.46-2.56Z"/><path d="M332.36,383c-.06,1-.14,2-.26,3h7.81s0,.58-.06.86c-.37,5.56-.79,7.78-1.57,8.6a2.46,2.46,0,0,1-1.88.76,32.14,32.14,0,0,1-3.38,0,3.85,3.85,0,0,0-.64-1.82c1.38.12,2.78.14,3.34.14a1.35,1.35,0,0,0,1-.26c.54-.46.91-2.34,1.2-6.5H331.8c-.72,3.46-2.34,6.66-6.36,8.64a5.43,5.43,0,0,0-1.34-1.54c5.44-2.5,6-7.38,6.2-11.82h-5.92v-1.78h7.86v-3.4h1.9v3.4h8.05V383Z"/><path d="M350.79,384.15h4.6v1.7h-4.6v1.78h4v5.26c0,.76-.12,1.24-.64,1.52a5,5,0,0,1-2.32.28,4.69,4.69,0,0,0-.5-1.58c.72,0,1.32,0,1.52,0s.26-.06.26-.26v-3.56h-2.32v6.92H349v-6.92h-2.18v5.34h-1.66v-7H349v-1.78h-4.71v-1.7h1.38a12.12,12.12,0,0,0-1.56-.64,15.17,15.17,0,0,0,1.92-5.2l1.75.36c-.16.66-.34,1.34-.53,2H349V378h1.76v2.66h3.82v1.68h-3.82Zm-1.76,0v-1.82h-2.34a11,11,0,0,1-.88,1.82Zm9.3,6.54h-1.72V379.63h1.72Zm3.6-12.54v15.7c0,1.12-.24,1.64-.9,2a8.47,8.47,0,0,1-3.26.36,8.31,8.31,0,0,0-.6-1.9c1.12,0,2.2,0,2.54,0s.42-.1.42-.42V378.15Z"/><path d="M367.56,385.39c0,3.14-.28,7.78-2,10.82a8.42,8.42,0,0,0-1.52-1c1.62-2.84,1.76-6.9,1.76-9.8v-5.64H373v-1.88h1.94v1.88h7.28v1.66H367.56Zm13.31,4.34a9.65,9.65,0,0,1-3.72,3.88,26.3,26.3,0,0,0,5.42,1.06,6.62,6.62,0,0,0-1.08,1.6,22.63,22.63,0,0,1-6.34-1.66,26.26,26.26,0,0,1-6.8,1.64,6,6,0,0,0-.79-1.56,27.85,27.85,0,0,0,5.73-1.1,10.85,10.85,0,0,1-2.77-2.58l.91-.34h-3.07v-1.5h11l.34-.06Zm-9.77-1.6v-3.2h-3v-1.52h3v-1.52h1.77v1.52h4.32v-1.52H379v1.52h3.06v1.52H379v3.2Zm1.21,2.54a8.6,8.6,0,0,0,2.9,2.16,9.22,9.22,0,0,0,3-2.16Zm.56-5.74v1.76h4.32v-1.76Z"/><path d="M216.89,414.73a2.32,2.32,0,1,1-2.32,2.32A2.32,2.32,0,0,1,216.89,414.73Z"/><path d="M239.39,421.59a18.37,18.37,0,0,0,6.78,2.72,8.35,8.35,0,0,0-1.24,1.66,17.84,17.84,0,0,1-7.16-3.76v4H236v-3.88a19.87,19.87,0,0,1-7.1,3.6,8.35,8.35,0,0,0-1.22-1.58,19.4,19.4,0,0,0,6.74-2.78h-6.18V420H236v-1.22h-5.9v-1.4H236v-1.2h-6.88v-1.48h4.1a9.91,9.91,0,0,0-.84-1.82l.48-.08h-4.54v-1.56h3a15,15,0,0,0-1.46-2.7l1.62-.54a13.9,13.9,0,0,1,1.6,2.86l-1,.38h2.2v-3.42h1.74v3.42h2v-3.42h1.76v3.42h2.16l-.76-.24a17.43,17.43,0,0,0,1.4-3l1.92.48a31.29,31.29,0,0,1-1.66,2.72h2.88v1.56h-3.86c-.38.68-.78,1.34-1.12,1.9h4.24v1.48h-7.08v1.2h6.14v1.4h-6.14V420h7.88v1.56Zm-5.14-8.76a8.41,8.41,0,0,1,.86,1.78l-.58.12h4.22a18.66,18.66,0,0,0,.88-1.9Z"/><path d="M264.58,411.47a9.66,9.66,0,0,1-2.22,3.2,14.08,14.08,0,0,0,4,1.5,6.88,6.88,0,0,0-1.16,1.56,14.21,14.21,0,0,1-4.34-1.92,16.66,16.66,0,0,1-4.23,1.88,5.33,5.33,0,0,0-.52-.82,27.23,27.23,0,0,1-1.1,3.22l-1.28-.64a22,22,0,0,0,.88-3h-1.54v7.68c0,.9-.14,1.4-.74,1.72a6.92,6.92,0,0,1-2.64.3,6.59,6.59,0,0,0-.54-1.76c.8,0,1.6,0,1.84,0s.32-.06.32-.3v-5.42a14.14,14.14,0,0,1-2.7,4.34,8.92,8.92,0,0,0-.94-1.78,13.23,13.23,0,0,0,3.06-4.8H248v-1.62h5.1a24.78,24.78,0,0,0-4.28-2.36l1.16-1.2c.56.22,1.2.5,1.8.8a11.39,11.39,0,0,0,1.72-1.68h-5.26v-1.58h6.58l.3-.06,1.2.74a14,14,0,0,1-3.12,3.34,13.85,13.85,0,0,1,1.6,1.06l-.86.94h1.24l.28-.1,1.12.4c-.06.26-.12.52-.18.8a13.25,13.25,0,0,0,3.06-1.26,11.79,11.79,0,0,1-1.78-2.1,12.92,12.92,0,0,1-1.2,1.16,11,11,0,0,0-1.54-1.06,11.93,11.93,0,0,0,3.8-4.82l1.75.48c-.25.54-.53,1.06-.83,1.58H266v1.56Zm1,7.5s0,.48-.06.74c-.34,3.58-.7,5.12-1.26,5.72a2.12,2.12,0,0,1-1.34.6,20.18,20.18,0,0,1-2.22,0,4.85,4.85,0,0,0-.5-1.72c.78.08,1.51.1,1.86.1a.77.77,0,0,0,.64-.22c.34-.3.62-1.32.88-3.66h-2.91a8,8,0,0,1-5.24,5.7,5.51,5.51,0,0,0-1.1-1.44,6.61,6.61,0,0,0,4.44-4.26H256V419h3.2c.1-.62.18-1.24.25-1.9h1.83c0,.66-.13,1.28-.23,1.9Zm-6.77-7.5a9.09,9.09,0,0,0,2,2.2,7.12,7.12,0,0,0,1.69-2.2Z"/><path d="M276.44,423.43a11.22,11.22,0,0,0,1.76-.28c2.54-.58,4.8-2.42,4.8-5.62a5.24,5.24,0,0,0-4.76-5.52,45.33,45.33,0,0,1-1.18,5.56c-1.2,4-2.84,6.3-4.82,6.3s-3.76-2.22-3.76-5.52c0-4.4,3.9-8.22,8.86-8.22,4.76,0,7.78,3.32,7.78,7.48s-2.66,7-7.5,7.7Zm-1.4-6.28a27.44,27.44,0,0,0,1.08-5.1,6.64,6.64,0,0,0-5.64,6.12c0,2.28,1,3.32,1.82,3.32S274.12,420.21,275,417.15Z"/><path d="M291.72,413.19a13.9,13.9,0,0,1-2.94,4.56,17.1,17.1,0,0,0-1.44-1.12,10.22,10.22,0,0,0,2.64-3.88Zm3.86,3.26a21.93,21.93,0,0,1-1.34,3.5,20.29,20.29,0,0,1,2.28,2.38l-1.2,1.52a18.6,18.6,0,0,0-2-2.3,14.89,14.89,0,0,1-4.64,4.64,9.68,9.68,0,0,0-1.28-1.48,12.14,12.14,0,0,0,4.58-4.42c-.82-.76-1.7-1.48-2.52-2.12l1.08-1.28c.74.54,1.52,1.16,2.3,1.82a17.88,17.88,0,0,0,.94-2.64Zm1.88-4.28H287.8v-1.68h4V408h1.82v2.54h3.84Zm-1.38,4.94a16,16,0,0,0-2.32-3.82l1.46-.72a14.31,14.31,0,0,1,2.4,3.7Zm9.38-4.76s0,.64,0,.88c-.18,8.26-.34,11.1-1,12A1.73,1.73,0,0,1,303,426a14.63,14.63,0,0,1-2.54,0,4.82,4.82,0,0,0-.52-1.74c1,.08,1.84.1,2.22.1a.72.72,0,0,0,.72-.34c.44-.54.64-3.08.8-10h-2.5c-.26,5.12-1.12,9.44-4.22,12.16a5.69,5.69,0,0,0-1.36-1.32c2.84-2.4,3.62-6.24,3.82-10.84h-2.18v-1.78h2.24c0-1.36,0-2.78,0-4.24h1.78c0,1.46,0,2.86-.06,4.24Z"/><path d="M312.28,418c-1.3.62-2.64,1.24-3.74,1.74l-.9-1.52c1.26-.42,3.16-1.18,5-1.94l.34,1.4-.34.16,1.26-.06c.44-.42.92-.9,1.4-1.4a27.91,27.91,0,0,0-2.82-2.1l.9-1,.54.32c.42-.58.86-1.26,1.2-1.84H308.4V410h7.22v-2.1h1.92V410H325v1.7h-8.42l.42.16c-.62.82-1.34,1.7-1.94,2.4.46.32.92.66,1.3,1a30.06,30.06,0,0,0,2-2.48l1.48.68c-1.18,1.38-2.62,3-4,4.26l2.82-.14c-.3-.46-.64-.92-1-1.32l1.34-.58c.34.42.72.88,1.06,1.36l1.14-.92a27.79,27.79,0,0,1,4.4,2.64l-1.38,1.16a23.1,23.1,0,0,0-4-2.62,10,10,0,0,1,1.14,2l-1.42.7a8.61,8.61,0,0,0-.52-1.08c-2.48.2-4.94.38-6.86.52Zm5.26,2.76h8v1.72h-8v3.82h-1.92v-3.82h-7.84v-1.72h7.84v-1.44h1.92Zm-8-8.38a16.47,16.47,0,0,1,3.14,2.1l-1.3,1.12a19.27,19.27,0,0,0-3.06-2.22Zm10.78,2.28a19.88,19.88,0,0,0,2.9-2.52l1.66.82a23.45,23.45,0,0,1-3.2,2.44Z"/><path d="M334.15,408.77a28.72,28.72,0,0,1-2.16,4.1v13.32h-1.86v-10.7a21.93,21.93,0,0,1-2.32,2.52,12.77,12.77,0,0,0-1.12-1.94,21.73,21.73,0,0,0,5.64-7.9Zm8.36,15.44c1,0,1.18-.7,1.34-3.56a5.48,5.48,0,0,0,1.74.8c-.24,3.32-.78,4.5-3,4.5h-3.78c-2.26,0-2.92-.68-2.92-3.1v-14.5h1.86v7.16a31.71,31.71,0,0,0,5.56-3.86l1.34,1.62a48.45,48.45,0,0,1-6.9,4.14v5.46c0,1.14.2,1.34,1.24,1.34Z"/><path d="M363.18,416a14,14,0,0,1-5,6.4,22.32,22.32,0,0,0,7.44,2.08,8.72,8.72,0,0,0-1.18,1.8,21.73,21.73,0,0,1-8.1-2.72,26.92,26.92,0,0,1-8.12,2.66,6.78,6.78,0,0,0-1-1.78,26.85,26.85,0,0,0,7.46-2.08,14.48,14.48,0,0,1-3.78-4.74l1.38-.48h-3.34v-1.84h6.48v-2.74H348v-1.84h7.4v-2.84h1.92v2.84h7.46v1.84h-7.46v2.74h4.22l.32-.08Zm-10.5,1.14a11.67,11.67,0,0,0,3.8,4.24,11.84,11.84,0,0,0,4-4.24Z"/><path d="M371.52,419.29v4.88c0,.92-.18,1.42-.72,1.7a5.64,5.64,0,0,1-2.61.36,5.94,5.94,0,0,0-.5-1.72c.8,0,1.54,0,1.76,0s.36-.06.36-.34v-4.36l-2.22.7-.3-1.84,2.52-.68v-4.5h-2.32v-1.72h2.32v-3.88h1.71v3.88h2v1.72h-2v4c.62-.18,1.28-.36,1.9-.56l.26,1.7Zm12.82-.24a9.78,9.78,0,0,1-2.54,4.34,14,14,0,0,0,4.18,1.32,7.45,7.45,0,0,0-1.14,1.56,14.18,14.18,0,0,1-4.44-1.72,14.08,14.08,0,0,1-4.08,1.72,6.45,6.45,0,0,0-1-1.4,14,14,0,0,0,3.68-1.32,11.93,11.93,0,0,1-2-2.16,10,10,0,0,1-3.82,4.8,4.76,4.76,0,0,0-1.22-1.32c2.76-1.7,3.82-4.54,4.28-7.3h-2.58V416h2.8c0-.46.08-.88.12-1.3h-2.5v-1.48h1.38a18.59,18.59,0,0,0-.82-2.36l1.42-.38a16.78,16.78,0,0,1,.94,2.34l-1.14.4h5.26A18.86,18.86,0,0,0,382.8,410l1.76.54c-.56.92-1.18,1.92-1.76,2.74H385v1.48h-6.6c0,.44-.08.86-.14,1.3h7.34v1.54H378c-.06.38-.14.72-.2,1.1H383l.32,0Zm.46-9.68a65.21,65.21,0,0,1-10.62,1,6.08,6.08,0,0,0-.42-1.42,70.13,70.13,0,0,0,10-1Zm-6.8,10.7a8.5,8.5,0,0,0,2.38,2.48,7,7,0,0,0,1.86-2.48Zm.64-6.94c-.08-.66-.3-1.78-.5-2.62l1.48-.26c.22.82.46,1.9.56,2.52Z"/><rect class="cls-13" x="1.04" y="475.15" width="405" height="90"/><rect class="cls-5" x="1.04" y="475.15" width="110" height="90"/><path class="cls-5" d="M139.51,500.64a2.79,2.79,0,1,1-2.79,2.79A2.79,2.79,0,0,1,139.51,500.64Z"/><path class="cls-5" d="M155.46,506.48a22.4,22.4,0,0,1-1.6,6.12,8.5,8.5,0,0,0-1.71-.84,18.19,18.19,0,0,0,1.42-5.62Zm2.84-1.9v9.89h-2V504.7c-1.37.07-2.65.14-3.75.22l-.19-2,1.68-.05c.45-.58.91-1.2,1.39-1.87a25.8,25.8,0,0,0-3-3.36l1.08-1.49.65.57a27.19,27.19,0,0,0,2-4.34l2,.72c-.86,1.63-1.87,3.53-2.74,4.83a13.49,13.49,0,0,1,1.18,1.39,42.71,42.71,0,0,0,2.42-4.18l1.9.82a75.56,75.56,0,0,1-4.78,6.81l3.2-.12c-.32-.67-.65-1.32-1-1.92l1.6-.69a20.24,20.24,0,0,1,2.31,4.92l-1.7.81a11.46,11.46,0,0,0-.44-1.34Zm2.21,1.44a26.28,26.28,0,0,1,1.55,4.54l-1.77.62a25.6,25.6,0,0,0-1.47-4.61Zm14.13,5.74v2H160.7v-2h2.37V493.68h9.84v18.08Zm-9.38-16.06v3.94h5.4V495.7Zm5.4,5.95h-5.4v4h5.4Zm-5.4,10.11h5.4v-4.13h-5.4Z"/><path class="cls-5" d="M179.47,506.43a22.91,22.91,0,0,1-1.22,6.07,8.1,8.1,0,0,0-1.54-.74,20.44,20.44,0,0,0,1.06-5.62Zm19-2.93a21.91,21.91,0,0,1-2.76,6c.36,1.61.79,2.52,1.34,2.57.36,0,.63-1.17.77-3.17a5.33,5.33,0,0,0,1.42,1.18c-.48,3.6-1.4,4.51-2.26,4.49-1.25-.05-2.11-1.18-2.71-3.19a17.39,17.39,0,0,1-3.58,3.09,9.58,9.58,0,0,0-1.37-1.41,16.66,16.66,0,0,0,1.85-1.32h-4.13v1.34h-1.75v-9.84H192v7.85a16.44,16.44,0,0,0,1.81-2,60.86,60.86,0,0,1-.7-7.15h-9.12a13.47,13.47,0,0,1,1,3.07l-1.63.67a13.2,13.2,0,0,0-.34-1.34l-1.13.12v10H180V504.6c-1.11.1-2.16.17-3.1.24l-.19-2,1.51-.08c.41-.6.84-1.29,1.27-2a22,22,0,0,0-2.59-3.29l1-1.54c.2.19.39.39.58.58a31.38,31.38,0,0,0,1.46-4.11l1.9.63c-.67,1.58-1.49,3.46-2.21,4.75.34.41.63.82.89,1.2.72-1.32,1.39-2.66,1.87-3.79l1.78.77c-1.2,2.16-2.74,4.73-4.11,6.72l2.31-.12c-.27-.65-.58-1.3-.87-1.9l1.54-.57c.29.5.55,1.08.82,1.65v-1.63H186a13.09,13.09,0,0,0-.68-3.22l1.54-.33a11.76,11.76,0,0,1,.74,3.33l-1,.22H190l-1-.24a21.76,21.76,0,0,0,.91-3.31h-5.52v-1.71h3v-2.49h2v2.49h3v1.71h-1.94l1.32.29c-.44,1.12-.82,2.4-1.18,3.26H193c-.07-2.33-.14-4.87-.16-7.61h1.92c0,2.71,0,5.28.12,7.61h4v1.8h-3.89c.07,1.78.22,3.36.36,4.75a16.1,16.1,0,0,0,1.44-3.67ZM183.67,506a27.16,27.16,0,0,1,1.23,4.41l-1.61.51a23.58,23.58,0,0,0-1.15-4.47Zm3.41-1.16v1.88h3v-1.88Zm3,5.33v-1.92h-3v1.92Zm7-11.13a27.28,27.28,0,0,0-2.16-4.4l1.63-.67a24.85,24.85,0,0,1,2.28,4.3Z"/><path class="cls-5" d="M210,494a22.19,22.19,0,0,1,3,5.4l-2,.82c-.12-.38-.32-.84-.53-1.34l-9.05.55-.19-2.14,1.82-.07a31.71,31.71,0,0,0,2-4.92l2.33.53c-.6,1.44-1.32,3-2,4.29l4.1-.19a25,25,0,0,0-1.36-2.21Zm1.37,18c0,1.06-.22,1.63-.92,2a8.47,8.47,0,0,1-3.26.36,8.61,8.61,0,0,0-.74-2c1,0,2,0,2.32,0s.39-.1.39-.38v-2.28h-4.42v4.68H202.6V500.91h8.72Zm-6.63-9.24v1.7h4.42v-1.7Zm4.42,5.23v-1.82h-4.42V508Zm7.41-5.06c-2.52,0-3.14-.63-3.14-2.91v-7.58h2.23v3.74a39.88,39.88,0,0,0,5-2.11L222,495.7a52.35,52.35,0,0,1-6.43,2.33v2c0,.79.17.94,1.18.94h3.26c.87,0,1-.39,1.11-2.62a5.76,5.76,0,0,0,2,.82c-.24,3-.89,3.79-2.93,3.79Zm3.7,9.33c.94,0,1.1-.45,1.2-3a7,7,0,0,0,2,.84c-.26,3.26-.89,4.13-3,4.13h-3.86c-2.52,0-3.17-.65-3.17-2.88v-7.8h2.21v3.55a27,27,0,0,0,5.25-2.4l1.44,1.63a33.78,33.78,0,0,1-6.69,2.62v2.37c0,.82.19,1,1.25,1Z"/><path class="cls-5" d="M246,497.5s0,.79,0,1.1c-.53,9.72-1,13.28-2,14.5a2.91,2.91,0,0,1-2.21,1.1,26.74,26.74,0,0,1-3.82,0,5.69,5.69,0,0,0-.79-2.3c1.58.14,3.05.14,3.65.14a1.33,1.33,0,0,0,1.1-.36c.82-.76,1.32-4.05,1.73-11.9H236.1c-.36,4.94-2,10.75-8.81,14.78a9.5,9.5,0,0,0-1.73-1.8,15.39,15.39,0,0,0,8.16-13h-7.44V497.5h7.56v-5h2.35v5Z"/><path class="cls-5" d="M258.72,511.08a13.62,13.62,0,0,0,2.11-.33c3.05-.7,5.76-2.91,5.76-6.75a6.28,6.28,0,0,0-5.71-6.62,54.53,54.53,0,0,1-1.42,6.67c-1.44,4.85-3.4,7.56-5.78,7.56s-4.51-2.66-4.51-6.62c0-5.28,4.68-9.87,10.63-9.87,5.71,0,9.34,4,9.34,9s-3.2,8.42-9,9.24ZM257,503.55a32.86,32.86,0,0,0,1.3-6.12,8,8,0,0,0-6.77,7.34c0,2.74,1.22,4,2.18,4S255.94,507.22,257,503.55Z"/><path class="cls-5" d="M292.19,511.68c0,1.3-.31,2-1.2,2.38a15.46,15.46,0,0,1-4.58.38,8.65,8.65,0,0,0-.77-2.28c1.58.08,3.24.08,3.7.05s.62-.14.62-.55v-13H275v15.77h-2.21V496.47h6.56a32.12,32.12,0,0,0,1.39-4.11l2.83.46c-.53,1.22-1.15,2.54-1.75,3.65h10.39Zm-12.38-2.25v1.68h-2v-9.67h9.31v8Zm0-6v4H285v-4Z"/><path class="cls-5" d="M316.69,511v2.25H295.2V511H304V492.75h2.39v7.13H315v2.23h-8.67V511Z"/><path class="cls-5" d="M139.51,534.64a2.79,2.79,0,1,1-2.79,2.79A2.79,2.79,0,0,1,139.51,534.64Z"/><path class="cls-5" d="M160,538.7l-2.43.77v6.41c0,1.12-.24,1.7-.86,2.06a6.87,6.87,0,0,1-3.12.41,9.21,9.21,0,0,0-.6-2.07c.93,0,1.85,0,2.11,0s.41-.1.41-.43v-5.79l-2.74.87-.5-2.16c.89-.24,2-.56,3.24-.92v-4.72h-2.91v-2.07h2.91v-4.63h2.06v4.63h2.31v2.07h-2.31v4.15l2.14-.65ZM171.55,536v2.33h2.83v2h-2.83V546c0,1.2-.24,1.8-1,2.13a10.58,10.58,0,0,1-3.72.36,9.38,9.38,0,0,0-.67-2.13c1.22.07,2.47.07,2.83.05s.45-.12.45-.46v-5.52h-9v-2h9V536h-9.21v-2h6.12v-2.59h-5v-2h5v-2.83h2.13v2.83h4.92v2h-4.92V534h6.05v2Zm-7.78,4.8a20.15,20.15,0,0,1,2.71,4.08L164.59,546A18.88,18.88,0,0,0,162,541.8Z"/><path class="cls-5" d="M179.61,540.45a21.59,21.59,0,0,1-1.56,6.1,10.69,10.69,0,0,0-1.63-.79,18.4,18.4,0,0,0,1.35-5.62Zm2.67-2v10h-2V538.6c-1.3.08-2.5.17-3.55.22l-.22-1.94,1.68-.1c.41-.53.87-1.13,1.3-1.75a23.28,23.28,0,0,0-2.86-3.39l1.13-1.49c.22.2.43.41.65.63a28.56,28.56,0,0,0,1.94-4.37l2,.72c-.84,1.63-1.87,3.55-2.74,4.87a15.24,15.24,0,0,1,1.06,1.3,43.52,43.52,0,0,0,2.38-4.13l1.84.84c-1.34,2.14-3.07,4.68-4.63,6.67l2.83-.16a16.81,16.81,0,0,0-.91-1.8l1.59-.68a22.27,22.27,0,0,1,2,4.08v-2.73h12.89v4.49h-2v-2.72h-9v2.72h-1.9v-.75l-1.44.67a12.4,12.4,0,0,0-.43-1.46Zm2.16,1.61a20.16,20.16,0,0,1,1.25,4.25l-1.73.52a17.32,17.32,0,0,0-1.13-4.29Zm4.25-1.37h2v1.66a8.33,8.33,0,0,1-5,8.11A11.25,11.25,0,0,0,184.1,547c4.11-2,4.59-4.8,4.59-6.65Zm2.25-8.38h-5.23v-1.85h5.23v-2.08h2.21v2.08h5.33v1.85h-5.33v1.85h4.58V534H186.55v-1.85h4.39Zm5.79,16c.43,0,.52-.39.57-2.93a5.88,5.88,0,0,0,1.8.81c-.16,3.17-.67,4-2.16,4h-1.73c-1.8,0-2.16-.6-2.16-2.59v-7h2v7c0,.62.05.72.46.72Z"/><path class="cls-5" d="M222.31,530.13s0,.77,0,1.06c-.33,10.82-.62,14.54-1.58,15.74a2.69,2.69,0,0,1-2.09,1.13,25.43,25.43,0,0,1-3.62,0,5.36,5.36,0,0,0-.72-2.16c1.53.12,2.92.14,3.52.14a1.08,1.08,0,0,0,1-.4c.77-.8,1.08-4.42,1.39-13.47h-5.66a24.23,24.23,0,0,1-2.18,4,11.74,11.74,0,0,0-1.76-1.24v11h-6.5v1.83h-2V530.25h2.69a30,30,0,0,0,.84-3.89l2.42.41c-.41,1.2-.86,2.47-1.25,3.48h3.84v4.54a22.88,22.88,0,0,0,3.58-8.43l2.16.51c-.29,1.1-.6,2.2-1,3.26Zm-18.22,2.07v4.56h4.46V532.2Zm4.46,11.8v-5.3h-4.46V544Zm8-1.87a40.42,40.42,0,0,0-3.51-5.54l1.75-1a42.36,42.36,0,0,1,3.63,5.36Z"/><path class="cls-5" d="M245,534.6a27.5,27.5,0,0,1-4.18,8.11c.82,2,1.75,3.29,2.76,3.29.63,0,.91-1.23,1.06-4.32a5.88,5.88,0,0,0,1.92,1.24c-.36,4.23-1.18,5.36-3.15,5.36-1.75,0-3.14-1.35-4.22-3.6a22.08,22.08,0,0,1-4.54,3.67,11.57,11.57,0,0,0-1.63-1.83,18.72,18.72,0,0,0,5.23-4.2,45.42,45.42,0,0,1-1.7-9.88h-7.68v2.9h6v.86c-.12,5.21-.24,7.28-.74,7.95a2.17,2.17,0,0,1-1.54.77,17.72,17.72,0,0,1-2.83,0,5.3,5.3,0,0,0-.6-2.08c1,.09,1.92.12,2.3.12a.88.88,0,0,0,.75-.29c.26-.34.41-1.71.48-5.33h-3.84c0,3.41-.43,8.21-2.55,11.3a9.48,9.48,0,0,0-1.87-1.53c1.92-2.88,2.09-7,2.09-10.11v-6.79h9.86c-.07-1.25-.12-2.54-.12-3.82h2.36c0,1.3,0,2.57.07,3.82h4.63a26,26,0,0,0-3.77-2.52l1.35-1.37a25.9,25.9,0,0,1,4.15,2.67l-1.15,1.22h2.45v2.19h-7.54A46,46,0,0,0,240,540a24.23,24.23,0,0,0,2.73-6Z"/><path class="cls-5" d="M258.48,541.6c-3.22.94-6.65,1.9-9.2,2.62l-.55-2.33c1-.19,2.28-.5,3.65-.86v-9.8H249v-2.11h8.81v2.11h-3.26v9.22l3.6-1Zm11.8-8.85c-.36,9.74-.62,13.22-1.53,14.33a2.48,2.48,0,0,1-1.95,1,22.46,22.46,0,0,1-3.45,0,5.1,5.1,0,0,0-.72-2.19c1.37.1,2.64.12,3.19.12a1.08,1.08,0,0,0,1-.38c.65-.72,1-3.87,1.27-11.88H264c-.39,6.36-1.78,11.59-7.13,14.66a6.31,6.31,0,0,0-1.58-1.8c4.89-2.64,6.14-7.2,6.48-12.86h-3.6v-2.14h3.69c.05-1.58.05-3.19.05-4.9h2.26c0,1.68,0,3.32-.08,4.9h6.24Z"/><path class="cls-7" d="M38.42,516.62a29.5,29.5,0,0,1-4.17,2.5,8,8,0,0,0-1.32-1.83A24.31,24.31,0,0,0,42.74,509h2.31A24.23,24.23,0,0,0,55.32,517a11,11,0,0,0-1.42,2,30.18,30.18,0,0,1-4.24-2.49v1.87H38.42Zm-4.13,4.23H54v2.08H43c-.79,1.61-1.68,3.41-2.55,5l8.57-.34a35.88,35.88,0,0,0-2.78-2.85l1.92-1a31.08,31.08,0,0,1,5.57,6.17l-2,1.27c-.27-.45-.63-1-1.06-1.56-5.71.29-11.81.56-15.89.72l-.29-2.18L38,528a40.37,40.37,0,0,0,2.24-5h-6Zm15.1-4.57A23.88,23.88,0,0,1,44,511.2a23,23,0,0,1-5.11,5.08Z"/><path class="cls-7" d="M65.87,524.33c-.56-.7-1.64-1.85-2.62-2.84v9.56H61v-8.86a20.85,20.85,0,0,1-3.36,2.69,10.7,10.7,0,0,0-1.1-2.07,19.88,19.88,0,0,0,7.13-7.34H57.42v-2H61V509h2.21v4.42h1.66l.38-.07,1.25.84a22.4,22.4,0,0,1-3,5.16c1.13.91,3.12,2.64,3.67,3.14Zm13.39,3.84v2.2H65.82v-2.2h5.81v-9.41H66.78V516.6h4.85v-7.4h2.28v7.4h4.85v2.16H73.91v9.41Z"/><path class="cls-7" d="M27.93,614.66a26.88,26.88,0,0,1-1.95,3v13.42H23.9V620.16a20.3,20.3,0,0,1-2.36,2.23,15.91,15.91,0,0,0-1.22-2A21,21,0,0,0,26,614Zm-.48-4.9a24.81,24.81,0,0,1-5.69,5.74,12.93,12.93,0,0,0-1.2-1.61A19,19,0,0,0,25.43,609Zm9.19,18.63a13.34,13.34,0,0,0,2,.14c.6,0,3.46,0,4.23,0a9.21,9.21,0,0,0-.68,2.14H38.51c-3.43,0-6.07-.87-7.85-4.06a12.06,12.06,0,0,1-2.56,4.54,12.32,12.32,0,0,0-1.73-1.54c2.28-2.18,3-5.81,3.29-10.18l2.23.17a38.81,38.81,0,0,1-.51,4.08,6.82,6.82,0,0,0,3.08,4V616.58H28.67v-2.14h3.51a37.16,37.16,0,0,0-2.31-4.51l1.85-.77a29.61,29.61,0,0,1,2.52,4.64l-1.34.64h5.71l-1.61-.6A30.16,30.16,0,0,0,39.26,609l2.16.74a46.07,46.07,0,0,1-2.43,4.7h3.34v2.14H36.64v4.25h5v2.09h-5Z"/><path class="cls-7" d="M59.16,625.46a22.14,22.14,0,0,0,8.14,3.27,10.34,10.34,0,0,0-1.49,2,21.47,21.47,0,0,1-8.59-4.51V631H55v-4.66a23.84,23.84,0,0,1-8.52,4.32,10.06,10.06,0,0,0-1.46-1.89,23.21,23.21,0,0,0,8.09-3.34H45.72v-1.87H55v-1.47H48v-1.68H55V619H46.78v-1.77H51.7a12.64,12.64,0,0,0-1-2.19l.58-.09H45.82v-1.87h3.55a17.84,17.84,0,0,0-1.75-3.24l1.94-.65a16,16,0,0,1,1.92,3.43l-1.22.46H52.9V609H55v4.11h2.37V609h2.12v4.11h2.59l-.92-.29a20.64,20.64,0,0,0,1.69-3.55l2.3.57c-.65,1.18-1.37,2.38-2,3.27H66.6V615H62c-.45.81-.94,1.61-1.34,2.28h5.09V619h-8.5v1.44h7.37v1.68H57.22v1.47h9.46v1.87ZM53,615a9.84,9.84,0,0,1,1,2.13l-.7.15H58.4A22,22,0,0,0,59.45,615Z"/><path class="cls-7" d="M84.38,627a70.67,70.67,0,0,1,7.08,2.49l-2,1.56a65,65,0,0,0-7.56-2.76L83.68,627H76.75l1.68,1.12A29.88,29.88,0,0,1,71,631a13.59,13.59,0,0,0-1.68-1.61A28.18,28.18,0,0,0,76,627H71.83V616.6H89V627ZM88,615.45H72.86v-5.61H88Zm-14,4.13H86.64v-1.37H74Zm0,2.9H86.64v-1.39H74Zm0,2.91H86.64V624H74Zm11.65-13.78H75.09v2.07H85.68Z"/></g></g></svg>