<svg xmlns="http://www.w3.org/2000/svg" viewBox="0 0 102.4 102.37"><defs><style>.cls-1{fill:#4b4b4b;}</style></defs><g id="Layer_2" data-name="Layer 2"><g id="レイヤー_1" data-name="レイヤー 1"><path class="cls-1" d="M96.51,27.34c-.8-1.48-1.66-2.94-2.59-4.33s-1.94-2.77-3-4.08-2.07-2.43-3.19-3.57a51.13,51.13,0,0,0-73.13.06c-1.11,1.14-2.16,2.32-3.19,3.57s-2,2.63-2.94,4-1.79,2.85-2.59,4.33a51.14,51.14,0,0,0,5.53,56c1,1.23,2.08,2.43,3.19,3.56A51.11,51.11,0,0,0,87.73,87q1.68-1.71,3.2-3.55a51.17,51.17,0,0,0,5.58-56.12ZM67.25,76.4l.24,0c-3.41,8-8.37,13.52-13.92,14.75l-.14,0V74.61a70,70,0,0,1,12.43,1.47ZM53.43,32.48a77.46,77.46,0,0,0,11.11-1.09c1.59-.27,3.14-.57,4.64-1a56.88,56.88,0,0,1,1.54,5.72c.34,1.54.61,3.09.83,4.69a73.77,73.77,0,0,1,.7,7.87,2.45,2.45,0,0,1,0,.27H53.43ZM78.67,21.94a47.54,47.54,0,0,1-6.53,2.65A39.75,39.75,0,0,0,65.7,13.78a39.18,39.18,0,0,1,11.51,6.9C77.7,21.1,78.2,21.49,78.67,21.94Zm-11.17,4-1.64.37a67.23,67.23,0,0,1-12.25,1.46h-.18V11.15l.14,0c5.16,1.14,9.82,6.05,13.22,13.16C67,24.86,67.27,25.38,67.5,25.92ZM72.26,53.4a68.22,68.22,0,0,1-1.49,12.52A51.11,51.11,0,0,1,69.46,71l-.29.91c-1.51-.38-3-.7-4.63-1a78.62,78.62,0,0,0-11.11-1.09V53.4H72.26Zm-6.5,35.15a40.11,40.11,0,0,0,6.38-10.77A48.46,48.46,0,0,1,77.64,80c.35.17.71.31,1,.48a39.71,39.71,0,0,1-10.37,7C67.47,87.84,66.63,88.22,65.76,88.55Zm9-18.68c.43-1.69.82-3.47,1.15-5.28A79.36,79.36,0,0,0,77,53.4H91.26c0,.53-.06,1-.11,1.54a37.61,37.61,0,0,1-1.21,6.69v0A39.72,39.72,0,0,1,82.11,76.8a49.79,49.79,0,0,0-8.33-3.54C74.13,72.16,74.46,71,74.75,69.87ZM91.26,49H77a76,76,0,0,0-.8-9.26c-.21-1.6-.5-3.18-.82-4.72-.45-2-1-4-1.57-5.87A52.15,52.15,0,0,0,82.1,25.6,37.21,37.21,0,0,1,85.87,31a32.24,32.24,0,0,1,2,4,39.61,39.61,0,0,1,3.32,13.55C91.23,48.66,91.25,48.81,91.26,49ZM25.11,81.6c-.46-.41-.95-.79-1.4-1.22a51.68,51.68,0,0,1,6.55-2.65,42.42,42.42,0,0,0,4.95,9c.47.65.94,1.28,1.43,1.88A39.7,39.7,0,0,1,25.11,81.6ZM11.25,54.93c-.05-.5-.08-1-.11-1.53h14.3a76.45,76.45,0,0,0,1.1,11.19c.31,1.81.68,3.59,1.12,5.28.29,1.15.61,2.29,1,3.38a48.13,48.13,0,0,0-8.33,3.5,40.08,40.08,0,0,1-7.83-15.09v0A38.81,38.81,0,0,1,11.25,54.93ZM27.07,35c-.32,1.54-.61,3.12-.85,4.72A78.08,78.08,0,0,0,25.44,49H11.14a39.14,39.14,0,0,1,3.37-14,33.7,33.7,0,0,1,2-4,40,40,0,0,1,3.76-5.36,51.1,51.1,0,0,0,8.31,3.51C28,31,27.5,33,27.07,35ZM23.71,22a39.51,39.51,0,0,1,13-8.2,39.57,39.57,0,0,0-6.46,10.84,48,48,0,0,1-5.58-2.2C24.36,22.27,24,22.13,23.71,22ZM39.65,70.69c-1.6.22-3.19.51-4.71.85-.57.12-1.13.25-1.69.4L33,71c-.51-1.63-.94-3.34-1.31-5.1A67.36,67.36,0,0,1,30.16,53.4H49V69.89A75.49,75.49,0,0,0,39.65,70.69ZM30.14,49a66.93,66.93,0,0,1,.72-8.14c.21-1.6.5-3.15.85-4.69a58.27,58.27,0,0,1,1.54-5.69l1.69.4c1.52.32,3.11.61,4.71.85a77.53,77.53,0,0,0,9.35.78V49H30.14Zm4.79,27.46c.39-.09.77-.19,1.17-.27,1.53-.35,3.08-.62,4.68-.85A68.44,68.44,0,0,1,49,74.59V91.23l-.14,0C43.66,90,39,85.09,35.58,77.89,35.36,77.41,35.14,76.93,34.93,76.43ZM49,27.41v.37a68.44,68.44,0,0,1-8.22-.72c-1.6-.21-3.15-.5-4.68-.85-.35-.07-.7-.16-1-.24l-.15,0c3.43-8,8.4-13.51,14-14.75l.14,0V27.41Z"/></g></g></svg>