<svg xmlns="http://www.w3.org/2000/svg" viewBox="0 0 302.24 49.42"><defs><style>.cls-1{fill:#5e5e5e;}.cls-2{fill:#fff;}</style></defs><g id="Layer_2" data-name="Layer 2"><g id="レイヤー_1" data-name="レイヤー 1"><rect class="cls-1" x="146.25" width="77.21" height="49.42" rx="3.18"/><path class="cls-2" d="M211,11.76c-4.06,0-39.74,0-43.8,0-1.13,0-2.26,0-3.39,0a3,3,0,0,0-2.65,1.77c-.78,1.54-2.5,5-2.61,5.24.44,0,.48,0,.7,0h11.05c-.18.33-.35.67-.51,1-2.21,4.43-6.41,12.75-8.61,17.18l-.32.63h5.86a3,3,0,0,0,2.77-1.59c.55-1,1-2,1.55-3l7.11-14.21,27.56,0a12.08,12.08,0,0,0,2-.09,2.79,2.79,0,0,0,2.06-1.54c.89-1.74,1.75-3.5,2.62-5.25a.93.93,0,0,0,0-.14Z"/><path class="cls-2" d="M187.42,20.83h-.17c-1.95,0-3.9,0-5.86,0A2.78,2.78,0,0,0,179.1,22a12.45,12.45,0,0,0-1,1.75c-2.2,4.43-4.44,8.84-6.64,13.27-.1.2-.12.23-.31.63H177a3,3,0,0,0,2.77-1.59c.55-1,1-2,1.55-3,1.82-3.62,3.63-7.26,5.45-10.89C187,21.73,187.21,21.27,187.42,20.83Z"/><path class="cls-2" d="M197.71,20.83h-.16c-2,0-3.91,0-5.86,0a2.8,2.8,0,0,0-2.3,1.16,12.4,12.4,0,0,0-1,1.75c-2.21,4.43-4.44,8.84-6.65,13.27-.09.2-.12.23-.31.63h5.85a3,3,0,0,0,2.78-1.59c.54-1,1-2,1.54-3,1.82-3.62,3.63-7.26,5.45-10.89C197.29,21.73,197.5,21.27,197.71,20.83Z"/><path class="cls-2" d="M207.84,20.83c-2,0-3.9,0-5.86,0a2.8,2.8,0,0,0-2.3,1.16,12.4,12.4,0,0,0-1,1.75c-2.21,4.43-4.44,8.84-6.65,13.27-.09.2-.11.23-.31.63h5.86a3,3,0,0,0,2.77-1.59c.54-1,1-2,1.55-3l5.44-10.89c.21-.42.42-.88.64-1.32Z"/><path class="cls-1" d="M27,7.24,27.1,2a.48.48,0,0,0-.47-.47h0L.53,1.55A.46.46,0,0,0,.07,2L0,7.28a.48.48,0,0,0,.14.34.44.44,0,0,0,.33.14h0l8.68,0V47.23a.43.43,0,0,0,.13.34.47.47,0,0,0,.33.14h5.88a.46.46,0,0,0,.47-.45L16,7.73l10.58,0A.47.47,0,0,0,27,7.24Z"/><path class="cls-1" d="M31.22,11.63h0c-5.91,0-9.17,2.6-9.24,7.7l0,3.23C21.86,25.89,24,28.74,27.75,31c4.32,2.63,5.22,4.4,5.21,5.41l-.07,3.92c0,1.3-.68,1.88-2.13,1.88a2.28,2.28,0,0,1-1.65-.5,1.85,1.85,0,0,1-.42-1.35l.07-4.6v0a.47.47,0,0,0-.47-.47H22.41a.47.47,0,0,0-.47.47l-.06,4.63a10.22,10.22,0,0,0,.21,2.28c.77,3.59,3.67,5.42,8.61,5.42,5.91,0,8.94-2.61,9-7.72l0-4.35c.06-3.25-1.83-6.06-5.61-8.34C29.83,25,29,23.38,29,22.46l0-3.13c0-1.29.67-1.87,2.1-1.87h0a2.22,2.22,0,0,1,1.64.51,1.77,1.77,0,0,1,.41,1.34l-.06,4.63a.51.51,0,0,0,.13.34.48.48,0,0,0,.34.14h5.88a.48.48,0,0,0,.47-.47L40,19.31A10.07,10.07,0,0,0,39.8,17C39,13.45,36.14,11.63,31.22,11.63Z"/><path class="cls-1" d="M60.78,12.12H55.14a.47.47,0,0,0-.47.46V40.32c0,1.29-.68,1.87-2.15,1.87a2.64,2.64,0,0,1-1.77-.49,1.88,1.88,0,0,1-.41-1.36l.23-27.69a.08.08,0,0,0,0,0,.47.47,0,0,0-.47-.47H43.87a.47.47,0,0,0-.47.46l-.06,27.73a10.31,10.31,0,0,0,.21,2.29C44.33,46.22,47.2,48,52.11,48h0c5.92,0,9-2.62,9-7.72l.08-27.73a.48.48,0,0,0-.47-.47Z"/><path class="cls-1" d="M76.1,11.55a9.61,9.61,0,0,0-4.06.78V2a.47.47,0,0,0-.47-.47H65.48A.47.47,0,0,0,65,2L64.8,40.3A10.22,10.22,0,0,0,65,42.58c.78,3.59,3.67,5.42,8.61,5.42,5.91,0,8.94-2.61,9-7.72l.15-21a12.92,12.92,0,0,0-.24-2.75C81.83,13.22,79.76,11.55,76.1,11.55ZM73.68,42.39v-.24a2.25,2.25,0,0,1-1.64-.5,1.8,1.8,0,0,1-.42-1.35l.3-21c0-1.28.69-1.86,2.13-1.86a2.28,2.28,0,0,1,1.65.5,1.81,1.81,0,0,1,.42,1.35l-.31,21c0,1.29-.67,1.87-2.12,1.87v.24Z"/><path class="cls-1" d="M95.63,11.51h0c-5.92,0-9,2.6-9,7.7l-.06,4.63a.48.48,0,0,0,.14.34.47.47,0,0,0,.33.14h5.88a.47.47,0,0,0,.47-.46l.06-4.63c0-1.29.68-1.86,2.13-1.88h0a2.23,2.23,0,0,1,1.61.49,1.86,1.86,0,0,1,.41,1.36l-.11,8.36a9.55,9.55,0,0,0-4.06-.78h0c-4.6,0-7,2.62-7,7.72l-.09,5.77a10.17,10.17,0,0,0,.21,2.28c.78,3.59,3.68,5.42,8.62,5.42,5.9,0,8.93-2.61,9-7.72l.09-21a10.11,10.11,0,0,0-.21-2.28C103.2,13.33,100.53,11.51,95.63,11.51Zm-.49,30.84h0v-.24a2.25,2.25,0,0,1-1.64-.5,1.8,1.8,0,0,1-.42-1.35l.08-5.77c0-1.29.69-1.87,2.15-1.87a2.21,2.21,0,0,1,1.62.49,1.79,1.79,0,0,1,.42,1.34l-.08,5.79c0,1.29-.67,1.87-2.12,1.87v.24Zm.36-25.48Z"/><path class="cls-1" d="M127,12.47h-6.3a.46.46,0,0,0-.43.29l-5.6,13.28V1.81a.42.42,0,0,0-.13-.33.47.47,0,0,0-.33-.14h-5.48a.47.47,0,0,0-.47.46V47.24a.49.49,0,0,0,.14.34.51.51,0,0,0,.33.13h5.49a.46.46,0,0,0,.46-.46V34.45l5.09,13a.48.48,0,0,0,.44.29h6.3a.48.48,0,0,0,.39-.21.48.48,0,0,0,0-.45l-7.42-16.87,7.9-17a.43.43,0,0,0,.06-.22A.47.47,0,0,0,127,12.47Z"/><path class="cls-1" d="M136.41,3.21h-6.36a.48.48,0,0,0-.47.46l-.09,5.37a.48.48,0,0,0,.47.47h6.36a.46.46,0,0,0,.47-.46l.09-5.37a.47.47,0,0,0-.14-.33A.44.44,0,0,0,136.41,3.21Z"/><path class="cls-1" d="M135.57,12.45h-5.84a.47.47,0,0,0-.47.46l0,34.32a.49.49,0,0,0,.14.34.51.51,0,0,0,.33.13h5.8a.46.46,0,0,0,.47-.46V12.93a.47.47,0,0,0-.13-.34A.48.48,0,0,0,135.57,12.45Z"/><path class="cls-1" d="M259,1.31h-5.88a.47.47,0,0,0-.45.33l-6.7,22-6.15-22a.47.47,0,0,0-.45-.34h-5.88a.47.47,0,0,0-.47.46v45.5a.51.51,0,0,0,.13.33.48.48,0,0,0,.34.14h5.41a.47.47,0,0,0,.47-.46V20.39l4,15.93a.47.47,0,0,0,.45.36h4a.46.46,0,0,0,.45-.35l4.39-16,0,27a.48.48,0,0,0,.14.34.47.47,0,0,0,.33.13h5.63a.47.47,0,0,0,.47-.46l.17-45.5v0A.47.47,0,0,0,259,1.31Z"/><path class="cls-1" d="M269.78,3.19h-6a.47.47,0,0,0-.47.46V9a.47.47,0,0,0,.13.34.48.48,0,0,0,.34.14h6a.48.48,0,0,0,.47-.47V3.67a.48.48,0,0,0-.14-.34A.47.47,0,0,0,269.78,3.19Z"/><path class="cls-1" d="M269.78,12.43H263.9a.48.48,0,0,0-.47.47v34.4a.48.48,0,0,0,.14.34.44.44,0,0,0,.33.14h5.88a.47.47,0,0,0,.47-.46V12.91a.48.48,0,0,0-.14-.34A.47.47,0,0,0,269.78,12.43Z"/><path class="cls-1" d="M292.78,12.39h-6.3a.47.47,0,0,0-.43.29l-5.67,13.42V1.74a.47.47,0,0,0-.13-.34.48.48,0,0,0-.34-.14H274.1a.48.48,0,0,0-.47.46V47.29a.48.48,0,0,0,.14.34.47.47,0,0,0,.33.14h5.81a.47.47,0,0,0,.47-.46V34.38l5.17,13.07a.48.48,0,0,0,.44.3h6.29a.47.47,0,0,0,.4-.22.46.46,0,0,0,0-.44l-7.43-17,7.91-17a.4.4,0,0,0,.06-.22A.47.47,0,0,0,292.78,12.39Z"/><path class="cls-1" d="M302.07,3.27a.48.48,0,0,0-.34-.14H295.9a.48.48,0,0,0-.47.47V9a.51.51,0,0,0,.13.34.48.48,0,0,0,.34.14h5.87a.47.47,0,0,0,.47-.46l0-5.37A.51.51,0,0,0,302.07,3.27Z"/><path class="cls-1" d="M301.77,12.38h-5.88a.47.47,0,0,0-.47.46l0,34.41a.51.51,0,0,0,.13.33.48.48,0,0,0,.34.14h5.86a.47.47,0,0,0,.47-.46l0-34.41a.49.49,0,0,0-.13-.33A.48.48,0,0,0,301.77,12.38Z"/></g></g></svg>