<svg xmlns="http://www.w3.org/2000/svg" viewBox="0 0 340.62 52.4"><defs><style>.cls-1{fill:#5e5e5e;}</style></defs><g id="Layer_2" data-name="Layer 2"><g id="レイヤー_1" data-name="レイヤー 1"><path class="cls-1" d="M44.48,40.87l1.06-1.22A1.93,1.93,0,0,0,46,38.13a2,2,0,0,0-.79-1.38L43,35.1a2,2,0,0,0-2.68.3l-.95,1.11A26.43,26.43,0,0,1,31,43a21.5,21.5,0,0,1-9.39,2.27c-5,0-8.93-1.8-11.65-5.34S6.36,31.8,7.47,26.6A24.61,24.61,0,0,1,16.1,12.67,22.62,22.62,0,0,1,30.84,6.91a15.1,15.1,0,0,1,8.09,2.18A12.86,12.86,0,0,1,44.08,15l.62,1.35a2,2,0,0,0,1.2,1.06,2,2,0,0,0,1.6-.17l2.71-1.57A2,2,0,0,0,51,13.11l-.55-1.22a19.26,19.26,0,0,0-7.69-8.75A21.81,21.81,0,0,0,31.2,0C24.25,0,17.72,2.52,11.77,7.5a31.64,31.64,0,0,0-11.12,18C-.91,32.74.35,39,4.36,44.21s9.71,7.91,16.88,7.91a28.33,28.33,0,0,0,12.5-3,33.57,33.57,0,0,0,10.74-8.24"/><path class="cls-1" d="M80,1.53A2,2,0,0,0,78.11,0H75.73a2,2,0,0,0-1.66.89L42.94,47.94a2,2,0,0,0,.74,2.85l2.48,1.3a2,2,0,0,0,2.57-.66L60.85,33.17H80.31l4.21,17.68a2,2,0,0,0,1.93,1.52,1.9,1.9,0,0,0,.77-.16L90.08,51a2,2,0,0,0,1.15-2.28ZM78.65,26.26H65.44l9.73-14.75Z"/><path class="cls-1" d="M134.77,5.33l.62-2.94A2,2,0,0,0,133.45,0H94.66a2,2,0,0,0-1.94,1.57L92.1,4.51A2,2,0,0,0,94,6.91H109.5l-9.1,42.82a2,2,0,0,0,1.94,2.39h3a2,2,0,0,0,1.94-1.57l9.27-43.64h16.31a2,2,0,0,0,1.94-1.58"/><path class="cls-1" d="M154.21,1.53A2,2,0,0,0,152.28,0h-2.39a2,2,0,0,0-1.65.89L117.11,47.94a2,2,0,0,0,.73,2.85l2.48,1.3a2,2,0,0,0,2.58-.66L135,33.17h19.45l4.21,17.68a2,2,0,0,0,1,1.31,2,2,0,0,0,.89.21,1.91,1.91,0,0,0,.78-.16L164.24,51a2,2,0,0,0,1.16-2.28Zm-1.4,24.73h-13.2l9.72-14.75Z"/><path class="cls-1" d="M204.5,45.19H176.1L185.2,2.4A2,2,0,0,0,183.26,0h-3a2,2,0,0,0-1.94,1.57L168.09,49.73a2,2,0,0,0,.39,1.66,2,2,0,0,0,1.55.73h33.86a2,2,0,0,0,1.94-1.58l.62-3a2,2,0,0,0-.41-1.65,2,2,0,0,0-1.54-.73"/><path class="cls-1" d="M227,.73A2,2,0,0,0,225.41,0h-3a2,2,0,0,0-1.94,1.57L210.26,49.73a2,2,0,0,0,1.94,2.39h3a2,2,0,0,0,1.94-1.57L227.34,2.4A2,2,0,0,0,227,.73"/><path class="cls-1" d="M268.26.77A2,2,0,0,0,266.72,0h-3a2,2,0,0,0-1.94,1.57L254.4,36.36l-12.54-35A2,2,0,0,0,240,0h-2.5a2,2,0,0,0-1.94,1.57L225.32,49.73a2,2,0,0,0,1.94,2.39h3a2,2,0,0,0,1.94-1.57l7.4-34.82,12.52,35.05A2,2,0,0,0,254,52.09h2.54a2,2,0,0,0,1.94-1.57L268.66,2.43a2,2,0,0,0-.4-1.66"/><path class="cls-1" d="M302.12,23.18a2,2,0,0,0-1.54-.73H278.4l3.31-15.54h23.05a2,2,0,0,0,1.94-1.58l.62-2.94a2,2,0,0,0-.39-1.66A2,2,0,0,0,305.39,0H277.76a2,2,0,0,0-1.94,1.57L265.59,49.73a2,2,0,0,0,.4,1.66,2,2,0,0,0,1.54.73h27.63a2,2,0,0,0,1.94-1.58l.62-3a2,2,0,0,0-.41-1.65,1.94,1.94,0,0,0-1.53-.73H273.57l3.37-15.83h23a2,2,0,0,0,1.94-1.58l.62-2.94a2,2,0,0,0-.4-1.66"/><path class="cls-1" d="M338.8,4.9c-2-3.21-5.39-4.9-9.68-4.9H314.23a2,2,0,0,0-1.94,1.57L302.06,49.73A2,2,0,0,0,304,52.12h3a2,2,0,0,0,1.94-1.57l9.27-43.64h10.59c2.59,0,3.54,1,4.09,1.91a7,7,0,0,1,.66,5,10,10,0,0,1-3,6.11c-1.44,1.22-4.67,2.68-11.82,2.68h-.32a2,2,0,0,0-1.6.81l-1.39,1.89a2,2,0,0,0-.17,2.06l12,23.94a2,2,0,0,0,1.24,1,1.88,1.88,0,0,0,.53.07,1.94,1.94,0,0,0,1.05-.3l2.63-1.64a2,2,0,0,0,.72-2.57L324,29.23c4.61-.56,8.23-2,10.79-4.14a17,17,0,0,0,5.56-10.43A13.76,13.76,0,0,0,338.8,4.9"/></g></g></svg>