<svg xmlns="http://www.w3.org/2000/svg" viewBox="0 0 496.9 60.37"><defs><style>.cls-1{fill:#5e5e5e;}</style></defs><g id="Layer_2" data-name="Layer 2"><g id="レイヤー_1" data-name="レイヤー 1"><path class="cls-1" d="M268.91,1.48c2.28-1.32,5.3-1.25,6.62.66s-.66,5.3-2,6a4.63,4.63,0,0,1-5.66-1.32c-1.17-1.47,0-4.71,1-5.37"/><path class="cls-1" d="M.71,22.1c.82-2.74,5.19-5.1,7-2.37,2.81,4.22-.37,9.33.82,14.36.81,3.48.74,7,3.1,9.7,3.85-4.3,4.22-10.51,7.7-14.73,5.4-6.59,10.51,2.29,12.43,8.14,0,.74,1.11,2.66,1.56,2.29,5.4-6.58.37-15.09,2.29-22.86.74-1.48,3.92-3.11,5.4-1.93,4.3,3.48,2.37,9.33,2.37,14.36a42.3,42.3,0,0,1-3.11,15.1c-.81,1.55-1.62,3.4-3.1,4.59-4.3,3.47-7.77-.37-9.7-4.22a50.72,50.72,0,0,0-4.66-8.14c-4.22,5.84-6.14,18.2-15.84,15.91C.71,43.79-1.21,32.54.71,22.1"/><path class="cls-1" d="M56.81,10.56c.67-1,4.22-2,5-.37,3.93,8.36,5.33,17.39,7.7,26.72,0,1,1.63,1,2.29,2a1.92,1.92,0,0,1,0,2c-2.29,5,2.37,9,1.71,13.69-.3,2-4.22,2.89-5.7,1-2.52-3.4-.67-8.88-4.29-11-2.74-1.56-7-1-9.7,1-3.4,2.59-1,14-8.66,10.36-1-4.66,1.63-9,2.67-13.69a189.07,189.07,0,0,1,5-18.35c1.63-4.74,1.41-9.7,4.07-13.32m-1.4,28c1.77,1,6.36,1.33,7-1,1.33-4.66-1.33-9.32-3.33-13.69-1.63,2-2,4.37-2.3,6.66-.44,3-3.33,7-1.4,8"/><path class="cls-1" d="M74.65,12.7c0-1.7,2.44-3.33,4.52-3.4,6.14-.22,2,8.22,3.7,12,.66,1.41,2.73-.37,3.47-1,2.74-1.7,4.45-4.81,7.18-5.84,2-.67,5.48,1.77,4.74,3.48-3,5.1-9.55,6.43-13.69,10.21-1,1,2.89,5.1,3.92,6.88C92.27,39.05,98,43.12,99.3,48.3c.44,1.63-4.07,4-6.52,2-3-2.44-7.32-9-9.69-11.77-.74,3.78,1,11.25,2,15,.37,1.33.37,3.77-.3,4.73-1,2.08-3.11,2.59-5.18,1.56a3.1,3.1,0,0,1-1.7-2.37c0-5.11-1.19-13.62-1.85-18.73a193.67,193.67,0,0,1-1.41-26"/><path class="cls-1" d="M102.92,18.92a5.37,5.37,0,0,1,7.33-3.11,3.7,3.7,0,0,1,1.11,3.48c-3.85,8.81-4.14,22.5,4.22,27.53,6.22,3.78,10-5,10.73-10.73,1.55-6.51-.37-13-.37-19.46-.37-2.74,3.41-3.48,6.51-4.22,0,1.11,1.48.74,1.48,1.48,1.56,11.1,2,22.27-4.58,31.82C124.83,52.22,114,57.92,108,51.41c-8.22-8.66-8.37-21.39-5-32.49"/><path class="cls-1" d="M144.3,22.1c.81-2.74,5.18-5.1,6.95-2.37,2.82,4.22-.37,9.33.82,14.36.81,3.48.74,7,3.11,9.7,3.84-4.3,4.21-10.51,7.69-14.73,5.41-6.59,10.51,2.29,12.44,8.14,0,.74,1.11,2.66,1.55,2.29,5.4-6.58.37-15.09,2.29-22.86.74-1.48,3.93-3.11,5.41-1.93,4.29,3.48,2.36,9.33,2.36,14.36a42.5,42.5,0,0,1-3.1,15.1c-.82,1.55-1.63,3.4-3.11,4.59-4.29,3.47-7.77-.37-9.7-4.22a50.72,50.72,0,0,0-4.66-8.14c-4.22,5.84-6.14,18.2-15.84,15.91-6.21-8.51-8.14-19.76-6.21-30.2"/><path class="cls-1" d="M200.4,10.56c.66-1,4.22-2,5-.37,3.92,8.36,5.32,17.39,7.69,26.72,0,1,1.63,1,2.3,2a1.92,1.92,0,0,1,0,2c-2.3,5,2.36,9,1.7,13.69-.3,2-4.22,2.89-5.7,1-2.52-3.4-.67-8.88-4.29-11-2.74-1.56-7-1-9.7,1-3.4,2.59-1,14-8.66,10.36-1-4.66,1.63-9,2.67-13.69a186.33,186.33,0,0,1,5-18.35c1.62-4.74,1.4-9.7,4.07-13.32m-1.41,28c1.78,1,6.37,1.33,7-1,1.33-4.66-1.33-9.32-3.33-13.69-1.63,2-2,4.37-2.29,6.66-.45,3-3.33,7-1.41,8"/><path class="cls-1" d="M218.23,12.7c0-1.7,2.45-3.33,4.52-3.4,6.14-.22,2,8.22,3.7,12,.66,1.41,2.74-.37,3.48-1,2.74-1.7,4.44-4.81,7.18-5.84,2-.67,5.47,1.77,4.73,3.48-3,5.1-9.55,6.43-13.69,10.21-1,1,2.89,5.1,3.92,6.88,3.78,4.07,9.55,8.14,10.81,13.32.44,1.63-4.07,4-6.51,2-3-2.44-7.33-9-9.7-11.77-.74,3.78,1,11.25,2,15,.37,1.33.37,3.77-.3,4.73-1,2.08-3.11,2.59-5.18,1.56a3.12,3.12,0,0,1-1.7-2.37c0-5.11-1.18-13.62-1.85-18.73a195.33,195.33,0,0,1-1.41-26"/><path class="cls-1" d="M246.51,18.92a5.35,5.35,0,0,1,7.32-3.11,3.7,3.7,0,0,1,1.11,3.48c-3.85,8.81-4.14,22.5,4.22,27.53,6.22,3.78,10-5,10.73-10.73,1.56-6.51-.37-13-.37-19.46-.37-2.74,3.41-3.48,6.51-4.22,0,1.11,1.48.74,1.48,1.48,1.56,11.1,2,22.27-4.58,31.82-4.52,6.51-15.32,12.21-21.39,5.7-8.22-8.66-8.36-21.39-5-32.49"/><path class="cls-1" d="M105.85.9c2.3-1.33,5.33-1.25,6.66.67s-.66,5.33-2,6.07a4.66,4.66,0,0,1-5.7-1.33c-1.19-1.48,0-4.74,1-5.41"/><path class="cls-1" d="M123.86.9c2.3-1.33,5.33-1.25,6.66.67s-.66,5.33-2,6.07a4.67,4.67,0,0,1-5.7-1.33c-1.18-1.48,0-4.74,1-5.41"/><path class="cls-1" d="M248.73,5c2.3-1.33,5.33-1.26,6.66.67s-.66,5.33-2,6.07a4.66,4.66,0,0,1-5.69-1.34c-1.19-1.48,0-4.73,1-5.4"/><path class="cls-1" d="M338.76,48.86H327.55V44.64h10.27a.57.57,0,0,0,.59-.55v-3a.57.57,0,0,0-.59-.56H327.55V36.12h10.83a.57.57,0,0,0,.59-.56v-3a.57.57,0,0,0-.59-.56H338V16.43A4.2,4.2,0,0,0,337,13.51a5.43,5.43,0,0,0-4.12-1.69,102.37,102.37,0,0,0-14.83.39.61.61,0,0,0-.4.21.52.52,0,0,0-.11.43l.51,3a.6.6,0,0,0,.24.36.61.61,0,0,0,.43.1c.57-.08,1.16-.14,1.76-.18v5.93h-3.18V12.68a.57.57,0,0,0-.59-.56h-5.94a.58.58,0,0,0-.59.56V36.24a.58.58,0,0,0,.59.56h5.94a.57.57,0,0,0,.59-.56v-.12h3.18V40.5H310.5a.57.57,0,0,0-.59.56v3a.45.45,0,0,0,0,.11l-.6-1.16a.56.56,0,0,0-.33-.29.61.61,0,0,0-.44,0c-1,.45-2.27.9-3.66,1.35V32h3.9a.57.57,0,0,0,.59-.56v-3a.57.57,0,0,0-.59-.55h-3.9V16.69h4.46a.57.57,0,0,0,.59-.56v-3a.57.57,0,0,0-.59-.55H293.28a.57.57,0,0,0-.59.55v3a.57.57,0,0,0,.59.56h4.51v11.2H294a.57.57,0,0,0-.59.55v3A.57.57,0,0,0,294,32h3.76v13.8c-1.58.25-3.09.47-4.5.64a.65.65,0,0,0-.42.26.57.57,0,0,0-.05.49l1.27,3.16a.59.59,0,0,0,.55.36h.09c2.35-.37,5.18-1,8.42-1.76a55.74,55.74,0,0,0,7.34-2.32.61.61,0,0,0,.32-.31h0a.54.54,0,0,0,0-.45l-.73-1.44a.62.62,0,0,0,.44.19h9.94v4.22H309.19a.56.56,0,0,0-.59.55v3a.57.57,0,0,0,.59.56h29.57a.58.58,0,0,0,.59-.56v-3a.57.57,0,0,0-.59-.55M331,17.75v4.34h-3.46V15.92c.92,0,1.87.05,2.92.12a.33.33,0,0,1,.34.19,5.26,5.26,0,0,1,.2,1.52m-3.46,8.48H331V32h-3.46ZM320.44,32h-3.18V26.23h3.18Z"/><path class="cls-1" d="M391.33,38.79a.56.56,0,0,0-.29-.35.59.59,0,0,0-.45,0l-1.91.57V12.34a.57.57,0,0,0-.59-.56h-5.94a.58.58,0,0,0-.59.56V40.69c-3.81.72-8.18,1.4-13,2l1.5-3a.57.57,0,0,0,0-.46.61.61,0,0,0-.35-.3c-1.78-.59-3.77-1.35-5.92-2.27V27.6h5.59A.57.57,0,0,0,370,27V24a.57.57,0,0,0-.58-.55h-5.59V16.65c1.75-.4,3.45-.82,5-1.27a.55.55,0,0,0,.41-.65l-.7-3a.57.57,0,0,0-.29-.36.66.66,0,0,0-.46-.05,122,122,0,0,1-20.89,3.48.57.57,0,0,0-.4.2.52.52,0,0,0-.12.44l.51,3a.58.58,0,0,0,.63.46c3.16-.26,6.23-.6,9.14-1v5.53H346.54A.57.57,0,0,0,346,24v3a.57.57,0,0,0,.58.56h2.25a115.77,115.77,0,0,1-3.29,20.24.56.56,0,0,0,.1.45.57.57,0,0,0,.38.22l5.38.81a.57.57,0,0,0,.67-.42c.8-3.39,1.5-6.67,2.07-9.75l2.57,1.31V53.29a.58.58,0,0,0,.59.56h5.94a.58.58,0,0,0,.59-.56V43.54c1.07.4,2.15.77,3.2,1.11a.59.59,0,0,0,.7-.25l.41,2.05a.58.58,0,0,0,.64.45c4.62-.51,8.93-1.14,12.82-1.88v8.27a.58.58,0,0,0,.59.56h5.94a.57.57,0,0,0,.59-.56V43.34l3.05-.9a.54.54,0,0,0,.39-.66ZM356.67,27.6v5.65l-1.6-.85c.15-1.66.27-3.28.36-4.8Z"/><path class="cls-1" d="M437.34,37.13l.06-.09a78.57,78.57,0,0,0,5.92-15.41h1a.57.57,0,0,0,.59-.56v-3a.57.57,0,0,0-.59-.56H432.62c.38-1.46.7-2.88.94-4.21a.56.56,0,0,0-.43-.63l-5.43-1.32a.59.59,0,0,0-.45.06.55.55,0,0,0-.27.38,78.37,78.37,0,0,1-3.5,12.07.59.59,0,0,0-.46-.21h-3.11c1.85-2.6,3.54-5.14,5-7.56a.55.55,0,0,0-.19-.75l-4.68-2.81a.61.61,0,0,0-.83.18c-.54.89-1.12,1.81-1.73,2.75h-4.75V12a.57.57,0,0,0-.59-.55h-5.94a.58.58,0,0,0-.59.55v3.45H400a.57.57,0,0,0-.59.56v3a.57.57,0,0,0,.59.55h5.63v4.05h-6.76a.57.57,0,0,0-.58.55v3a.57.57,0,0,0,.58.56h9.34L406,30.36c-2.17,0-4.43.18-6.71.43a.61.61,0,0,0-.39.21.56.56,0,0,0-.12.43l.52,3a.56.56,0,0,0,.63.46c.76-.07,1.51-.12,2.24-.17-1.15,1.26-2.34,2.59-3.54,4a.56.56,0,0,0-.13.43.56.56,0,0,0,.24.38l4.49,3.07a.74.74,0,0,0,.26.1l-4.55.38a.56.56,0,0,0-.4.2.49.49,0,0,0-.13.43l.42,3a.58.58,0,0,0,.61.48c3.44-.19,6.79-.46,10-.82v1.28a2.12,2.12,0,0,1-.16,1.51.67.67,0,0,1-.52.28l-1.75.09c-1.14,0-2.47,0-3.95,0a.59.59,0,0,0-.41.15.53.53,0,0,0-.19.4v3a.58.58,0,0,0,.57.56c2.74.11,5.68.1,8.74,0a4.25,4.25,0,0,0,3.4-1.41,6.47,6.47,0,0,0,1.38-3.87V45.41c3.13-.53,6.09-1.16,8.79-1.9a.56.56,0,0,0,.42-.65l-.66-3a.52.52,0,0,0-.27-.36.65.65,0,0,0-.45-.07c-2.16.54-4.6,1.06-7.25,1.56,1.85-1.46,3.28-2.65,4.24-3.56a4.93,4.93,0,0,0,1.36-3.17,3.46,3.46,0,0,0-.76-2.14l4.44,1.35a.59.59,0,0,0,.72-.32l.65-1.55c.69,1.73,1.45,3.54,2.28,5.37a123.41,123.41,0,0,1-8.36,13.81.52.52,0,0,0-.07.48.55.55,0,0,0,.33.35l5.38,2.13a.59.59,0,0,0,.23.05.61.61,0,0,0,.5-.26c1.81-2.75,3.67-5.81,5.52-9.13a64.31,64.31,0,0,0,5.67,9,.6.6,0,0,0,.77.16l4.82-2.73a.53.53,0,0,0,.27-.35A.53.53,0,0,0,445,50a98.4,98.4,0,0,1-7.64-12.91m-1.11-15.5c-.73,2.35-1.55,4.69-2.44,7-1-2.59-1.74-4.94-2.34-7Zm-23.48.48V19.58h1.89c-.6.82-1.24,1.67-1.89,2.53m7.93,8.94a9.54,9.54,0,0,0-4.63-1l-1.12,0c.62-.78,1.25-1.56,1.87-2.31H422c-.44,1.05-.89,2.15-1.33,3.28M404,42.5c2.64-2.77,5.13-5.52,7.39-8.19.28,0,.55,0,.83,0a10.8,10.8,0,0,1,2.13.16,5,5,0,0,1-.85.83c-.74.65-1.8,1.52-3.13,2.58H410a.57.57,0,0,0-.58.56V42.1q-2.7.28-5.63.55a.61.61,0,0,0,.24-.15"/><path class="cls-1" d="M495.1,16.68h0a8.91,8.91,0,0,0-5.43-1.4h0c-4-.19-8-.23-11.84-.14V12a.58.58,0,0,0-.59-.55h-5.94a.57.57,0,0,0-.59.55v3.3c-3.74.13-7.46.41-11,.84a.56.56,0,0,0-.39.21.52.52,0,0,0-.12.43l.51,3a.6.6,0,0,0,.66.46,158.1,158.1,0,0,1,25.37-.85c2.53,0,3.3.4,3.51.55a1.91,1.91,0,0,1,.73,1.67v5.92a.57.57,0,0,0,.59.56h5.8a.58.58,0,0,0,.59-.56V20.42a4.76,4.76,0,0,0-1.8-3.74"/><path class="cls-1" d="M452.19,27.94h5.94a.57.57,0,0,0,.58-.56V16.6a.57.57,0,0,0-.58-.56h-5.94a.57.57,0,0,0-.59.56V27.38a.57.57,0,0,0,.59.56"/><path class="cls-1" d="M496.12,48.69H477.81V45.84H493.5a.58.58,0,0,0,.59-.56v-3a.58.58,0,0,0-.59-.55H477.81V38.46c2.47-.19,5-.45,7.56-.77.57-.1,1.19-.17,1.84-.23A38.81,38.81,0,0,0,490,40.38a.6.6,0,0,0,.77.06l4.44-3.15a.53.53,0,0,0,.07-.84,62.36,62.36,0,0,1-7.26-9h1.23a.57.57,0,0,0,.58-.55v-3a.56.56,0,0,0-.58-.55H459.81a.56.56,0,0,0-.58.55v3a.57.57,0,0,0,.58.55h2.73a39.78,39.78,0,0,0-5.26,4.18,4.58,4.58,0,0,0-1.52,3.55,3.27,3.27,0,0,0,1.49,2.8,6.9,6.9,0,0,0,4,.77c3.1.11,6.27.14,9.45.09V41.7H454.76a.58.58,0,0,0-.59.55v3a.58.58,0,0,0,.59.56h15.93v2.85H452.33a.56.56,0,0,0-.59.55v3a.57.57,0,0,0,.59.56h43.79a.58.58,0,0,0,.59-.56v-3a.57.57,0,0,0-.59-.55m-13.8-18.75h0a.55.55,0,0,0-.25.36.52.52,0,0,0,.08.4c.67,1,1.36,2,2.05,2.95a136.83,136.83,0,0,1-20.86.89l-.42,0a28.8,28.8,0,0,1,5-3.2c1.48-.84,3.19-1.76,5.08-2.72a.52.52,0,0,0,.29-.37.51.51,0,0,0-.12-.47l-.28-.33h13.53Z"/><path class="cls-1" d="M373.31,35.35C372,33,372.11,30,374,28.64s5.21.69,5.93,2a4.8,4.8,0,0,1-1.33,5.74c-1.45,1.19-4.64,0-5.29-1.07"/><path class="cls-1" d="M373.31,20.48c-1.29-2.32-1.2-5.38.69-6.71s5.21.7,5.93,2a4.8,4.8,0,0,1-1.33,5.74c-1.45,1.19-4.64,0-5.29-1.07"/></g></g></svg>