<svg xmlns="http://www.w3.org/2000/svg" width="1005" height="861.656" viewBox="0 0 1005 861.656">
  <g id="レイヤー_2" data-name="レイヤー 2">
    <g id="_051" data-name="051">
      <g>
        <rect width="1005" height="861.656" fill="#e3f1f1"/>
        <g>
          <rect x="881.763" y="100.732" width="4.536" height="64.462" fill="#00a39d"/>
          <polygon points="874.984 162.549 884.03 178.213 893.076 162.549 874.984 162.549" fill="#00a39d"/>
        </g>
        <g>
          <path d="M903.76,125.947v6.913a3.3,3.3,0,0,0,2.328,3.24,14.842,14.842,0,0,0,4.177.648h11.353l-.216,1.272H910.049a13.518,13.518,0,0,1-4.152-.72,5.305,5.305,0,0,1-2.616-1.992,25.578,25.578,0,0,1-3.193,3.24l-.864-1.128a20.9,20.9,0,0,0,3.216-2.856v-7.321h-2.976v-1.3Zm-.24-4.656a24.953,24.953,0,0,0-3.576-3.552l.888-.961a21.629,21.629,0,0,1,3.649,3.649Zm8.449-4.345v3.889h-5.232v1.824c0,.528,0,.6.456.6h3.624c.408,0,.528,0,.744-1.656l1.128.336c-.168,2.256-.768,2.4-1.872,2.4h-3.792a1.267,1.267,0,0,1-1.488-1.272v-3.336h5.256v-1.7h-5.737v-1.08Zm9.433,14.738H905.248V130.6h4.273v-2.641h-3.769v-1.1h3.769v-1.752h1.3v1.752H915.5v-1.752h1.272v1.752h4.08v1.1h-4.08V130.6H921.4Zm-15.434,2.88a16.632,16.632,0,0,0,4.393-2.256l.888.888a13.829,13.829,0,0,1-4.489,2.376Zm9.53-6.6h-4.681V130.6H915.5Zm4.512-11.017v3.889h-5.281v1.872c0,.576.265.552.528.552h3.817c.768,0,.792-.192.936-1.776l1.152.36c-.048,1.32-.144,2.5-1.872,2.5h-4.273c-1.416,0-1.488-.744-1.488-1.464v-3.144h5.257v-1.7h-5.641v-1.08ZM915.954,132.4a13.361,13.361,0,0,0,5.112,2.3l-.7,1.128a14.457,14.457,0,0,1-5.256-2.5Z" fill="#231815"/>
          <path d="M903.785,162.452H902.44V148.963a24.256,24.256,0,0,1-2.328,2.976l-.912-1.224a26.674,26.674,0,0,0,5.881-10.369l1.32.36a34.356,34.356,0,0,1-2.616,6.049Zm10.488-12.121h7.153v1.248h-7.153v8.665h6.553v1.272H905.489v-1.272h7.392v-8.665h-7.968v-1.248h7.968v-6.96c-1.608.191-3.432.359-6.432.48l-.241-1.176a51,51,0,0,0,13.946-2.017l.552,1.1a50.483,50.483,0,0,1-6.433,1.416Z" fill="#231815"/>
        </g>
        <g>
          <rect x="105.882" y="100.732" width="4.536" height="64.462" fill="#00a39d"/>
          <polygon points="99.103 162.549 108.149 178.213 117.195 162.549 99.103 162.549" fill="#00a39d"/>
        </g>
        <g>
          <path d="M127.865,125.947v6.913a3.3,3.3,0,0,0,2.328,3.24,14.842,14.842,0,0,0,4.177.648h11.352l-.216,1.272H134.154A13.527,13.527,0,0,1,130,137.3a5.31,5.31,0,0,1-2.616-1.992,25.719,25.719,0,0,1-3.192,3.241l-.864-1.129a20.9,20.9,0,0,0,3.215-2.856v-7.321h-2.975v-1.3Zm-.241-4.656a24.9,24.9,0,0,0-3.576-3.552l.889-.96a21.654,21.654,0,0,1,3.648,3.648Zm8.45-4.344v3.888h-5.233v1.824c0,.528,0,.6.456.6h3.624c.409,0,.529,0,.744-1.656l1.128.336c-.168,2.256-.767,2.4-1.872,2.4h-3.792a1.267,1.267,0,0,1-1.488-1.272v-3.336H134.9v-1.7h-5.737v-1.08Zm9.432,14.737H129.353V130.6h4.272v-2.64h-3.768v-1.105h3.768v-1.752h1.3v1.752H139.6v-1.752h1.272v1.752h4.081v1.105h-4.081v2.64h4.632Zm-15.433,2.88a16.627,16.627,0,0,0,4.392-2.256l.889.888a13.849,13.849,0,0,1-4.489,2.376Zm9.529-6.6h-4.681v2.64H139.6Zm4.513-11.017v3.888h-5.282v1.872c0,.576.265.552.529.552h3.816c.769,0,.792-.192.937-1.776l1.151.36c-.048,1.32-.143,2.5-1.872,2.5h-4.272c-1.416,0-1.489-.744-1.489-1.464v-3.144h5.257v-1.7h-5.641v-1.08ZM140.058,132.4a13.375,13.375,0,0,0,5.112,2.3l-.7,1.128a14.464,14.464,0,0,1-5.256-2.5Z" fill="#231815"/>
          <path d="M127.889,162.452h-1.345V148.963a24.159,24.159,0,0,1-2.328,2.976l-.912-1.224a26.654,26.654,0,0,0,5.881-10.369l1.32.361a34.277,34.277,0,0,1-2.616,6.048Zm10.488-12.121h7.154v1.248h-7.154v8.665h6.553v1.272H129.593v-1.272h7.393v-8.665h-7.969v-1.248h7.969v-6.96c-1.609.192-3.433.36-6.433.48l-.24-1.176a50.913,50.913,0,0,0,13.945-2.017l.552,1.105a50.389,50.389,0,0,1-6.433,1.416Z" fill="#231815"/>
        </g>
        <g>
          <rect x="541.291" y="94.223" width="4.536" height="64.462" fill="#00a39d"/>
          <polygon points="534.511 156.04 543.557 171.704 552.603 156.04 534.511 156.04" fill="#00a39d"/>
        </g>
        <g>
          <path d="M561.516,119.438v6.913a3.3,3.3,0,0,0,2.328,3.24,14.842,14.842,0,0,0,4.177.648h11.352l-.215,1.272H567.8a13.518,13.518,0,0,1-4.152-.72,5.305,5.305,0,0,1-2.616-1.992,25.578,25.578,0,0,1-3.193,3.24l-.864-1.128a20.95,20.95,0,0,0,3.216-2.856v-7.321H557.22v-1.3Zm-.24-4.656a25.012,25.012,0,0,0-3.576-3.553l.888-.96a21.629,21.629,0,0,1,3.649,3.649Zm8.449-4.345v3.889h-5.232v1.824c0,.528,0,.6.456.6h3.624c.408,0,.528,0,.744-1.656l1.128.336c-.168,2.256-.768,2.4-1.872,2.4h-3.792a1.267,1.267,0,0,1-1.489-1.272v-3.336h5.257v-1.7h-5.737v-1.08Zm9.433,14.738H563v-1.081h4.273v-2.64h-3.769v-1.1h3.769V118.6h1.3v1.752h4.68V118.6h1.273v1.752h4.08v1.1h-4.08v2.64h4.632Zm-15.434,2.88a16.632,16.632,0,0,0,4.393-2.256l.888.888a13.839,13.839,0,0,1-4.489,2.376Zm9.529-6.6h-4.68v2.64h4.68Zm4.513-11.017v3.889h-5.281V116.2c0,.576.264.552.528.552h3.817c.768,0,.792-.192.936-1.776l1.151.36c-.047,1.32-.143,2.5-1.872,2.5h-4.272c-1.416,0-1.488-.744-1.488-1.464v-3.144h5.256v-1.7H570.9v-1.08ZM573.709,125.9a13.373,13.373,0,0,0,5.113,2.3l-.7,1.128a14.454,14.454,0,0,1-5.255-2.5Z" fill="#231815"/>
          <path d="M561.54,155.943H560.2V142.454a24.354,24.354,0,0,1-2.328,2.976l-.912-1.224a26.66,26.66,0,0,0,5.88-10.369l1.321.36a34.3,34.3,0,0,1-2.617,6.049Zm10.489-12.121h7.153v1.248h-7.153v8.665h6.552v1.272H563.245v-1.272h7.392V145.07h-7.969v-1.248h7.969v-6.96c-1.608.191-3.432.359-6.432.48l-.241-1.176a51,51,0,0,0,13.946-2.017l.551,1.1a50.4,50.4,0,0,1-6.432,1.416Z" fill="#231815"/>
        </g>
        <g>
          <rect x="541.291" y="241.91" width="4.536" height="99.461" fill="#00a39d"/>
          <polygon points="534.511 338.725 543.557 354.389 552.603 338.725 534.511 338.725" fill="#00a39d"/>
          <polygon points="552.603 253.145 543.557 237.481 534.511 253.145 552.603 253.145" fill="#00a39d"/>
        </g>
        <g>
          <path d="M561.636,282.469v6.841c0,2.808,3.456,3.888,5.833,3.888h12.025l-.264,1.2H567.349a7.227,7.227,0,0,1-6.049-2.784,29.828,29.828,0,0,1-3.24,3.24l-.96-1.056a17.66,17.66,0,0,0,3.192-2.832v-7.248h-3.048v-1.249Zm-.192-4.488a20.7,20.7,0,0,0-3.576-3.648l.864-.984a24.465,24.465,0,0,1,3.7,3.72Zm10.417.12h6.289v8.209h-6.289v2.328h7.369v1.152h-7.369v2.592h-1.3V289.79h-7.273v-1.152h7.273V286.31h-6.1V278.1h6.1v-2.04h-6.889v-1.176h6.889v-1.992h1.3v1.992h7.033v1.176h-7.033Zm-1.3,1.08h-4.872v2.424h4.872Zm0,3.48h-4.872v2.568h4.872Zm6.312-3.48h-5.016v2.424h5.016Zm0,3.48h-5.016v2.568h5.016Z" fill="#231815"/>
          <path d="M564.373,308.606c-1.489.72-2.329,1.056-2.785,1.248V317.1c0,1.224-.408,1.823-1.7,1.823H557.6l-.288-1.392,1.9.049c.648.023,1.08-.073,1.08-.889v-6.336c-.84.336-1.632.6-2.9.984l-.36-1.3a33.02,33.02,0,0,0,3.264-1.032v-6.169H557.22v-1.2h3.072v-4.656h1.3v4.656h2.617v1.2h-2.617v5.689c1.128-.432,1.968-.816,2.544-1.08Zm14.136,4.272c-.263,6.048-1.151,6.048-2.9,6.048h-2.353l-.408-1.392,2.689.072c.815.025,1.3.025,1.488-3.648h-3.961c.168-.552.408-1.416.7-2.616h-3.912a9.506,9.506,0,0,1-5.688,7.705l-.792-1.176c3.1-1.393,4.7-3.193,5.135-6.529h-3.96v-1.128h10.778c-.313,1.272-.481,1.872-.744,2.664Zm-14.833-8.785a20.785,20.785,0,0,0,4.3-7.392l1.248.264c-.336.864-.6,1.488-1.009,2.328h3.673a19.6,19.6,0,0,0,1.153-2.472l1.223.264a16.117,16.117,0,0,1-1.008,2.208h5.328v1.032h-5.328v1.752h4.7v.984h-4.7v1.752h4.7v.984h-4.7v1.825h5.977v1.008H566.269v-5.809a11.57,11.57,0,0,1-1.656,2.064Zm4.057-3.768c-.1.144-.1.192-.24.456v1.3h4.56v-1.752Zm4.32,2.736h-4.56v1.752h4.56Zm0,2.736h-4.56v1.825h4.56Z" fill="#231815"/>
        </g>
        <g>
          <rect x="105.882" y="237.481" width="4.536" height="103.024" fill="#00a39d"/>
          <polygon points="99.103 337.859 108.149 353.523 117.195 337.859 99.103 337.859" fill="#00a39d"/>
        </g>
        <g>
          <path d="M143.323,292.549h2.256V293.8H123.617v-1.248h2.352v-6.408h17.354Zm-8.642-19.274v1.057h-4.224v2.088h3.409v4.248h-3.409v2.52h4.321v1.1H124.72V273.275Zm-5.4,1.057h-3.336v2.088h3.336Zm3.337,3.1h-6.673v2.184h6.673Zm-3.337,3.24h-3.336v2.52h3.336Zm2.064,6.7h-4.1v5.184h4.1Zm5.353,0h-4.153v5.184H136.7Zm-2.424-8.425a11.991,11.991,0,0,0,4.008-6.5l1.248.263a14.738,14.738,0,0,1-.817,2.329h6.866v1.2h-7.49a10.854,10.854,0,0,1-2.9,3.528Zm10.753,3.816h-8.522v-1.224h8.522Zm-2.953,4.609H137.85v5.184h4.224Z" fill="#231815"/>
          <path d="M123.449,306.228a10.741,10.741,0,0,0,2.256-3.816l1.175.24a12.955,12.955,0,0,1-2.424,4.32Zm6-9.745v1.272h4.272v1.1h-4.272v1.753h5.184v1.08h-4.68v4.032c0,1.128-.384,1.392-1.152,1.392h-1.992l-.192-1.1,1.68.048c.384,0,.408-.168.408-.48v-3.888h-5.113v-1.08h4.561v-4.129Zm13.273,22.01H141.45v-1.1h-13.7v1.1H126.5V308.028h16.225Zm-1.272-9.457h-13.7v1.68h13.7Zm0,2.688h-13.7V313.4h13.7Zm0,2.713h-13.7v1.92h13.7Zm-9.217-12.1a25.825,25.825,0,0,1,1.608,2.976l-1.2.552a19.078,19.078,0,0,0-1.464-3.168Zm1.776,3.888a18.125,18.125,0,0,0,4.729-2.4,12.367,12.367,0,0,1-2.472-4.441l1.08-.336a12.51,12.51,0,0,0,2.328,4.033,11.864,11.864,0,0,0,3.552-4.7h-7.944v-1.1h9.24V298.4a14.914,14.914,0,0,1-3.984,5.545,14.34,14.34,0,0,0,5.161,2.88l-.792,1.152a15.569,15.569,0,0,1-5.305-3.264,19.949,19.949,0,0,1-4.969,2.616Z" fill="#231815"/>
        </g>
        <g>
          <rect x="200.715" y="665.981" width="4.536" height="64.462" fill="#00a39d"/>
          <polygon points="212.031 668.626 202.985 652.962 193.939 668.626 212.031 668.626" fill="#00a39d"/>
        </g>
        <g>
          <path d="M224.671,666.5v2.376h4.416V670.1h-4.416v3h4.945v1.176h-1.633a24.768,24.768,0,0,1-1.008,3.624h2.448v1.177h-4.752v3.36h4.416v1.176h-4.416v4.9h-1.3v-4.9h-4.343v-1.176h4.343v-3.36h-4.728V677.9h2.688a30.583,30.583,0,0,0-1.152-3.624h-1.775V673.1h4.967v-3h-4.343v-1.224h4.343V666.5Zm1.08,11.4a18.086,18.086,0,0,0,.913-3.624h-5.233c.168.456,1.008,3.121,1.128,3.624ZM239.5,688.432a22.858,22.858,0,0,1-3.24-3.12,11.858,11.858,0,0,1-2.952,2.977l-.912-1.105a11.325,11.325,0,0,0,3.048-2.9,20.045,20.045,0,0,1-2.977-6l1.129-.336a16.069,16.069,0,0,0,2.568,5.28,19.321,19.321,0,0,0,2.256-6.5h-6.7V688.5h-1.272V667.239h8.928a18.806,18.806,0,0,1-.744,5.88c-.384.7-.888.816-2.16.816h-2.112l-.216-1.32,2.136.072c1.032.024,1.7-.288,1.776-4.224h-6.336v7.08h8.064a20.907,20.907,0,0,1-2.784,8.689,31.314,31.314,0,0,0,3.481,3.144Z" fill="#231815"/>
          <path d="M228.967,694.167v-3.6h1.368v3.6h8.33v1.176h-8.33v4.321h10.034v1.176H218.478v-1.176h10.489v-4.321h-6.1a22.572,22.572,0,0,1-2.617,2.976l-1.175-.768a20.541,20.541,0,0,0,5.04-6.7l1.176.456a19.326,19.326,0,0,1-1.585,2.856Zm8.977,18.338h-1.392v-1.392H222.174v1.392h-1.367v-9.1h17.137Zm-1.392-7.9H222.174v5.3h14.378Z" fill="#231815"/>
        </g>
        <g>
          <rect x="105.882" y="412.165" width="4.536" height="305.259" fill="#00a39d"/>
          <polygon points="99.103 714.779 108.149 730.443 117.195 714.779 99.103 714.779" fill="#00a39d"/>
        </g>
        <g>
          <rect x="743.118" y="536.805" width="60" height="4.536" fill="#00a39d"/>
          <polygon points="750.879 530.025 735.215 539.071 750.879 548.117 750.879 530.025" fill="#00a39d"/>
        </g>
        <g>
          <path d="M769.839,550.288v3.7h9.242v16.177c0,1.728-.313,2.16-1.92,2.16h-3.985l-.288-1.344,4.105.048c.575,0,.695-.144.695-.744V555.137h-7.752c.239,2.424,1.224,6.072,7.272,10.609l-1.008,1.032c-3-2.473-5.76-5.4-6.985-9.145-1.055,3.624-2.256,5.952-7.344,9.049l-.792-1.128c6.048-2.9,6.936-7.489,7.3-10.417H760.6v17.185h-1.368V553.985h9.217v-3.7Z" fill="#231815"/>
          <path d="M763.863,576.761v-2.425h1.368v2.425h5.112v1.152h-1.872a24.025,24.025,0,0,1-1.32,5.232h3.673v1.176H758.2v-1.176h3.5a33.129,33.129,0,0,0-1.056-5.232h-1.872v-1.152Zm5.545,18.025h-8.45v1.536H759.59v-9.408h9.818Zm-1.321-6.72h-7.129v5.568h7.129Zm-2.256-4.921a25.227,25.227,0,0,0,1.3-5.232h-5.209a51.42,51.42,0,0,1,1.105,5.232Zm5.833,13.177V574.985h7.873v1.1a36.016,36.016,0,0,1-3.265,6.888c3.217,2.592,3.768,5.041,3.768,6.7a3.8,3.8,0,0,1-4.008,4.056H774.28l-.216-1.368,1.9.1c1.968.1,2.76-1.368,2.76-2.88,0-2.448-1.92-4.7-4.128-6.433a32.5,32.5,0,0,0,3.552-6.937h-5.16v20.114Z" fill="#231815"/>
          <path d="M766.1,601.072a83.388,83.388,0,0,1-4.56,7.513c2.664-.168,2.952-.168,3.768-.288a16.943,16.943,0,0,0-.792-1.632l1.08-.552a35.654,35.654,0,0,1,1.945,4.345l-1.248.575c-.145-.36-.433-1.176-.624-1.7-1.441.144-2.017.192-2.377.216v10.8h-1.272V609.641c-1.92.12-2.736.144-3.889.168l-.12-1.1c.6,0,.96,0,2.185-.048.744-1.08,1.056-1.56,1.248-1.848a21.026,21.026,0,0,0-3.6-3.384l.744-.864c.409.288.5.36.889.672a30.25,30.25,0,0,0,2.544-4.849l1.224.456A40.083,40.083,0,0,1,760.311,604a21.584,21.584,0,0,1,1.752,1.8c1.512-2.5,2.28-3.984,2.9-5.208Zm-8.112,16.85a20.527,20.527,0,0,0,1.344-6.169l1.175.169a24.665,24.665,0,0,1-1.463,6.576Zm8.04-1.008a30.778,30.778,0,0,0-1.319-4.9l1.055-.384a30.11,30.11,0,0,1,1.512,4.848Zm-.936,2.328c4.609-1.536,5.376-4.776,5.353-9.817h1.344c-.048,6.025-1.441,9.193-5.761,10.8Zm11.329-16.153a20.158,20.158,0,0,1,4.008,5.16l-1.223.7a11.535,11.535,0,0,0-.649-1.224c-7.8.624-8.665.7-10.705.768l-.216-1.176c.384,0,1.225-.048,1.561-.072a35.518,35.518,0,0,0,2.376-5.208h-4.561v-1.176h5.881v-2.521h1.3v2.521h5.977v1.176h-7.225a39.582,39.582,0,0,1-2.353,5.136c3.145-.12,5.257-.216,7.322-.456a19.708,19.708,0,0,0-2.425-2.928Zm-.408,15.1c0,.552.336.648.888.648h.936c.888,0,.96-.12.984-3.744l1.272.432c0,.792-.095,2.664-.168,3.12-.12.984-.648,1.344-1.656,1.344h-1.848c-.36,0-1.7,0-1.7-1.44V609.3l1.3.12Z" fill="#231815"/>
          <path d="M764.487,625.313v-2.928h1.248v2.928h5.377v1.224h-5.377v3.36h5.929v1.2h-5.929v2.856h5.016v7.392c0,.817-.288,1.273-1.271,1.273h-2.089l-.216-1.321,1.777.048c.383,0,.528,0,.528-.672V635.13h-3.745v9.241h-1.248V635.13h-3.912v7.657h-1.224v-8.833h5.136V631.1h-6.24v-1.2h6.24v-3.36h-3.336a8.453,8.453,0,0,1-1.368,2.76l-1.321-.576a12.188,12.188,0,0,0,2.208-5.88l1.321.192a14.657,14.657,0,0,1-.456,2.28Zm9.625-1.56v15.409h-1.3V623.753Zm5.3-1.368V642.69c0,1.321-.671,1.681-1.944,1.681H774.5l-.264-1.392,3.265.048c.6,0,.6-.337.6-.624V622.385Z" fill="#231815"/>
          <path d="M777.905,666.474h2.256v1.249H758.2v-1.249h2.352v-6.408h17.354ZM769.263,647.2v1.056H765.04v2.088h3.408v4.248H765.04v2.521h4.32v1.1H759.3V647.2Zm-5.4,1.056h-3.336v2.088h3.336Zm3.337,3.1h-6.673v2.184H767.2Zm-3.337,3.24h-3.336v2.521h3.336Zm2.064,6.7h-4.1v5.184h4.1Zm5.353,0h-4.153v5.184h4.153Zm-2.424-8.425a11.988,11.988,0,0,0,4.008-6.5l1.248.264a14.726,14.726,0,0,1-.817,2.328h6.866v1.2h-7.49a10.854,10.854,0,0,1-2.9,3.528Zm10.753,3.817h-8.522v-1.224h8.522Zm-2.953,4.608h-4.224v5.184h4.224Z" fill="#231815"/>
          <path d="M776.537,679.577V690.4h3.671v1.2H758.2v-1.2h3.528V679.577h6.792v-5.424a25.525,25.525,0,0,1-10.032,6.456l-.649-1.128a24.432,24.432,0,0,0,9.362-5.64h-8.713v-1.2h10.032v-2.233h1.272v2.233h10.057v1.2H771.04a20.76,20.76,0,0,0,9.216,5.736l-.647,1.128c-5.545-2.04-8.761-5.136-9.818-6.624v5.5Zm-1.3,1.128H763.023v2.4H775.24Zm0,3.553H763.023v2.328H775.24Zm0,3.48H763.023V690.4H775.24Z" fill="#231815"/>
        </g>
        <g>
          <rect x="290.158" y="562.43" width="60" height="4.536" fill="#00a39d"/>
          <polygon points="342.397 555.65 358.061 564.696 342.397 573.742 342.397 555.65" fill="#00a39d"/>
        </g>
        <g>
          <path d="M318.424,575.913v2.376h4.416v1.224h-4.416v3h4.945v1.176h-1.633a24.768,24.768,0,0,1-1.008,3.624h2.448v1.177h-4.752v3.36h4.416v1.176h-4.416v4.9h-1.3v-4.9h-4.343V591.85h4.343v-3.36H312.4v-1.177h2.688a30.583,30.583,0,0,0-1.152-3.624H312.16v-1.176h4.967v-3h-4.343v-1.224h4.343v-2.376Zm1.08,11.4a18.042,18.042,0,0,0,.912-3.624h-5.232c.168.456,1.008,3.121,1.128,3.624Zm13.753,10.537a22.8,22.8,0,0,1-3.24-3.12,11.876,11.876,0,0,1-2.952,2.977l-.912-1.105a11.325,11.325,0,0,0,3.048-2.9,20.015,20.015,0,0,1-2.977-6l1.129-.335a16.069,16.069,0,0,0,2.568,5.28,19.321,19.321,0,0,0,2.256-6.505h-6.7v11.785h-1.273V576.656h8.929a18.809,18.809,0,0,1-.744,5.881c-.384.7-.888.816-2.16.816h-2.112l-.216-1.32,2.135.072c1.033.024,1.7-.288,1.777-4.224h-6.336v7.08h8.064a20.907,20.907,0,0,1-2.784,8.689,31.314,31.314,0,0,0,3.481,3.144Z" fill="#231815"/>
          <path d="M322.72,603.585v-3.6h1.368v3.6h8.329v1.176h-8.329v4.321h10.034v1.176H312.231v-1.176H322.72v-4.321h-6.1a22.51,22.51,0,0,1-2.616,2.976l-1.176-.768a20.534,20.534,0,0,0,5.041-6.7l1.176.456a19.326,19.326,0,0,1-1.585,2.856Zm8.977,18.338h-1.392v-1.392H315.927v1.392H314.56v-9.1H331.7Zm-1.392-7.9H315.927v5.3h14.378Z" fill="#231815"/>
        </g>
        <g>
          <polygon points="362.266 364.252 287.199 241.617 291.036 239.199 366.104 361.833 362.266 364.252" fill="#00a39d"/>
          <polygon points="285.6 251.797 284.902 233.722 300.906 242.152 285.6 251.797" fill="#00a39d"/>
        </g>
        <g>
          <path d="M316.578,326.62V329h4.416v1.224h-4.416v3h4.944V334.4h-1.633a24.768,24.768,0,0,1-1.008,3.624h2.449V339.2h-4.752v3.36h4.416v1.177h-4.416v4.9h-1.3v-4.9h-4.344v-1.177h4.344V339.2h-4.729v-1.176h2.689a30.7,30.7,0,0,0-1.153-3.624h-1.775v-1.176h4.968v-3h-4.344V329h4.344V326.62Zm1.08,11.4a18.178,18.178,0,0,0,.912-3.624h-5.233c.168.456,1.008,3.12,1.128,3.624Zm13.753,10.537a22.875,22.875,0,0,1-3.241-3.12,11.831,11.831,0,0,1-2.952,2.976l-.912-1.1a11.311,11.311,0,0,0,3.048-2.9,20.086,20.086,0,0,1-2.977-6l1.129-.336a16.063,16.063,0,0,0,2.569,5.281,19.357,19.357,0,0,0,2.256-6.5h-6.7V348.63h-1.272V327.364h8.928a18.783,18.783,0,0,1-.744,5.881c-.383.7-.887.816-2.16.816h-2.112l-.216-1.321,2.136.072c1.032.025,1.7-.287,1.776-4.224h-6.336v7.081H331.7a20.931,20.931,0,0,1-2.784,8.689,31.213,31.213,0,0,0,3.48,3.144Z" fill="#231815"/>
          <path d="M320.873,354.292v-3.6h1.369v3.6h8.329v1.177h-8.329v4.32h10.033v1.176H310.384v-1.176h10.489v-4.32h-6.1a22.584,22.584,0,0,1-2.616,2.976l-1.176-.768a20.527,20.527,0,0,0,5.04-6.7l1.177.456a19.521,19.521,0,0,1-1.585,2.856Zm8.977,18.338h-1.392v-1.392H314.081v1.392h-1.368v-9.1H329.85Zm-1.392-7.9H314.081v5.305h14.377Z" fill="#231815"/>
        </g>
        <g>
          <rect x="290.158" y="205.215" width="60" height="4.536" fill="#00a39d"/>
          <polygon points="342.397 198.435 358.061 207.481 342.397 216.527 342.397 198.435" fill="#00a39d"/>
        </g>
        <g>
          <path d="M332.848,238.192H335.1v1.249H313.142v-1.249H315.5v-6.408h17.353Zm-8.642-19.273v1.056h-4.223v2.088h3.408v4.249h-3.408v2.52h4.32v1.1H314.246V218.919Zm-5.4,1.056H315.47v2.088h3.336Zm3.337,3.1H315.47v2.184h6.673Zm-3.337,3.241H315.47v2.52h3.336Zm2.065,6.7h-4.1v5.184h4.1Zm5.352,0h-4.152v5.184h4.152Zm-2.424-8.425a11.988,11.988,0,0,0,4.008-6.5l1.248.264a14.824,14.824,0,0,1-.816,2.328H335.1v1.2h-7.489a10.847,10.847,0,0,1-2.9,3.528Zm10.753,3.817h-8.521v-1.224h8.521Zm-2.953,4.608h-4.224v5.184H331.6Z" fill="#231815"/>
          <path d="M331.48,251.3V262.12h3.672v1.2h-22.01v-1.2h3.528V251.3h6.792v-5.424a25.525,25.525,0,0,1-10.032,6.456l-.648-1.128a24.43,24.43,0,0,0,9.361-5.64H313.43v-1.2h10.032v-2.233h1.273v2.233h10.056v1.2h-8.808A20.762,20.762,0,0,0,335.2,251.3l-.648,1.128c-5.545-2.04-8.761-5.136-9.817-6.624v5.5Zm-1.3,1.128H317.966v2.4h12.217Zm0,3.553H317.966V258.3h12.217Zm0,3.48H317.966v2.664h12.217Z" fill="#231815"/>
        </g>
        <g>
          <rect x="290.158" y="762.256" width="60" height="4.536" fill="#00a39d"/>
          <polygon points="342.397 755.476 358.061 764.522 342.397 773.568 342.397 755.476" fill="#00a39d"/>
        </g>
        <g>
          <path d="M331.914,795.828h2.255v1.249H312.207v-1.249h2.353V789.42h17.354Zm-8.642-19.273v1.056h-4.224V779.7h3.408v4.248h-3.408v2.521h4.321v1.1H313.311V776.555Zm-5.4,1.056h-3.336V779.7h3.336Zm3.336,3.1h-6.672v2.184h6.672Zm-3.336,3.24h-3.336v2.521h3.336Zm2.064,6.7h-4.1v5.184h4.1Zm5.353,0h-4.153v5.184h4.153Zm-2.424-8.425a11.994,11.994,0,0,0,4.008-6.5l1.248.264a14.827,14.827,0,0,1-.817,2.328h6.865v1.2H326.68a10.854,10.854,0,0,1-2.9,3.528Zm10.753,3.817H325.1v-1.224h8.522Zm-2.953,4.608h-4.224v5.184h4.224Z" fill="#231815"/>
          <path d="M330.545,808.931v10.825h3.672v1.2h-22.01v-1.2h3.529V808.931h6.792v-5.424a25.552,25.552,0,0,1-10.032,6.457l-.649-1.129a24.423,24.423,0,0,0,9.361-5.64H312.5V802h10.032v-2.233H323.8V802h10.057v1.2h-8.809a20.768,20.768,0,0,0,9.217,5.736l-.647,1.128c-5.545-2.04-8.761-5.136-9.818-6.624v5.5Zm-1.3,1.128H317.032v2.4h12.216Zm0,3.553H317.032v2.328h12.216Zm0,3.48H317.032v2.664h12.216Z" fill="#231815"/>
        </g>
        <g>
          <rect x="743.118" y="341.021" width="60" height="4.536" fill="#00a39d"/>
          <polygon points="750.879 334.241 735.215 343.287 750.879 352.333 750.879 334.241" fill="#00a39d"/>
        </g>
        <g>
          <path d="M769.7,354.481a23.92,23.92,0,0,0,10.873,8.064l-.744,1.272c-3.337-1.56-7.9-4.1-10.73-8.064-2.975,3.768-5.88,5.712-10.728,7.9l-.649-1.344a21.681,21.681,0,0,0,10.61-7.824Zm3.072,14.041a34.33,34.33,0,0,1,6.48,7.128l-1.152.864a11.269,11.269,0,0,0-1.391-2.04c-1.3.048-7.465.576-8.738.648-1.464.1-7.921.336-9.217.432l-.143-1.3c.216,0,2.784-.072,3.168-.1a43.745,43.745,0,0,0,3.672-6.72H758.7v-1.2h20.929v1.2H767.007a51.1,51.1,0,0,1-3.672,6.672c6.193-.24,8.376-.336,12.457-.744a40.157,40.157,0,0,0-4.008-4.008Zm-9.937-7.009h12.6v1.224h-12.6Z" fill="#231815"/>
          <path d="M768.448,382.681v1.176H758.222v-1.176Zm-.744-3.313v1.176h-8.641v-1.176Zm0,6.529v1.176h-8.641V385.9Zm0,3.24v1.176h-8.641v-1.176Zm0,3.289v6.888h-7.37v1.224h-1.271v-8.112Zm-1.248,1.127h-6.122v4.633h6.122Zm1.992-6.6v-1.3h4.992v-7.129h1.392v7.129h5.352v1.3h-5.352v13.585H773.44V386.953Z" fill="#231815"/>
          <path d="M777.905,422.643h2.256v1.248H758.2v-1.248h2.352v-6.409h17.354Zm-8.642-19.274v1.056H765.04v2.088h3.408v4.249H765.04v2.52h4.32v1.1H759.3V403.369Zm-5.4,1.056h-3.336v2.088h3.336Zm3.337,3.1h-6.673v2.185H767.2Zm-3.337,3.241h-3.336v2.52h3.336Zm2.064,6.7h-4.1v5.185h4.1Zm5.353,0h-4.153v5.185h4.153Zm-2.424-8.425a11.988,11.988,0,0,0,4.008-6.5l1.248.264a14.726,14.726,0,0,1-.817,2.328h6.866v1.2h-7.49a10.865,10.865,0,0,1-2.9,3.529Zm10.753,3.817h-8.522v-1.224h8.522Zm-2.953,4.608h-4.224v5.185h4.224Z" fill="#231815"/>
          <path d="M776.537,435.745V446.57h3.671v1.2H758.2v-1.2h3.528V435.745h6.792v-5.424a25.525,25.525,0,0,1-10.032,6.456l-.649-1.128a24.432,24.432,0,0,0,9.362-5.64h-8.713v-1.2h10.032v-2.233h1.272v2.233h10.057v1.2H771.04a20.76,20.76,0,0,0,9.216,5.736l-.647,1.128c-5.545-2.04-8.761-5.136-9.818-6.624v5.5Zm-1.3,1.128H763.023v2.4H775.24Zm0,3.553H763.023v2.328H775.24Zm0,3.48H763.023v2.664H775.24Z" fill="#231815"/>
        </g>
        <g>
          <rect x="740.976" y="205.213" width="46.419" height="4.536" fill="#00a39d"/>
          <polygon points="744.721 198.435 729.057 207.481 744.721 216.527 744.721 198.435" fill="#00a39d"/>
          <polygon points="787.396 198.435 803.06 207.481 787.396 216.527 787.396 198.435" fill="#00a39d"/>
        </g>
        <g>
          <path d="M759.458,227.679v6.841c0,2.808,3.457,3.888,5.833,3.888h12.025l-.264,1.2H765.171a7.224,7.224,0,0,1-6.048-2.784,29.994,29.994,0,0,1-3.241,3.24l-.96-1.056a17.666,17.666,0,0,0,3.193-2.832v-7.249h-3.049v-1.248Zm-.192-4.488a20.67,20.67,0,0,0-3.576-3.648l.864-.984a24.42,24.42,0,0,1,3.7,3.72Zm10.417.12h6.289v8.209h-6.289v2.328h7.369V235h-7.369v2.592h-1.3V235h-7.272v-1.152h7.272V231.52h-6.1v-8.209h6.1v-2.04H761.5V220.1h6.889V218.1h1.3V220.1h7.033v1.176h-7.033Zm-1.3,1.08h-4.872v2.424h4.872Zm0,3.48h-4.872v2.568h4.872Zm6.313-3.48h-5.017v2.424H774.7Zm0,3.48h-5.017v2.568H774.7Z" fill="#231815"/>
          <path d="M762.2,253.816c-1.489.72-2.328,1.056-2.784,1.248v7.248c0,1.225-.409,1.824-1.7,1.824h-2.28l-.288-1.392,1.9.048c.647.024,1.08-.072,1.08-.888v-6.336c-.841.336-1.633.6-2.9.984l-.36-1.3a33.043,33.043,0,0,0,3.265-1.032v-6.169h-3.073v-1.2h3.073V242.2h1.3v4.656h2.616v1.2h-2.616v5.689c1.128-.432,1.967-.817,2.544-1.08Zm14.136,4.272c-.263,6.048-1.151,6.048-2.9,6.048h-2.352l-.409-1.392,2.689.072c.815.025,1.3.025,1.488-3.648h-3.961c.168-.552.408-1.416.7-2.616h-3.913a9.506,9.506,0,0,1-5.688,7.7l-.792-1.176c3.1-1.393,4.7-3.193,5.136-6.529h-3.96v-1.128H773.14c-.312,1.272-.48,1.872-.744,2.664ZM761.5,249.3a20.77,20.77,0,0,0,4.3-7.392l1.248.264c-.336.864-.6,1.488-1.008,2.328h3.672a19.6,19.6,0,0,0,1.153-2.472l1.223.264a16.108,16.108,0,0,1-1.007,2.208H776.4v1.032h-5.328v1.752h4.7v.984h-4.7v1.752h4.7v.984h-4.7v1.825h5.976v1.008H764.091v-5.809a11.48,11.48,0,0,1-1.656,2.064Zm4.057-3.768c-.1.144-.1.192-.24.456v1.3h4.56v-1.752Zm4.32,2.736h-4.56v1.752h4.56Zm0,2.736h-4.56v1.825h4.56Z" fill="#231815"/>
        </g>
        <rect x="40" y="354.406" width="250" height="60" rx="15" fill="#fff"/>
        <rect x="40" y="177.481" width="250" height="60" rx="15" fill="#fff"/>
        <rect x="358.057" y="177.481" width="371" height="60" rx="15" fill="#fff"/>
        <rect x="40" y="40" width="925" height="60" rx="15" fill="#fff"/>
        <g>
          <path d="M426.805,71.535a15.376,15.376,0,0,1-2.352-4.056V80.056h-1.248V67.863a20.607,20.607,0,0,1-3.144,6.313l-.793-1.512a19.743,19.743,0,0,0,3.889-8.329h-3.624V63.087h3.672V58.046h1.248v5.041h3.024v1.248h-3.024v.816a14.7,14.7,0,0,0,3.289,5.3Zm8.425,8.521h-1.273V70.383a22.934,22.934,0,0,1-6.312,7.753l-1.151-1.056a21.308,21.308,0,0,0,6.887-8.065h-5.9V67.839h6.48V63.663h-3.6a13.8,13.8,0,0,1-1.873,3.048l-1.008-.768a12.853,12.853,0,0,0,3-7.345l1.2.144a16.781,16.781,0,0,1-.84,3.745h3.12V58.046h1.273v4.441h5.544v1.176H435.23v4.176H441.5v1.176h-5.689a20.543,20.543,0,0,0,5.9,7.993l-.936,1.224a22.4,22.4,0,0,1-5.544-7.849Z" fill="#231815"/>
          <path d="M488.823,64.1h-9.6v6.048h8.713v1.249h-8.713V78.16h10.3v1.2H467.533v-1.2h10.272V71.392h-8.736V70.143h8.736V64.1h-9.673V62.847h20.691Zm-8.881-1.488a18.261,18.261,0,0,0-6.025-3.673l.7-1.08a22.151,22.151,0,0,1,6.217,3.529Z" fill="#231815"/>
          <path d="M523.933,59.99a56.383,56.383,0,0,1-5.3,8.4c1.057-.048,2.593-.12,3.625-.264-.432-.936-.576-1.224-.816-1.7l1.057-.6a29.149,29.149,0,0,1,1.943,4.248l-1.151.7c-.288-.768-.385-1.056-.6-1.584-.528.072-1.128.168-2.136.24V80.032h-1.3V69.519c-.863.072-3.072.216-3.864.24l-.143-1.272c.648,0,1.128,0,2.064-.048.432-.6.983-1.392,1.3-1.848a24.405,24.405,0,0,0-3.553-3.384l.792-1.008c.433.336.576.48.817.672a22.683,22.683,0,0,0,2.423-4.657l1.369.5a47.12,47.12,0,0,1-2.88,4.945,15.684,15.684,0,0,1,1.728,1.872,41.4,41.4,0,0,0,3.312-5.929Zm-8.616,17.882a19.768,19.768,0,0,0,1.368-6.265l1.2.193a23.473,23.473,0,0,1-1.465,6.672Zm7.1-1.992a22.873,22.873,0,0,0-.744-4.08l1.08-.24a16.744,16.744,0,0,1,.865,4.08Zm.936,2.3a15.551,15.551,0,0,0,1.728-5.616l1.273.336a20.039,20.039,0,0,1-1.656,5.808Zm.24-14.737a17.269,17.269,0,0,0,4.488-5.329l1.177.576a18.991,18.991,0,0,1-4.513,5.665ZM530.51,62.3a43.66,43.66,0,0,1-2.3,5.568c2.976-.1,3.984-.144,6.144-.36a33.042,33.042,0,0,0-2.232-2.808l1.008-.7a26.87,26.87,0,0,1,3.96,5.28l-1.2.816c-.36-.672-.552-1.056-.912-1.608a89.9,89.9,0,0,1-9.841.624l-.168-1.152c.193,0,1.609-.048,1.849-.048a41.486,41.486,0,0,0,2.328-6ZM531.9,73.1a12.976,12.976,0,0,0-4.3-2.593l.815-.96a16.467,16.467,0,0,1,4.393,2.545Zm-2.689,4.776c0,.48,0,.552.7.552h1.824c.624,0,1.008,0,1.152-2.544l1.3.192c-.192,2.664-.552,3.528-2.232,3.528h-2.544c-1.344,0-1.489-.6-1.489-1.56V72.9h1.3Zm4.105-19.778a15.134,15.134,0,0,0,4.272,4.9l-.96.96a16.37,16.37,0,0,1-4.392-5.185Zm2.929,20.21a21.612,21.612,0,0,0-1.969-5.712l1.2-.5a21.458,21.458,0,0,1,2.16,5.808Z" fill="#231815"/>
          <path d="M575.03,58.022A23.916,23.916,0,0,0,585.9,66.087l-.744,1.272c-3.337-1.56-7.9-4.1-10.73-8.065-2.975,3.769-5.88,5.713-10.728,7.9l-.649-1.344a21.677,21.677,0,0,0,10.61-7.825ZM578.1,72.063a34.355,34.355,0,0,1,6.48,7.129l-1.152.864a11.234,11.234,0,0,0-1.391-2.04c-1.3.048-7.465.576-8.738.648-1.464.1-7.921.336-9.217.432l-.143-1.3c.216,0,2.784-.072,3.168-.1a43.714,43.714,0,0,0,3.672-6.721h-6.744v-1.2h20.929v1.2H572.341a51.047,51.047,0,0,1-3.672,6.673c6.193-.24,8.376-.336,12.457-.744a40.157,40.157,0,0,0-4.008-4.008Zm-9.937-7.008h12.6v1.224h-12.6Z" fill="#231815"/>
        </g>
        <g>
          <path d="M75.936,212.928c.84-.095,1.248-.144,1.848-.24V197.327h-1.8V196.1H87.193v1.224H85.945v20.186h-1.3v-4.944a56.325,56.325,0,0,1-8.593,1.7Zm8.712-15.6H79.08v4.033h5.568Zm0,5.161H79.08v4.032h5.568Zm-5.568,9.984c.144-.024,3.6-.624,5.568-1.2v-3.624H79.08Zm7.2,3.769a18.66,18.66,0,0,0,5.3-4.705,27.346,27.346,0,0,1-3.719-11.377l1.3-.191a22.749,22.749,0,0,0,3.216,10.392,24.6,24.6,0,0,0,3.336-11.329h-8.52v-1.272h9.984c-.431,6.385-2.183,11.089-3.936,13.825a20.3,20.3,0,0,0,4.921,4.489l-.817,1.368a25.534,25.534,0,0,1-4.9-4.7,19.769,19.769,0,0,1-5.136,4.752Z" fill="#231815"/>
          <path d="M107.617,198a85,85,0,0,1-4.441,7.9c.672,0,1.584-.024,3.648-.144-.312-.84-.552-1.416-.743-1.824l.983-.36a18.528,18.528,0,0,1,1.488,4.1l-1.008.528c-.072-.336-.144-.624-.408-1.488-1.08.12-1.536.144-1.968.168v10.657H103.92V206.952c-2.785.144-3.072.168-3.768.192l-.1-1.2c.313,0,.456,0,1.9-.024.408-.672.96-1.608,1.416-2.4a26.618,26.618,0,0,0-3.336-3.025l.7-.888c.359.264.527.384.815.624a46.23,46.23,0,0,0,2.137-4.8l1.151.5c-.263.6-1.511,3.408-2.4,5.041a19.947,19.947,0,0,1,1.56,1.44c.912-1.584,1.728-3.241,2.52-4.921Zm-7.465,17.33a20.685,20.685,0,0,0,1.271-6.361l1.153.12a19.637,19.637,0,0,1-1.272,6.841Zm7.056-.624a32.848,32.848,0,0,0-.816-5.593l1.057-.24a30.431,30.431,0,0,1,1.007,5.569Zm8.449-19.154v2.136h6.216v1.176h-2.4a35.732,35.732,0,0,1-.935,3.553h2.616v4.176h-1.3v-3.024h-4.248v3.408h4.416v6.913c0,.432,0,1.512-1.68,1.512h-1.488l-.168-1.248,1.464.048c.576.024.576-.24.576-.577v-5.5h-3.12v9.409h-1.248v-9.409h-3.1V215.4h-1.248v-8.425h4.345v-3.408h-4.225v3.024h-1.271v-4.176h2.544a26.565,26.565,0,0,0-.792-3.553h-2.065v-1.176h5.809v-2.136Zm1.68,6.865a23.159,23.159,0,0,0,.816-3.553h-6.265a30.629,30.629,0,0,1,.744,3.553Z" fill="#231815"/>
          <path d="M123.7,208.272a20.867,20.867,0,0,0,6.48-7.92l1.008.647a21.286,21.286,0,0,1-2.592,4.2v12.313h-1.3V206.784a22.506,22.506,0,0,1-3.191,2.976Zm.168-7.009a17.5,17.5,0,0,0,5.376-5.832l1.08.576a19.062,19.062,0,0,1-5.928,6.5Zm21.889,16.178a21.441,21.441,0,0,1-7.488-3.48,22.389,22.389,0,0,1-7.3,3.48l-.672-1.152a20.934,20.934,0,0,0,6.96-3.168,14.561,14.561,0,0,1-3.576-5.5l1.2-.384a13.77,13.77,0,0,0,3.337,5.161,14.129,14.129,0,0,0,3.984-5.5H131.665V205.68H143.5v1.2a14.149,14.149,0,0,1-4.273,6.313,17.814,17.814,0,0,0,7.152,2.9Zm-4.128-15.793c0,.624.192.624.768.624h1.3c.744,0,1.009,0,1.32-2.713l1.248.528c-.288,2.833-.96,3.433-2.519,3.433h-1.873c-1.08,0-1.512-.36-1.512-1.344V197.4h-5.089c-.119,3.433-.815,5.281-3.6,7.225l-.792-.984c2.832-1.728,3.12-3.817,3.12-7.441h7.632Z" fill="#231815"/>
          <path d="M154.44,206.544A1.44,1.44,0,1,1,153,205.1,1.444,1.444,0,0,1,154.44,206.544Z" fill="#231815"/>
          <path d="M159.936,212.928c.84-.095,1.248-.144,1.848-.24V197.327h-1.8V196.1h11.209v1.224h-1.248v20.186h-1.3v-4.944a56.325,56.325,0,0,1-8.593,1.7Zm8.712-15.6H163.08v4.033h5.568Zm0,5.161H163.08v4.032h5.568Zm-5.568,9.984c.144-.024,3.6-.624,5.568-1.2v-3.624H163.08Zm7.2,3.769a18.66,18.66,0,0,0,5.3-4.705,27.346,27.346,0,0,1-3.719-11.377l1.3-.191a22.749,22.749,0,0,0,3.216,10.392,24.6,24.6,0,0,0,3.336-11.329h-8.52v-1.272h9.984c-.431,6.385-2.183,11.089-3.936,13.825a20.3,20.3,0,0,0,4.921,4.489l-.817,1.368a25.534,25.534,0,0,1-4.9-4.7,19.769,19.769,0,0,1-5.136,4.752Z" fill="#231815"/>
          <path d="M191.617,198a85,85,0,0,1-4.441,7.9c.672,0,1.584-.024,3.648-.144-.312-.84-.552-1.416-.743-1.824l.983-.36a18.528,18.528,0,0,1,1.488,4.1l-1.008.528c-.072-.336-.144-.624-.408-1.488-1.08.12-1.536.144-1.968.168v10.657H187.92V206.952c-2.785.144-3.072.168-3.768.192l-.1-1.2c.313,0,.456,0,1.9-.024.408-.672.96-1.608,1.416-2.4a26.618,26.618,0,0,0-3.336-3.025l.7-.888c.359.264.527.384.815.624a46.23,46.23,0,0,0,2.137-4.8l1.151.5c-.263.6-1.511,3.408-2.4,5.041a19.947,19.947,0,0,1,1.56,1.44c.912-1.584,1.728-3.241,2.52-4.921Zm-7.465,17.33a20.685,20.685,0,0,0,1.271-6.361l1.153.12a19.637,19.637,0,0,1-1.272,6.841Zm7.056-.624a32.848,32.848,0,0,0-.816-5.593l1.057-.24a30.431,30.431,0,0,1,1.007,5.569Zm8.449-19.154v2.136h6.216v1.176h-2.4a35.732,35.732,0,0,1-.935,3.553h2.616v4.176h-1.3v-3.024h-4.248v3.408h4.416v6.913c0,.432,0,1.512-1.68,1.512h-1.488l-.168-1.248,1.464.048c.576.024.576-.24.576-.577v-5.5h-3.12v9.409h-1.248v-9.409h-3.1V215.4h-1.248v-8.425h4.345v-3.408h-4.225v3.024h-1.271v-4.176h2.544a26.565,26.565,0,0,0-.792-3.553h-2.065v-1.176h5.809v-2.136Zm1.68,6.865a23.159,23.159,0,0,0,.816-3.553h-6.265a30.629,30.629,0,0,1,.744,3.553Z" fill="#231815"/>
          <path d="M207.7,208.272a20.867,20.867,0,0,0,6.48-7.92l1.008.647a21.286,21.286,0,0,1-2.592,4.2v12.313h-1.3V206.784a22.506,22.506,0,0,1-3.191,2.976Zm.168-7.009a17.5,17.5,0,0,0,5.376-5.832l1.08.576a19.062,19.062,0,0,1-5.928,6.5Zm21.889,16.178a21.441,21.441,0,0,1-7.488-3.48,22.389,22.389,0,0,1-7.3,3.48l-.672-1.152a20.934,20.934,0,0,0,6.96-3.168,14.561,14.561,0,0,1-3.576-5.5l1.2-.384a13.77,13.77,0,0,0,3.337,5.161,14.129,14.129,0,0,0,3.984-5.5H215.665V205.68H227.5v1.2a14.149,14.149,0,0,1-4.273,6.313,17.814,17.814,0,0,0,7.152,2.9Zm-4.128-15.793c0,.624.192.624.768.624h1.3c.744,0,1.009,0,1.32-2.713l1.248.528c-.288,2.833-.96,3.433-2.519,3.433h-1.873c-1.08,0-1.512-.36-1.512-1.344V197.4h-5.089c-.119,3.433-.815,5.281-3.6,7.225l-.792-.984c2.832-1.728,3.12-3.817,3.12-7.441h7.632Z" fill="#231815"/>
          <path d="M243.529,195.5a23.924,23.924,0,0,0,10.873,8.065l-.744,1.272c-3.337-1.56-7.9-4.1-10.73-8.065-2.975,3.768-5.88,5.713-10.728,7.9l-.649-1.344a21.683,21.683,0,0,0,10.61-7.825Zm3.072,14.041a34.33,34.33,0,0,1,6.48,7.129l-1.152.864a11.234,11.234,0,0,0-1.391-2.04c-1.3.048-7.465.576-8.738.648-1.464.1-7.921.336-9.217.432l-.143-1.3c.216,0,2.784-.072,3.168-.1a43.762,43.762,0,0,0,3.672-6.721h-6.744v-1.2h20.929v1.2H240.84a51.112,51.112,0,0,1-3.672,6.673c6.193-.24,8.376-.336,12.457-.744a40.135,40.135,0,0,0-4.008-4.009Zm-9.937-7.008h12.6v1.224h-12.6Z" fill="#231815"/>
        </g>
        <g>
          <path d="M95.448,394.316H94.127V380.635a18.525,18.525,0,0,1-2.5,3.168l-.912-1.2a26.527,26.527,0,0,0,5.881-10.3l1.32.36a32,32,0,0,1-2.472,5.712Zm17.4-15.482.049,1.176-8.593.577c1.608,11.5,5.472,12.121,5.64,12.121,1.129,0,1.728-2.689,2.041-4.057l1.248.576c-.24,1.08-1.129,4.969-3.313,4.969-2.28,0-5.928-4.273-7.033-13.513l-5.5.384-.12-1.224,5.473-.361c-.1-.792-.384-3.648-.529-7.2h1.465c.071,2.832.359,6.12.48,7.1Zm-2.472-1.488a19.7,19.7,0,0,0-4.032-3.624l.864-.888a20.707,20.707,0,0,1,4.153,3.432Z" fill="#231815"/>
          <path d="M136.417,394.22a18.433,18.433,0,0,1-10.68-10.993,22.692,22.692,0,0,1-3.529,3.024v5.785a45.853,45.853,0,0,0,6.624-1.369l.073,1.225A57.735,57.735,0,0,1,117,393.908l-.263-1.32c1.032-.072,2.256-.144,4.152-.384v-5.113a23.914,23.914,0,0,1-5.425,2.448l-.672-1.248a21.634,21.634,0,0,0,9.7-5.424h-9.482v-1.176h10.322v-2.64h-8.593v-1.1h8.593v-2.3h-9.6V374.49h9.6v-2.208h1.32v2.208h9.721v1.152h-9.721v2.3h8.616v1.1h-8.616v2.64h10.345v1.176H126.865a16.327,16.327,0,0,0,2.4,4.248,22.889,22.889,0,0,0,5.04-3.336l.96.888a25.149,25.149,0,0,1-5.256,3.36,17.684,17.684,0,0,0,7.176,4.849Z" fill="#231815"/>
          <path d="M138.936,389.707c.84-.1,1.248-.144,1.848-.24V374.106h-1.8v-1.224h11.209v1.224h-1.248v20.186h-1.3v-4.945a56.325,56.325,0,0,1-8.593,1.7Zm8.712-15.6H142.08v4.032h5.568Zm0,5.16H142.08V383.3h5.568Zm-5.568,9.985c.144-.024,3.6-.624,5.568-1.2v-3.624H142.08Zm7.2,3.769a18.676,18.676,0,0,0,5.3-4.7,27.346,27.346,0,0,1-3.719-11.377l1.3-.192a22.75,22.75,0,0,0,3.216,10.393,24.6,24.6,0,0,0,3.336-11.329h-8.52v-1.272h9.984c-.431,6.385-2.183,11.089-3.936,13.825a20.323,20.323,0,0,0,4.921,4.489l-.817,1.368a25.541,25.541,0,0,1-4.9-4.705,19.76,19.76,0,0,1-5.136,4.753Z" fill="#231815"/>
          <path d="M170.617,374.778a85.146,85.146,0,0,1-4.441,7.9c.672,0,1.584-.024,3.648-.144-.312-.84-.552-1.417-.743-1.824l.983-.361a18.556,18.556,0,0,1,1.488,4.105l-1.008.528c-.072-.336-.144-.624-.408-1.488-1.08.12-1.536.144-1.968.168v10.657H166.92V383.731c-2.785.144-3.072.168-3.768.192l-.1-1.2c.313,0,.456,0,1.9-.024.408-.672.96-1.608,1.416-2.4a26.618,26.618,0,0,0-3.336-3.025l.7-.888c.359.264.527.384.815.624a46.23,46.23,0,0,0,2.137-4.8l1.151.5c-.263.6-1.511,3.408-2.4,5.04a20.086,20.086,0,0,1,1.56,1.441c.912-1.585,1.728-3.241,2.52-4.921Zm-7.465,17.33a20.685,20.685,0,0,0,1.271-6.361l1.153.12a19.641,19.641,0,0,1-1.272,6.841Zm7.056-.624a32.848,32.848,0,0,0-.816-5.593l1.057-.24a30.435,30.435,0,0,1,1.007,5.568Zm8.449-19.154v2.136h6.216v1.176h-2.4a35.732,35.732,0,0,1-.935,3.553h2.616v4.176h-1.3v-3.025h-4.248v3.409h4.416v6.912c0,.432,0,1.513-1.68,1.513h-1.488l-.168-1.249,1.464.048c.576.024.576-.24.576-.576v-5.5h-3.12v9.409h-1.248v-9.409h-3.1v7.273h-1.248v-8.425h4.345v-3.409h-4.225v3.025h-1.271V379.2h2.544a26.565,26.565,0,0,0-.792-3.553h-2.065v-1.176h5.809V372.33Zm1.68,6.865a23.216,23.216,0,0,0,.816-3.553h-6.265a30.582,30.582,0,0,1,.744,3.553Z" fill="#231815"/>
          <path d="M186.7,385.051a20.862,20.862,0,0,0,6.48-7.921l1.008.648a21.315,21.315,0,0,1-2.592,4.2v12.313h-1.3V383.563a22.506,22.506,0,0,1-3.191,2.976Zm.168-7.009a17.5,17.5,0,0,0,5.376-5.832l1.08.576a19.062,19.062,0,0,1-5.928,6.5Zm21.889,16.178a21.416,21.416,0,0,1-7.488-3.481,22.364,22.364,0,0,1-7.3,3.481l-.672-1.152a20.933,20.933,0,0,0,6.96-3.169,14.557,14.557,0,0,1-3.576-5.5l1.2-.384a13.761,13.761,0,0,0,3.337,5.16,14.121,14.121,0,0,0,3.984-5.5H194.665v-1.224H206.5v1.2a14.143,14.143,0,0,1-4.273,6.312,17.8,17.8,0,0,0,7.152,2.9Zm-4.128-15.794c0,.625.192.625.768.625h1.3c.744,0,1.009,0,1.32-2.713l1.248.528c-.288,2.832-.96,3.433-2.519,3.433h-1.873c-1.08,0-1.512-.361-1.512-1.345v-4.776h-5.089c-.119,3.432-.815,5.28-3.6,7.225l-.792-.985c2.832-1.728,3.12-3.816,3.12-7.44h7.632Z" fill="#231815"/>
        </g>
        <rect x="40" y="730.443" width="250" height="60" rx="15" fill="#fff"/>
        <g>
          <path d="M106.633,760.32a30.58,30.58,0,0,1-10.776-3.049,44.549,44.549,0,0,1-10.609,3.121l-.625-1.32a36.688,36.688,0,0,0,9.889-2.521,22.2,22.2,0,0,1-4.368-3.336,20.125,20.125,0,0,1-4.729,2.352l-.719-1.056c6.048-2.088,7.776-5.088,8.425-6.192l1.536.192a13.267,13.267,0,0,1-1.153,1.7h9.985v1.056a16.548,16.548,0,0,1-6.241,5.328,25.893,25.893,0,0,0,9.841,2.353Zm-2.664,10.009h-1.344v-1.392H89.16v1.392H87.839v-9.481h16.13ZM102.625,762H89.16v5.736h13.465Zm-10.2-10.633a11.687,11.687,0,0,1-1.343,1.176,26.556,26.556,0,0,0,4.824,3.384,17.21,17.21,0,0,0,5.928-4.56Z" fill="#231815"/>
          <path d="M119.3,753.119v-4.776h1.32v4.776h10.37v1.224h-9.457a24.072,24.072,0,0,0,9.72,10.585l-.864,1.176a26.176,26.176,0,0,1-9.769-11.017v9.457h5.329v1.2h-5.329v4.609H119.3v-4.609h-5.352v-1.2H119.3v-9.409c-1.752,3.769-4.128,7.177-9.673,11.113l-.935-1.272c4.848-3.072,7.584-6.1,9.7-10.633h-9.385v-1.224Z" fill="#231815"/>
          <path d="M138.7,750.791v-2.424h1.368v2.424h5.112v1.152H143.3a24.044,24.044,0,0,1-1.32,5.233h3.673v1.176H133.032v-1.176h3.5a33.121,33.121,0,0,0-1.056-5.233h-1.872v-1.152Zm5.545,18.025h-8.45v1.537h-1.368v-9.409h9.818Zm-1.321-6.72h-7.129v5.568h7.129Zm-2.255-4.92a25.316,25.316,0,0,0,1.3-5.233h-5.209a51.378,51.378,0,0,1,1.1,5.233Zm5.832,13.177V749.015h7.873v1.1a36.069,36.069,0,0,1-3.265,6.889c3.217,2.592,3.768,5.04,3.768,6.7a3.8,3.8,0,0,1-4.008,4.056h-1.752l-.216-1.368,1.9.1c1.968.1,2.76-1.368,2.76-2.88,0-2.448-1.92-4.7-4.128-6.432a32.551,32.551,0,0,0,3.552-6.937h-5.16v20.114Z" fill="#231815"/>
          <path d="M163.44,759.36a1.44,1.44,0,1,1-1.44-1.441A1.444,1.444,0,0,1,163.44,759.36Z" fill="#231815"/>
          <path d="M190.633,760.32a30.58,30.58,0,0,1-10.776-3.049,44.549,44.549,0,0,1-10.609,3.121l-.625-1.32a36.688,36.688,0,0,0,9.889-2.521,22.2,22.2,0,0,1-4.368-3.336,20.125,20.125,0,0,1-4.729,2.352l-.719-1.056c6.048-2.088,7.776-5.088,8.425-6.192l1.536.192a13.267,13.267,0,0,1-1.153,1.7h9.985v1.056a16.548,16.548,0,0,1-6.241,5.328,25.893,25.893,0,0,0,9.841,2.353Zm-2.664,10.009h-1.344v-1.392H173.16v1.392h-1.321v-9.481h16.13ZM186.625,762H173.16v5.736h13.465Zm-10.2-10.633a11.687,11.687,0,0,1-1.343,1.176,26.556,26.556,0,0,0,4.824,3.384,17.21,17.21,0,0,0,5.928-4.56Z" fill="#231815"/>
          <path d="M198.7,750.791v-2.424h1.368v2.424h5.112v1.152H203.3a24.044,24.044,0,0,1-1.32,5.233h3.673v1.176H193.032v-1.176h3.5a33.121,33.121,0,0,0-1.056-5.233h-1.872v-1.152Zm5.545,18.025h-8.45v1.537h-1.368v-9.409h9.818Zm-1.321-6.72h-7.129v5.568h7.129Zm-2.255-4.92a25.316,25.316,0,0,0,1.3-5.233h-5.209a51.378,51.378,0,0,1,1.1,5.233Zm5.832,13.177V749.015h7.873v1.1a36.069,36.069,0,0,1-3.265,6.889c3.217,2.592,3.768,5.04,3.768,6.7a3.8,3.8,0,0,1-4.008,4.056h-1.752l-.216-1.368,1.9.1c1.968.1,2.76-1.368,2.76-2.88,0-2.448-1.92-4.7-4.128-6.432a32.551,32.551,0,0,0,3.552-6.937h-5.16v20.114Z" fill="#231815"/>
        </g>
        <rect x="40.079" y="484.649" width="250" height="167.283" rx="15" fill="#ffe791"/>
        <g>
          <path d="M90.225,528.125v16.85H72.008v-1.392h16.7v-14.09H72.2v-1.368Z" fill="#231815"/>
          <path d="M103.136,532.637a29.378,29.378,0,0,0-7.56-3.48l.816-1.344a32.182,32.182,0,0,1,7.584,3.408ZM95.888,544.5c7.128-.216,14.858-3.889,18.385-14.858l1.392.576a24.777,24.777,0,0,1-7.584,11.521,20.4,20.4,0,0,1-11.713,4.393Z" fill="#231815"/>
          <path d="M121.808,545.263c13.345-1.657,14.593-12.361,14.929-15.386h-17.3v-1.368h16.394a1.645,1.645,0,0,1-.073-.576,2.5,2.5,0,1,1,2.449,2.472c-.624,4.3-2.208,13.993-15.914,16.3Zm15-17.354a1.441,1.441,0,0,0,2.881,0,1.441,1.441,0,0,0-2.881,0Z" fill="#231815"/>
          <path d="M162.538,532.8c-1.2,10.441-7.249,13.034-15.554,13.9l-.384-1.44c6.889-.672,12.938-2.377,14.354-11.113h-17.69V532.8ZM161.074,527v1.368H144.992V527Z" fill="#231815"/>
          <path d="M179.481,546.991h-1.513V534.63a38.464,38.464,0,0,1-10.584,5.664l-.673-1.416a37.712,37.712,0,0,0,17.81-12.841l1.44.864a41.624,41.624,0,0,1-6.48,6.529Z" fill="#231815"/>
          <path d="M211.162,527.021c-.792,5.088-3.409,7.681-7.945,9.769l-.841-1.3c4.873-1.824,6.337-4.585,6.937-7.081H191.024v-1.392Zm-19.514,18.362c7.272-3.337,7.7-8.737,7.7-14.258h1.513c-.048,4.849-.12,11.5-8.209,15.506Z" fill="#231815"/>
          <path d="M223.136,532.637a29.378,29.378,0,0,0-7.56-3.48l.816-1.344a32.182,32.182,0,0,1,7.584,3.408ZM215.888,544.5c7.128-.216,14.858-3.889,18.385-14.858l1.392.576a24.777,24.777,0,0,1-7.584,11.521,20.4,20.4,0,0,1-11.713,4.393Z" fill="#231815"/>
          <path d="M238.64,545.455A28.309,28.309,0,0,0,253.785,528.8H239.768v-1.368h15.889a27.966,27.966,0,0,1-4.945,10.105,106.318,106.318,0,0,1,8.69,7.753l-1.2,1.152a94.859,94.859,0,0,0-8.353-7.8,29.672,29.672,0,0,1-10.321,7.969Z" fill="#231815"/>
          <path d="M151.906,559.829H141.681v1.632h8.04V566h-8.04v1.488h8.641v3.048h1.752v1.152h-1.752v4.368h-1.273V574.9h-7.368v2.113c0,.648-.024,1.728-2.112,1.728h-3.337l-.168-1.392,3.433.072c.6.024.864-.216.864-.745V574.9H131.6V573.75h8.761v-2.064h-10.3v-1.152h10.3v-1.992H131.6v-1.056h8.761V566h-8.185v-4.537h8.185v-1.632H130.28v-1.152h10.081v-1.92h1.32v1.92h10.225Zm-11.545,2.688h-6.793v2.377h6.793Zm7.992,0h-6.672v2.377h6.672Zm.7,6.025h-7.368v1.992h7.368Zm0,3.144h-7.368v2.064h7.368Z" fill="#231815"/>
          <path d="M153.751,573.99a28.048,28.048,0,0,0,5.137-8.208h-4.824v-1.177h10.057v.817a15.85,15.85,0,0,1-2.185,4.536l-1.056-.648a13.073,13.073,0,0,0,1.752-3.528h-2.544v11.209c0,1.728-1.08,1.752-1.728,1.752h-2.5l-.384-1.416,2.592.048c.48,0,.816-.1.816-.7v-8.232a27.684,27.684,0,0,1-4.248,6.6Zm6.914-9.576a21.493,21.493,0,0,0-4.321-3.361l.792-.96a14.663,14.663,0,0,1,2.184,1.488,17.141,17.141,0,0,0,2.713-3h-6.841v-1.1h8.593v1.08a18.5,18.5,0,0,1-3.529,3.768,11.55,11.55,0,0,1,1.273,1.176Zm1.631,13.177c4.105-1.777,4.969-4.225,5.425-6.649h-4.488v-1.2h4.656a18.1,18.1,0,0,0,.12-2.184h1.2a20.47,20.47,0,0,1-.095,2.184h5.856c-.071,2.256-.336,6.337-1.032,7.753a2.349,2.349,0,0,1-2.208,1.248h-2.736l-.336-1.416,2.952.048c.912.024,1.1-.336,1.248-.576.456-.864.768-3.817.841-5.857h-4.729c-.528,3.192-1.68,5.5-5.736,7.729Zm13.562-18.866V559.9H174.2a11.133,11.133,0,0,1-3.073,4.825,17.379,17.379,0,0,0,4.993,2.16l-.577,1.248a20.7,20.7,0,0,1-5.448-2.616,19.261,19.261,0,0,1-5.4,2.544l-.721-1.176a15.215,15.215,0,0,0,5.113-2.112,10.713,10.713,0,0,1-2.9-3.625,14.3,14.3,0,0,1-1.8,2.017l-1.032-.721a16.058,16.058,0,0,0,4.177-5.784l1.32.192a8.342,8.342,0,0,1-.984,1.872ZM167.1,559.9c-.072.072-.12.192-.192.264a11.5,11.5,0,0,0,3.192,3.841,10.408,10.408,0,0,0,2.689-4.105Z" fill="#231815"/>
          <path d="M199.353,566c0,3.312-.071,8.784-.552,10.512-.528,1.825-1.464,2.233-3.408,2.233H192.8l-.336-1.416,2.76.048c1.08.024,1.849.024,2.256-1.368a65.73,65.73,0,0,0,.553-8.833h-16.2a29.546,29.546,0,0,1-.791,6.5,12.066,12.066,0,0,1-2.209,4.921l-1.032-.912a10.315,10.315,0,0,0,2.017-4.417,35.061,35.061,0,0,0,.672-6.72v-8.761h17.689v5.617H181.856V566Zm-2.5-7.033h-15v3.312h15Zm-2.88,16.849H183.632v-6.6h10.345Zm-1.248-5.448H184.9v4.321h7.825Z" fill="#231815"/>
          <path d="M59.184,590.987a12.2,12.2,0,0,0,0,18.964H57.923a12.417,12.417,0,0,1,0-18.964Z" fill="#231815"/>
          <path d="M64.121,599.829a14.832,14.832,0,0,0-3.322-2.321l.541-.9a16.142,16.142,0,0,1,3.5,2.281Zm-3.282,8.862a29.582,29.582,0,0,0,4.081-7.222l.861.72a35.137,35.137,0,0,1-4.061,7.362Zm4.421-13.963a19.572,19.572,0,0,0-3.62-2.321l.58-.9a20.006,20.006,0,0,1,3.7,2.281Zm9.763,8.2a24.735,24.735,0,0,1,4.261,6.222l-1.04.62a11.279,11.279,0,0,0-.941-1.861,112.724,112.724,0,0,1-11.263.981l-.219-1.1c.88,0,1.06,0,1.46-.021a53.281,53.281,0,0,0,3.26-6.921h-4.52v-1.02H72v-4.3H66.861v-1.02H72v-3.2h1.121v3.2h5.521v1.02H73.123v4.3h6.161v1.02H71.7a68.757,68.757,0,0,1-3.181,6.861c6.4-.38,7.122-.42,8.282-.62a22.187,22.187,0,0,0-2.581-3.54Z" fill="#231815"/>
          <path d="M90.522,591.267a18.989,18.989,0,0,0,8.941,6.681l-.62,1.1c-5.841-2.7-8.081-5.742-8.821-6.762a20.365,20.365,0,0,1-8.762,6.762l-.6-1.1a18.416,18.416,0,0,0,8.721-6.681Zm7.182,9.5v6.181c0,1.281-1.04,1.361-1.521,1.361H92.922l-.219-1.1,3.38.04c.46,0,.46-.14.46-.4v-5.081H88.5v7.842h-1.18v-7.842h-5.4v-1Zm-3.061-3.621v1h-9.2v-1Z" fill="#231815"/>
          <path d="M104.521,599.209v5.841a2.931,2.931,0,0,0,1.6,2.3,8.294,8.294,0,0,0,3.781.8h9.4l-.3.96h-9.441c-.561,0-3.881-.02-5.3-2.281a25.283,25.283,0,0,1-2.881,2.821l-.6-1.04a11.774,11.774,0,0,0,2.64-2.4v-6H100.9v-1Zm0-3.821a23.746,23.746,0,0,0-3.041-2.981l.72-.74a20.9,20.9,0,0,1,3.121,2.981Zm1.62,8.041h8.922v-1.26h-8.022v-6.781h3.581v-1.5h-4.481v-.9h3.54c-.14-.26-.2-.36-.84-1.44l1-.26c.141.28.8,1.46.921,1.7h3.761c.1-.2.479-1.34.6-1.7l1.14.26c-.16.36-.54,1.1-.721,1.44h3.722v.9H114.5v1.5h3.721v6.781h-2.1v1.26h3.141v.881h-3.141v1.7c0,1.3-.64,1.42-1.3,1.42h-1.54l-.221-1.06,1.5.04c.5.02.5-.3.5-.58v-1.52h-8.922Zm5.341-7.241a3.18,3.18,0,0,1-2.28,2.7l-.481-.761c1.681-.76,1.761-1.48,1.82-1.94h-2.56v3.121h9.282v-.961h-2.381c-1.2,0-1.32-.62-1.32-1.18v-.98Zm5.781,3.961h-9.282v1.16h9.282Zm-6.281,7.021a14.419,14.419,0,0,0-2.6-1.86l.6-.74a13.792,13.792,0,0,1,2.62,1.82Zm2.58-13.263h-2.04v1.481h2.04Zm3.7,2.281H114.5v.88c0,.38.2.48.621.48h2.14Z" fill="#231815"/>
          <path d="M133.523,600.029H120.98v-1.02h12.543v-2.881h1.12v2.881H139.2v1.02h-4.561v8.062c0,.74-.16,1.48-1.52,1.48h-3l-.26-1.18,3.08.06c.581.02.581-.3.581-.56Zm-3.9-6.782v-1.98h1.1v1.98h8.041v4.281h-1.1v-3.28H122.54v3.28H121.5v-4.281Zm-1.96,13.423a27.241,27.241,0,0,0-3.3-4.521l.939-.68a26.442,26.442,0,0,1,3.381,4.421Z" fill="#231815"/>
          <path d="M147.381,601.049c-.6.28-1.18.56-2.621,1.1v5.9c0,1.36-.76,1.58-1.66,1.58h-1.681l-.259-1.16,1.62.04c.341,0,.881.02.881-.72v-5.222c-1.321.481-1.941.7-2.721.961l-.2-1.121a30.381,30.381,0,0,0,2.921-.9v-5.321h-2.742v-1h2.742v-3.9h1.1v3.9h2.621v1H144.76v4.921c1.28-.5,1.961-.84,2.541-1.12Zm-1.18-2.56c1.68-1.641,2.86-3.361,4.2-7.422l1.1.3a28.088,28.088,0,0,1-1.34,3.2h3.7a20.1,20.1,0,0,0,1.1-3.3l1.161.2c-.24.8-.82,2.321-1.161,3.1h3.961v1h-4v3.241h3.841v.96h-3.841v3.241h3.841v.98h-3.841v3.5h4.362v.981H150v1.14h-1.139V596.888a11.571,11.571,0,0,1-1.841,2.341Zm7.681-2.921H150v3.241h3.881Zm0,4.2H150v3.241h3.881Zm0,4.221H150v3.5h3.881Z" fill="#231815"/>
          <path d="M164.34,599.249v5.1c0,3.741,3.681,3.741,5.722,3.741H179.4l-.321,1.04H170.1c-2.141,0-4.562-.06-6.082-2.261a23.955,23.955,0,0,1-2.72,2.721l-.62-1.08a15.688,15.688,0,0,0,2.54-2.241v-5.961h-2.3v-1.06Zm-.179-3.761a19.275,19.275,0,0,0-3.1-2.981l.74-.82a17.922,17.922,0,0,1,3.221,3.021Zm8.641-1.16a14.8,14.8,0,0,0,1.42-3.081l1.021.32a17.813,17.813,0,0,1-1.38,2.761H178.9v.98h-5.041v2.52h4.421v.941h-4.421v2.54h4.421v.94h-4.421v2.781h5.381v.96H167.221v-9.4a15.359,15.359,0,0,1-1.961,1.941l-.76-.9a14,14,0,0,0,4.782-6.4l1.04.38a22.077,22.077,0,0,1-1.42,2.721Zm0,.98h-4.48v2.52h4.48Zm0,3.461h-4.48v2.54h4.48Zm0,3.48h-4.48v2.781h4.48Z" fill="#231815"/>
          <path d="M186.281,600.469a1.2,1.2,0,1,1-1.2-1.2A1.2,1.2,0,0,1,186.281,600.469Z" fill="#231815"/>
          <path d="M194.481,599.269v5.781c0,.9,1.24,3.161,4.86,3.161h10.082l-.12.98h-10c-2.58,0-4.261-.98-5.081-2.281a26.276,26.276,0,0,1-2.86,2.841l-.6-1a19.393,19.393,0,0,0,2.661-2.481v-6h-2.5v-1Zm-.16-3.821a19.49,19.49,0,0,0-2.961-3l.68-.76a21.425,21.425,0,0,1,3.141,2.981Zm12.923-2.8v2.521h2.02v.84H195.621v-.84h4.1a12.821,12.821,0,0,0,.481-1.621h-3.641v-.9h3.881c.04-.2.3-1.26.34-1.36l1.02.14c-.02.14-.24,1-.28,1.22Zm.439,8.042h-2.82v1.3h3.64v.9h-3.64v1.9h4.4v.9h-4.4v1.96H203.8v-1.96h-8.181v-.9h1.24v-2.8H203.8v-1.3h-6.941v-3.4h10.822Zm-1.019-2.521h-8.783v1.661h8.783Zm-2.862,4.681h-5.881v1.941H203.8Zm-2.5-9.3c-.24.921-.36,1.341-.44,1.621H206.2v-1.621Z" fill="#231815"/>
          <path d="M228.723,609.651a17.024,17.024,0,0,1-7.521-3.2,17.225,17.225,0,0,1-6.5,3.221l-.54-1.1a18.746,18.746,0,0,0,6.161-2.9,18.211,18.211,0,0,1-4.061-6.661l1.02-.48a15.749,15.749,0,0,0,3.9,6.461,15.52,15.52,0,0,0,4.461-6.942H214.161v1.561c0,2.62-.441,6.9-2.581,10.082l-1.02-.84c1.86-2.5,2.48-5.9,2.48-9.222v-7.582h15.824v1.06h-14.7v3.941h12.722v.96a17.21,17.21,0,0,1-4.841,7.722,14.784,14.784,0,0,0,7.222,2.721Z" fill="#231815"/>
          <path d="M239.5,607.21a25.065,25.065,0,0,0-2.78-3.66,16.9,16.9,0,0,1-5.121,5.781l-.7-1.04a15.111,15.111,0,0,0,5-5.642,45.976,45.976,0,0,0-4.2-3.84l.68-.861a50.8,50.8,0,0,1,4.021,3.641,18.08,18.08,0,0,0,1.38-6.181h-6.9v-1.06h4.341v-3.061h1.1v3.061h3.841v1.06h-1.281a19.025,19.025,0,0,1-1.64,7.081,30.993,30.993,0,0,1,3.22,4.061Zm3.561-2.28a26.065,26.065,0,0,0-2.74-5.421l.96-.5a27.961,27.961,0,0,1,2.861,5.4Zm4.081-9.562h2.081v1.04h-2.081v11.643a1.445,1.445,0,0,1-1.6,1.58h-3.02l-.26-1.28,3.181.04c.139,0,.56,0,.56-.461V596.408h-5.521v-1.04H246v-4.081h1.14Z" fill="#231815"/>
          <path d="M260.882,591.287v2.221H269.3v1.04H253.8v6.441c0,2.861-.519,6.3-2.2,8.562l-.92-.86c1.42-1.841,2-5.1,2-7.682v-7.5h7.062v-2.221Zm-6.9,15.783c1.32-1.96,1.8-4.9,1.98-6.881l1.021.16a17.331,17.331,0,0,1-2.021,7.242Zm9.2-7.581a14.828,14.828,0,0,0-4.421-3.041l.561-.86a16.379,16.379,0,0,1,4.581,3.141Zm-2.96-.36v8.361c0,.52.06.681.64.681h2.6c.84,0,1.04,0,1.261-3.681l1.12.34c-.36,4.261-.7,4.381-2.281,4.381H260.6c-1.04,0-1.5-.38-1.5-1.541v-8.541Zm8.182,8.361a39.865,39.865,0,0,0-2.381-7.481l1.02-.38a37.081,37.081,0,0,1,2.46,7.541Z" fill="#231815"/>
          <path d="M272.24,590.987a12.415,12.415,0,0,1,0,18.964h-1.26a12.206,12.206,0,0,0,0-18.964Z" fill="#231815"/>
        </g>
        <rect x="803.06" y="177.481" width="161.94" height="612.962" rx="15" fill="#fff"/>
        <g>
          <path d="M836.559,471.984a23.916,23.916,0,0,0,10.873,8.065l-.744,1.272c-3.337-1.56-7.9-4.1-10.73-8.065-2.975,3.769-5.879,5.713-10.728,7.9l-.649-1.344a21.673,21.673,0,0,0,10.61-7.825Zm3.072,14.041a34.4,34.4,0,0,1,6.481,7.129l-1.153.864a11.179,11.179,0,0,0-1.391-2.04c-1.3.048-7.465.576-8.737.648-1.464.1-7.921.336-9.217.432l-.144-1.3c.216,0,2.784-.072,3.168-.1a43.714,43.714,0,0,0,3.672-6.721h-6.744v-1.2H846.5v1.2H833.871a51.165,51.165,0,0,1-3.672,6.673c6.192-.24,8.376-.336,12.457-.744a40.288,40.288,0,0,0-4.009-4.009Zm-9.937-7.008h12.6v1.224h-12.6Z" fill="#231815"/>
          <path d="M859.311,476.161v1.176H849.085v-1.176Zm-.744-3.313v1.176h-8.641v-1.176Zm0,6.529v1.176h-8.641v-1.176Zm0,3.24v1.176h-8.641v-1.176Zm0,3.289v6.888H851.2v1.224h-1.272v-8.112Zm-1.248,1.127H851.2v4.633h6.121Zm1.992-6.6v-1.3H864.3v-7.129H865.7v7.129h5.351v1.3H865.7v13.585H864.3V480.433Z" fill="#231815"/>
          <path d="M892.768,492.1h2.256v1.248H873.062V492.1h2.353v-6.409h17.353Zm-8.642-19.274v1.056H879.9v2.088h3.408v4.249H879.9v2.52h4.32v1.1H874.165V472.824Zm-5.4,1.056H875.39v2.088h3.336Zm3.337,3.1H875.39v2.184h6.673Zm-3.337,3.24H875.39v2.52h3.336Zm2.064,6.7h-4.1V492.1h4.1Zm5.353,0h-4.152V492.1h4.152Zm-2.424-8.425a11.99,11.99,0,0,0,4.008-6.5l1.248.264a14.824,14.824,0,0,1-.816,2.328h6.865v1.2h-7.489a10.847,10.847,0,0,1-2.9,3.528Zm10.753,3.816h-8.521v-1.224h8.521Zm-2.953,4.609H887.3V492.1h4.224Z" fill="#231815"/>
          <path d="M915.4,481.177V492h3.672v1.2h-22.01V492h3.528V481.177h6.792v-5.424a25.525,25.525,0,0,1-10.032,6.456l-.648-1.128a24.421,24.421,0,0,0,9.361-5.641H897.35v-1.2h10.032v-2.232h1.273v2.232h10.056v1.2H909.9a20.757,20.757,0,0,0,9.217,5.737l-.648,1.128c-5.545-2.04-8.761-5.136-9.817-6.624v5.5Zm-1.3,1.128H901.886v2.4H914.1Zm0,3.552H901.886v2.329H914.1Zm0,3.481H901.886V492H914.1Z" fill="#231815"/>
          <path d="M932.823,471.984v2.929a25.1,25.1,0,0,0,2.664,11.04,18.121,18.121,0,0,0,7.921,6.913l-1.056,1.224c-5.953-3.48-9.025-7.1-10.2-14.329-.528,3.792-2.137,10.273-10.633,14.137l-.864-1.2c2.9-1.392,6.7-3.72,8.5-7.441a27.518,27.518,0,0,0,2.208-10.3v-2.976Z" fill="#231815"/>
        </g>
        <g>
          <path d="M528.295,215.617h2.256v1.248H508.589v-1.248h2.353v-6.409h17.353Zm-8.641-19.274V197.4H515.43v2.089h3.408v4.248H515.43v2.52h4.32v1.1H509.693V196.343Zm-5.4,1.056h-3.336v2.089h3.336Zm3.337,3.1h-6.673v2.185h6.673Zm-3.337,3.241h-3.336v2.52h3.336Zm2.065,6.7h-4.105v5.185h4.105Zm5.352,0h-4.152v5.185h4.152Zm-2.423-8.424a11.987,11.987,0,0,0,4.007-6.505l1.248.264a14.789,14.789,0,0,1-.816,2.328h6.865v1.2h-7.489a10.875,10.875,0,0,1-2.9,3.528ZM530,205.824h-8.521V204.6H530Zm-2.953,4.608h-4.223v5.185h4.223Z" fill="#231815"/>
          <path d="M550.927,204.7v10.825H554.6v1.2h-22.01v-1.2h3.529V204.7h6.792v-5.424a25.538,25.538,0,0,1-10.033,6.456l-.648-1.128a24.421,24.421,0,0,0,9.361-5.641h-8.713v-1.2H542.91v-2.233h1.272v2.233h10.057v1.2H545.43a20.763,20.763,0,0,0,9.217,5.737L554,205.824c-5.544-2.04-8.76-5.136-9.817-6.625v5.5Zm-1.3,1.128H537.414v2.4H549.63Zm0,3.552H537.414V211.7H549.63Zm0,3.481H537.414v2.664H549.63Z" fill="#231815"/>
          <path d="M556.253,208.272a20.86,20.86,0,0,0,6.481-7.92l1.008.648a21.369,21.369,0,0,1-2.592,4.2v12.313h-1.3V206.784a22.555,22.555,0,0,1-3.191,2.976Zm.168-7.009a17.475,17.475,0,0,0,5.376-5.832l1.08.576a19.048,19.048,0,0,1-5.927,6.5Zm21.89,16.178a21.441,21.441,0,0,1-7.488-3.48,22.389,22.389,0,0,1-7.3,3.48l-.672-1.152a20.934,20.934,0,0,0,6.96-3.168,14.549,14.549,0,0,1-3.576-5.5l1.2-.384a13.77,13.77,0,0,0,3.337,5.161,14.112,14.112,0,0,0,3.983-5.5H564.222V205.68h11.833v1.2a14.15,14.15,0,0,1-4.272,6.313,17.814,17.814,0,0,0,7.152,2.9Zm-4.128-15.793c0,.624.191.624.768.624h1.3c.744,0,1.008,0,1.32-2.713l1.248.529c-.288,2.832-.96,3.432-2.52,3.432h-1.873c-1.08,0-1.511-.36-1.511-1.344V197.4h-5.089c-.119,3.433-.816,5.281-3.6,7.225l-.792-.984c2.832-1.728,3.12-3.817,3.12-7.441h7.633Z" fill="#231815"/>
        </g>
        <rect x="358.061" y="354.406" width="370.991" height="436.037" rx="15" fill="#ffe791"/>
        <g>
          <g>
            <polyline points="687.996 661.989 687.996 666.989 682.996 666.989" fill="none" stroke="#29a199" stroke-miterlimit="10" stroke-width="4"/>
            <line x1="672.667" y1="666.989" x2="409.283" y2="666.989" fill="none" stroke="#29a199" stroke-miterlimit="10" stroke-width="4" stroke-dasharray="10.329 10.329"/>
            <polyline points="404.118 666.989 399.118 666.989 399.118 661.989" fill="none" stroke="#29a199" stroke-miterlimit="10" stroke-width="4"/>
            <line x1="399.118" y1="652.257" x2="399.118" y2="501.416" fill="none" stroke="#29a199" stroke-miterlimit="10" stroke-width="4" stroke-dasharray="9.732 9.732"/>
            <polyline points="399.118 496.55 399.118 491.55 404.118 491.55" fill="none" stroke="#29a199" stroke-miterlimit="10" stroke-width="4"/>
            <line x1="414.447" y1="491.55" x2="677.831" y2="491.55" fill="none" stroke="#29a199" stroke-miterlimit="10" stroke-width="4" stroke-dasharray="10.329 10.329"/>
            <polyline points="682.996 491.55 687.996 491.55 687.996 496.55" fill="none" stroke="#29a199" stroke-miterlimit="10" stroke-width="4"/>
            <line x1="687.996" y1="506.282" x2="687.996" y2="657.123" fill="none" stroke="#29a199" stroke-miterlimit="10" stroke-width="4" stroke-dasharray="9.732 9.732"/>
          </g>
          <rect x="455.508" y="487.18" width="176.098" height="8.047" fill="#ffe791"/>
          <g>
            <path d="M484.23,478.843v3.7h9.241v16.178c0,1.728-.312,2.16-1.92,2.16h-3.984l-.288-1.345,4.1.048c.575,0,.7-.144.7-.744V483.691h-7.752c.239,2.424,1.223,6.072,7.272,10.609l-1.009,1.032c-3-2.472-5.759-5.4-6.984-9.145-1.056,3.625-2.256,5.953-7.345,9.049l-.792-1.128c6.049-2.9,6.937-7.489,7.3-10.417H474.99v17.186h-1.368V482.539h9.216v-3.7Z" fill="#231815"/>
            <path d="M502.253,481.291v-2.425h1.369v2.425h5.112v1.152h-1.872a24.06,24.06,0,0,1-1.321,5.233h3.673v1.175H496.589v-1.175h3.5a33.26,33.26,0,0,0-1.055-5.233h-1.873v-1.152Zm5.545,18.025h-8.449v1.536h-1.368v-9.408H507.8Zm-1.32-6.72h-7.129v5.568h7.129Zm-2.256-4.92a25.316,25.316,0,0,0,1.3-5.233h-5.209a51.651,51.651,0,0,1,1.1,5.233Zm5.832,13.176V479.515h7.873v1.1a36.024,36.024,0,0,1-3.264,6.889c3.216,2.591,3.768,5.04,3.768,6.7a3.8,3.8,0,0,1-4.009,4.056H512.67l-.215-1.368,1.9.1c1.968.1,2.76-1.368,2.76-2.88,0-2.448-1.92-4.7-4.128-6.432a32.551,32.551,0,0,0,3.552-6.937h-5.161v20.113Z" fill="#231815"/>
            <path d="M540.295,498.932h2.256v1.248H520.589v-1.248h2.353v-6.408h17.353Zm-8.641-19.274v1.057H527.43V482.8h3.408v4.248H527.43v2.521h4.32v1.1H521.693V479.658Zm-5.4,1.057h-3.336V482.8h3.336Zm3.337,3.1h-6.673V486h6.673Zm-3.337,3.24h-3.336v2.521h3.336Zm2.065,6.7h-4.105v5.184h4.105Zm5.352,0h-4.152v5.184h4.152Zm-2.423-8.425a11.985,11.985,0,0,0,4.007-6.5l1.248.264a14.86,14.86,0,0,1-.816,2.328h6.865v1.2h-7.489a10.854,10.854,0,0,1-2.9,3.528ZM542,489.139h-8.521v-1.224H542Zm-2.953,4.609h-4.223v5.184h4.223Z" fill="#231815"/>
            <path d="M562.927,488.011v10.825H566.6v1.2h-22.01v-1.2h3.529V488.011h6.792v-5.424a25.549,25.549,0,0,1-10.033,6.457l-.648-1.129a24.43,24.43,0,0,0,9.361-5.64h-8.713v-1.2H554.91v-2.232h1.272v2.232h10.057v1.2H557.43a20.768,20.768,0,0,0,9.217,5.736L566,489.139c-5.544-2.04-8.76-5.136-9.817-6.624v5.5Zm-1.3,1.128H549.414v2.4H561.63Zm0,3.553H549.414v2.328H561.63Zm0,3.48H549.414v2.664H561.63Z" fill="#231815"/>
            <path d="M580.878,496.82a24.639,24.639,0,0,0-3.6-2.616c-.288,3.6-1.321,5.352-2.3,6.577l-1.08-.937c1.656-1.8,2.16-3.888,2.16-8.568h-1.272v-1.033l-.912.961a10.789,10.789,0,0,1-1.128-2.257V500.8h-1.248V489.187A20.058,20.058,0,0,1,568.95,495l-.769-1.224a20.334,20.334,0,0,0,3.216-8.689h-2.808v-1.176h2.9v-5.064h1.248v5.064h2.28v1.176h-2.28v1.368a14.962,14.962,0,0,0,2.088,3.768h7.321c-.313-1.824-.528-3.624-.7-11.376h1.295c.144,7.56.289,9.313.672,11.376h7.129v1.057h-6.913a14.506,14.506,0,0,0,1.585,4.656,11.319,11.319,0,0,0,2.688-3.48l1.08.6a18.394,18.394,0,0,1-3.12,3.912,6.833,6.833,0,0,0,2.664,2.448c.624,0,.96-1.752,1.248-3.192l1.224.672c-.672,3.048-1.488,3.841-2.448,3.841-1.08,0-2.809-1.848-3.648-2.977a21.517,21.517,0,0,1-5.545,2.784l-.648-1.128a16.778,16.778,0,0,0,5.5-2.688,15.505,15.505,0,0,1-1.872-5.448h-4.969c0,.7,0,1.056-.023,1.656a18.9,18.9,0,0,1,4.273,2.928Zm-1.152-11.737a18.868,18.868,0,0,1,1.344,3.552l-1.1.409c-.192-.625-.216-.744-.312-.985-2.281.217-3.048.288-5.281.385l-.143-1.105c.479,0,.624,0,.912-.024.48-.552.888-1.008,2.16-2.64-.408-.384-1.8-1.656-2.9-2.472l.744-.864c.312.216.336.24.695.5a20.158,20.158,0,0,0,2.257-2.9l1.032.456a30.979,30.979,0,0,1-2.448,3.168c.792.72,1.056.96,1.3,1.2.312-.432,1.7-2.256,1.968-2.64l.936.6c-1.056,1.512-3.5,4.56-4.368,5.52.239,0,2.544-.144,2.832-.168-.336-.936-.456-1.2-.624-1.584Zm9.577-.456a20.689,20.689,0,0,1,1.153,3.384l-1.153.528c-.168-.7-.216-.863-.312-1.2-.552.072-2.617.36-5.233.552l-.168-1.128a3.27,3.27,0,0,1,.433-.024c.6-.624,1.536-1.776,1.848-2.16a24.559,24.559,0,0,0-2.617-2.544l.7-.792a5.436,5.436,0,0,1,.672.5,28.414,28.414,0,0,0,1.8-2.808l1.08.528c-.767,1.224-1.775,2.544-2.111,2.976l1.224,1.224c1.1-1.368,1.488-1.872,2.04-2.664l.936.648c-1.08,1.488-3.457,4.272-4.152,4.992.647-.048.912-.048,3.264-.264-.24-.7-.336-.96-.48-1.3Zm-1.944,5.545c-.384-.241-1.561-.912-2.16-1.2l.6-.983a25.4,25.4,0,0,1,2.257,1.224Z" fill="#231815"/>
            <path d="M600.342,480.067a40.866,40.866,0,0,1,3.576,5.04l-1.08.744a17.247,17.247,0,0,0-.96-1.656c-1.129.168-1.944.24-9.1.936l-.168-1.32c.288.024,1.3-.048,1.656-.048.624-1.2,1.44-3.216,2.089-4.824l1.319.336c-.359.7-1.8,3.792-2.136,4.416,3.865-.24,4.3-.264,5.713-.432-.984-1.416-1.392-1.944-1.873-2.544Zm2.136,6.816v12.265c0,1.224-.528,1.68-1.752,1.68h-2.473l-.263-1.368,2.591.1c.625.024.625-.336.625-.624V495.38h-6.193v5.448h-1.271V486.883Zm-1.272,1.224h-6.193v2.424h6.193Zm0,3.528h-6.193v2.617h6.193Zm5.184-12.792V482.9a23.032,23.032,0,0,0,6.7-2.88l.888,1.032A25.169,25.169,0,0,1,606.39,484v3.168c0,.48,0,.888.889.888h4.608c.888,0,1.2,0,1.368-3.48l1.248.432c-.192,3.145-.36,4.2-2.208,4.2h-5.256c-1.513,0-1.945-.649-1.945-1.777v-8.592Zm0,11.161v3.888a17.526,17.526,0,0,0,6.6-2.856l.912,1.032a22.838,22.838,0,0,1-7.513,2.976v3.072c0,.744.072,1.032,1.152,1.032h4.345c.672,0,.816-.119.96-.528a14.755,14.755,0,0,0,.384-3.24l1.3.336c-.336,3.84-.384,4.656-2.569,4.656h-4.7c-.624,0-2.16,0-2.16-1.824V490Z" fill="#231815"/>
            <path d="M506.191,535.82a30.589,30.589,0,0,1-10.776-3.049,44.6,44.6,0,0,1-10.61,3.121l-.624-1.32a36.7,36.7,0,0,0,9.889-2.521,22.2,22.2,0,0,1-4.368-3.336,20.144,20.144,0,0,1-4.729,2.352l-.72-1.056c6.048-2.088,7.777-5.088,8.425-6.192l1.536.191a13.282,13.282,0,0,1-1.152,1.705h9.984v1.056a16.545,16.545,0,0,1-6.24,5.328,25.882,25.882,0,0,0,9.841,2.352Zm-2.664,10.008h-1.344v-1.392H488.717v1.392H487.4v-9.48h16.13Zm-1.344-8.328H488.717v5.736h13.466Zm-10.2-10.633a11.72,11.72,0,0,1-1.344,1.176,26.629,26.629,0,0,0,4.824,3.384,17.217,17.217,0,0,0,5.929-4.56Z" fill="#231815"/>
            <path d="M515.766,537.5a22.463,22.463,0,0,1-2.328-3.961v12.289H512.19V534.692a18.842,18.842,0,0,1-3.121,5.76l-.768-1.08a22.4,22.4,0,0,0,3.817-8.137h-3.577v-1.176h3.649v-3.984a28.061,28.061,0,0,1-3.192.456l-.409-1.08a27.12,27.12,0,0,0,7.057-1.417l.744.865a16.4,16.4,0,0,1-2.952.912v4.248h3v1.176h-2.952a23.566,23.566,0,0,0,2.952,5.113Zm8.185-9.433h6.432v1.1h-6.432V530.9h5.376v7.561h-5.376v1.968h6.072v1.1h-6.072v2.424h6.6v1.128H516.1v-1.128h6.648v-2.424h-5.9v-1.1h5.9V538.46h-5.3V530.9h5.3v-1.728h-6.312v-1.1h6.312v-2.04c-2.352.288-3.192.36-5.088.48l-.48-1.056a55.794,55.794,0,0,0,11.185-1.561l.72.961a31.434,31.434,0,0,1-5.136,1.008Zm-1.2,3.888h-4.127v2.184h4.127Zm0,3.217h-4.127v2.208h4.127Zm5.353-3.217h-4.152v2.184H528.1Zm0,3.217h-4.152v2.208H528.1Z" fill="#231815"/>
            <path d="M544.086,523.819a23.93,23.93,0,0,0,10.873,8.064l-.744,1.273c-3.337-1.561-7.9-4.1-10.729-8.065-2.976,3.768-5.88,5.712-10.729,7.9l-.648-1.345a21.674,21.674,0,0,0,10.609-7.824Zm3.073,14.041a34.333,34.333,0,0,1,6.48,7.129l-1.152.863a11.2,11.2,0,0,0-1.392-2.04c-1.3.048-7.465.576-8.737.648-1.464.1-7.921.337-9.217.432L533,543.6c.215,0,2.784-.072,3.167-.1a43.745,43.745,0,0,0,3.672-6.72h-6.744v-1.2h20.93v1.2H541.4a51.1,51.1,0,0,1-3.672,6.672c6.192-.24,8.376-.336,12.457-.744a40.2,40.2,0,0,0-4.009-4.008Zm-9.938-7.009h12.6v1.224h-12.6Z" fill="#231815"/>
            <path d="M563.766,527.947v1.128h-7.2v-1.128Zm-.553-3.36v1.152h-5.807v-1.152Zm0,6.576v1.176h-5.807v-1.176Zm0,3.264V535.6h-5.807v-1.177Zm0,3.313v6.816h-4.584v1.3h-1.223V537.74Zm-1.223,1.1h-3.361v4.632h3.361Zm6.456-2.16h3.984c-.191-1.344-.239-2.328-.288-3.193h1.2a24.149,24.149,0,0,0,.24,3.193h4.945v1.056h-4.8a16.514,16.514,0,0,0,.815,3.144,10.028,10.028,0,0,0,1.969-2.568l1.056.576a15.729,15.729,0,0,1-2.544,3.12c.528,1.056,1.32,2.185,1.776,2.185.576,0,1.056-2.185,1.2-2.833l1.056.744c-.432,1.368-1.128,3.6-2.064,3.6-.648,0-1.728-.768-2.832-2.928a15.979,15.979,0,0,1-3.889,2.353l-.84-1.057a14.4,14.4,0,0,0,4.248-2.4,18.9,18.9,0,0,1-1.08-3.936h-4.152v2.4c1.633-.36,2.184-.528,2.9-.72v1.008c-1.655.48-2.424.672-2.9.768v2.928c0,.865-.048,1.728-1.728,1.728H564.99l-.36-1.224,1.993.048c.624.024.624-.191.624-.7v-2.5c-1.489.336-2.4.48-3.337.648l-.144-1.224c1.992-.24,2.9-.408,3.481-.528v-2.64H563.91v-1.056h3.337V535.2c-1.345.168-1.8.215-2.521.288l-.408-1.177a28.51,28.51,0,0,0,6.072-.792l.721,1.033a20.907,20.907,0,0,1-2.665.5Zm-.672-10.729a14.64,14.64,0,0,0-1.151-1.56l1.175-.529a15.054,15.054,0,0,1,1.321,2.089h3.528a8.934,8.934,0,0,0,1.176-2.089l1.175.361a12.227,12.227,0,0,1-1.007,1.728h4.128v1.032h-6.433v1.8h5.377v1.056h-5.377v1.968h6.841v1.032H563.91v-1.032h6.552v-1.968H564.99v-1.056h5.472v-1.8h-6.288v-1.032Zm8.808,10.2a9.547,9.547,0,0,0-2.015-2.041l.935-.624a8.442,8.442,0,0,1,2.017,1.92Z" fill="#231815"/>
            <path d="M585.15,545.852h-1.32V531.715a19.636,19.636,0,0,1-2.641,3.553l-.912-1.368a24.47,24.47,0,0,0,5.761-10.081l1.295.408a37.72,37.72,0,0,1-2.183,5.136Zm.72-5.856a23.147,23.147,0,0,0,7.848-10.417h-7.032v-1.248h7.248v-4.488h1.32v4.488H602.5v1.248h-7.056a21.309,21.309,0,0,0,7.248,9.889l-.72,1.272a21.94,21.94,0,0,1-6.721-8.761v8.065h4.369v1.176h-4.369v4.632h-1.32V541.22H589.59v-1.176h4.344v-8.113a23.653,23.653,0,0,1-7.393,9.313Z" fill="#231815"/>
            <path d="M506.191,567.02a30.589,30.589,0,0,1-10.776-3.049,44.554,44.554,0,0,1-10.61,3.121l-.624-1.321a36.683,36.683,0,0,0,9.889-2.52,22.2,22.2,0,0,1-4.368-3.336,20.144,20.144,0,0,1-4.729,2.352l-.72-1.056c6.048-2.088,7.777-5.088,8.425-6.193l1.536.193a13.422,13.422,0,0,1-1.152,1.7h9.984v1.056a16.545,16.545,0,0,1-6.24,5.328,25.909,25.909,0,0,0,9.841,2.353Zm-2.664,10.009h-1.344v-1.393H488.717v1.393H487.4v-9.481h16.13Zm-1.344-8.329H488.717v5.736h13.466Zm-10.2-10.633a11.72,11.72,0,0,1-1.344,1.176,26.629,26.629,0,0,0,4.824,3.384,17.217,17.217,0,0,0,5.929-4.56Z" fill="#231815"/>
            <path d="M515.766,568.7a22.381,22.381,0,0,1-2.328-3.961v12.29H512.19V565.891a18.835,18.835,0,0,1-3.121,5.761l-.768-1.08a22.4,22.4,0,0,0,3.817-8.137h-3.577v-1.176h3.649v-3.984a28.061,28.061,0,0,1-3.192.456l-.409-1.08a27.205,27.205,0,0,0,7.057-1.416l.744.864a16.422,16.422,0,0,1-2.952.911v4.249h3v1.176h-2.952a23.623,23.623,0,0,0,2.952,5.113Zm8.185-9.433h6.432v1.1h-6.432V562.1h5.376v7.561h-5.376v1.968h6.072v1.1h-6.072v2.424h6.6v1.128H516.1v-1.128h6.648v-2.424h-5.9v-1.1h5.9V569.66h-5.3V562.1h5.3v-1.728h-6.312v-1.1h6.312v-2.04c-2.352.288-3.192.36-5.088.48l-.48-1.056a55.941,55.941,0,0,0,11.185-1.56l.72.96a31.557,31.557,0,0,1-5.136,1.008Zm-1.2,3.888h-4.127v2.185h4.127Zm0,3.216h-4.127v2.209h4.127Zm5.353-3.216h-4.152v2.185H528.1Zm0,3.216h-4.152v2.209H528.1Z" fill="#231815"/>
            <path d="M553.951,566.468c-5.977-1.825-8.328-3.721-9.769-5.377V565.1H542.91v-4.008a21.606,21.606,0,0,1-9.792,5.377l-.553-1.249A22.588,22.588,0,0,0,542,560.491H532.83v-1.152h10.08V557.2c-1.128.072-1.848.072-8.256.192l-.361-1.2c7.369-.048,11.5-.048,16.658-1.128l.816,1.128a66.8,66.8,0,0,1-7.585.936v2.208h10.153v1.152h-9.216c1.368,1.3,3.935,3.289,9.5,4.608Zm-.936,10.417a47.539,47.539,0,0,0-7.705-2.785c-1.632,1.08-5.592,2.664-11.473,2.856l-.336-1.224c6.553-.264,9.817-1.872,10.2-2.064-2.137-.5-4.345-.984-7.826-1.584a34.746,34.746,0,0,0,3.025-3.048h-6.337v-1.224h7.392c1.081-1.344,1.537-2.016,1.825-2.448l1.344.5c-.384.529-.768,1.08-1.488,1.945h12.889v1.224H549.51a13,13,0,0,1-3,4.128,40.084,40.084,0,0,1,7.153,2.52Zm-12.385-7.849c-1.249,1.44-1.705,1.9-2.136,2.328,1.08.168,2.856.48,6.625,1.416a10.235,10.235,0,0,0,2.9-3.744Z" fill="#231815"/>
            <path d="M563.957,574.364a24.831,24.831,0,0,1-6.839,2.688l-.649-1.344a18.9,18.9,0,0,0,6.5-2.28Zm12.434-11.569v10.129H558.534V562.795Zm-.721-6.889v5.185H559.3v-5.185ZM559.877,563.9v1.9h15.194v-1.9Zm0,2.977v1.92h15.194v-1.92Zm0,3v1.944h15.194v-1.944Zm.745-12.817v2.952h13.705v-2.952ZM571.9,573.4a19.222,19.222,0,0,0,6.648,2.328l-.744,1.368a27.361,27.361,0,0,1-6.793-2.76Z" fill="#231815"/>
            <path d="M592.086,555.018a23.926,23.926,0,0,0,10.873,8.065l-.744,1.272c-3.337-1.56-7.9-4.1-10.729-8.064-2.976,3.768-5.88,5.712-10.729,7.9l-.648-1.344a21.67,21.67,0,0,0,10.609-7.825Zm3.073,14.042a34.359,34.359,0,0,1,6.48,7.128l-1.152.864a11.2,11.2,0,0,0-1.392-2.04c-1.3.048-7.465.576-8.737.648-1.464.1-7.921.336-9.217.433L581,574.8c.215,0,2.784-.072,3.167-.1a43.745,43.745,0,0,0,3.672-6.72h-6.744v-1.2h20.93v1.2H589.4a51.1,51.1,0,0,1-3.672,6.672c6.192-.24,8.376-.336,12.457-.744a40.2,40.2,0,0,0-4.009-4.008Zm-9.938-7.009h12.6v1.224h-12.6Z" fill="#231815"/>
            <path d="M495.379,593.467c-.072-3.672-2.112-4.776-5.688-4.776-5.112,0-6.289,2.04-6.289,8.545,0,4.968.553,7.92,6.144,7.92,3.889,0,5.809-.84,5.833-5.232h1.68c.048,6.192-4.224,6.648-7.177,6.648-6.192,0-8.088-2.256-8.088-9.433,0-5.736.768-9.864,7.777-9.864,6.144,0,7.32,3.024,7.44,6.192Z" fill="#231815"/>
            <path d="M512.467,592.915c0-2.352-.5-4.224-5.377-4.224-3.5,0-5.088,1.032-5.088,3.816,0,1.9.792,2.9,2.9,3.144L510,596.2c1.536.168,4.992.553,4.992,4.993,0,3.672-1.968,5.376-7.345,5.376-6.024,0-7.464-2.448-7.513-6.1h1.657c0,2.664.576,4.68,5.9,4.68,4.848,0,5.688-1.56,5.688-3.84,0-2.016-.648-3.336-3.384-3.624l-5.281-.577c-2.928-.312-4.344-2.016-4.344-4.656,0-5.184,4.728-5.184,6.6-5.184,6.528,0,7.081,2.784,7.129,5.64Z" fill="#231815"/>
            <path d="M527.562,587.467c1.728,0,5.449.072,5.449,4.776,0,2.784-1.08,4.152-3.169,4.657,1.777.407,2.953,1.319,2.953,4.488v1.848a10.058,10.058,0,0,0,.312,3.144h-1.7a15.811,15.811,0,0,1-.216-3.024v-1.968c0-3.6-1.92-3.84-3.889-3.84h-6.792v8.832H518.9V587.467Zm-7.056,1.416v7.224h6.817c1.679,0,4.08,0,4.08-3.744,0-2.832-1.3-3.48-3.912-3.48Z" fill="#231815"/>
            <path d="M557.275,597.668c-5.977-1.825-8.328-3.721-9.769-5.377V596.3h-1.272v-4.009a21.606,21.606,0,0,1-9.792,5.377l-.553-1.249a22.588,22.588,0,0,0,9.433-4.728h-9.168v-1.152h10.08V588.4c-1.128.072-1.848.072-8.256.191l-.36-1.2c7.368-.049,11.5-.049,16.657-1.129l.816,1.129a67,67,0,0,1-7.585.936v2.208H557.66v1.152h-9.217c1.368,1.3,3.935,3.288,9.5,4.609Zm-.936,10.416a47.592,47.592,0,0,0-7.705-2.784c-1.632,1.08-5.592,2.665-11.472,2.856l-.336-1.224c6.552-.264,9.816-1.872,10.2-2.064-2.137-.5-4.345-.984-7.825-1.584a34.851,34.851,0,0,0,3.024-3.048h-6.337v-1.225h7.393c1.08-1.343,1.536-2.016,1.824-2.448l1.345.5c-.385.527-.769,1.08-1.489,1.943h12.889v1.225h-5.017a12.982,12.982,0,0,1-3,4.128,39.93,39.93,0,0,1,7.153,2.521Zm-12.384-7.848c-1.249,1.44-1.706,1.9-2.137,2.328,1.08.168,2.856.48,6.625,1.416a10.235,10.235,0,0,0,2.9-3.744Z" fill="#231815"/>
            <path d="M567.282,605.564a24.8,24.8,0,0,1-6.84,2.688l-.649-1.344a18.888,18.888,0,0,0,6.5-2.28ZM579.715,594v10.129H561.858V594Zm-.72-6.888v5.184h-16.37v-5.184ZM563.2,595.1V597H578.4v-1.9Zm0,2.976V600H578.4v-1.921Zm0,3v1.944H578.4v-1.944Zm.744-12.817v2.952h13.7v-2.952ZM575.227,604.6a19.2,19.2,0,0,0,6.648,2.328l-.744,1.369a27.494,27.494,0,0,1-6.793-2.761Z" fill="#231815"/>
            <path d="M595.411,586.218a23.916,23.916,0,0,0,10.873,8.065l-.744,1.272c-3.337-1.56-7.9-4.1-10.73-8.065-2.976,3.769-5.88,5.713-10.729,7.9l-.648-1.344a21.67,21.67,0,0,0,10.609-7.825Zm3.072,14.042a34.33,34.33,0,0,1,6.48,7.128l-1.152.864a11.2,11.2,0,0,0-1.392-2.04c-1.3.048-7.464.576-8.737.648-1.464.1-7.921.337-9.217.432l-.143-1.3c.216,0,2.784-.072,3.168-.1a43.8,43.8,0,0,0,3.672-6.721h-6.745v-1.2h20.93v1.2H592.722a51.047,51.047,0,0,1-3.672,6.673c6.193-.24,8.376-.336,12.457-.744A40.087,40.087,0,0,0,597.5,601.1Zm-9.938-7.009h12.6v1.224h-12.6Z" fill="#231815"/>
            <path d="M440.622,619.747v-2.3H441.8v2.3h3.841v1.176H441.8v2.232h3.313v8.473H441.8v2.4h4.033v1.152H441.8v4.248h-1.175V635.18h-4.057v-1.152h4.057v-2.4h-3.289v-8.473h3.289v-2.232h-3.817v-1.176Zm0,4.536h-2.136v2.544h2.136Zm0,3.624h-2.136V630.5h2.136Zm3.312-3.624H441.8v2.544h2.137Zm0,3.624H441.8V630.5h2.137Zm1.416-5.208a15.3,15.3,0,0,0,5.784-5.256h1.536a12.864,12.864,0,0,0,6.217,5.256l-.72,1.152c-3.144-1.488-4.1-2.568-6.241-5.3a18.247,18.247,0,0,1-5.808,5.3Zm6.192,15.529c0,1.056-.408,1.2-1.416,1.2h-1.272l-.24-1.248,1.129.048c.576.025.6-.384.6-.6v-3.337h-2.76v5.136h-1.176v-12.96h5.136Zm-1.2-10.609h-2.76v2.257h2.76Zm0,3.337h-2.76v2.28h2.76Zm5.233-6.673h-7.3v-1.128h7.3Zm-.985,2.568v8.9h-1.248v-8.9Zm3.217-1.175v12.265c0,1.487-.984,1.487-1.464,1.487h-2.3l-.264-1.248,2.328.048c.432,0,.432-.312.432-.552v-12Z" fill="#231815"/>
            <path d="M464,619.267v7.08h6.864v-8.9h1.344v8.9H479.1v-7.08h1.344V627.5h-8.233v9.385h7.92V629.42h1.345v10.032h-1.345V638.06H462.845v1.392H461.5V629.42h1.344v7.465h8.017V627.5h-8.233v-8.233Z" fill="#231815"/>
            <path d="M484.494,634.844c.839-.1,1.248-.144,1.847-.24V619.243h-1.8v-1.224H495.75v1.224H494.5v20.185h-1.3v-4.944a56.351,56.351,0,0,1-8.593,1.7Zm8.712-15.6h-5.569v4.032h5.569Zm0,5.16h-5.569v4.033h5.569Zm-5.569,9.985c.145-.024,3.6-.624,5.569-1.2v-3.624h-5.569Zm7.2,3.768a18.668,18.668,0,0,0,5.3-4.7,27.345,27.345,0,0,1-3.72-11.377l1.3-.192a22.753,22.753,0,0,0,3.217,10.393,24.6,24.6,0,0,0,3.336-11.329H495.75v-1.272h9.985c-.432,6.384-2.184,11.089-3.937,13.825a20.382,20.382,0,0,0,4.921,4.489l-.816,1.368a25.574,25.574,0,0,1-4.9-4.7,19.764,19.764,0,0,1-5.135,4.753Z" fill="#231815"/>
            <path d="M520.71,618.283V625.1h-9.025c0,.072-.479,2.761-.888,4.2h9.913c-.456,10.128-2.76,10.128-5.424,10.128H511.9l-.361-1.463,3.817.144c2.088.071,3.336-.049,3.912-7.633h-10.1c.36-1.3,1.2-5.3,1.392-6.529h8.809v-4.44H509.309v-1.224Zm8.329-.816v21.985h-1.392V617.467Z" fill="#231815"/>
            <path d="M543.079,619.363v1.1h-4.154a20.513,20.513,0,0,1,.912,2.664l-1.271.192a17.822,17.822,0,0,0-.912-2.856h-1.7a11.326,11.326,0,0,1-2.641,2.832l-.888-.936a12.448,12.448,0,0,0,3.769-4.992l1.344.24a15.224,15.224,0,0,1-.888,1.752Zm-.217,4.872v-1.392h1.3v1.392h9.888v4.32H552.7v-3.191H534.414v3.191h-1.273v-4.32Zm8.3,2.76v4.513H537.1v1.9h15.7v6.073h-1.272V638.3H537.1v1.176h-1.3V627Zm-14.064,1.08v2.353h12.745v-2.353Zm0,6.409V637.2h14.425v-2.713Zm17.5-15.121v1.1h-5.593a15.715,15.715,0,0,1,1.177,2.688l-1.3.168a26.774,26.774,0,0,0-1.2-2.856h-2.208a9.309,9.309,0,0,1-1.968,2.232l-1.056-.792a10.983,10.983,0,0,0,3.169-4.512l1.32.264a11.516,11.516,0,0,1-.792,1.7Z" fill="#231815"/>
            <path d="M564.342,635.084a51.374,51.374,0,0,1-7.729,2.064l-.24-1.2c.745-.144,2.688-.576,3.577-.768v-7.824h-3.025v-1.177h3.025v-6.264h-3.337v-1.152h7.633v1.152H561.2v6.264h2.616v1.177H561.2v7.488a16.961,16.961,0,0,0,3.048-1.056Zm13.417-16.993v10.993H572v3.192h6.025v1.176H572v4.224h6.577v1.177H563.526v-1.177h7.2v-4.224h-5.809v-1.176h5.809v-3.192h-5.64V618.091Zm-7.033,1.152h-4.368v3.744h4.368Zm0,4.848h-4.368v3.84h4.368Zm5.737-4.848H572v3.744h4.465Zm0,4.848H572v3.84h4.465Z" fill="#231815"/>
            <path d="M601.951,628.868c-5.977-1.824-8.328-3.721-9.769-5.377V627.5H590.91v-4.009a21.6,21.6,0,0,1-9.792,5.377l-.553-1.249A22.588,22.588,0,0,0,590,622.891H580.83v-1.152h10.08V619.6c-1.128.072-1.848.072-8.256.192l-.361-1.2c7.369-.048,11.5-.048,16.658-1.128l.816,1.128a66.8,66.8,0,0,1-7.585.936v2.208h10.153v1.152h-9.216c1.368,1.3,3.935,3.288,9.5,4.609Zm-.936,10.416a47.721,47.721,0,0,0-7.705-2.784c-1.632,1.08-5.592,2.665-11.473,2.857l-.336-1.224c6.553-.265,9.817-1.873,10.2-2.065-2.137-.5-4.345-.984-7.826-1.584a34.746,34.746,0,0,0,3.025-3.048h-6.337v-1.224h7.392c1.081-1.344,1.537-2.016,1.825-2.449l1.344.5c-.384.528-.768,1.08-1.488,1.944h12.889v1.224H597.51a13,13,0,0,1-3,4.128,40.05,40.05,0,0,1,7.153,2.521Zm-12.385-7.848c-1.249,1.44-1.705,1.9-2.136,2.328,1.08.168,2.856.48,6.625,1.416a10.235,10.235,0,0,0,2.9-3.744Z" fill="#231815"/>
            <path d="M611.957,636.764a24.766,24.766,0,0,1-6.839,2.688l-.649-1.343a18.917,18.917,0,0,0,6.5-2.281ZM624.391,625.2v10.128H606.534V625.2Zm-.721-6.889v5.184H607.3v-5.184ZM607.877,626.3v1.9h15.194v-1.9Zm0,2.976v1.92h15.194v-1.92Zm0,3v1.944h15.194v-1.944Zm.745-12.817v2.952h13.705v-2.952ZM619.9,635.8a19.2,19.2,0,0,0,6.648,2.329l-.744,1.368a27.439,27.439,0,0,1-6.793-2.761Z" fill="#231815"/>
            <path d="M640.086,617.419a23.93,23.93,0,0,0,10.873,8.064l-.744,1.273c-3.337-1.56-7.9-4.105-10.729-8.065-2.976,3.768-5.88,5.712-10.729,7.9l-.648-1.345a21.674,21.674,0,0,0,10.609-7.824Zm3.073,14.041a34.333,34.333,0,0,1,6.48,7.129l-1.152.863a11.237,11.237,0,0,0-1.392-2.04c-1.3.048-7.465.577-8.737.648-1.464.1-7.921.337-9.217.432L629,637.2c.215,0,2.784-.073,3.167-.1a43.745,43.745,0,0,0,3.672-6.72h-6.744v-1.2h20.93v1.2H637.4a51.1,51.1,0,0,1-3.672,6.672c6.192-.24,8.376-.335,12.457-.744a40.2,40.2,0,0,0-4.009-4.008Zm-9.938-7.009h12.6v1.225h-12.6Z" fill="#231815"/>
          </g>
        </g>
      </g>
    </g>
  </g>
</svg>
